<svg viewBox="0 0 1024 1024" xmlns="http://www.w3.org/2000/svg" fill="currentColor" height="1em" width="1em">
    <path d="M448.426667 427.221333V311.424c0-13.056 10.581333-23.637333 23.637333-23.637333h81.536c13.056 0 23.637333 10.581333 23.637333 23.637333v211.968c0 3.242667-1.621333 5.717333-3.242666 8.149333l-20.394667 20.394667c-4.906667 4.906667-4.906667 12.245333 0 16.298667l20.394667 20.394666a10.496 10.496 0 0 1 3.242666 8.149334V712.533333a23.637333 23.637333 0 0 1-23.637333 23.637334h-81.536a23.637333 23.637333 0 0 1-23.637333-23.637334v-211.968c0-3.242667 1.621333-5.717333 3.242666-8.149333l20.394667-20.394667c4.906667-4.906667 4.906667-12.245333 0-16.298666l-20.394667-20.394667a10.410667 10.410667 0 0 1-3.242666-8.106667zM816.085333 512a304.085333 304.085333 0 1 0-608.170666 0 304.085333 304.085333 0 0 0 608.170666 0z m96.213334 0c0 220.928-179.370667 399.488-399.488 399.488-220.928 0-399.488-179.370667-399.488-399.488 0-220.928 179.370667-399.488 399.488-399.488S912.298667 291.072 912.298667 512zM32.597333 512c0 264.96 214.4 479.402667 479.402667 479.402667S991.402667 776.96 991.402667 512 776.96 32.597333 512 32.597333 32.597333 247.04 32.597333 512zM0 512C0 229.077333 229.077333 0 512 0s512 229.077333 512 512-229.077333 512-512 512S0 794.922667 0 512z"></path>
</svg>
