<svg viewBox="0 0 1024 1024" xmlns="http://www.w3.org/2000/svg" fill="currentColor" height="1em" width="1em">
    <path d="M432.00000031 432.00000031H112.20000031A80.08000031 80.08000031 0 0 0 32 512c0 44.47999969 35.92000031 79.99999969 80.20000031 79.99999969H432.00000031v319.8c0 44.32000031 35.80000031 80.20000031 79.99999969 80.20000031 44.47999969 0 79.99999969-35.92000031 79.99999969-80.20000031V591.99999969h319.8A80.08000031 80.08000031 0 0 0 992 512c0-44.47999969-35.92000031-79.99999969-80.20000031-79.99999969H591.99999969V112.20000031A80.08000031 80.08000031 0 0 0 512 32c-44.47999969 0-79.99999969 35.92000031-79.99999969 80.20000031V432.00000031z"
         ></path>
</svg>
