<svg viewBox="0 0 1024 1024" xmlns="http://www.w3.org/2000/svg" fill="currentColor" height="1em" width="1em">
    <path d="M192 85.333333A106.666667 106.666667 0 0 0 85.333333 192v640A106.666667 106.666667 0 0 0 192 938.666667h640a106.666667 106.666667 0 0 0 106.666667-106.666667v-640A106.666667 106.666667 0 0 0 832 85.333333h-640zM170.666667 192a21.333333 21.333333 0 0 1 21.333333-21.333333h640a21.333333 21.333333 0 0 1 21.333333 21.333333v640a21.333333 21.333333 0 0 1-21.333333 21.333333h-640a21.333333 21.333333 0 0 1-21.333333-21.333333v-640z"></path>
    <path d="M192 170.666667a21.333333 21.333333 0 0 0-21.333333 21.333333v640a21.333333 21.333333 0 0 0 21.333333 21.333333h640a21.333333 21.333333 0 0 0 21.333333-21.333333v-640a21.333333 21.333333 0 0 0-21.333333-21.333333h-640zM341.333333 320v341.333333h128a42.666667 42.666667 0 1 1 0 85.333334H298.666667a42.666667 42.666667 0 0 1-42.666667-42.666667v-384a42.666667 42.666667 0 0 1 85.333333 0z m213.333334 384v-148.565333V448a42.666667 42.666667 0 0 1 85.333333-1.28 151.466667 151.466667 0 0 1 9.984-5.205333C681.088 426.666667 709.12 426.666667 724.437333 426.666667H725.333333a42.666667 42.666667 0 1 1 0 85.333333c-14.165333 0-25.6 0.298667-38.570666 6.485333-11.52 5.546667-28.16 17.749333-46.762667 47.786667V704a42.666667 42.666667 0 1 1-85.333333 0z"></path>
</svg>
