<svg viewBox="0 0 1024 1024" xmlns="http://www.w3.org/2000/svg" fill="currentColor" height="1em" width="1em">
    <path d="M172.18370333 75.09333333c-53.39970333 0-97.09036999 43.69066667-97.09037 97.09037v679.63259334c0 53.39970333 43.69066667 97.09036999 97.09037 97.09037h679.63259334c53.39970333 0 97.09036999-43.69066667 97.09037-97.09037V172.18370333c0-53.39970333-43.69066667-97.09036999-97.09037-97.09037H172.18370333z m91.7504 242.72592555h131.072c112.91610112 0 126.36311666 103.88669667 126.36311779 126.46020779 0 90.29404445-63.15728555 121.84841443-121.89696 121.84841443H345.19874333v135.48961223H263.98264889V317.81925888z m81.26464 63.25437667v121.89696h54.27351779c36.11761778 0 45.14702222-27.08821333 45.14702222-58.69112888 0-31.65146112-13.4955611-63.20583111-45.14702222-63.20583112H345.19874333z m320.68949333 31.55437c67.72053333 0 103.83815111 40.68086557 103.83815111 90.34259h-76.70139222c0-22.57351111-9.07795001-36.11761778-27.18530332-36.11761777-13.4955611 0-27.08821333 9.07795001-27.08821333 27.13675889 0 45.14702222 131.072 31.55436999 131.072 130.92636445C769.77493333 692.63663445 702.00585443 706.18074112 665.88823666 706.18074112c-72.23523555 0-108.35285333-49.66172445-108.35285333-94.80874667h72.23523555c0 36.11761778 27.08821333 40.68086557 36.11761778 40.68086443 18.05880889 0 31.55436999-9.07795001 31.55437113-27.13675776 0-40.63232-131.02345443-36.11761778-131.02345558-126.46020779 0-67.72053333 63.3029211-85.82788779 99.46908445-85.82788778z"></path>
</svg>
