<svg viewBox="0 0 1024 1024" xmlns="http://www.w3.org/2000/svg" fill="currentColor" height="1em" width="1em">
    <path d="M668.84949333 474.66875221c-14.8062811 0-25.58331221 5.97105778-32.42818332 17.91317334s-10.24303445 33.20490667-10.24303446 63.7398289v21.31133554c0 30.34074112 3.20398222 51.55498667 9.66049224 63.59419335s17.33063111 18.05880889 32.71945443 18.05880889c15.92282112 0 27.96202667-7.08759666 36.11761778-21.31133668V497.43644445c-7.91286557-15.14609778-19.85498112-22.76769223-35.82634667-22.76769224zM851.81629667 75.09333333H172.18370333a97.09036999 97.09036999 0 0 0-97.09037 97.09037v679.63259334a97.09036999 97.09036999 0 0 0 97.09037 97.09037h679.63259334a97.09036999 97.09036999 0 0 0 97.09037-97.09037V172.18370333a97.09036999 97.09036999 0 0 0-97.09037-97.09037z m-423.60528668 645.65096334l-56.89495666-144.76174222L314.76091221 720.74429667H217.71908779l99.56617443-208.79284224-97.57582222-205.34613333h95.87674112l55.72987221 142.23739335 55.72987222-142.23739335h95.87674112l-97.28455112 205.34613333 99.56617444 208.79284224h-96.99328z m357.58383446 0h-73.1090489l-3.68943445-31.31164444c-16.50536334 24.66095445-37.71960889 36.99143111-63.73982777 36.99143111-32.23400334 0-56.84641223-12.33047666-73.83722666-36.99143111s-25.63185778-60.87566222-26.02021888-108.64412444v-23.30168889c0-50.43844779 8.54395221-88.06096555 25.58331221-112.91610112s41.89449443-37.28270222 74.51685888-37.28270223c23.69004999 0 43.44794112 10.24303445 59.17658112 30.72910223V283.83763001h81.07045888v436.90666666z"></path>
</svg>
