<svg viewBox="0 0 1024 1024" version="1.1" xmlns="http://www.w3.org/2000/svg" fill="currentColor" height="1em" width="1em">
  <path d="M 452.759 56.3 L 56.3 743.002 L 56.3 940.358 C 56.3 955.358 68.452 967.548 83.262 967.7 L 464.152 967.7 L 272.758 636.444 L 607.697 56.3 L 452.759 56.3 Z M 648.71 56.3 L 464.152 375.974 L 605.418 620.495 L 967.7 620.495 L 967.7 83.566 C 967.7 68.49 955.548 56.3 940.358 56.3 L 648.71 56.3 Z M 443.645 411.48 L 365.417 547.241 C 356.682 562.393 356.682 581.001 365.417 596.153 C 374.151 611.343 390.1 620.457 407.569 620.457 L 564.405 620.457 L 443.645 411.48 Z M 325.163 656.039 L 505.164 967.7 L 940.738 967.7 C 955.548 967.548 967.7 955.396 967.7 940.434 L 967.7 656.001 L 325.163 656.039 Z"/>
</svg>
