<svg viewBox="0 0 1024 1024" version="1.1" xmlns="http://www.w3.org/2000/svg"
    fill="currentColor" height="1em" width="1em">
  <path d="M 445.44 0 L 424.96 35.456 L 675.84 470.016 L 947.2 0 L 445.44 0 Z M 993.28 0 L 627.328 633.856 L 1024 633.856 L 1024 30.336 C 1023.79 13.52 1010.1 -0.001 993.28 0 Z M 401.92 75.392 L 245.76 345.856 L 558.08 345.856 L 401.92 75.392 Z M 468.608 385.024 L 467.84 385.024 C 452.48 385.237 437.973 394.24 430.336 407.339 L 384.128 487.552 L 383.787 488.149 C 376.284 501.686 376.284 518.133 383.787 531.669 C 399.33 558.607 414.875 585.544 430.421 612.48 C 438.272 625.707 453.035 633.813 468.181 633.856 C 468.267 633.856 527.061 633.941 556.373 633.813 C 571.733 633.6 586.197 625.067 593.835 611.968 C 609.365 585.045 625.024 558.165 640.469 531.157 C 647.979 517.76 647.723 501.163 640.171 488.021 L 639.744 487.381 L 593.749 407.595 L 593.493 407.211 C 585.655 393.842 571.48 385.456 555.989 385.024 L 555.477 385.024 L 468.608 385.024 Z M 222.72 385.707 L 0 771.499 L 0 788.139 L 0.128 995.968 C 1.44 1010.94 13.39 1022.76 28.373 1023.91 L 396.8 385.707 L 222.72 385.707 Z M 348.16 549.76 L 74.069 1024 L 621.909 1024 L 348.16 549.76 Z M 465.792 673.749 L 668.032 1024 L 993.28 1024 C 1010.25 1024 1024 1010.25 1024 993.28 L 1024 673.792 L 465.792 673.749 Z"/>
</svg>
