<?xml version="1.0" standalone="no"?><!DOCTYPE svg PUBLIC "-//W3C//DTD SVG 1.1//EN"
        "http://www.w3.org/Graphics/SVG/1.1/DTD/svg11.dtd">
<svg t="1677732030720" class="icon" viewBox="0 0 1024 1024" version="1.1" xmlns="http://www.w3.org/2000/svg" p-id="3277"
     width="1em" height="1em">
    <path d="M512 85.333333c235.648 0 426.666667 191.018667 426.666667 426.666667s-191.018667 426.666667-426.666667 426.666667S85.333333 747.648 85.333333 512 276.352 85.333333 512 85.333333z m0 85.333334a341.333333 341.333333 0 1 0 0 682.666666 341.333333 341.333333 0 0 0 0-682.666666z m-40.405333 156.586666l121.856 369.706667h-83.968l-27.050667-89.685333H361.898667l-27.648 89.685333H256L378.453333 327.253333h93.141334z m256.213333 0v369.706667h-78.549333V327.253333h78.506666z m-303.36 75.562667H420.693333l-43.306666 144.64h89.898666L424.448 402.773333z"
          fill="#333333" p-id="3278"></path>
</svg>