<svg viewBox="0 0 1024 1024" xmlns="http://www.w3.org/2000/svg" fill="currentColor" height="1em" width="1em">
    <path d="M511.658667 83.882667c-18.517333 0-37.12 3.669333-54.613334 10.965333L75.904 252.458667c-21.461333 8.874667-20.906667 38.741333 0.512 47.616l383.232 151.808a139.349333 139.349333 0 0 0 104.704 0l383.232-151.808c21.461333-8.362667 21.461333-38.741333 0.512-47.616l-382.165333-157.610667a138.88 138.88 0 0 0-54.272-10.965333zM998.4 343.722667a25.130667 25.130667 0 0 0-9.472 1.92l-427.178667 165.418666a26.112 26.112 0 0 0-16.213333 24.064v379.562667a25.6 25.6 0 0 0 35.029333 23.552L1007.786667 772.266667a24.874667 24.874667 0 0 0 16.213333-23.509334V369.194667a25.6 25.6 0 0 0-25.6-25.429334zM28.842667 345.386667a27.477333 27.477333 0 0 0-20.48 8.106666C3.669333 358.229333 0 363.946667 0 370.773333v356.48c0 18.858667 21.973333 31.445333 38.741333 23.04l267.52-128.256 13.098667-6.272 126.677333-61.269333c19.882667-9.386667 18.346667-38.741333-2.602666-46.592L37.674667 347.221333a24.32 24.32 0 0 0-8.832-1.877333z"></path>
</svg>
