<svg viewBox="0 0 1024 1024" version="1.1" xmlns="http://www.w3.org/2000/svg"
    fill="currentColor" height="1em" width="1em">
  <path d="M 255.915 68.565 L 0 512 L 255.915 955.434 L 768.085 955.434 L 1024 512 L 768.085 68.565 L 255.915 68.565 Z M 425.173 303.786 L 540.16 422.4 L 608.341 490.453 L 608.427 490.368 L 711.253 591.189 C 702.72 597.162 694.784 601.941 687.232 605.866 C 680.41 609.458 673.337 612.552 666.069 615.125 C 660.163 617.193 654.099 618.777 647.936 619.861 C 642.347 620.842 637.269 621.312 632.661 621.312 C 627.115 621.312 622.336 620.714 618.24 619.861 C 614.737 619.165 611.308 618.136 608 616.789 C 604.971 615.533 602.106 613.914 599.467 611.968 L 554.155 565.376 L 424.491 435.626 L 377.557 480.554 L 246.571 611.626 C 243.922 613.535 241.058 615.124 238.037 616.362 C 234.776 617.727 231.389 618.77 227.925 619.477 C 223.179 620.438 218.347 620.91 213.504 620.885 C 208.896 620.885 203.819 620.501 198.229 619.562 C 192.063 618.437 185.998 616.81 180.096 614.698 C 172.828 612.126 165.755 609.032 158.933 605.44 C 150.626 601.072 142.603 596.184 134.912 590.805 L 425.173 303.786 Z M 626.56 337.28 L 821.931 533.461 L 880.896 591.189 C 873.191 596.583 865.154 601.485 856.832 605.866 C 850.039 609.457 842.995 612.552 835.755 615.125 C 829.835 617.196 823.756 618.78 817.579 619.861 C 812.032 620.842 806.869 621.312 802.219 621.312 C 796.715 621.312 791.936 620.714 787.84 619.861 C 782.065 618.681 776.518 616.578 771.413 613.632 C 770.584 613.171 769.823 612.596 769.152 611.925 L 716.587 559.957 L 626.517 469.888 L 612.267 484.138 L 545.707 418.133 L 626.603 337.194 L 626.56 337.28 Z M 372.011 513.066 L 372.011 620.97 C 366.915 620.9 361.834 620.4 356.821 619.477 C 350.698 618.306 344.678 616.651 338.816 614.528 C 331.666 611.987 324.707 608.936 317.995 605.397 C 309.807 601.059 301.898 596.214 294.315 590.89 L 371.968 513.024 L 372.011 513.066 Z"/>
</svg>
