<svg viewBox="0 0 1024 1024" xmlns="http://www.w3.org/2000/svg" fill="currentColor" height="1em" width="1em">
    <path d="M469.333333 85.333333h85.333334v85.333334h21.333333A64 64 0 0 1 640 234.666667V384l-18.773333 18.773333 69.973333 121.173334C738.56 477.44 768 413.013333 768 341.333333h85.333333c0 103.253333-45.653333 195.84-118.186666 258.56l133.973333 232.106667 5.546667 94.72-79.786667-52.053333-130.986667-227.413334c-45.226667 22.613333-97.28 35.413333-151.893333 35.413334-54.613333 0-106.666667-12.8-151.893333-35.413334L229.12 874.666667 149.333333 926.72l5.546667-94.72L402.773333 402.773333 384 384V234.666667A64 64 0 0 1 448 170.666667h21.333333V85.333333M402.773333 573.013333c33.28 15.786667 70.4 24.32 109.226667 24.32 38.826667 0 75.946667-8.533333 109.226667-24.32L558.933333 465.066667h-0.426666c-26.453333 25.6-66.56 25.6-93.013334 0h-0.426666l-62.293334 107.946666M512 256a42.666667 42.666667 0 0 0-42.666667 42.666667 42.666667 42.666667 0 0 0 42.666667 42.666666 42.666667 42.666667 0 0 0 42.666667-42.666666 42.666667 42.666667 0 0 0-42.666667-42.666667z"
          fill=""></path>
</svg>
