<svg viewBox="0 0 1024 1024" xmlns="http://www.w3.org/2000/svg" fill="currentColor" height="1em" width="1em">
    <path d="M512 32c-66.30000001 0-128.70000001 12.6-186.90000001 37.50000001s-109.50000001 59.10000001-152.99999998 102.59999998-77.70000001 94.50000001-102.60000002 153.00000002S32 445.69999999 32 512s12.6 128.70000001 37.50000001 186.90000001 59.10000001 109.50000001 102.59999998 152.69999999c43.50000001 43.50000001 94.50000001 77.70000001 152.70000001 102.6S445.69999999 992 512 992s128.70000001-12.6 186.90000001-37.50000001 109.50000001-59.10000001 152.69999999-102.59999998c43.50000001-43.50000001 77.70000001-94.50000001 102.6-152.70000001S992 578.30000001 992 512s-12.6-128.70000001-37.50000001-186.90000001-59.10000001-109.50000001-102.59999998-152.69999999c-43.50000001-43.50000001-94.50000001-77.70000001-152.70000001-102.6S578.30000001 32 512 32z m196.8 719.10000001c-4.50000001 0-8.70000001-0.90000001-12.6-2.70000001s-8.70000001-5.10000001-13.50000001-9.29999999l-247.49999999-199.8-83.4 208.2H280.4l209.10000001-504.30000001c3-6.90000001 7.2-12 12.59999998-15.6 5.4-3.30000001 11.4-5.10000001 18.30000001-5.09999999 6.30000001 0 12 1.8 17.4 5.09999999 5.4 3.30000001 9.30000001 8.70000001 11.69999999 15.6l191.40000002 459.30000001c1.2 3 2.10000001 6 2.39999998 8.4 0.30000001 2.4 0.6 4.50000001 0.6 5.69999999 0 9.90000001-3.30000001 18.30000001-10.2 24.90000001s-15.30000001 9.6-24.89999999 9.6z m-252-267.30000001L644.30000001 632 520.4 325.4l-63.6 158.4z"
         ></path>
</svg>
