<svg viewBox="0 0 1024 1024" xmlns="http://www.w3.org/2000/svg" fill="currentColor" height="1em" width="1em">
    <path d="M768 63.9H256c-105.6 0-192 86.4-192 192V768c0 105.6 86.4 192 192 192h512c105.6 0 192-86.4 192-192V256c0.1-105.7-86.3-192.1-192-192.1z m-65.2 606.5c-2.2 9.6-6.1 18.6-12.2 26.6s-13.8 14.7-23 19.5c-9.3 5.1-18.9 8-29.1 9.9-19.2 3.5-32.6 4.5-44.8 2.2-11.8-2.2-22.1-7.4-30.4-14.1-12.2-10.2-19.5-24-21.1-38.4-1.9-17 4.2-34.9 17.9-48.3 7-6.7 15.7-12.2 27.2-16.3 12.2-4.5 25.6-7 46.1-10.9 5.4-1 10.9-1.9 16.3-2.9 7-1.3 13.1-2.9 18.2-8.6 5.1-5.8 5.1-12.5 5.1-19.2V398.7c0-13.1-6.4-16.6-19.8-14.4-9.6 1.6-216.7 40.3-216.7 40.3-11.8 2.6-15.7 6.1-15.7 19.5V695c0 9.9-0.6 18.6-2.9 28.5-2.2 9.6-6.1 18.6-12.2 26.6s-13.8 14.7-23 19.5c-9.3 5.1-18.9 8-29.1 9.9-19.2 3.5-32.6 4.5-44.8 2.2-11.8-2.2-22.1-7.4-30.4-14.4-12.2-10.2-18.9-24-20.8-38.4-1.9-17 3.5-34.9 17.3-48.3 7-6.7 15.7-12.2 27.2-16.3 12.2-4.5 25.6-7 46.1-10.9 5.4-1 10.9-1.9 16.3-2.9 7-1.3 13.1-2.9 18.2-8.6 4.8-5.4 5.4-12.2 5.4-18.9V334.3c0-3.8 0.3-6.4 0.6-7.7 1-6.1 3.5-11.2 8.3-15 3.8-3.2 9-5.1 15.7-6.4L662 258.5c2.2-0.3 20.2-3.5 22.1-3.5 13.4-1 21.1 7 21.1 20.5V642c-0.2 9.9-0.2 18.5-2.4 28.4z"></path>
</svg>
