<svg viewBox="0 0 1024 1024" xmlns="http://www.w3.org/2000/svg" fill="currentColor" height="1em" width="1em">
    <path d="M1016.32 512a246.613333 246.613333 0 0 0-250.88-241.92c-12.373333 0-25.6 0.853333-38.4 2.133333-107.52 15.786667-179.2 93.013333-218.88 152.32-40.533333-59.306667-112.64-136.533333-219.306667-152.32-12.8-1.28-25.6-2.133333-38.4-2.133333A246.613333 246.613333 0 0 0 0 512a246.613333 246.613333 0 0 0 250.453333 241.92c12.8 0 25.6-0.853333 39.253334-2.56 107.52-15.36 179.2-92.586667 219.306666-151.893333 40.533333 59.306667 112.213333 136.533333 219.306667 152.32 13.226667 1.28 25.6 2.133333 38.826667 2.133333A246.613333 246.613333 0 0 0 1016.32 512zM276.48 665.6c-8.533333 1.706667-18.346667 1.706667-26.88 1.706667A160.853333 160.853333 0 0 1 85.333333 511.146667a161.28 161.28 0 0 1 164.693334-156.16c8.533333 0 17.92 0.853333 26.88 1.706666 101.12 14.933333 162.986667 113.92 183.893333 154.453334-21.333333 40.533333-83.2 140.8-183.893333 154.453333zM554.666667 512c20.906667-39.68 82.773333-139.52 183.893333-154.453333 8.533333-1.706667 17.92-1.706667 26.453333-1.706667A160.426667 160.426667 0 0 1 930.133333 512a161.28 161.28 0 0 1-164.693333 156.16c-8.533333 0-17.92-0.853333-26.453333-1.706667-100.693333-14.933333-162.986667-114.773333-183.893334-154.453333z m-375.04 25.173333h151.04v-49.493333H180.053333v49.493333z m602.88 0h50.773333v-49.493333h-51.2v-50.773333H733.866667v51.2H682.666667v49.066666h51.2v50.346667h49.066666V537.6zM1024 301.226667c0 12.8-9.386667 21.76-22.613333 21.76a21.76 21.76 0 0 1-22.613334-21.333334c0-11.946667 10.24-22.186667 22.613334-22.186666 13.226667 0 22.613333 9.386667 22.613333 21.76z m-38.826667 0c0 9.386667 6.826667 17.066667 17.066667 17.066666 9.386667 0 16.213333-7.68 16.213333-17.066666s-6.826667-17.066667-16.213333-17.066667c-10.24-0.853333-17.066667 6.826667-17.066667 17.066667z m12.8 11.093333h-4.266666V290.133333l8.533333-0.426666c3.84 0 5.973333 0.426667 7.68 1.28 1.706667 0.853333 2.56 2.56 2.56 4.693333 0 2.56-1.706667 4.266667-4.693333 4.693333 2.133333 0.853333 2.986667 2.56 3.84 5.546667l1.28 5.546667h-5.12c-0.853333-0.853333-0.853333-2.986667-1.706667-5.546667-0.853333-2.133333-1.706667-2.986667-4.693333-2.986667h-2.133334l-0.853333 9.386667z m0.853334-12.8h2.56c2.986667 0 4.266667-0.426667 4.266666-2.986667 0-2.133333-1.28-2.986667-4.266666-2.986666h-2.986667v5.973333h0.426667z"></path>
</svg>
