<svg viewBox="0 0 1024 1024" xmlns="http://www.w3.org/2000/svg" fill="currentColor" height="1em" width="1em">
    <path d="M512 45.70241949c11.24342321 0 22.02478948 4.46656577 29.9744558 12.41623347l353.25574385 353.25574385c16.55356398 16.55497657 16.55356398 43.39393502 0 59.94891297-16.55497657 16.55639056-43.395349 16.55639056-59.95032557 0L512 148.04202035 188.71871332 471.32189442c-16.55356398 16.55639056-43.395349 16.55639056-59.94891297 0-16.55497657-16.55497657-16.55497657-43.39393502 0-59.94891297l353.25574385-353.25574386C489.97521052 50.16898387 500.75798938 45.70241949 512 45.70241949z"
         ></path>
    <path d="M512 45.70241949c23.41096449 0 42.39068927 18.97972478 42.39068927 42.39068926l0 847.81378388c0 23.41096449-18.97972478 42.39068927-42.39068927 42.39068926s-42.39068927-18.97972478-42.39068927-42.39068926l0-847.81378388C469.60931073 64.68073028 488.58903551 45.70241949 512 45.70241949z"
         ></path>
</svg>
