<svg viewBox="0 0 1024 1024" xmlns="http://www.w3.org/2000/svg" fill="currentColor" height="1em" width="1em">
    <path d="M511.99837812 452a60 60 0 1 0 60.01312501 60 60.12 60.12 0 0 0-60.015-60z m401.57062501-180c-20.394375-36.5625-75.95625001-95.15625001-218.01562501-78.515625C655.23337813 97.390625 593.81212813 32 511.99650313 32s-143.23125001 65.390625-183.555 161.484375C186.38025313 177.078125 130.82212813 235.4375 110.42775312 272 79.71712813 327.078125 82.29525313 409.109375 157.54462812 512 82.29525313 614.890625 79.71712813 696.921875 110.42775312 752c54.61875001 98.203125 190.588125 81.796875 218.01375001 78.515625C368.76337813 926.609375 430.18087812 992 511.99650313 992s143.236875-65.390625 183.556875-161.484375c27.429375 3.28125001 163.395 19.6875 218.015625-78.515625 30.710625-55.078125 28.1325-137.109375-47.11875-240 75.25124999-102.890625 77.829375-184.921875 47.11875-240zM210.76087812 692c-7.5-13.59375001-0.234375-46.40625001 28.13250001-90.46875001a690.973125 690.973125 0 0 0 41.025 35.85937501c3.04875001 25.78125001 7.5 50.859375 12.65625 75.234375-46.1775 1.640625-74.77875001-8.203125-81.81375001-20.625z m69.15937501-305.390625a690.94875001 690.94875001 0 0 0-41.02687501 35.85937499c-28.36875001-44.0625-35.6325-76.875-28.1325-90.46874999 6.331875-11.484375 30.710625-21.5625 71.034375-21.5625 3.28125001 0 7.265625 0.703125 10.78124999 0.703125a830.953125 830.953125 0 0 0-12.65624999 75.46875zM511.99650313 152c17.81624999 0 41.73 25.3125 63.530625 69.84375001-21.0975 7.03125001-42.195 15-63.530625 24.14062499a814.94624999 814.94624999 0 0 0-63.53062501-24.14062501C470.27212813 177.3125 494.18025313 152 511.99837812 152z m0 720c-17.81624999 0-41.72624999-25.3125-63.53062501-69.84375001 21.10125001-7.03125001 42.19874999-15 63.53062501-24.14062499a816.05625001 816.05625001 0 0 0 63.530625 24.14062501C553.72650313 846.6875 529.81087813 872 511.99650313 872z m0-210a150 150 0 1 1 149.99999998-150 150 150 0 0 1-149.99999998 150z m301.2375 30c-6.796875 12.421875-35.6325 22.265625-81.81375001 20.625 5.16-24.375 9.613125-49.453125 12.66000001-75.234375a689.73 689.73 0 0 0 41.02125-35.85937501c28.36875001 44.0625 35.6325 76.875 28.1325 90.46875001z m-28.1325-269.53125001a689.754375 689.754375 0 0 0-41.02312501-35.85937499 829.665 829.665 0 0 0-12.66-75.46875c3.515625 0 7.50375001-0.703125 10.785-0.703125 40.32 0 64.7025 10.078125 71.03062501 21.5625 7.5 13.59375001 0.234375 46.40625001-28.1325 90.46875001z"
         ></path>
</svg>
