<svg viewBox="0 0 1024 1024" version="1.1" xmlns="http://www.w3.org/2000/svg"
    fill="currentColor" height="1em" width="1em">
  <path d="M 512.015 354.241 L 464.067 724.289 L 416.118 388.651 L 392.178 676.307 L 376.15 644.353 L 360.156 452.593 L 352.176 644.353 L 328.168 700.315 L 312.242 508.556 L 296.214 660.347 L 272.273 620.413 L 272.273 732.269 L 248.265 642.341 L 248.265 444.613 C 237.762 434.962 223.78 428.96 208.399 428.619 L 208.331 428.619 L 208.331 932.008 C 208.57 932.008 208.877 932.008 209.184 932.008 C 226.133 932.008 240.865 922.391 248.163 908.307 L 248.265 908.068 L 248.265 764.223 L 256.279 772.203 L 280.288 852.106 L 288.268 756.209 L 312.276 876.08 L 312.276 724.289 L 328.202 764.223 L 352.21 876.08 L 352.21 724.289 L 368.204 740.215 L 392.212 876.08 L 416.153 692.267 L 469.012 899.372 L 472.081 772.169 L 488.075 724.255 L 504.103 923.994 L 552.017 724.255 L 568.012 892.04 L 607.98 716.241 L 647.948 908 L 655.928 764.155 L 679.868 716.207 L 687.882 900.02 L 727.851 724.221 L 751.791 804.123 L 759.805 732.201 L 775.731 764.155 L 775.731 908 C 783.165 922.323 797.898 931.974 814.881 931.974 C 815.153 931.974 815.46 931.974 815.733 931.974 L 815.699 931.974 L 815.699 428.585 C 800.251 428.926 786.269 434.928 775.663 444.613 L 775.697 444.579 L 775.697 649.707 L 759.771 692.335 L 751.757 556.47 L 735.763 660.313 L 719.768 628.358 L 711.754 516.502 L 671.82 668.327 L 663.806 636.373 L 639.866 396.665 L 615.926 604.418 L 599.898 668.327 L 567.943 452.593 L 535.989 636.338 L 519.995 684.287 L 512.015 354.241 Z M 512.015 92.026 C 509.935 91.992 507.479 91.958 505.024 91.958 C 404.421 91.958 311.594 125.276 236.943 181.477 L 238.069 180.659 C 168.397 231.745 122.972 312.397 120.449 403.758 L 120.449 404.168 L 120.449 436.122 C 47.503 484.104 -0.002 565.61 -0.002 658.232 C -0.002 664.61 0.237 670.953 0.68 677.193 L 0.646 676.341 C 0.646 817.492 80.924 932.042 184.391 932.042 L 184.391 404.134 C 186.778 332.757 222.722 270.213 276.877 231.574 L 277.559 231.131 C 340.479 184.137 419.802 155.866 505.706 155.866 C 507.923 155.866 510.139 155.9 512.356 155.935 L 512.015 155.935 C 513.857 155.9 516.039 155.9 518.256 155.9 C 604.195 155.9 683.551 184.137 747.528 231.847 L 746.505 231.131 C 801.308 270.247 837.252 332.757 839.639 403.793 L 839.639 404.168 L 839.639 932.042 C 943.107 932.042 1023.38 817.526 1023.38 676.341 C 1023.79 670.919 1024 664.575 1024 658.198 C 1024 565.61 976.493 484.104 904.502 436.77 L 903.513 436.156 L 903.513 404.202 C 900.99 312.432 855.565 231.813 786.678 181.273 L 785.893 180.727 C 712.436 125.344 619.609 92.026 519.04 92.026 C 516.585 92.026 514.095 92.06 511.64 92.094 L 512.015 92.094 L 512.015 92.026 Z"/>
</svg>
