<svg viewBox="0 0 1024 1024" xmlns="http://www.w3.org/2000/svg" fill="currentColor" height="1em" width="1em">
    <path d="M880.64 215.04L571.733333 31.402667c-36.522667-21.845333-81.92-21.845333-118.442666 0L144.042667 215.04c-37.205333 22.186667-60.074667 62.805333-60.074667 106.154667v366.592c-0.341333 43.349333 22.528 83.626667 59.392 106.154666l308.565333 183.296c36.522667 21.845333 81.92 21.845333 118.442667 0l309.248-183.296c37.205333-22.528 59.733333-62.805333 59.392-106.154666V321.194667c1.024-43.349333-21.504-83.626667-58.368-106.154667z m-239.274667 572.416v26.282667c0 3.413333-1.706667 6.485333-4.437333 8.192l-15.701333 8.874666c-2.389333 1.365333-4.437333 0-4.437334-3.413333v-25.941333c-10.922667 5.461333-23.552 6.826667-35.498666 3.413333-2.048-1.365333-2.730667-3.754667-1.706667-6.144l5.461333-23.893333c0.341333-2.048 1.365333-3.754667 3.072-5.12 0.341333-0.341333 1.024-0.682667 1.365334-1.024 0.682667-0.341333 1.706667-0.341333 2.389333 0 10.922667 3.072 22.528 1.365333 32.426667-4.096 14.336-6.826667 23.552-21.162667 24.234666-36.864 0-13.312-7.168-19.114667-24.917333-19.114667-22.528 0-42.666667-4.437333-43.690667-37.546667 0.682667-28.672 13.653333-55.637333 36.181334-73.386666v-26.624c0-3.413333 1.706667-6.485333 4.437333-8.192l15.018667-9.557334c2.389333-1.365333 4.437333 0 4.437333 3.413334v26.624c9.216-4.096 19.456-5.461333 29.696-3.413334 2.048 1.365333 3.072 3.754667 2.048 6.144l-5.12 23.552c-0.341333 1.706667-1.365333 3.413333-2.730667 4.778667l-1.365333 1.365333c-0.682667 0.341333-1.365333 0.341333-2.389333 0-9.898667-2.048-19.797333-0.341333-28.330667 4.778667-12.629333 5.461333-21.162667 17.749333-21.504 31.744 0 12.288 6.485333 15.701333 27.648 16.042667 28.672 0 40.96 12.970667 41.301333 41.642666-1.024 30.037333-14.677333 58.026667-37.888 77.482667z m161.792-44.373333c0.341333 2.389333-0.682667 4.437333-2.389333 5.802666l-77.824 47.445334c-0.682667 0.682667-1.706667 0.682667-2.730667 0.341333-0.682667-0.682667-1.365333-1.365333-1.024-2.389333v-20.138667c0-2.048 1.365333-4.096 3.413334-5.12l76.8-46.08c0.682667-0.682667 1.706667-0.682667 2.730666-0.341333 0.682667 0.682667 1.365333 1.365333 1.024 2.389333v18.090667z m53.930667-450.901334l-292.181333 180.565334c-36.522667 21.504-63.146667 45.056-63.146667 89.088v360.106666c0 26.282667 10.922667 42.666667 26.965333 48.128-5.461333 1.024-10.922667 1.365333-16.042666 1.706667-17.066667 0-34.133333-4.778667-48.810667-13.312L154.624 774.826667c-30.72-18.432-49.152-51.541333-48.810667-87.04V321.194667c-0.341333-35.84 18.090667-68.949333 48.810667-87.381334l308.565333-183.296c30.037333-17.749333 67.242667-17.749333 96.938667 0l308.565333 183.296c25.258667 15.36 42.666667 40.96 47.445334 70.314667-9.898667-21.845333-33.109333-27.648-60.074667-12.288l1.024 0.341333z"
         ></path>
</svg>
