<svg viewBox="0 0 1024 1024" version="1.1" xmlns="http://www.w3.org/2000/svg"
    fill="currentColor" height="1em" width="1em">
  <path d="M 668.971 0 L 758.4 101.547 C 758.4 101.547 836.907 79.701 873.984 116.821 C 911.019 153.941 941.568 186.709 941.568 186.709 L 917.589 245.632 L 948.096 332.971 C 948.096 332.971 858.325 673.451 847.829 715.051 C 827.093 796.928 812.928 828.544 754.048 870.059 C 693.572 912.379 632.51 953.855 570.88 994.475 C 553.429 1005.4 531.627 1024 512 1024 C 492.373 1024 470.613 1005.4 453.12 994.475 C 391.488 953.857 330.426 912.381 269.952 870.059 C 211.072 828.544 196.907 796.928 176.213 715.051 C 165.675 673.451 75.904 332.971 75.904 332.971 L 106.411 245.632 L 82.432 186.709 C 82.432 186.709 112.981 153.941 150.059 116.821 C 187.093 79.701 265.6 101.547 265.6 101.547 L 354.987 0 L 669.013 0 L 668.971 0 Z M 512 637.269 C 506.027 637.269 467.712 650.795 436.992 666.709 C 406.272 682.624 384 693.888 376.875 698.368 C 369.749 702.805 374.101 711.211 380.587 715.819 C 387.072 720.384 474.197 787.925 482.688 795.435 C 491.136 802.901 503.552 815.232 512 815.232 C 520.448 815.232 532.907 802.859 541.355 795.435 C 549.803 787.968 636.928 720.384 643.413 715.819 C 649.899 711.211 654.251 702.805 647.125 698.325 C 640 693.888 617.728 682.624 586.965 666.709 C 556.245 650.795 517.973 637.269 512 637.269 Z M 512 156.075 C 512 156.075 494.549 156.117 468.395 164.864 C 442.24 173.611 413.867 184.491 400.811 184.491 C 387.712 184.491 290.688 165.973 290.688 165.973 C 290.688 165.973 175.701 305.152 175.701 334.891 C 175.701 364.629 190.165 372.48 204.715 387.925 L 290.901 479.616 C 299.093 488.277 316.075 501.419 306.091 525.099 C 296.064 548.779 281.344 578.859 297.728 609.451 C 314.112 640 342.187 660.395 360.192 657.024 C 378.155 653.611 420.437 631.509 435.968 621.44 C 451.499 611.328 500.736 570.667 500.736 555.136 C 500.736 539.563 449.835 511.616 440.448 505.301 C 431.061 498.901 388.139 474.368 387.243 464.768 C 386.389 455.083 386.731 452.267 399.36 428.459 C 412.032 404.608 434.816 372.821 431.019 351.659 C 427.221 330.539 390.485 319.531 364.245 309.589 C 338.005 299.691 287.488 280.96 281.173 278.016 C 274.859 275.115 276.48 272.341 295.637 270.549 C 314.752 268.715 368.981 261.504 393.429 268.331 C 417.877 275.157 459.648 285.525 463.061 291.029 C 466.432 296.576 469.419 296.747 465.92 315.733 C 462.464 334.72 444.587 425.856 442.837 442.027 C 441.131 458.24 437.717 468.907 455.125 472.917 C 472.576 476.928 501.931 483.84 512 483.84 C 522.069 483.84 551.424 476.928 568.875 472.917 C 586.283 468.949 582.912 458.24 581.163 442.069 C 579.456 425.856 561.536 334.72 558.08 315.733 C 554.581 296.747 557.568 296.533 560.939 291.029 C 564.352 285.525 606.123 275.157 630.571 268.331 C 655.019 261.504 709.291 268.715 728.363 270.549 C 747.52 272.341 749.141 275.115 742.827 278.016 C 736.512 280.96 685.995 299.691 659.755 309.589 C 633.515 319.531 596.779 330.496 592.981 351.659 C 589.141 372.821 611.968 404.608 624.64 428.459 C 637.312 452.267 637.611 455.083 636.757 464.725 C 635.904 474.368 592.981 498.944 583.552 505.259 C 574.165 511.659 523.264 539.563 523.264 555.136 C 523.264 570.667 572.501 611.328 588.032 621.44 C 603.563 631.509 645.845 653.653 663.808 657.024 C 681.813 660.395 709.888 639.957 726.272 609.451 C 742.656 578.901 727.936 548.779 717.952 525.099 C 707.925 501.419 724.907 488.277 733.099 479.616 L 819.285 387.925 C 833.835 372.48 848.299 364.629 848.299 334.891 C 848.299 305.152 733.312 165.931 733.312 165.931 C 733.312 165.931 636.288 184.533 623.232 184.533 C 610.133 184.533 581.76 173.611 555.605 164.864 C 529.451 156.117 512 156.075 512 156.075 Z"/>
</svg>
