<svg viewBox="0 0 1024 1024" xmlns="http://www.w3.org/2000/svg" fill="currentColor" height="1em" width="1em">
    <path d="M510.285714 0q137.142857-1.142857 257.714286 68.571429 132.571429 76.571429 201.142857 212.571428l-424-22.285714q-91.428571-5.142857-168 42.571428T271.428571 432.571429L113.714286 190.285714Q186.857143 99.428571 291.428571 50T510.285714 0zM83.428571 231.428571l192.571429 378.857143q41.142857 81.714286 120.571429 124t167.428571 25.714286l-131.428571 257.714286q-121.142857-18.857143-220-90t-155.714286-180.571429T0 512q0-152.571429 83.428571-280.571429z m906.285715 96.571429q33.142857 85.714286 34 177.428571t-27.714286 174.857143-87.428571 155.428572-140.571429 119.714285q-131.428571 76-284.571429 68l231.428572-356q50.285714-74.857143 47.142857-166T701.142857 342.857143z m-477.714286 11.428571q71.428571 0 122 50.571429T684.571429 512t-50.571429 122T512 684.571429t-122-50.571429T339.428571 512t50.571429-122T512 339.428571z"></path>
</svg>
