<svg viewBox="0 0 1024 1024" xmlns="http://www.w3.org/2000/svg" fill="currentColor" height="1em" width="1em">
    <path d="M744 312h-56c-4.4 0-8 3.6-8 8v56c0 4.4 3.6 8 8 8h56c53 0 96 43 96 96s-43 96-96 96h-56c-4.4 0-8 3.6-8 8v56c0 4.4 3.6 8 8 8h56c101.8 0 184-82.2 184-184s-82.2-184-184-184z"/>
    <path d="M664 128H144c-17.7 0-32 14.3-32 32v32c0 4.4 3.6 8 8 8h48c4.4 0 8-3.6 8-8v-24h480v24c0 4.4 3.6 8 8 8h48c4.4 0 8-3.6 8-8v-32c0-17.7-14.3-32-32-32z"/>
    <path d="M144 256h520c17.7 0 32 14.3 32 32v496c0 17.7-14.3 32-32 32H144c-17.7 0-32-14.3-32-32V288c0-17.7 14.3-32 32-32zm464 496V320H176v432h432z"/>
</svg>
