<svg viewBox="0 0 1024 1024" xmlns="http://www.w3.org/2000/svg" fill="currentColor" height="1em" width="1em">
    <path d="M557.53386667 466.46613333H716.8c12.56106667 0 22.7328 10.24 22.7328 22.80106667v45.4656c0 12.56106667-10.17173333 22.80106667-22.7328 22.80106667H489.2672a22.66453333 22.66453333 0 0 1-22.80106667-22.80106667V307.2c0-12.56106667 10.24-22.7328 22.80106667-22.7328h45.4656c12.56106667 0 22.80106667 10.17173333 22.80106667 22.7328v159.26613333zM512 921.6A409.6 409.6 0 1 0 512 102.4a409.6 409.6 0 0 0 0 819.2z m0 90.99946667A500.59946667 500.59946667 0 1 1 512 11.40053333a500.59946667 500.59946667 0 0 1 0 1001.19893334z"
         ></path>
</svg>
