<svg viewBox="0 0 1024 1024" xmlns="http://www.w3.org/2000/svg" fill="currentColor" height="1em" width="1em">
    <path d="M416.768 893.952C205.824 893.952 34.816 722.944 34.816 512s171.008-381.952 381.952-381.952c120.832 0 231.424 56.32 304.128 151.552l-139.264 81.92c-41.984-46.08-102.4-72.704-164.864-72.704C294.912 289.792 194.56 390.144 194.56 512s100.352 222.208 222.208 222.208c62.464 0 121.856-27.648 164.864-72.704l139.264 81.92c-72.704 94.208-183.296 150.528-304.128 150.528z m572.416-414.72v-62.464h-62.464v-64.512h-64.512v64.512H798.72v-64.512h-64.512v64.512h-62.464v62.464h62.464v64.512h-62.464v62.464h62.464v64.512H798.72v-64.512h62.464v64.512h64.512v-64.512h62.464v-62.464h-62.464v-64.512h63.488z m-125.952 65.536H798.72v-64.512h64.512v64.512z"
         ></path>
</svg>
