<svg viewBox="0 0 1024 1024" version="1.1" xmlns="http://www.w3.org/2000/svg"
    fill="currentColor" height="1em" width="1em">
  <path d="M 34.261 633.013 C 34.261 601.269 68.626 581.428 96.117 597.3 C 108.876 604.667 116.736 618.28 116.736 633.013 C 116.736 664.758 82.372 684.598 54.88 668.726 C 42.121 661.359 34.261 647.746 34.261 633.013 M 150.997 633.013 C 150.997 624.65 148.736 616.97 146.219 609.418 C 136.235 579.466 108.843 557.536 75.52 557.536 C 70.187 557.536 65.493 559.498 60.459 560.522 C 26.24 567.69 0 596.661 0 633.013 C 1.382 691.132 65.161 725.961 114.802 695.704 C 136.749 682.328 150.386 658.708 150.997 633.013 M 75.477 327.989 C 107.238 327.989 127.089 362.371 111.208 389.877 C 103.838 402.643 90.218 410.506 75.477 410.506 C 43.716 410.506 23.866 376.124 39.746 348.618 C 47.116 335.853 60.737 327.989 75.477 327.989 M 75.477 444.725 C 117.186 444.725 150.997 410.914 150.997 369.205 C 150.997 360.885 148.736 353.162 146.219 345.653 C 136.235 315.701 108.8 293.728 75.52 293.728 C 70.187 293.728 65.493 295.733 60.459 296.8 C 26.24 303.925 0 332.853 0 369.205 C 0 410.89 33.792 444.725 75.52 444.725 M 639.573 201.781 C 616.794 201.781 598.334 183.302 598.357 160.522 C 598.357 137.743 616.836 119.283 639.616 119.306 C 671.361 119.306 691.201 153.671 675.329 181.162 C 667.962 193.921 654.349 201.781 639.616 201.781 M 230.016 906.336 C 198.271 905.315 179.537 870.312 196.293 843.331 C 203.572 831.611 216.227 824.305 230.016 823.861 C 252.796 823.861 271.256 842.34 271.232 865.12 C 271.232 887.883 252.779 906.336 230.016 906.336 M 639.616 85.045 C 597.907 85.045 564.096 118.856 564.096 160.565 C 564.096 169.44 566.357 177.717 569.173 185.653 L 214.997 792.629 C 180.736 799.797 154.496 828.725 154.496 865.12 C 155.878 923.239 219.657 958.067 269.298 927.811 C 291.245 914.435 304.882 890.815 305.493 865.12 C 305.208 857.05 303.609 849.08 300.757 841.525 L 656.725 232.544 C 689.92 224.608 715.093 196.149 715.093 160.522 C 715.07 118.83 681.265 85.045 639.573 85.045 M 948.48 201.781 C 925.7 201.781 907.24 183.302 907.264 160.522 C 907.264 137.743 925.743 119.283 948.523 119.306 C 980.267 119.306 1000.11 153.671 984.235 181.162 C 976.869 193.921 963.255 201.781 948.523 201.781 M 538.923 906.336 C 516.143 906.336 497.683 887.857 497.707 865.077 C 497.707 842.314 516.16 823.861 538.923 823.861 C 570.667 823.861 590.508 858.226 574.635 885.717 C 567.269 898.476 553.655 906.336 538.923 906.336 M 948.523 85.045 C 906.814 85.045 873.003 118.856 873.003 160.565 C 873.003 169.44 875.264 177.717 878.08 185.653 L 523.904 792.629 C 489.685 799.797 463.445 828.725 463.445 865.12 C 465.399 923.222 529.518 957.421 578.86 926.678 C 600.226 913.365 613.554 890.28 614.4 865.12 C 614.4 856.714 612.139 849.077 609.664 841.525 L 965.632 232.544 C 998.784 224.608 1024 196.149 1024 160.522 C 1023.98 118.83 990.172 85.045 948.48 85.045"/>
</svg>
