<svg viewBox="0 0 1024 1024" xmlns="http://www.w3.org/2000/svg" fill="currentColor" height="1em" width="1em">
    <path d="M525.65333333 967.11111147h-4.55111146a469.2195552 469.2195552 0 0 1-334.0515552-143.36 476.04622187 476.04622187 0 0 1-11.83288854-637.15555627 461.0275552 461.0275552 0 0 1 182.04444374-124.70044373 45.51111147 45.51111147 0 0 1 48.24177813 10.01244373 45.51111147 45.51111147 0 0 1 10.92266667 45.51111147 382.29333333 382.29333333 0 0 0 88.2915552 400.95288853 385.47911147 385.47911147 0 0 0 401.86311146 88.29155627 45.51111147 45.51111147 0 0 1 57.79911147 58.70933333A462.39288853 462.39288853 0 0 1 857.8844448 830.57777813a467.85422187 467.85422187 0 0 1-332.23111147 136.53333334z"
         ></path>
</svg>
