<svg viewBox="0 0 1024 1024" xmlns="http://www.w3.org/2000/svg" fill="currentColor" height="1em" width="1em">
    <path d="M538.368 66.816a41.728 41.728 0 0 0-29.098667 11.989333l-0.426666 0.298667-272.554667 157.525333 271.872 271.872v0.170667l326.741333 326.784 62.293334-112.213333-224.597334-539.306667-104.832-104.832a41.472 41.472 0 0 0-29.44-12.288z"
         ></path>
    <path d="M236.928 235.989333l-157.44 272.341334-0.298667 0.426666a41.258667 41.258667 0 0 0 0.256 58.496l130.474667 130.602667 510.421333 200.789333 115.413334-64.085333-3.114667-3.114667-0.810667 0.085334-320-320.512h-0.384L236.928 235.946667z"
         ></path>
    <path d="M236.245333 236.117333l278.101334 278.4h0.426666l320.042667 320.426667 121.856-23.210667 0.170667-360.490666-128.64-126.08c-28.16-27.605333-71.466667-45.397333-114.986667-51.285334l0.085333-1.365333-477.013333-36.352z"
         ></path>
    <path d="M236.586667 236.458667l278.272 278.272v0.384l320.256 320.256-23.296 121.813333h-360.490667l-126.037333-128.725333c-27.605333-28.16-45.354667-71.509333-51.2-115.029334l-1.408 0.128-36.096-477.098666z"
         ></path>
</svg>
