<svg viewBox="0 0 1024 1024" xmlns="http://www.w3.org/2000/svg" fill="currentColor" height="1em" width="1em">
    <path d="M973.76 468.95a151.41 151.41 0 0 0-112.05-10.14 148.95 148.95 0 0 0-60.57-94.89l-12-9.45-10.17 11.4a125.52 125.52 0 0 0-23.7 90.3 115.83 115.83 0 0 0 22.62 60.66 175.92 175.92 0 0 1-32.58 14.34A217.89 217.89 0 0 1 678.14 542H44.72l-1.35 14.19a264.99 264.99 0 0 0 22.29 138l8.67 17.19 0.99 1.62c59.55 98.34 178.35 149.28 292.32 149.28 220.68 0 388.47-105.33 472.08-307.71 55.86 2.85 113.01-13.23 140.34-65.07l6.96-13.23-13.26-7.44zM229.31 725a49.53 49.53 0 1 1 51-49.53 50.31 50.31 0 0 1-51 49.53z"
         ></path>
    <path d="M229.31 649.28a26.07 26.07 0 1 0 26.82 26.1 26.46 26.46 0 0 0-26.82-26.1M92 422h90v90H92z m120 0h90v90h-90z m0-120h90v90h-90z m120 0h90v90h-90z m0 120h90v90h-90z m120 0h90v90h-90z m120 0h90v90h-90zM452 302h90v90h-90z m0-120h90v90h-90z"
         ></path>
</svg>
