<svg viewBox="0 0 1024 1024" xmlns="http://www.w3.org/2000/svg" fill="currentColor" height="1em" width="1em">
    <path d="M412.99906 1009.352033C182.07395 963.926024 7.736351 758.572594 7.736351 512 7.736351 232.101274 232.340305 5.198898 509.410051 5.198898c213.767121 0 396.191761 135.125844 468.440613 325.392044-28.943094 9.257039-91.768614 52.86569-224.75441 214.444175l-0.423654 4.012835c-59.101719 68.160789-121.869827 144.832273-164.150106 197.181263-17.947886-4.097962-37.336987-8.532472-58.618674-13.586624-136.190918-34.240749-176.891402-67.028405-197.224816-90.756992-19.276259-23.782038 3.618877-73.171389 113.357153-97.400836 55.56401-13.521295 262.503174-16.005808 262.503173-16.005808-59.370957-47.136462-170.827606-131.524784-193.613858-149.470691-19.97905-15.74053-52.180717-39.894749-55.641218-61.479329-4.668113-21.012449 28.406598-31.128674 45.914992-32.296692 56.421216-3.890094 133.464882 2.724056 201.948361 16.342356 34.422881 6.845774 40.4649 5.836131 40.4649 5.836131 49.029047 2.336036 87.161871-23.344526 85.217814-77.431685-0.389999-54.865179-55.245279-98.85789-115.954509-100.780171-57.173499-1.807459-198.058266 8.172168-198.058266 8.172168 164.205537 33.85273 191.048178 42.490125 199.612325 62.257348 5.060092 11.674243-8.449325 23.281176-53.695181 21.012449-49.260671-2.470655-150.197237-14.398298-150.197238-14.398299-96.110078-14.786318-163.035539-28.792638-192.220155 9.338206-19.064432 24.912442 2.724056 55.253198 11.284243 73.153572 38.134803 66.537441 104.072398 112.187155 145.917144 144.359126 15.744489 12.105815 63.813386 38.910842 63.813386 38.910843-149.417239-40.8549-268.485802-17.898394-343.971451 21.790467-86.771871 51.361124-71.930122 138.03797 65.759422 219.068736 81.32178 47.861029 121.814396 70.85119 254.966487 87.199485 8.213741 1.310556 15.536621 2.520148 22.336863 3.676287-2.56766 3.236796-17.049106 23.914677-23.221785 32.987605-11.527745 0.673095-21.449961 1.193754-27.49 1.609489-63.833182 4.402835-228.917702 5.503543-229.743234 5.503543 0 0 44.616314 12.953123 104.003109 20.359151 17.678648 2.205377 71.823219 8.441406 127.131848 11.488151-38.825716 59.038369-66.489929 106.046151-80.104269 133.664832z m582.878678-621.445054c-42.796977 79.918178-167.943195 217.108841-167.943195 217.10884l-4.832428-1.492687c-50.691988 61.182375-101.754179 119.626837-142.351719 165.175585 34.733693 9.846987 61.423898 20.48981 84.762485 36.772776 19.183214 13.382717 12.0781 27.260356 11.674242 31.516693-15.560378 17.85682-43.521545 26.805027-92.875261 33.813136-29.525124 4.194967-74.042453 5.727248-103.221131 6.285522-32.961869 32.837148-102.815294 100.734638-144.412578 136.347313C460.432475 1016.918415 484.703497 1018.801102 509.410051 1018.801102c277.067766 0 501.6737-226.902376 501.673699-506.801102 0-42.818754-5.309533-84.376444-15.206012-124.093021z"></path>
</svg>
