<svg viewBox="0 0 1024 1024" xmlns="http://www.w3.org/2000/svg" fill="currentColor" height="1em" width="1em">
    <path d="M32 512a480 480 0 1 0 960 0 480 480 0 1 0-960 0Z"></path>
    <path d="M703.69519999 499.0304l-53.45759998-53.4576 27.49199999-113.02320001-114.552 25.9632-51.92879999-51.92879999L767.8448 242.432l-64.152 256.59599999z m2e-8 0"
         ></path>
    <path d="M615.1088 853.376L156.90320001 395.168l256.59599999-64.1472 51.92879999 51.9312-183.28079999 45.8208 103.8576 103.86000001 120.6624-29.02080002-30.5472 119.13360001 103.85999999 103.85999999 45.8208-183.2832 53.4576 53.45760002-64.15199998 256.59599999z m0 0"
         ></path>
</svg>
