<svg viewBox="0 0 1024 1024" xmlns="http://www.w3.org/2000/svg" fill="currentColor" height="1em" width="1em">
    <path d="M512 992q-203.56875001-5.353125-339.1125-140.896875Q37.353125 715.56875001 32 512q5.353125-203.56875001 140.8875-339.1125Q308.43124999 37.353125 512 32q203.56875001 5.353125 339.103125 140.8875Q986.646875 308.43124999 992 512q-5.353125 203.56875001-140.896875 339.103125Q715.56875001 986.646875 512 992z m0-891.43125001q-174.646875 4.284375-290.896875 120.53437501-116.25 116.25-120.53437499 290.896875 4.284375 174.646875 120.53437499 290.896875 116.25 116.25 290.896875 120.53437499 174.646875-4.284375 290.896875-120.53437499 116.25-116.25 120.53437499-290.896875-4.284375-174.646875-120.53437499-290.896875-116.25-116.25-290.896875-120.53437501z m1.06875001 691.07812501q-72.853125 0-135.53437501-30.54375-62.68125001-30.534375-107.68125-87.31875-8.56875001-11.784375-6.965625-25.71562501 1.6125-13.93125001 12.8625-22.5t25.18124999-6.96562499q13.921875 1.6125 22.5 12.32812499 35.353125 45 84.10312501 68.56875001 48.75 23.56875001 105.53437499 23.56874999 56.784375 0 106.07812501-24.1125 49.284375-24.103125 84.6375-69.10312499 8.56875001-11.784375 22.5-13.39687501 13.93125001-1.603125 25.18125 6.96562501t12.8625 22.5q1.6125 13.93125001-6.965625 25.715625-45 57.853125-108.20625001 88.93124999-63.215625 31.06875001-136.07812499 31.06875001zM358.784375 515.215625q-21.43125001 0-35.896875-14.465625-14.45625001-14.465625-15.534375-36.965625v-68.56875q1.078125-21.43125001 15.534375-35.89687501 14.465625-14.465625 35.896875-14.46562499t35.89687501 14.46562499q14.465625 14.465625 15.53437499 35.89687501v68.56875q-1.06875001 22.5-15.53437499 36.965625t-35.89687501 14.465625z m308.56875 0q-21.421875 0-35.8875-14.465625t-15.53437501-36.965625v-68.56875q1.06875001-21.43125001 15.53437501-35.89687501t35.8875-14.46562499q21.43125001 0 35.8875 14.46562499 14.465625 14.465625 15.534375 35.89687501v68.56875q-1.06875001 22.5-15.534375 36.965625t-35.89687501 14.465625z"
         ></path>
</svg>
