<svg viewBox="0 0 1024 1024" xmlns="http://www.w3.org/2000/svg" fill="currentColor" height="1em" width="1em">
    <path d="M840.84826661 171.03930664c-22.74169922 0-41.11633301 18.45703125-41.11633302 41.11633301v228.90014648c0 43.91784668-35.76049805 79.67834473-79.67834473 79.67834473H283.42944336l121.86584473-121.86584473c16.06750489-16.06750489 16.06750489-42.10510254-1e-8-58.17260741-16.06750489-16.06750489-42.10510254-16.06750489-58.17260742 0L152.41748047 535.40087891c-7.74536133 7.74536133-12.0300293 18.20983887-12.0300293 29.08630371 0 10.87646484 4.36706543 21.34094239 12.0300293 29.08630371l194.62280273 194.62280273c8.07495117 8.07495117 18.53942872 12.0300293 29.08630372 12.0300293 10.546875 0 21.09375-4.03747559 29.08630371-12.0300293 16.06750489-16.06750489 16.06750489-42.10510254 0-58.17260742l-126.89208985-126.97448731h441.65039063c89.31884766 0 161.9934082-72.67456055 161.9934082-161.99340819V212.15563964c0-22.65930176-18.45703125-41.11633301-41.11633301-41.116333z"
         ></path>
</svg>
