<svg viewBox="0 0 1024 1024" xmlns="http://www.w3.org/2000/svg" fill="currentColor" height="1em" width="1em">
    <path d="M862.275761 64.844627l-574.312616 0c-52.790608 0-95.681328 42.89331799-95.68132799 95.683926l0 95.68132799L128.49306599 256.20988199c-35.19413801 0-63.78755199 28.59361399-63.78755198 63.78855101l0 382.95435701c0 35.19214 28.59361399 63.782555 63.787552 63.78255499l63.78855099 0L192.281617 862.420271c0 52.78820999 42.89072001 95.68392601 95.681328 95.683926l574.312616 0c52.78701001 0 95.68392601-42.895917 95.683926-95.683926L957.959487 160.52855399C958.06741399 107.73794601 915.062771 64.844627 862.275761 64.844627L862.275761 64.844627zM435.114776 626.844791L358.790724 626.844791l-38.934003-57.634724-38.822678 57.634724L204.709191 626.844791l76.325052-115.369579-76.325052-115.261053 76.325052 0 38.93400299 57.62573 38.93060501-57.62573 76.329449 0-76.329449 115.261053L435.114776 626.844791 435.114776 626.844791zM894.166939 862.529397c0 17.595071-14.295308 31.89037799-31.891178 31.890378l-574.312616 0c-17.59607001 0-31.894376-14.295308-31.894376-31.890378l0-95.685925 255.262732 0c35.190941 0 63.788551-28.590616 63.788551-63.781556l0-63.792549 223.367957 0c17.595071 0 31.89617401-14.295308 31.896174-31.893176 0-17.59607001-14.301304-31.89137801-31.896174-31.891378L575.120053 575.484813l0-63.792149 223.36795699 0c17.595071 0 31.89617401-14.296307 31.89617401-31.892377 0-17.59547001-14.301304-31.895775-31.89617399-31.895775L575.120053 447.904513l0-63.78855101 223.36795699 0c17.595071 0 31.89617401-14.29730601 31.89617401-31.894376 0-17.59547001-14.301304-31.892777-31.89617399-31.89277699L575.120053 320.328809c0-35.19453801-28.597611-63.788152-63.78855099-63.788152L256.06856999 256.540657 256.06856999 160.859329c0-17.599068 14.29830601-31.89677401 31.89437602-31.896774l574.312616 0c17.59607001 0 31.89117799 14.29770599 31.89117799 31.896774L894.166739 862.529397 894.166939 862.529397z"
         ></path>
</svg>
