<svg viewBox="0 0 1024 1024" xmlns="http://www.w3.org/2000/svg" fill="currentColor" height="1em" width="1em">
    <path d="M315.562667 935.765333L26.453333 644.608c-35.2-35.157333-35.2-111.317333 0-144.64l414.250667-416.085333c33.322667-33.28 107.562667-33.28 140.672 0l416.256 416.128c35.242667 35.2 35.242667 111.402667 0 144.682666l-289.237333 291.157334a105.557333 105.557333 0 0 1-72.32 29.269333H384c-25.429333-0.042667-50.773333-11.776-68.437333-29.354667z m263.850666-113.322666c5.845333-5.888 5.845333-17.621333 0-23.466667l-56.661333-56.661333a16.682667 16.682667 0 0 0-23.424 0l-56.704 56.277333c-5.888 5.717333-5.888 17.28 0 23.04l44.970667 42.88h46.890666l45.44-43.52-0.512 1.450667z m0-240.341334c3.925333-3.84 3.925333-13.653333 0-17.578666l-60.586666-60.117334c-3.84-3.882667-13.653333-3.882667-17.578667 0l-175.829333 175.957334c-5.930667 6.4-5.930667 19.84 0 25.642666l40.917333 40.96h47.018667l166.101333-164.48v-0.384z m0-238.378666c3.925333-3.882667 5.845333-15.616 0-19.541334l-58.666666-58.624c-3.84-4.437333-15.573333-4.437333-21.418667 0l-294.997333 295.04c-4.010667 3.84-5.973333 15.317333-2.090667 19.157334l46.933333 44.8h44.928l285.312-280.832z"
          fill=""></path>
</svg>
