<svg viewBox="0 0 1024 1024" xmlns="http://www.w3.org/2000/svg" fill="currentColor" height="1em" width="1em">
    <path d="M683.2 340.8c94.4 0 171.2-76.8 171.2-171.2S777.6 0 683.2 0H340.8c-94.4 0-171.2 76.8-171.2 171.2s76.8 171.2 171.2 171.2c-94.4 0-171.2 76.8-171.2 171.2 0 94.4 76.8 171.2 171.2 171.2-94.4 0-171.2 76.8-171.2 171.2S246.4 1024 340.8 1024C435.2 1024 512 947.2 512 852.8v-512h171.2z m0 0C588.8 340.8 512 417.6 512 512s76.8 171.2 171.2 171.2c94.4 0 171.2-76.8 171.2-171.2-1.6-94.4-76.8-171.2-171.2-171.2z"></path>
</svg>
