<svg viewBox="0 0 1024 1024" xmlns="http://www.w3.org/2000/svg" fill="currentColor" height="1em" width="1em">
    <path d="M1023.914729 79.422169V34.251343a34.549923 34.549923 0 0 1-24.2276-10.066397 34.549923 34.549923 0 0 1-9.981089-24.184946h-45.256134a34.379306 34.379306 0 0 1-68.587995 0H830.605777a34.336652 34.336652 0 0 1-68.587995 0h-45.170825a34.42196 34.42196 0 0 1-36.042821 32.630483 34.464614 34.464614 0 0 1-32.630483-32.630483h-45.213479a34.379306 34.379306 0 0 1-68.630649 0h-45.170826a34.336652 34.336652 0 0 1-68.587995 0h-45.213479a33.91011 33.91011 0 0 1-35.232391 33.014371 34.293998 34.293998 0 0 1-33.099679-33.014371h-45.213479a34.379306 34.379306 0 0 1-68.587996 0h-45.213479a34.251343 34.251343 0 0 1-68.545341 0H34.251381a34.42196 34.42196 0 0 1-34.251344 34.251343V79.422169a34.293998 34.293998 0 0 1 0 68.54534v45.256134a34.251343 34.251343 0 0 1 0 68.545341v45.170825a34.336652 34.336652 0 0 1 0 68.63065v45.170825a34.251343 34.251343 0 1 1 0 68.587995v45.213479a34.251343 34.251343 0 0 1 0 68.545341v45.256134a34.251343 34.251343 0 1 1 0 68.587995v45.256134c18.938476 0.682468 33.696838 16.507185 33.014371 35.403007a34.166035 34.166035 0 0 1-33.014371 33.057025v45.256134a34.293998 34.293998 0 1 1 0 68.587995v45.256134a34.379306 34.379306 0 0 1 34.251344 34.251343h45.213479a34.379306 34.379306 0 0 1 68.587995 0h45.256134a34.379306 34.379306 0 0 1 68.587995 0h45.170825a34.42196 34.42196 0 1 1 68.63065 0h45.213479a34.293998 34.293998 0 1 1 68.545341 0h45.256134a34.379306 34.379306 0 0 1 68.587995 0H648.472233a34.42196 34.42196 0 0 1 68.673304 0h45.170825a34.42196 34.42196 0 0 1 68.673303 0h45.21348a34.293998 34.293998 0 0 1 68.502686 0H989.70604c0-9.000042 3.668263-17.829466 10.023743-24.2276a34.464614 34.464614 0 0 1 24.184946-9.981089v-45.256134a34.336652 34.336652 0 0 1 0-68.502686v-45.256134a34.379306 34.379306 0 0 1 0-68.587995v-45.256134a34.379306 34.379306 0 1 1 0-68.587995v-45.256134a34.293998 34.293998 0 0 1 0-68.587995v-45.128171a34.379306 34.379306 0 1 1 0-68.587995v-45.213479a34.293998 34.293998 0 0 1 0-68.587996v-45.213479a34.379306 34.379306 0 0 1 0-68.545341v-45.213479a34.379306 34.379306 0 1 1 0-68.587995z m-173.517391 419.632273l-273.157662 265.565211c24.739451 3.83888 48.625817 9.597201 74.303661 9.5972 62.488441 0 134.275503-18.981131 182.858666-39.07127l-24.910067 117.128504c-71.488483 34.336652-115.209064 37.151831-157.948599 37.15183-46.706377 0-91.45066-15.227559-137.133336-15.227558-25.720498 0-62.872329 1.91944-85.69234 17.06169L379.196105 803.690923l281.81647-279.001291H336.712496L274.821214 815.079602H139.607319l140.972216-664.552839h447.442829l-28.578331 134.190195H388.110838l-26.658891 124.76361h510.869663l-21.924272 89.573874z"></path>
</svg>
