<svg viewBox="0 0 1024 1024" xmlns="http://www.w3.org/2000/svg" fill="currentColor" height="1em" width="1em">
    <path d="M569.216 778.24c0-0.032 0-0.096 0-0.128 0 0.032 0 0.096 0 0.128z"></path>
    <path d="M570.592 814.528c0-0.224-0.032-0.48-0.032-0.704 0 0.224 0.032 0.48 0.032 0.704z"></path>
    <path d="M569.824 796.32c0-0.192 0-0.352-0.032-0.544 0 0.192 0 0.352 0.032 0.544z"></path>
    <path d="M960 0l-896 0c-35.2 0-64 28.8-64 64l0 896c0 35.2 28.8 64 64 64l493.824 0c0.032 0 0.096 0 0.128 0s0.096 0 0.128 0l401.92 0c35.2 0 64-28.8 64-64l0-896c0-35.2-28.8-64-64-64zM192 224c0-17.664 14.336-32 32-32s32 14.336 32 32l0 64c0 17.664-14.336 32-32 32s-32-14.336-32-32l0-64zM960 960l-375.072 0c-6.688-42.08-10.912-85.472-13.376-127.616 0 0.128 0 0.224 0.032 0.352-19.712 2.144-39.584 3.264-59.584 3.264-133.664 0-262.368-48.64-362.496-136.992-14.912-13.152-16.32-35.904-3.168-50.816s35.904-16.32 50.816-3.168c86.944 76.736 198.752 118.976 314.848 118.976 19.072 0 38.048-1.152 56.832-3.424-2.208-118.208 6.88-211.904 7.04-213.408 0.896-8.992-2.048-17.952-8.128-24.64s-14.688-10.528-23.712-10.528l-95.168 0c1.376-34.624 5.088-93.824 14.944-160.192 18.848-126.752 52-225.76 96.16-287.808l400.064 0 0 896z"></path>
    <path d="M800 320c-17.664 0-32-14.336-32-32l0-64c0-17.664 14.336-32 32-32s32 14.336 32 32l0 64c0 17.664-14.336 32-32 32z"></path>
    <path d="M540.48 835.232c-3.648 0.192-7.296 0.352-10.944 0.448 3.648-0.128 7.296-0.256 10.944-0.448z"></path>
    <path d="M512 836c4.704 0 9.376-0.064 14.048-0.192-4.672 0.128-9.344 0.192-14.048 0.192z"></path>
    <path d="M539.072 763.2c0.768-0.032 1.568-0.096 2.336-0.128-0.768 0.064-1.568 0.096-2.336 0.128z"></path>
    <path d="M525.088 763.808c1.088-0.032 2.144-0.064 3.232-0.096-1.088 0.032-2.144 0.096-3.232 0.096z"></path>
    <path d="M877.664 648.192c-13.152-14.912-35.904-16.32-50.816-3.168-72.64 64.128-162.656 104.128-258.016 115.584 0.416 23.264 1.28 47.488 2.752 72.16 111.968-12.224 217.792-58.624 302.912-133.76 14.912-13.152 16.32-35.904 3.168-50.816z"></path>
    <path d="M571.488 832.736c-4.608 0.512-9.216 0.928-13.856 1.312 4.64-0.384 9.248-0.832 13.856-1.312z"></path>
    <path d="M555.488 834.24c-3.904 0.32-7.808 0.576-11.744 0.8 3.904-0.224 7.84-0.48 11.744-0.8z"></path>
</svg>
