<svg viewBox="0 0 1025 1024" xmlns="http://www.w3.org/2000/svg" fill="currentColor" height="1em" width="1em">
    <path d="M516 1024q-161.728 0-288.288-86.016t-188.288-227.712q-33.152-74.848-38.272-172t14.848-190.016 63.424-178.272 102.272-138.56l-6.272 160.576q6.272-8 38.848-8.864t40 8.864q24-46.272 91.712-78.848t134.016-33.728q-30.848 25.728-68.288 84.864t-33.44 93.44q14.272 4.576 35.712 7.712t36 4.288 38.848 2.272 28.864 1.728q8.576 2.848 5.44 26.016t-17.44 43.136q-2.848 4-9.44 10.56t-32.288 20.288-57.728 19.424l8.576 108-79.424-38.272q-10.272 24.576-4.288 46.56t20.576 38.016 37.44 23.712 46.272 3.712q29.152-5.152 56-19.712t47.712-25.728 42.016-10.016q34.848 2.272 51.136 18.848t11.136 37.152q-0.576 1.152-1.44 3.136t-4.864 7.136-10.272 8.864-18.016 6.016-26.56 0.576q-34.272 54.272-82.56 77.44t-119.712 16.864q42.272 34.848 92.864 47.136t96.288 3.424 88.288-29.728 73.152-50.016 46.016-59.424q24.576-52 22.272-110.016t-21.44-107.712-44.864-71.424q49.728 21.728 78.272 45.44t44 64.288q8.576-97.152-32.864-196t-119.712-162.272q151.424 44 235.424 159.712t86.272 295.712q1.152 72.576-23.136 145.728t-70.56 136-108 112-141.44 77.44-164.864 28.288z"></path>
</svg>
