<svg viewBox="0 0 1024 1024" version="1.1" xmlns="http://www.w3.org/2000/svg"
    fill="currentColor" height="1em" width="1em">
  <path d="M 638.3 571.941 L 607.032 587.337 L 609.592 589.453 L 618.023 596.144 L 703.738 665.166 C 731.16 687.104 758.912 708.62 786.995 729.716 C 786.756 730.979 786.619 732.413 786.619 733.881 C 786.619 734.324 786.619 734.768 786.653 735.212 L 786.653 735.144 L 797.747 733.437 L 802.151 739.923 L 900.973 802.698 C 899.437 808.706 898.584 815.601 898.584 822.702 C 898.584 838.199 902.748 852.741 910.019 865.235 L 909.814 864.825 C 936.952 905.924 976.208 937.158 1022.43 953.646 L 1024 954.124 C 991.125 870.184 1015.09 801.879 950.197 777.813 C 945.657 775.833 940.4 774.707 934.836 774.707 C 930.74 774.707 926.78 775.321 923.093 776.482 L 923.366 776.414 L 836.047 695.581 L 828.64 693.362 L 827.582 682.199 C 825.602 682.985 823.895 683.838 822.291 684.794 L 822.461 684.691 C 809.422 673.597 793.173 661.786 775.969 649.941 C 717.802 614.338 679.706 594.471 638.266 571.873 L 638.3 571.941 Z M 661.785 567.674 C 659.737 569.927 657.552 571.976 655.231 573.853 L 655.129 573.955 L 664.072 578.871 C 663.526 574.638 662.707 570.849 661.649 567.162 L 661.785 567.674 Z M 309.437 355.897 C 289.844 356.136 274.039 372.077 274.039 391.739 C 274.039 411.538 290.082 427.582 309.881 427.582 C 329.68 427.582 345.724 411.538 345.724 391.739 C 345.724 384.981 343.846 378.666 340.603 373.306 L 340.706 373.477 C 334.356 362.895 322.921 355.931 309.881 355.931 C 309.745 355.931 309.574 355.931 309.437 355.931 L 309.472 355.931 L 309.437 355.897 Z M 72.297 350.674 L 72.366 350.674 C 72.661 350.674 72.957 350.674 73.253 350.674 C 73.287 350.674 73.321 350.674 73.356 350.674 C 84.654 350.674 94.895 355.18 102.405 362.519 C 109.846 369.79 114.421 379.894 114.421 391.125 C 114.421 402.356 109.812 412.46 102.371 419.731 C 94.895 427.036 84.62 431.542 73.321 431.542 C 62.022 431.542 51.714 427.002 44.238 419.662 C 36.83 412.392 32.222 402.253 32.222 391.057 C 32.222 380.031 36.66 370.063 43.862 362.827 C 51.167 355.487 61.169 350.879 72.263 350.606 L 72.297 350.606 L 72.297 350.674 Z M 539.068 323.4 C 539.068 323.4 539.033 323.4 539.033 323.4 C 507.834 323.4 482.505 348.694 482.505 379.929 C 482.505 411.163 507.799 436.457 539.033 436.457 C 570.233 436.457 595.562 411.163 595.562 379.929 C 595.562 369.551 592.763 359.789 587.882 351.425 L 588.018 351.698 C 578.085 334.665 559.89 323.4 539.102 323.4 L 539.068 323.4 Z M 292.677 302.85 C 293.462 302.816 294.384 302.816 295.305 302.816 C 337.736 302.816 372.315 336.44 373.817 378.529 L 373.817 378.666 C 372.247 420.823 337.668 454.412 295.271 454.412 C 294.349 454.412 293.428 454.412 292.506 454.378 L 292.643 454.378 C 291.858 454.412 290.97 454.412 290.048 454.412 C 247.652 454.412 213.107 420.823 211.605 378.802 L 211.605 378.666 C 213.107 336.44 247.72 302.782 290.185 302.782 C 291.072 302.782 291.926 302.782 292.779 302.816 L 292.643 302.816 L 292.677 302.85 Z M 846.903 69.943 C 842.397 69.26 837.174 74.517 833.078 86.874 C 826.387 106.912 787.302 223.519 598.293 271.411 C 623.553 292.576 639.597 323.98 639.938 359.174 L 639.938 359.242 C 637.481 425.773 582.966 478.751 516.094 478.751 C 514.661 478.751 513.193 478.717 511.759 478.683 L 511.964 478.683 C 510.769 478.717 509.37 478.751 507.936 478.751 C 441.03 478.751 386.516 425.773 384.092 359.481 L 384.092 359.242 C 384.194 333.163 393.104 309.165 407.953 290.05 L 407.748 290.323 C 324.321 278.887 254.684 228.537 216.896 158.457 L 216.213 157.091 L 212.117 334.665 C 212.253 337.225 212.356 340.229 212.356 343.267 C 212.356 365.319 208.055 386.346 200.203 405.564 L 200.613 404.472 L 198.463 401.4 C 183.238 380.099 164.259 362.554 142.378 349.343 L 141.524 348.865 C 123.364 337.566 101.313 330.842 77.691 330.842 C 77.418 330.842 77.145 330.842 76.871 330.842 L 76.906 330.842 C 60.657 331.183 45.74 336.44 33.451 345.247 L 33.69 345.076 C 13.106 361.598 -0.002 386.79 -0.002 415.02 C -0.002 417.034 0.066 419.014 0.203 420.994 L 0.203 420.721 C 1.568 458.167 14.403 492.371 35.26 520.192 L 34.919 519.748 C 52.26 544.189 74.857 563.817 101.108 577.267 L 102.132 577.744 C 116.571 585.561 133.741 590.136 152.004 590.136 C 160.265 590.136 168.287 589.18 176.001 587.405 L 175.284 587.541 C 303.122 682.234 537.088 764.5 697.013 667.965 L 610.65 598.465 C 588.223 604.473 562.451 607.954 535.893 607.954 C 495.237 607.954 456.459 599.864 421.095 585.152 L 423.075 585.869 C 447.379 593.891 475.336 598.499 504.352 598.499 C 558.73 598.499 609.353 582.284 651.613 554.464 L 650.623 555.078 C 642.191 545.93 632.155 538.386 620.925 532.89 L 620.345 532.617 C 635.91 536.065 649.36 543.506 660.044 553.815 L 660.01 553.781 C 665.813 561.223 669.329 570.678 669.329 580.953 C 669.329 581.192 669.329 581.431 669.329 581.67 L 669.329 581.636 C 692.917 594.334 719.782 609.627 749.309 626.934 C 837.174 539.069 888.07 373.852 856.802 88.718 C 855.3 77.248 851.374 70.592 846.868 69.875 L 846.903 69.943 Z"/>
</svg>
