<svg viewBox="0 0 1024 1024" xmlns="http://www.w3.org/2000/svg" fill="currentColor" height="1em" width="1em">
    <path d="M973.83923001 469.19927094L554.67992844 50.07996969a61.99989657 61.99989657 0 0 0-87.51985407 0L380.32021906 137.07982531l110.39981625 110.39981532a73.51987781 73.51987781 0 0 1 93.079845 93.63984375l106.31982282 106.39982343a73.51987781 73.51987781 0 0 1 75.99987374 121.5597975 73.4798775 73.4798775 0 0 1-103.99982718 0 73.83987655 73.83987655 0 0 1-16.1599725-79.83986718L546.3999425 390.19940281v260.999565c7.03998844 3.43999406 13.6799775 8.11998656 19.51996781 13.91997657a73.91987719 73.91987719 0 0 1 0 103.99982718 73.75987687 73.75987687 0 0 1-104.35982625 0 73.3598775 73.3598775 0 0 1 0-103.91982656c7.2799875-7.19998781 15.47997375-12.63997875 24.19995939-16.23997312V385.39941125a73.3598775 73.3598775 0 0 1-39.83993344-96.39984L337.44029094 179.99975375 50.00076969 467.23927438c-23.99995969 24.19995937-23.99995969 63.35989406 0 87.55985437l419.19930187 419.07930187a61.79989687 61.79989687 0 0 0 87.43985438 1e-8l417.19930405-417.199305a61.7598975 61.7598975 0 0 0 2e-8-87.47985469"
         ></path>
</svg>
