<svg viewBox="0 0 1024 1024" xmlns="http://www.w3.org/2000/svg" fill="currentColor" height="1em" width="1em">
    <path d="M989.86666667 512a464.21333333 464.21333333 0 0 1-91.47733334 280.91733333 469.33333333 469.33333333 0 0 1-235.17866666 172.71466667 28.672 28.672 0 0 1-24.576-4.43733333 24.23466667 24.23466667 0 0 1-7.50933334-18.77333334v-131.072a111.616 111.616 0 0 0-32.42666666-88.40533333 443.73333333 443.73333333 0 0 0 63.488-10.92266667 232.78933333 232.78933333 0 0 0 58.368-24.576 175.78666667 175.78666667 0 0 0 50.176-40.96 196.26666667 196.26666667 0 0 0 34.13333333-65.536 313.344 313.344 0 0 0 12.97066667-93.86666666 179.88266667 179.88266667 0 0 0-49.49333334-128 165.20533333 165.20533333 0 0 0-4.77866666-126.976 81.57866667 81.57866667 0 0 0-50.176 6.82666666 320.512 320.512 0 0 0-57.344 27.30666667l-23.552 14.67733333a443.73333333 443.73333333 0 0 0-238.93333334 0c-6.82666667-4.77866667-15.36-9.89866667-26.28266666-16.72533333A347.81866667 347.81866667 0 0 0 314.02666667 238.93333333a88.40533333 88.40533333 0 0 0-53.58933334-8.53333333 167.25333333 167.25333333 0 0 0-4.43733333 128 185.344 185.344 0 0 0-49.152 128.68266667A307.2 307.2 0 0 0 219.81866667 580.26666667a209.57866667 209.57866667 0 0 0 34.13333333 65.536 162.13333333 162.13333333 0 0 0 50.176 41.64266666 285.696 285.696 0 0 0 58.368 24.576 441.68533333 441.68533333 0 0 0 63.82933333 10.92266667 98.64533333 98.64533333 0 0 0-30.72 64.17066667 105.81333333 105.81333333 0 0 1-28.33066666 8.87466666 178.51733333 178.51733333 0 0 1-34.13333334 3.072A73.728 73.728 0 0 1 289.45066667 785.06666667a116.736 116.736 0 0 1-34.13333334-38.912 102.4 102.4 0 0 0-30.03733333-32.42666667 86.016 86.016 0 0 0-30.72-15.01866667h-12.288a44.37333333 44.37333333 0 0 0-18.09066667 2.73066667q-5.12 3.072-3.072 7.168a47.104 47.104 0 0 0 5.80266667 8.53333333 59.05066667 59.05066667 0 0 0 8.192 7.85066667l4.43733333 2.73066667a83.28533333 83.28533333 0 0 1 27.30666667 23.552 168.27733333 168.27733333 0 0 1 19.456 31.40266666l6.144 14.336a77.14133333 77.14133333 0 0 0 27.30666667 38.57066667 102.4 102.4 0 0 0 41.30133333 17.74933333 209.23733333 209.23733333 0 0 0 43.008 4.43733334 194.21866667 194.21866667 0 0 0 34.13333333-2.38933334l14.336-2.38933333v89.42933333a24.576 24.576 0 0 1-8.192 18.77333334 29.696 29.696 0 0 1-24.91733333 4.43733333 467.28533333 467.28533333 0 0 1-233.81333333-173.73866667A456.36266667 456.36266667 0 0 1 34.13333333 512a466.60266667 466.60266667 0 0 1 64.17066667-238.93333333A473.088 473.088 0 0 1 273.06666667 98.304 466.60266667 466.60266667 0 0 1 512 34.13333333a466.60266667 466.60266667 0 0 1 238.93333333 64.17066667A473.088 473.088 0 0 1 925.696 273.06666667 465.92 465.92 0 0 1 989.86666667 512z"
         ></path>
</svg>
