<svg viewBox="0 0 1024 1024" xmlns="http://www.w3.org/2000/svg" fill="currentColor" height="1em" width="1em">
    <path d="M59.424 403.424l452.576 580-496-360q-10.272-7.424-14.272-19.712t0-24.288l57.728-176zM323.424 403.424l377.152 0-188.576 580zM210.272 53.728l113.152 349.728-264 0 113.152-349.728q4.576-13.152 18.848-13.152t18.848 13.152zM964.576 403.424l57.728 176q4 12 0 24.288t-14.272 19.712l-496 360 452.576-580zM964.576 403.424l-264 0 113.152-349.728q4.576-13.152 18.848-13.152t18.848 13.152z"></path>
</svg>
