<svg viewBox="0 0 1024 1024" version="1.1" xmlns="http://www.w3.org/2000/svg"
     fill="currentColor" width="1em" height="1em">
    <path d="M785.92 85.333333c-177.493333 0-209.92 253.013333-110.933333 253.013334 99.84 0 288.426667-253.013333 110.933333-253.013334M512 116.48c-3.413333 0-6.4 0-9.386667 0.426667-99.84 12.8-64.853333 186.88-11.946666 189.866666 52.053333 3.413333 108.373333-190.293333 21.333333-190.293333M338.346667 185.173333c-5.12 0-11.093333 1.28-17.066667 3.84-80.213333 33.28-12.373333 169.813333 32.853333 160.853334 41.386667-8.533333 46.506667-166.4-15.786666-164.693334m-128 107.093334c-6.826667-0.426667-14.506667 2.133333-22.186667 7.68-64.426667 44.373333 21.333333 151.466667 59.306667 134.826666 32.853333-14.506667 11.946667-140.8-37.12-142.506666m356.693333 81.92c-136.106667 1.28-309.76 70.4-340.053333 205.653333C193.28 730.026667 365.226667 938.666667 544.426667 938.666667c88.32 0 189.866667-79.786667 209.066666-180.48 14.506667-76.8-171.093333-46.08-164.266666 4.693333 8.106667 61.013333-44.8 90.453333-96.426667 52.053333-164.693333-125.44 272.213333-187.733333 243.2-358.826666-9.386667-55.466667-81.493333-82.346667-168.96-81.92z"></path>
</svg>
