<svg viewBox="0 0 1024 1024" version="1.1" xmlns="http://www.w3.org/2000/svg"
    fill="currentColor" height="1em" width="1em">
  <path d="M 248.935 1022.75 C 248.935 1021.9 250.215 1021.73 250.983 1021.73 C 251.836 1021.73 255.933 1019.68 260.282 1017.21 C 271.859 1010.47 285.441 1004.91 298.417 1001.55 L 309.917 998.56 L 338.301 999.41 C 367.265 1000.27 412.989 998.56 439.954 997.03 C 600.584 985.97 715.637 947.35 777.06 883.883 C 791.865 868.575 804.852 850.928 802.804 848.888 C 801.951 848.036 796.148 850.084 782.888 855.289 C 670.095 900.139 538.632 910.908 420.558 884.976 C 413.219 883.354 406.973 881.818 406.76 881.648 C 406.76 881.648 414.354 880.795 424.159 880.539 C 477.841 878.49 538.299 871.006 586.572 860.451 C 714.98 832.377 809.153 779.975 865.182 705.403 C 878.102 688.225 893.556 661.822 893.556 656.933 C 893.556 650.789 878.554 656.933 817.541 689.215 C 751.639 723.834 684.038 743.913 616.49 748.913 C 591.896 750.705 534.528 749.767 527.462 747.292 C 526.608 747.292 536.319 744.135 548.975 740.977 C 669.345 710.625 793.196 654.979 865.694 598.668 C 879.817 587.711 899.546 570.031 899.546 568.358 C 899.546 567.505 900.4 566.737 900.57 566.395 C 901.423 566.395 901.594 642.401 901.594 794.891 L 901.594 1024 L 574.958 1024 C 357.463 1024 248.535 1024 248.944 1022.98 L 248.935 1022.75 Z M 122.459 627.655 L 122.407 500.135 L 149.162 500.135 L 175.925 500.135 L 176.778 387.606 C 177.632 276.017 177.632 275.002 179.509 266.076 C 190.182 222.412 215.34 173.798 249.447 130.935 C 261.281 116.062 290.543 86.947 305.72 74.923 C 348.863 40.772 396.399 18.715 449.751 8.082 C 463.191 5.437 484.362 2.536 491.735 2.45 C 494.977 2.408 495.659 2.45 494.294 1.597 C 491.478 0.488 522.317 -0.452 537.455 0.231 C 544.452 0.231 549.333 1.17 548.276 1.511 C 547.166 1.511 550.664 2.536 556.126 2.876 C 576.469 4.328 607.855 11.069 629.725 18.749 C 697.496 42.514 753.79 90.624 795.928 160.759 C 816.202 194.508 833.568 235.664 844.285 275.361 L 847.869 288.63 L 847.869 391.584 L 847.869 494.52 L 837.612 499.981 C 744.626 549.423 728.207 557.308 700.081 566.114 C 671.803 574.963 609.442 586.303 540.792 595.067 C 510.447 598.907 504.252 599.59 439.775 606.143 C 302.035 620.061 267.79 630.259 208.83 674.947 C 182.383 695.009 131.886 741.532 124.464 752.694 C 122.928 754.997 122.843 746.891 122.758 627.664 L 122.459 627.655 Z M 681.291 391.464 L 681.291 282.801 L 677.707 272.442 C 662.006 227.097 630.074 191.18 587.272 170.7 C 558.771 157.064 531.661 151.867 498.748 153.728 C 429.398 157.653 367.547 205.174 344.025 272.579 L 340.697 282.084 L 340.697 390.09 C 340.697 449.49 340.655 498.667 340.697 499.367 C 340.697 500.39 374.464 500.561 511.009 500.39 L 680.821 500.39 L 680.821 391.72 L 681.291 391.464 Z M 243.792 269.532 C 263.831 230.527 288.742 193.227 313.893 164.565 C 351.678 121.506 400.349 89.438 449.588 75.171 C 479.787 66.424 498.218 64.077 537.002 64.06 C 570.274 64.043 574.933 64.06 615.687 70.204 C 640.22 73.702 645.477 73.873 643.975 71.485 C 641.671 67.73 598.296 53.897 574.011 49.127 C 542.915 42.984 501.743 40.85 473.207 43.922 C 365.192 55.434 285.304 119.517 248.867 223.905 C 244.344 236.978 240.131 252.303 237.419 265.957 C 234.005 282.998 236.224 284.253 243.818 269.541 L 243.792 269.532 Z"/>
</svg>
