<svg viewBox="0 0 1024 1024" version="1.1" xmlns="http://www.w3.org/2000/svg" xmlns:xlink="http://www.w3.org/1999/xlink"
     width="1em" height="1em">
    <path d="M931.84 432.81066667H520.76088889v168.96h234.83733333c-10.12622222 54.61333333-40.84622222 100.80711111-87.15377777 131.75466666-39.13955555 26.16888889-89.088 41.64266667-147.79733334 41.64266667-113.664 0-209.80622222-76.8-244.16711111-179.99644445-8.64711111-26.16888889-13.65333333-54.15822222-13.65333333-82.944s5.00622222-56.77511111 13.65333333-82.944c34.47466667-103.08266667 130.61688889-179.88266667 244.28088889-179.88266666 64.05688889 0 121.51466667 22.07288889 166.79822222 65.30844444l125.15555556-125.26933333c-75.66222222-70.54222222-174.30755555-113.77777778-291.95377778-113.77777778-170.55288889 0-318.12266667 97.84888889-389.91644444 240.52622223-29.58222222 58.93688889-46.42133333 125.61066667-46.42133334 196.15288888S101.26222222 649.44355555 130.84444445 708.38044445C202.63822222 851.05777778 350.208 948.90666667 520.76088889 948.90666667c117.87377778 0 216.63288889-39.13955555 288.768-105.81333334 82.48888889-76.00355555 130.16177778-187.96088889 130.16177778-320.96711111 0-30.94755555-2.73066667-60.64355555-7.85066667-89.31555555z"></path>
</svg>