<svg viewBox="0 0 1024 1024" xmlns="http://www.w3.org/2000/svg" fill="currentColor" height="1em" width="1em">
    <path d="M588.90827041 165.15682666l185.05232139 106.86912188a80.39557793 80.39557793 0 0 1 127.83046992 14.999175 80.47057412 80.47057412 0 0 1-50.77220801 118.15600166v213.70074609a79.94560342 79.94560342 0 0 1 50.54722031 118.118504 80.35808027 80.35808027 0 0 1-129.4803791 13.23677198l-183.92738379 106.19415879a80.24558643 80.24558643 0 1 1-156.40389756 25.42360165c0-7.68707754 1.08743994-15.3741542 3.29981836-22.83624404l-185.08981992-106.75662802a80.24558643 80.24558643 0 1 1-76.94576807-133.45515968l0.03749766-213.70074696A80.28308408 80.28308408 0 0 1 122.17144063 286.98762588a80.35808027 80.35808027 0 0 1 127.75547372-15.18666504l185.16481524-106.86912188A80.17059023 80.17059023 0 0 1 512 62a80.13309258 80.13309258 0 0 1 76.90827041 103.15682666z m-19.31143799 32.88569063a29.73586464 29.73586464 0 0 1-2.17488076 2.17488076l242.27417549 419.60192168c0.97494609-0.33748154 2.09988458-0.5999669 3.07483066-0.86245225V404.9561375a80.05809638 80.05809638 0 0 1-58.42178701-97.04466299l0.71246074-2.69985146-185.46479912-107.16910576z m-113.05628174 2.21237841l-2.24987695-2.24987607-185.46479912 106.94411807a80.09559492 80.09559492 0 0 1-54.78448711 99.18204521l-2.84984297 0.78745693v214.03822764l3.14982685 0.86245225 242.27417461-419.60192168-0.07499531 0.03749765z m77.84571797 19.01145498c-14.6241958 4.19976914-30.11084385 4.19976914-44.69754112 0l-242.23667782 419.56442403c11.02439356 10.6119167 18.82396494 24.18616933 22.49876338 39.03535283h484.13587236c3.6372999-14.92417881 11.5118666-28.53593086 22.61125635-39.14784668L534.38626865 219.26635068z m36.9729668 608.47903301l184.22736768-106.41914648a65.54639531 65.54639531 0 0 1-1.42492237-5.32470762H269.83831924l-0.78745693 3.1123292 185.20231376 106.94411806a79.72061573 79.72061573 0 0 1 57.74682393-24.48615321c23.51120713 0 44.6225458 10.08694512 59.35923545 26.17356005z"
          fill=""></path>
</svg>
