<svg viewBox="0 0 1024 1024" xmlns="http://www.w3.org/2000/svg" fill="currentColor" height="1em" width="1em">
    <path d="M669.056 823.50933333c-66.144 0-128.33066667-25.76-175.104-72.53333333-46.77333333-46.77333333-72.53333333-108.96-72.53333333-175.104 0-66.144 25.76-128.33066667 72.53333333-175.104 46.77333333-46.77333333 108.96-72.53333333 175.104-72.53333333 66.144 0 128.33066667 25.76 175.104 72.53333333 46.77333333 46.77333333 72.53333333 108.96 72.53333333 175.104 0 66.144-25.76 128.33066667-72.53333333 175.104-46.77333333 46.77333333-108.96 72.53333333-175.104 72.53333333z m0-426.99733333c-98.90133333 0-179.36 80.45866667-179.36 179.36s80.45866667 179.36 179.36 179.36 179.36-80.45866667 179.36-179.36c0.01066667-98.89066667-80.45866667-179.36-179.36-179.36zM57.40266667 455.27146667l338.19733333-1.66613334 0.33706667 68.26666667-338.19733334 1.66613333zM57.40266667 792.90773333l338.19733333-1.6672 0.33706667 68.26666667-338.19733334 1.6672zM57.568 116.78933333h913.23733333v68.26666667H57.568z"
         ></path>
    <path d="M786.2048 747.7312l47.59466667-48.93973333 167.744 163.1328-47.59466667 48.9408z"></path>
</svg>
