<svg viewBox="0 0 1024 1024" xmlns="http://www.w3.org/2000/svg" fill="currentColor" height="1em" width="1em">
    <path d="M426.50985125 976.71755188l63.52628438-366.46441126s23.57848125 22.28030906 54.67663781 38.54862c33.37089375 17.45237906 62.60783626 25.19465062 82.64533687 30.29568281 12.76099969 3.24730219 25.15910999 6.70036688 37.34771624 10.20206626-5.71270781 12.85078688-6.84627094 22.15123969-6.13171499 37.14569531 0 1.42911188 1.06996406 2.85635438 2.49907594 3.57278063 0 0 81.62213719 45.10682345 136.73835844-0.71642719 11.73218813-9.75313031 22.84896095-25.70531531 28.56353906-40.69977l2.13992719-20.70716344c24.04612313-13.06590187 37.64700656-28.26986062 43.55799469-39.27252845s16.38989719-34.25754188-1.08679875-66.52105968c-20.23578094-37.35706875-50.32570125-58.436475-68.88919594-69.14733468-20.77263281-14.08536-37.17001219-21.66676311-56.17309031-26.79585469-13.08460781-3.53349844-22.08577031-7.3719-28.31101313-10.83057563-26.38245937-14.65775344-23.09400469-43.04545969-19.05358312-57.34032281 4.0404225-14.29673437 11.01202032-29.22384938 9.99630375-47.12703469l69.977865-58.55244937c2.85448313 1.42911188 5.71083749 3.57091031 7.85263593 4.99815187 0 0 22.13627531 2.1417975 34.27437656-31.41802312l-6.42539343-4.28359594s39.88794469-38.54861906 47.85468375-49.90482375c0 0 5.28621844-6.39546469 1.4141475-10.78942407-2.63188594-2.98729312-9.4239103-13.09396031-51.8333775-41.24784562s-61.88766844-30.55569187-66.69876374-28.01359312c0 0-42.47119594 22.65068062-59.97969095 38.5579725l-7.13995031-4.99815188s-29.98891031 2.85635438-19.99260656 22.13627532l2.85635343 2.85448312-218.49704625 188.50813688-119.95938375-259.1968172h8.56719188s2.85635438-23.56351689-14.27989969-27.84898312c0 0-2.85635438 0-7.13994937 0.71455594-6.42726375-12.85265719-21.42171938-49.2707025-21.42171938-49.2707025-0.71455594-3.56903906-2.07258656-6.16538438-7.85450531-7.852635C274.34867844 33.56519469 269.61801781 31.84427469 247.28346219 34.53788938 212.76965281 38.70363969 188.55330875 46.24763094 175.49862969 50.59108437c-11.96787938 3.98243438-27.18493219 12.94618594-27.18493219 12.94618594-4.98879938 3.00786938-3.13506844 7.41679312-3.13506844 7.41679312L159.45478719 105.22844094S143.03309001 108.08479438 142.32040438 109.51203594C138.74762375 115.93929969 149.46035469 149.49912031 163.74212375 158.07005281l15.70901156-4.283595 146.22773813 326.85892219c-2.1417975 7.13994938-114.09703031 443.59157906-114.09702938 443.59157906-0.30490219 1.21025625 0.71455594 2.85635438 0.71455594 2.85635344 14.17888875 21.18602813 114.43560281 86.43136219 209.94481969 55.67177906 3.56716875-1.1485275 4.26863156-6.04566843 4.26863156-6.04566843z m242.92850625-312.09454594c-4.77181313-1.82006062-9.46880438-3.56155687-14.16579469-5.30866594a1293.6271725 1293.6271725 0 0 1-18.77299781-7.0838325c-17.35323845-6.93979875-35.35369312-14.14147689-51.51912281-22.57211719l-0.27871407-0.13655156c-17.88447938-8.19868969-33.606585-17.34575623-46.72299187-27.18493219-11.50397906-8.62891969-31.27585969-33.86098125-36.85014562-41.10942375 1.07931655-8.36891156 4.32474844-35.24145938 3.75422531-51.67625062 48.31297312-34.08170813 98.21592656-71.45187187 152.01713906-113.85198563-1.65732094 9.40894594-2.30827781 21.85943156 0.411525 36.75661781 4.59410999 25.15910999 19.39963781 44.25571594 42.8228625 55.23219563 1.79948438 0.94089469 14.08723125 6.992175 45.11804625 14.24435812 18.81789188 4.39957031 39.18274126 16.79206875 39.38476219 16.91552625 16.9043025 9.55485001 32.00538 20.81378531 43.86476719 32.67130219 13.13511281 13.13698314 21.34315594 28.41950625 22.52161218 41.92499063 0.14403375 1.26824345 2.53087594 24.12094594-17.91627938 43.74505125-1.28320781-10.826835-4.65583781-25.29753188-13.49426155-30.85311187l-0.83801344-0.52562907-0.96147094-0.23382094a7.89752906 7.89752906 0 0 0-1.85934187-0.23007937c-2.90498906 0-5.43586406 1.72092094-6.60496782 4.48374562-0.57052219 1.50019406-11.93795065 30.91297031-41.89319063 32.71619531-0.76693219 0.04302281-1.56192281 0.06546937-2.37748968 0.06547032-21.52272938 0.00187031-59.67478969-14.52307312-60.05825531-14.66710594a12.13623094 12.13623094 0 0 0-4.01049282-0.68649844c-3.38572406 0-6.70597875 1.30565531-8.89266937 3.49234688l-0.2375625 0.23756157-0.20950313 0.26187936c-4.91210531 6.13919719-16.54328343 23.85719625-22.23167437 33.37276407z"
         ></path>
</svg>
