<svg viewBox="0 0 1182 1024" xmlns="http://www.w3.org/2000/svg" fill="currentColor" height="1em" width="1em">
    <path d="M1052.74333719 122.24373781A309.9470325 309.9470325 0 0 0 615.54071563 122.24373781l-29.62563938 29.62564031L557.18718312 122.24373781A309.72259594 309.72259594 0 0 0 119.31125187 122.24373781c-120.52248844 120.52248844-114.23826188 324.0865425 6.28422657 444.60903188l22.44366656 22.44366656 376.380285 377.27803219a87.08142562 87.08142562 0 0 0 122.9912925 0L1024.01544406 589.96974594l22.44366656-22.44366657c120.29805188-120.29805188 126.806715-323.86210594 6.28422657-445.28234156z m-22.44366656 231.84307406a206.70616781 206.70616781 0 0 1-62.16895594 131.74432219l-23.56584938 24.68803313-359.09866218 359.09866218-359.09866219-359.09866218-22.89254063-23.79028688a206.93060438 206.93060438 0 0 1-62.3933925-131.74432125A197.50426406 197.50426406 0 0 1 350.92988937 144.68740438a205.80842063 205.80842063 0 0 1 131.74432125 62.84226656l24.01472344 23.79028594L548.20971687 272.84073969l59.25127875 59.25127969a58.57796906 58.57796906 0 1 0 82.81712907-83.04156563l-21.32148282-22.44366656 25.13690625-24.01472344a197.50426406 197.50426406 0 0 1 336.65499563 152.39249531z"
         ></path>
    <path d="M265.46573 419.76483969m39.67517156-39.6751725l0 0q39.67517156-39.67517156 79.35034313 0l100.61623593 100.61623593q39.67517156 39.67517156 0 79.35034407l0 0q-39.67517156 39.67517156-79.35034406 0l-100.616235-100.61623594q-39.67517156-39.67517156 0-79.35034406Z"
         ></path>
</svg>
