<svg viewBox="0 0 1024 1024" version="1.1" xmlns="http://www.w3.org/2000/svg"
    fill="currentColor" height="1em" width="1em">
  <path d="M 338.709 0 C 334.619 0 331.028 2.719 329.92 6.656 C 316.437 53.76 337.557 98.389 365.675 131.883 C 372.203 139.605 379.029 146.688 385.984 153.259 C 376.543 151.988 366.958 152.276 357.611 154.112 C 307.093 164.053 264.043 196.139 240.704 262.144 C 233.887 282.257 230.99 303.49 232.171 324.693 C 203.162 332.547 182.975 358.812 182.848 388.864 C 182.986 420.253 204.64 447.448 235.2 454.613 L 236.309 968.576 C 236.309 976.896 240.576 984.661 247.573 989.141 C 247.686 989.215 247.799 989.286 247.915 989.355 C 270.827 1002.58 335.253 1024 470.208 1024 C 608.363 1024 670.741 995.072 691.264 979.627 C 691.38 979.53 691.494 979.43 691.605 979.328 C 697.172 974.7 700.393 967.837 700.395 960.597 C 700.48 945.92 700.48 912.128 700.48 892.16 C 700.454 888.706 703.299 885.919 706.752 886.016 C 723.691 886.272 743.829 886.272 762.987 886.229 C 806.098 886.371 841.129 851.474 841.152 808.363 L 841.152 560.725 C 841.152 517.714 806.297 482.84 763.285 482.816 L 706.581 482.816 C 703.164 482.891 700.382 480.088 700.48 476.672 L 700.48 452.267 L 700.779 452.267 L 700.779 452.224 C 733.916 447.609 758.593 419.292 758.635 385.835 C 758.635 351.019 731.883 322.304 697.877 319.147 C 696.811 257.792 679.232 228.437 666.475 209.067 C 666.406 208.966 666.334 208.866 666.261 208.768 C 650.731 187.008 615.36 154.069 569.195 152.619 C 547.733 151.936 533.269 157.909 521.195 163.456 C 511.936 167.723 503.275 171.008 492.608 172.843 C 492.693 117.973 532.928 88.32 532.928 88.32 C 537.021 85.394 537.975 79.707 535.061 75.605 C 535.061 75.605 531.349 70.4 526.101 64.512 C 520.939 58.709 514.624 51.968 506.048 48.384 C 504.981 47.93 503.837 47.684 502.677 47.659 C 500.394 47.64 498.187 48.477 496.491 50.005 C 481.557 63.513 468.945 79.383 459.157 96.981 C 457.094 100.778 455.201 104.665 453.483 108.629 C 449.691 95.929 444.225 83.79 437.227 72.533 C 417.899 41.728 386.709 18.603 342.08 0.683 C 341.023 0.249 339.894 0.017 338.752 0 L 338.709 0 Z M 345.365 22.357 C 381.632 38.485 406.379 57.771 421.739 82.219 C 433.429 100.907 439.915 123.264 442.389 149.803 C 441.724 156.351 441.552 162.94 441.877 169.515 C 439.479 168.806 437.089 168.066 434.709 167.296 C 414.024 154.52 395.454 138.599 379.669 120.107 C 356.16 92.075 339.776 57.813 345.365 22.357 Z M 503.488 69.035 C 506.475 71.339 509.504 73.344 512.533 76.715 C 513.984 78.379 513.899 78.421 515.008 79.829 C 500.843 92.971 469.355 128.64 474.389 184.491 C 474.818 189.349 478.989 193.012 483.861 192.811 C 503.872 192.085 517.227 185.472 528.917 180.053 C 540.565 174.677 550.592 170.325 568.64 170.923 C 605.973 172.075 638.571 201.429 651.371 219.307 C 663.957 238.464 679.104 261.973 679.659 320 C 673.588 321.246 667.706 323.282 662.165 326.059 C 649.016 296.06 619.399 276.65 586.645 276.565 C 549.12 276.693 516.375 302.048 506.859 338.347 C 492.524 321.184 471.364 311.197 449.003 311.04 C 428.352 311.04 410.176 319.787 396.395 333.099 C 391.106 293.51 357.402 263.904 317.461 263.765 C 289.771 263.765 265.493 278.059 251.243 299.605 C 252.195 288.919 254.445 278.388 257.941 268.245 C 279.701 206.933 315.755 180.992 361.195 172.075 C 376.853 168.96 389.525 171.605 403.435 176.128 C 417.301 180.651 432.064 187.307 450.112 190.72 C 456.36 191.936 461.903 186.546 460.864 180.267 C 456.085 151.68 463.979 126.251 475.2 105.856 C 482.768 92.258 492.3 79.851 503.488 69.035 Z M 317.461 282.069 C 360.047 281.942 389.88 324.077 375.616 364.203 C 373.704 369.584 377.144 375.38 382.784 376.277 L 382.997 376.277 C 387.457 376.999 391.774 374.351 393.152 370.048 C 406.851 327.083 461.924 315.06 492.283 348.406 C 497.854 354.526 502.066 361.756 504.64 369.621 C 506.673 376.35 515.227 378.354 520.038 373.229 C 521.913 371.232 522.792 368.498 522.432 365.781 C 518.506 327.759 548.378 294.708 586.603 294.784 C 615.531 294.784 639.893 313.771 648.128 339.84 C 649.586 344.503 654.456 347.191 659.179 345.941 L 665.579 344.235 C 666.338 344.045 667.069 343.758 667.755 343.381 C 700.232 324.914 740.533 348.474 740.373 385.835 C 740.407 410.168 722.454 430.782 698.347 434.091 C 698.332 434.091 698.318 434.091 698.304 434.091 C 691.225 435.094 684.283 436.898 677.611 439.467 C 661.2 445.621 644.446 450.821 627.435 455.04 C 623.685 455.958 620.917 459.135 620.523 462.976 C 619.811 470.118 617.694 477.05 614.293 483.371 C 606.539 497.911 603.006 514.331 604.096 530.773 L 604.139 537.216 C 604.424 543.128 601.892 548.826 597.312 552.576 C 592.082 556.649 585.591 558.763 578.965 558.549 C 565.056 558.597 553.782 547.285 553.877 533.376 C 553.854 521.54 547.724 510.555 537.664 504.32 C 537.636 504.291 537.607 504.263 537.579 504.235 C 527.339 498.048 519.232 488.448 514.88 477.099 C 513.496 473.451 509.948 471.085 506.048 471.211 C 428.856 473.369 351.74 464.752 276.928 445.611 L 276.8 445.525 C 265.02 442.198 253.089 439.436 241.045 437.248 L 241.173 437.248 C 218.017 432.712 201.283 412.46 201.195 388.864 C 201.195 362.453 222.016 341.163 248.171 340.224 C 252.481 340.091 256.111 336.959 256.875 332.715 C 262.159 303.399 287.673 282.072 317.461 282.069 Z M 682.219 457.259 L 682.219 476.672 C 682.219 490.069 693.269 501.12 706.624 501.12 L 763.328 501.12 C 796.247 501.12 822.933 527.806 822.933 560.725 L 822.933 808.363 C 822.934 841.358 796.11 868.067 763.115 867.925 C 763.086 867.925 763.058 867.925 763.029 867.925 C 743.915 868.011 723.861 867.925 707.136 867.712 C 693.451 867.449 682.216 878.472 682.219 892.16 C 682.219 912.128 682.219 946.005 682.133 960.555 C 682.133 960.569 682.133 960.583 682.133 960.597 C 682.133 962.389 681.323 964.011 680 965.163 C 665.237 976.256 605.333 1005.7 470.293 1005.7 C 337.728 1005.7 274.581 983.509 257.387 973.611 C 255.68 972.5 254.64 970.612 254.613 968.576 L 253.547 458.496 C 259.733 459.904 265.835 461.483 271.936 463.189 C 271.979 463.19 272.021 463.19 272.064 463.189 C 276.971 464.512 282.56 465.92 288.405 467.328 L 288.405 909.781 C 288.405 915.285 291.349 920.32 296.085 923.008 C 315.413 932.267 371.477 954.24 469.781 954.24 C 568.768 954.24 623.168 927.531 641.387 916.523 C 645.743 913.723 648.379 908.901 648.384 903.723 L 648.427 468.096 C 659.819 464.896 671.083 461.355 682.219 457.259 Z M 341.312 495.403 C 352.946 495.379 362.389 504.804 362.389 516.437 L 362.389 882.432 C 362.389 894.049 352.972 903.467 341.355 903.467 C 329.721 903.49 320.277 894.066 320.277 882.432 L 320.277 516.437 C 320.277 504.804 329.721 495.379 341.355 495.403 L 341.312 495.403 Z M 710.464 544.043 C 694.874 544.066 682.242 556.698 682.219 572.288 L 682.219 794.496 C 682.242 810.086 694.874 822.718 710.464 822.741 L 759.104 822.741 C 774.694 822.718 787.326 810.086 787.349 794.496 L 787.349 572.245 C 787.326 556.656 774.694 544.024 759.104 544 L 710.464 544.043 Z M 710.464 562.304 L 759.104 562.304 C 764.594 562.304 769.045 566.755 769.045 572.245 L 769.045 794.539 C 769.022 800.012 764.578 804.437 759.104 804.437 L 710.464 804.437 C 704.974 804.437 700.523 799.986 700.523 794.496 L 700.523 572.245 C 700.523 566.755 704.974 562.304 710.464 562.304 Z"/>
</svg>
