<svg xmlns="http://www.w3.org/2000/svg" height="1em" width="1em" viewBox="0 0 12 12" version="1.1" xmlns:xlink="http://www.w3.org/1999/xlink" xml:space="preserve" xmlns:serif="http://www.serif.com/" style="fill-rule:evenodd;clip-rule:evenodd;stroke-linejoin:round;stroke-miterlimit:2;">
    <g transform="matrix(0.0234375,0,0,0.0234375,0,0)">
        <path d="M256,6.201L472.332,131.1L472.332,380.9L256,505.799L39.668,380.9L39.668,131.1L256,6.201ZM203.134,290.489L308.866,290.489L308.866,419.702L329.853,419.702L329.853,269.502L182.147,269.502L182.147,419.702L203.134,419.702L203.134,290.489ZM155.143,92.298L134.156,92.298L134.156,419.702L155.143,419.702L155.143,92.298ZM377.844,92.298L356.857,92.298L356.857,419.702L377.844,419.702L377.844,92.298ZM179.147,245.516L179.147,92.298L158.161,92.298L158.161,419.702L179.147,419.702L179.147,266.502L332.871,266.502L332.871,419.702L353.857,419.702L353.857,92.298L332.871,92.298L332.871,245.516L179.147,245.516ZM203.134,221.511L203.134,92.298L182.147,92.298L182.147,242.498L329.853,242.498L329.853,92.298L308.866,92.298L308.866,221.511L203.134,221.511Z"/>
    </g>
</svg>
