<svg viewBox="0 0 1024 1024" xmlns="http://www.w3.org/2000/svg" fill="currentColor" height="1em" width="1em">
    <path d="M120.74666667 68.26666667l70.4 796.37333333L512 955.73333333l319.57333333-91.09333333L903.36 68.26666667H120.74666667z m634.66666666 188.90666666l-5.12 50.34666667-1.81333333 20.8H373.65333333l8.74666667 100.48h357.44l-3.52 25.92-22.61333333 258.34666667-1.81333334 17.28-199.46666666 55.04v0.32h-1.28l-0.32 0.10666666v-0.10666666h-0.10666667l-201.17333333-55.46666667L297.38666667 576h97.17333333l6.93333333 78.08 109.22666667 29.54666667h0.42666667l108.8-29.44 12.16-126.50666667H510.82666667v-0.10666667H292.26666667l-24.32-270.4-1.81333334-25.92h490.98666667l-1.70666667 25.92z"></path>
</svg>
