<svg viewBox="0 0 1024 1024" xmlns="http://www.w3.org/2000/svg" fill="currentColor" height="1em" width="1em">
    <path d="M90.125 90.125v843.75h843.75V90.125z m130.88671875 109.37109375h175.78124973v64.47656277h-48.86718696v220.67578071h48.86718696v64.47656277h-175.78124973v-64.47656277h50.76562527V263.97265652H221.01171875z m388.65234375 0H687.78124973v228.51562473c0 21.515625-1.93359402 39.05859402-7.8046875 54.70312554-5.87109348 15.609375-13.7109375 27.31640625-25.41796875 39.0234375-9.73828152 9.80859375-23.4140625 19.58203098-39.0234375 23.48437473a138.26953125 138.26953125 0 0 1-50.80078098 9.77343723c-27.35156277 0-50.76562527-5.87109348-68.34375-15.64453071a169.10156277 169.10156277 0 0 1-44.96484402-37.125l48.86718777-54.66796902a112.49999973 112.49999973 0 0 0 29.28515598 25.38281223c9.73828152 5.87109348 21.48046848 9.77343723 33.22265625 9.77343804 13.67578098 0 25.34765652-3.90234375 35.15625027-13.67578179 7.76953098-9.77343723 11.70703125-23.44921902 11.70703125-44.9296875zM168.24218723 775.671875h316.40625V828.40625h-316.40625z"
         ></path>
</svg>
