<svg viewBox="0 0 1024 1024" xmlns="http://www.w3.org/2000/svg" fill="currentColor" height="1em" width="1em">
    <path d="M983.32700093 695.81753037c-9.42654002-51.84597011-9.42654002-108.40521023-4.71327-160.25118032 4.71327001-28.27962006 9.42654002-56.55924012 0-89.55213018-9.42654002-28.27962006-14.13981003-56.55924012-18.85308004-84.83886018-9.42654002-61.27251012-18.85308003-127.25829025-42.41943008-188.53080036-9.42654002-18.85308003-18.85308003-32.99289006-42.41943008-32.99289006-18.85308003 0-28.27962006 9.42654002-28.27962006 28.27962004 4.71327001 42.41943008 14.13981003 89.55213018 18.85308003 131.97156027 4.71327001 32.99289006 14.13981003 61.27251012 18.85308003 94.26540018v18.85308004c-4.71327001 0-14.13981003 0-18.85308003-4.71326999-18.85308003-14.13981003-37.70616007-23.56635005-51.84597009-42.41943008-23.56635005-32.99289006-42.41943008-65.98578013-56.55924013-98.97867021-28.27962006-65.98578013-51.84597011-131.97156027-84.83886016-188.53080038-28.27962006-47.1327001-65.98578013-56.55924012-113.11848022-56.55924012-14.13981003 0-18.85308003 9.42654002-18.85308004 18.85308005 4.71327001 14.13981003 4.71327001 28.27962006 14.13981002 42.41943008 42.41943008 75.41232014 80.12559015 155.5379103 122.54502025 230.95023047 14.13981003 23.56635005 32.99289006 47.1327001 47.13270009 65.98578011 18.85308003 28.27962006 14.13981003 37.70616007-14.13981004 51.84597012-4.71327001 0-4.71327001 0-9.42654002 4.71327001-37.70616007 9.42654002-65.98578013-4.71327001-89.55213016-28.27962005-23.56635005-18.85308003-51.84597011-32.99289006-84.83886017-37.7061601-14.13981003 0-32.99289006-4.71327001-47.13270009-4.71326998-65.98578013-4.71327001-127.25829025-4.71327001-193.24407039 18.85308002-94.26540019 32.99289006-146.11137027 108.40521023-179.10426036 197.95734038-9.42654002 28.27962006-18.85308003 61.27251012-28.27962005 94.2654002-4.71327001-9.42654002-4.71327001-9.42654002-9.42654001-14.13981002-4.71327001-4.71327001-9.42654002-9.42654002-9.42654002-18.85308004-4.71327001 4.71327001-14.13981003 9.42654002-18.85308004 18.85308004v23.56635004c0 14.13981003 4.71327001 28.27962006 9.42654002 37.70616007 32.99289006 80.12559015 65.98578013 164.96445033 94.26540018 245.09004048 9.42654002 18.85308003 23.56635005 28.27962006 42.41943008 28.27962004 47.1327001 4.71327001 94.26540019 4.71327001 136.68483029-4.71326999l84.83886017-14.13981002c-9.42654002-9.42654002-18.85308003-18.85308003-28.27962008-23.56635006 0-4.71327001 4.71327001-4.71327001 4.71327002-9.42654001 23.56635005 4.71327001 42.41943008 9.42654002 65.98578013 14.13981003 75.41232014 28.27962006 150.82464031 42.41943008 230.95023046 37.70616005 14.13981003 0 28.27962006-4.71327001 32.99289006-18.85308001l14.13981003-28.27962006c9.42654002-37.70616007 28.27962006-70.69905013 47.13270009-98.9786702 32.99289006-47.1327001 28.27962006-42.41943008 80.12559017-28.27962005 56.55924012 18.85308003 108.40521023-9.42654002 122.54502024-65.98578014 4.71327001-18.85308003 4.71327001-42.41943008 4.71327-61.27251011z m-51.8459701-56.55924012c-4.71327001 4.71327001-14.13981003 14.13981003-18.85308005 14.13981004-42.41943008 4.71327001-84.83886017 4.71327001-122.54502022-14.13981004-14.13981003-4.71327001-23.56635005-18.85308003-37.7061601-32.99289006 14.13981003-4.71327001 28.27962006-9.42654002 37.7061601-14.13981004 42.41943008-4.71327001 80.12559015 4.71327001 117.83175023 23.56635004 4.71327001 0 9.42654002 4.71327001 9.42654002 4.71327004 4.71327001 4.71327001 14.13981003 14.13981003 14.13981002 18.85308002z"></path>
</svg>
