<svg viewBox="0 0 1024 1024" xmlns="http://www.w3.org/2000/svg" fill="currentColor" height="1em" width="1em">
    <path d="M632.29496889 651.95576889a197.14199666 197.14199666 0 0 1-106.16832-19.32098332 69.8565211 69.8565211 0 0 1-26.02021888-49.0306378 10.77703111 10.77703111 0 0 0-10.97121223-10.67993998 2273.1768411 2273.1768411 0 0 0-46.11792555 0 10.24303445 10.24303445 0 0 0-11.21393778 9.02940444 113.54718777 113.54718777 0 0 0 36.55452445 89.5173211 193.74383445 193.74383445 0 0 0 108.15867221 40.72941 391.37128334 391.37128334 0 0 0 122.96495446-5.24288 151.75224889 151.75224889 0 0 0 81.45881998-43.88484666 113.49864334 113.49864334 0 0 0 19.22389333-108.3043089 90.73095111 90.73095111 0 0 0-59.71057778-53.15697778c-62.13783666-21.84533333-129.32437333-20.14625223-192.72438443-36.74870442-11.01975666-3.39816334-24.46677333-7.18468779-29.36983779-18.83553224a41.50613333 41.50613333 0 0 1 13.78683335-46.36065223 124.17858333 124.17858333 0 0 1 65.536-16.31118222 197.57890333 197.57890333 0 0 1 91.41058332 13.1072 69.71088555 69.71088555 0 0 1 33.35054223 48.15682446 11.79648 11.79648 0 0 0 11.06830222 11.45666333c15.24318777 0.29127111 30.48637667 0.04854557 45.77811001 0.09708999a11.06830222 11.06830222 0 0 0 11.99065998-8.15559111 118.15898112 118.15898112 0 0 0-57.62313444-102.23616 285.44568889 285.44568889 0 0 0-156.21840554-23.93277554 170.15087445 170.15087445 0 0 0-105.63432334 42.47703666 105.58577778 105.58577778 0 0 0-21.06861 109.80920888 93.69220779 93.69220779 0 0 0 59.12803556 51.55498667c61.9922011 22.37932999 129.90691555 15.19464334 192.43311332 35.0010789 12.23338667 4.12634112 26.40858112 10.48576 30.14656 24.02986667a48.05973333 48.05973333 0 0 1-13.1072 45.92374442 144.1792 144.1792 0 0 1-87.04151666 21.31133668z m282.48443221-409.96408889q-181.46190222-102.6245211-363.06944-205.10340779a81.41027555 81.41027555 0 0 0-79.46846777 0L110.5313189 241.16641223a74.85667555 74.85667555 0 0 0-39.07887445 65.14763776v411.42044444a75.39067221 75.39067221 0 0 0 40.58377443 65.77872669c34.61271666 18.83553223 68.25452999 39.61287111 103.54688 57.23477333a148.74244779 148.74244779 0 0 0 132.91671779 3.64088889 103.25560889 103.25560889 0 0 0 48.30245888-93.25530112c0.24272555-135.78088334 0-271.56176555 0.09709-407.29410332a10.67994112 10.67994112 0 0 0-10.04885334-12.37902223 2017.29516999 2017.29516999 0 0 0-46.2635611 0 10.19448889 10.19448889 0 0 0-11.06830222 10.34012445c-0.19418112 134.90707001 0.04854557 269.81413888-0.09708999 404.76975331a45.63247445 45.63247445 0 0 1-29.61256335 42.8653989 74.37122333 74.37122333 0 0 1-60.19603-8.05850112l-96.21655666-54.37060664a11.50520889 11.50520889 0 0 1-6.5536-11.4081189V308.4500389a12.57320334 12.57320334 0 0 1 7.62159445-12.62174891q180.24827221-101.55652779 360.448-203.25868999a12.52465778 12.52465778 0 0 1 14.17519332 0l360.49654556 203.21014557a12.7188389 12.7188389 0 0 1 7.57304889 12.62174776v407.19701334a11.74793443 11.74793443 0 0 1-6.50505444 11.55375445q-177.48119666 100.39144334-355.20512 200.49161443c-5.6312411 3.10689223-12.33047666 8.20413667-18.93262222 4.36906667-31.0689189-17.57335666-61.65238557-35.82634667-92.62421333-53.54533888a10.00030777 10.00030777 0 0 0-11.16539335-0.67963335 253.30877667 253.30877667 0 0 1-42.81685334 20.00061668c-6.69923555 2.71852999-14.95191666 3.49525333-19.56370886 9.70903666a63.88546333 63.88546333 0 0 0 20.97152 15.04900778l108.54703331 62.76892444a79.12865223 79.12865223 0 0 0 80.34228224 2.2330789q180.87936-101.94488889 361.75872-204.0839589a75.53630777 75.53630777 0 0 0 40.58377443-65.73018112V306.31404999a74.75958557 74.75958557 0 0 0-37.76815445-64.32236999z"
         ></path>
</svg>
