<svg viewBox="0 0 1024 1024" xmlns="http://www.w3.org/2000/svg" fill="currentColor" height="1em" width="1em">
    <path d="M385.997255 774.49022656s-36.74998031 21.37498875 26.06248594 28.49998407c76.12308375 8.62405781 114.93556313 7.49905875 198.74708062-8.43749532 0 0 22.12498781 13.874055 52.87403438 25.87404844-187.87208625 80.43651937-425.24414625-4.68749719-277.68360094-45.93747469m-22.87498781-105.18556875s-41.0624775 30.37498406 21.74998875 36.93748032c81.18651844 8.43749531 145.49804719 8.99999531 256.49611219-12.37499344 0 0 15.37499156 15.56249156 39.56247843 23.99998687-227.43456563 66.56058938-480.55661719 5.43749719-317.80857937-48.56247375m193.49708344-178.30959187c46.31247469 53.24903344-12.18749344 101.24807062-12.18749344 101.24807062s117.56149969-60.74902969 63.56246625-136.68555187c-50.43747281-70.87402406-89.06245219-106.12306781 120.18556031-227.43456469 0.1875 0-328.49513625 82.12495594-171.56053312 262.87204594m248.62205437 361.11918094s27.187485 22.31248781-29.81248406 39.74997843c-108.56056688 32.81248219-451.49319469 42.7499775-546.74220656 1.3125-34.31248125-14.8124925 29.99998406-35.62498125 50.24997375-39.93747937 20.99905125-4.49999719 33.18654469-3.74999813 33.18654468-3.74999719-38.06247938-26.81248594-246.18455531 52.68747187-105.74900625 75.37495875 382.87010719 62.24902875 698.24025-27.937485 598.86717844-72.74996062M403.62224563 560.36815344s-174.56053125 41.43654-61.87496625 56.4365325c47.62497469 6.37499625 142.49804812 4.87499719 230.80956281-2.43749907 72.18746156-5.99999719 144.74804719-19.12498969 144.74804718-19.12498968s-25.49998594 10.87499437-43.87497562 23.43748781c-177.18459187 46.68747469-519.36722063 24.93748688-420.93071156-22.68748781 83.43558-40.12497844 151.12304344-35.62498125 151.12304344-35.62498125M716.74239031 735.30274719c180.18552844-93.56151188 96.74901094-183.55958906 38.62497938-171.37303313-14.2499925 2.99999812-20.62498875 5.62499719-20.62498969 5.62499719s5.24999719-8.24999531 15.3749925-11.81249344c114.93556313-40.49904094 203.43457781 119.24899875-37.12498031 182.43552657 0-0.1875 2.81249813-2.62499812 3.74999812-4.87499719M607.99432344 32s99.74807156 99.74900906-94.68651188 253.12111406c-155.81054156 122.99899687-35.62498125 193.31052094 0 273.37204031-90.93651375-82.12495594-157.68554063-154.3105425-112.87306406-221.62206843C466.24627438 238.43457688 648.30586437 190.43553969 607.99432344 32M421.43379875 988.98729875c172.87303219 11.06249437 438.36913969-6.18749625 444.55663594-87.93745312 0 0-11.99999344 30.93748313-142.87304813 55.68747-147.56054531 27.749985-329.62013531 24.56248687-437.43163968 6.74999625 0-0.1875 22.12498781 18.18749062 135.74805187 25.49998687"></path>
</svg>
