<svg viewBox="0 0 1024 1024" xmlns="http://www.w3.org/2000/svg" fill="currentColor" height="1em" width="1em">
    <path d="M93.36000031 266.96c-84.91999969 121.99999969-74.4 280.68-9.48 410.23999969 1.48000031 3.16000031 3.12 6.16000031 4.71999938 9.16000031 0.91999969 2.08000031 1.96000031 4.00000031 3.08000062 5.95999969 0.52000031 1.12000031 1.24000031 2.28 1.87999969 3.32000062 1.03999969 2.08000031 2.16 4.08 3.24 6.07999969l6.28000031 10.60000031c1.15999969 1.96000031 2.28 3.88000031 3.6 5.83999969 2.20000031 3.76000031 4.8 7.48000031 7.08 11.23999969 1.03999969 1.56 1.99999969 3.12 3.15999938 4.68a254.4 254.4 0 0 0 12.40000031 17.76c3.12 4.27999969 6.24 8.44000031 9.6 12.6 1.08 1.51999969 2.28 3.04000031 3.40000031 4.56l8.83999969 10.76000062c1.08 1.24000031 2.16 2.68000031 3.31999969 3.96 3.91999969 4.72000031 8.08000031 9.31999969 12.24 13.95999938 0 0.07999969 0.12 0.16000031 0.20000062 0.28000031a125.20000031 125.20000031 0 0 0 16.95999938 17.59999969c3.19999969 3.28000031 6.40000031 6.55999969 9.80000062 9.76000031l4.03999969 3.88000031c4.44 4.15999969 8.88 8.32000031 13.56 12.31999969 0.07999969 0 0.12 0.07999969 0.19999969 0.12l2.28 1.99999969c4.08 3.55999969 8.20000031 7.12000031 12.40000031 10.40000062l4.99999969 4.2c3.40000031 2.71999969 6.91999969 5.32000031 10.40000062 7.99999969l5.43999938 4.15999969c3.72 2.80000031 7.68 5.56000031 11.48000062 8.28 1.39999969 1.00000031 2.80000031 1.99999969 4.23999938 2.92000031l1.16000062 0.91999969 11.23999969 7.40000062 4.8 3.19999969c5.88 3.76000031 11.71999969 7.32 17.52 10.84000031 1.68 0.84 3.36 1.75999969 4.92 2.71999969 4.32 2.47999969 8.80000031 4.99999969 13.15999969 7.32 2.4 1.36000031 4.87999969 2.52 7.36000031 3.76000031 3 1.68 6.12 3.31999969 9.31999969 4.99999969a12.96 12.96 0 0 1 2.24000062 0.91999969c1.32 0.6 2.56000031 1.24000031 3.84 1.88000062 4.8 2.4 9.79999969 4.68 15 6.96 0.96 0.40000031 1.99999969 0.79999969 3.03999938 1.35999938 5.76 2.52 11.52 4.92 17.48000062 7.28000062 1.36000031 0.40000031 2.80000031 1.08 4.2 1.59999938 5.4 2.04 10.96000031 4.12000031 16.44 6.08000062l1.99999969 0.72c6.12 2.08000031 12.16000031 4.08 18.36 6 1.44 0.40000031 2.92000031 0.91999969 4.44 1.32 6.36 1.92 12.52000031 4.2 18.91999969 5.43999938 410.4 74.80000031 529.68-246.76000031 529.68-246.75999938-100.2 130.48000031-277.99999969 164.88-446.4 126.6-6.24-1.44-12.48-3.43999969-18.75999938-5.28a540.88000031 540.88000031 0 0 1-22.68-7.24000031l-2.48000062-0.96c-5.44000031-1.84000031-10.68-3.88000031-15.99999938-5.92000031a64.51999969 64.51999969 0 0 0-4.40000062-1.63999969c-5.88-2.35999969-11.59999969-4.8-17.28-7.32-1.24000031-0.40000031-2.28-0.96-3.51999938-1.44a936.40000031 936.40000031 0 0 1-14.44000031-6.79999969 59.32000031 59.32000031 0 0 1-4.24000031-2.08000031c-3.76000031-1.75999969-7.51999969-3.76000031-11.19999938-5.68000031a157.68 157.68 0 0 1-7.48000031-3.84c-4.51999969-2.4-9.04000031-4.99999969-13.56-7.47999938-1.36000031-0.96-2.92000031-1.75999969-4.48000031-2.64a636.07999969 636.07999969 0 0 1-17.52-10.76000062 84.16000031 84.16000031 0 0 1-4.71999938-3.15999938 240.07999969 240.07999969 0 0 1-12.48-8.24000062c-1.39999969-0.91999969-2.68000031-1.92-4.12000031-2.91999938a381.64000031 381.64000031 0 0 1-11.76-8.48000062c-1.68-1.36000031-3.48-2.64-5.28-3.99999938-3.52000031-2.76-7.08-5.4-10.60000031-8.32000031l-4.71999938-3.76000031a423.19999969 423.19999969 0 0 1-13.36000031-11.23999969 10.32 10.32 0 0 0-1.48000031-1.2l-13.87999969-12.64000031-4.00000031-3.75999938c-3.28000031-3.31999969-6.64000031-6.52000031-9.99999938-9.80000062l-3.88000031-3.99999938a362.80000031 362.80000031 0 0 1-12.36-12.92000062l-0.6-0.63999938a717.76000031 717.76000031 0 0 1-12.52000031-14.16c-1.08-1.24000031-2.08000031-2.56000031-3.19999969-3.88000031l-9.04000031-11.08000031a849.91999969 849.91999969 0 0 1-13.59999938-17.91999938C118.4 503.43999969 84.60000031 327.44 159.36000031 183.08m197.47999969-18.88000031c-61.56 88.36000031-58.08 206.52-10.15999969 299.96000062a364.00000031 364.00000031 0 0 0 27.07999969 45.27999938c9.19999969 13.2 19.36000031 28.8 31.68 39.44000062 4.27999969 4.87999969 8.92000031 9.6 13.75999969 14.35999969l3.6 3.6c4.56 4.39999969 9.24 8.71999969 14.00000062 13.00000031l0.6 0.51999938a394.2 394.2 0 0 0 16.56 13.68c1.36000031 0.91999969 2.52 1.99999969 3.84 2.92000031 5.59999969 4.32 11.23999969 8.47999969 17.07999938 12.6l0.6 0.36c2.47999969 1.8 5.11999969 3.43999969 7.92 5.20000031 1.12000031 0.72 2.4 1.68 3.6 2.4 4.24000031 2.71999969 8.4 5.28 12.68000062 7.87999969 0.67999969 0.28000031 1.27999969 0.64000031 1.92 0.91999969 3.6 2.20000031 7.51999969 4.32 11.28 6.28000031 1.32 0.79999969 2.59999969 1.39999969 3.96 2.16 2.68000031 1.32 5.32000031 2.71999969 7.87999969 4.08l1.27999969 0.55999969c5.4 2.64 10.92 5.11999969 16.32 7.60000031 1.36000031 0.52000031 2.52 0.96 3.68000062 1.51999969 4.44 1.92 8.95999969 3.76000031 13.39999969 5.48000062 1.99999969 0.67999969 3.88000031 1.48000031 5.76 2.07999938 4.08 1.51999969 8.35999969 2.92000031 12.40000031 4.32l5.59999969 1.8c5.83999969 1.8 11.76 4.15999969 17.92000031 5.16 316.8 52.51999969 390.16000031-191.47999969 390.15999938-191.47999969-66.04000031 95.04-193.84000031 140.32000031-330.03999938 104.95999969a321.19999969 321.19999969 0 0 1-17.92000031-5.19999938c-1.92-0.52000031-3.6-1.12000031-5.44000031-1.68-4.15999969-1.44-8.44000031-2.83999969-12.48-4.36000031l-5.76-2.16c-4.48000031-1.8-9.04000031-3.48-13.39999969-5.4-1.36000031-0.6-2.59999969-1.00000031-3.64000031-1.60000031-5.59999969-2.52-11.23999969-4.99999969-16.68-7.68l-8.23999969-4.27999969-4.75999969-2.4a226.8 226.8 0 0 1-10.60000031-6 24.79999969 24.79999969 0 0 1-2.47999969-1.36000031c-4.24000031-2.64-8.64-5.20000031-12.68000062-7.92-1.36000031-0.76000031-2.59999969-1.68-3.87999938-2.47999969l-8.32000031-5.44000031c-5.76-4.00000031-11.4-8.32000031-17.08000031-12.48-1.27999969-1.15999969-2.52-2.11999969-3.75999938-3.15999938-59.88-47.08000031-107.11999969-111.43999969-129.52000031-184.32-23.59999969-75.76000031-18.40000031-160.72000031 22.36000031-229.68m171.48-5.88c-36.31999969 53.28-39.79999969 119.44000031-14.80000031 178.2 26.56000031 62.4 80.88 111.40000031 144.16000031 134.59999969 2.59999969 1.00000031 5.11999969 1.84000031 7.8 2.80000031l3.51999938 1.08c3.67999969 1.15999969 7.39999969 2.52 11.20000031 3.36 175.03999969 33.76000031 222.40000031-89.88 235.15999969-108.04000031-41.68000031 59.83999969-111.55999969 74.20000031-197.28 53.35999969a193.75999969 193.75999969 0 0 1-20.64-6.39999938 253.75999969 253.75999969 0 0 1-24.67999969-10.16000062 260.83999969 260.83999969 0 0 1-43.2-26.4c-76.8-58.15999969-124.36000031-169.2-74.28-259.63999969"></path>
</svg>
