<svg viewBox="0 0 1024 1024" xmlns="http://www.w3.org/2000/svg" fill="currentColor" height="1em" width="1em">
    <path d="M403.28533333 483.56693333l23.21066667-193.7408h221.4912v68.26666667h-150.18666667l-8.704 75.40053333a81.92 81.92 0 0 1 8.6016-4.16426666 101.10293333 101.10293333 0 0 1 12.76586667-4.43733334 98.98666667 98.98666667 0 0 1 15.63306667-3.61813333 96.73386667 96.73386667 0 0 1 17.47626666-1.57013333 135.95306667 135.95306667 0 0 1 50.03946667 8.6016 93.3888 93.3888 0 0 1 36.72746667 24.6784 108.10026667 108.10026667 0 0 1 22.66453333 39.86773333 170.66666667 170.66666667 0 0 1 7.7824 54.20373333 141.89226667 141.89226667 0 0 1-8.05546667 47.34293334 112.87893333 112.87893333 0 0 1-64.85333333 69.25653333 146.77333333 146.77333333 0 0 1-58.53866667 10.6496 162.13333333 162.13333333 0 0 1-49.7664-7.7824 138.37653333 138.37653333 0 0 1-42.73493333-22.39146667 114.65386667 114.65386667 0 0 1-29.96906667-35.70346666 95.1296 95.1296 0 0 1-10.92266666-47.17226667h88.064a49.7664 49.7664 0 0 0 13.312 33.10933333 47.2064 47.2064 0 0 0 53.17973333 7.03146667 37.1712 37.1712 0 0 0 13.65333333-14.06293333 59.6992 59.6992 0 0 0 7.03146667-21.0944 146.77333333 146.77333333 0 0 0 2.11626667-25.25866667 92.4672 92.4672 0 0 0-3.14026667-25.25866667 51.4048 51.4048 0 0 0-9.6256-19.0464 41.94986667 41.94986667 0 0 0-17.06666667-11.91253333 60.75733333 60.75733333 0 0 0-24.50773333-4.43733333 72.3968 72.3968 0 0 0-17.06666667 1.8432 61.61066667 61.61066667 0 0 0-13.03893333 4.7104 44.98773333 44.98773333 0 0 0-9.35253333 6.48533333 43.69066667 43.69066667 0 0 0-6.48533334 6.82666667l-69.90506666-16.45226667"
         ></path>
    <path d="M170.15466667 762.64106667a151.89333333 151.89333333 0 0 1-44.7488-19.79733334 109.22666667 109.22666667 0 0 1-28.94506667-28.12586666 102.8096 102.8096 0 0 1-15.63306667-34.4064 166.53653333 166.53653333 0 0 1-4.43733333-39.0144v-52.90666667a78.50666667 78.50666667 0 0 0-2.59413333-21.0944 40.41386667 40.41386667 0 0 0-7.5776-15.90613333 33.0752 33.0752 0 0 0-13.03893334-10.4448A45.19253333 45.19253333 0 0 0 34.13333333 537.3952v-59.11893333a36.6592 36.6592 0 0 0 31.98293334-13.65333334 62.83946667 62.83946667 0 0 0 10.24-37.54666666v-52.90666667a166.53653333 166.53653333 0 0 1 4.43733333-39.0144 103.66293333 103.66293333 0 0 1 15.63306667-34.4064A108.20266667 108.20266667 0 0 1 125.30346667 273.06666667a152.9856 152.9856 0 0 1 44.7488-19.79733334l16.384 45.8752a41.71093333 41.71093333 0 0 0-16.65706667 11.19573334 59.46026667 59.46026667 0 0 0-10.4448 17.06666666 86.15253333 86.15253333 0 0 0-5.46133333 21.64053334 198.89493333 198.89493333 0 0 0-1.57013334 25.25866666v52.90666667a97.0752 97.0752 0 0 1-11.4688 47.24053333 80.896 80.896 0 0 1-36.72746666 33.55306667 80.41813333 80.41813333 0 0 1 36.72746666 33.86026667 95.8464 95.8464 0 0 1 11.4688 46.8992v52.90666666a198.89493333 198.89493333 0 0 0 1.57013334 25.25866667 88.2688 88.2688 0 0 0 5.46133333 21.64053333 57.48053333 57.48053333 0 0 0 10.4448 17.06666667 41.71093333 41.71093333 0 0 0 16.65706667 11.1616c0-0.17066667-16.2816 45.8752-16.2816 45.8752M246.272 627.8144a43.99786667 43.99786667 0 0 1 3.41333333-17.47626667 41.3696 41.3696 0 0 1 9.89866667-13.65333333 46.86506667 46.86506667 0 0 1 15.36-9.35253333 55.87626667 55.87626667 0 0 1 19.79733333-3.41333334 53.07733333 53.07733333 0 0 1 19.52426667 3.41333334 43.3152 43.3152 0 0 1 15.36 9.35253333 36.7616 36.7616 0 0 1 9.89866667 13.65333333 44.16853333 44.16853333 0 0 1 0 34.95253334 39.28746667 39.28746667 0 0 1-9.89866667 14.06293333 47.37706667 47.37706667 0 0 1-15.36 9.14773333 55.05706667 55.05706667 0 0 1-19.52426667 3.41333334 53.8624 53.8624 0 0 1-19.79733333-3.41333334 48.09386667 48.09386667 0 0 1-15.36-9.14773333 41.94986667 41.94986667 0 0 1-13.312-31.5392m0-207.80373333a43.99786667 43.99786667 0 0 1 3.41333333-17.47626667 41.3696 41.3696 0 0 1 9.89866667-13.65333333 46.86506667 46.86506667 0 0 1 15.36-9.35253334 55.87626667 55.87626667 0 0 1 19.79733333-3.41333333 53.07733333 53.07733333 0 0 1 19.52426667 3.41333333 43.3152 43.3152 0 0 1 15.36 9.35253334 36.7616 36.7616 0 0 1 9.89866667 13.65333333 44.16853333 44.16853333 0 0 1 0 34.95253333 39.28746667 39.28746667 0 0 1-9.89866667 14.06293334 47.37706667 47.37706667 0 0 1-15.36 9.14773333 55.05706667 55.05706667 0 0 1-19.52426667 3.41333333 53.8624 53.8624 0 0 1-19.79733333-3.41333333 48.09386667 48.09386667 0 0 1-15.36-9.14773333 41.94986667 41.94986667 0 0 1-13.312-31.5392M793.25866667 658.5344a124.5184 124.5184 0 0 1-4.16426667 31.70986667 154.76053333 154.76053333 0 0 1-11.4688 30.4128 160.63146667 160.63146667 0 0 1-17.06666667 27.5456 136.704 136.704 0 0 1-20.82133333 22.66453333l-44.37333333-20.82133333c2.7648-5.90506667 5.7344-11.91253333 8.87466666-17.95413334a165.41013333 165.41013333 0 0 0 9.14773334-19.0464 151.6544 151.6544 0 0 0 7.03146666-22.39146666 116.25813333 116.25813333 0 0 0 2.8672-27.30666667v-60.68906667h70.28053334l-0.27306667 55.84213334M837.56373333 716.5952a42.7008 42.7008 0 0 0 16.65706667-11.19573333 58.2656 58.2656 0 0 0 10.4448-17.06666667 86.18666667 86.18666667 0 0 0 5.46133333-21.64053333 198.8608 198.8608 0 0 0 1.57013334-25.25866667v-52.90666667a97.0752 97.0752 0 0 1 11.4688-47.17226666 80.6912 80.6912 0 0 1 37.00053333-33.55306667 80.6912 80.6912 0 0 1-37.00053333-33.55306667 97.0752 97.0752 0 0 1-11.4688-47.17226666v-52.90666667a198.89493333 198.89493333 0 0 0-1.57013334-25.25866667 88.2688 88.2688 0 0 0-5.46133333-21.64053333 57.48053333 57.48053333 0 0 0-10.4448-17.06666667 41.71093333 41.71093333 0 0 0-16.65706667-11.19573333l16.384-45.6704A151.89333333 151.89333333 0 0 1 898.69653333 273.06666667a105.54026667 105.54026667 0 0 1 28.94506667 27.81866666 98.7136 98.7136 0 0 1 15.36 34.4064 157.21813333 157.21813333 0 0 1 4.7104 39.0144v52.90666667a90.624 90.624 0 0 0 2.32106667 21.36746667 49.42506667 49.42506667 0 0 0 7.5776 16.1792 35.39626667 35.39626667 0 0 0 13.03893333 10.24 46.96746667 46.96746667 0 0 0 19.2512 3.61813333v59.0848a36.7616 36.7616 0 0 0-32.29013333 14.06293333 62.39573333 62.39573333 0 0 0-9.89866667 37.00053334v52.90666666a157.21813333 157.21813333 0 0 1-4.7104 39.0144 99.49866667 99.49866667 0 0 1-15.36 34.4064 107.75893333 107.75893333 0 0 1-28.94506667 28.12586667 152.9856 152.9856 0 0 1-44.7488 19.79733333l-16.384-46.14826666"
         ></path>
</svg>
