<svg viewBox="0 0 1024 1024" xmlns="http://www.w3.org/2000/svg" fill="currentColor" height="1em" width="1em">
    <path d="M513.70995689 990.71003281a446.238705 446.238705 0 0 0 57.02855624-3.74990531 471.70806 471.70806 0 0 0 125.84681437-34.52912625 495.82744969 495.82744969 0 0 0 151.70616-101.7274247 479.29786781 479.29786781 0 0 0 97.58752969-137.0665303c20.36948438-43.88888906 34.76911969-90.9576975 40.79896781-139.04648062 5.96984906-46.40882531 5.39986311-93.83762438-1.79995499-139.94645719a479.62785938 479.62785938 0 0 0-31.70919751-111.50717813c-9.59975719-22.43943188-20.99946844-44.03888531-34.16913469-64.67836218-46.70881781-73.46814-114.44710311-132.56664469-192.38513062-172.04564532A514.75697063 514.75697063 0 0 0 639.73676656 51.64380313h-0.20999437c4.76987906 2.51993625 9.59975719 5.27986594 13.79965031 8.03979656 4.79987812 2.969925 9.56975812 5.84985188 14.03964469 8.99977219a357.29095594 357.29095594 0 0 1 62.36842125 53.18865281c42.50892375 45.80884031 71.87818031 101.90742 88.70775469 161.63590875 11.36971219 39.26900625 17.36956031 79.91797687 19.79949843 120.68694562 1.769955 29.72924719 1.769955 59.63849063-1.88995125 89.1577425-5.96984906 50.78871469-22.16943844 100.40745844-49.10875781 143.84635969a299.272425 299.272425 0 0 1-76.10807344 83.36788969c-49.76874 37.10906063-115.07708719 59.27849906-177.44550843 44.54887219a156.05604938 156.05604938 0 0 1-29.90924251-10.31973844 186.53527875 186.53527875 0 0 1-31.16921062-17.96954531 243.23384343 243.23384343 0 0 1-49.76874095-44.24888063 260.09341594 260.09341594 0 0 1-41.9689378-69.86823094 294.44254688 294.44254688 0 0 1-19.76949937-101.60742843c-1.19996999-50.90871094 8.99977219-102.11741531 34.16913562-146.78628469a257.45348345 257.45348345 0 0 1 66.50831625-76.7080575c8.99977219-7.10982 18.56953031-13.3196625 28.16928656-19.16951531l0.62998407-0.26999344a205.13480719 205.13480719 0 0 0-57.62854125-4.79987813 198.534975 198.534975 0 0 0-49.10875688 9.56975813c-14.36963625 4.79987812-28.16928656 10.82972625-40.76896781 17.99954437-10.19974219 5.96984906-20.30948625 12.59968125-29.30925844 19.79949844-8.42978625 7.19981813-16.79957437 14.36963625-24.59937656 22.19943844-44.90886281 46.10883281-70.70821031 107.277285-80.87795344 170.24569031-5.99984812 38.90901469-5.99984812 78.44801437-3.62990812 118.04701219 4.19989406 55.76858813 15.62960437 111.44717906 37.79904375 162.44588812a340.58137875 340.58137875 0 0 0 53.908635 86.90779969 326.00174813 326.00174813 0 0 0 125.27682937 89.24774156c26.99931655 10.82972625 55.76858813 18.59952937 84.50786063 21.5994525 2.969925 0.599985 5.96984906 0.599985 8.36978812 0.599985l-0.83997844-1.28996718z m-117.35703001-15.89959781a162.26589281 162.26589281 0 0 1-17.99954438-9.11976937c-5.96984906-3.32991562-11.99969625-6.71983031-17.96954438-10.3497375a340.70137594 340.70137594 0 0 1-63.56839125-50.99870907c-43.76889188-45.50884781-73.07815031-102.68740031-89.87772468-163.22586843-11.36971219-41.36895281-17.39955937-84.08787188-19.79949938-126.86678907a484.69773094 484.69773094 0 0 1 1.82995406-83.27789155c5.39986311-50.27872688 19.79949844-100.04746781 44.96886188-143.18637563a275.48302688 275.48302688 0 0 1 71.30819437-82.10792157 249.32368875 249.32368875 0 0 1 65.30834719-35.99908875 214.25457657 214.25457657 0 0 1 140.87643375-1.799955c1.16996999 0 1.16996999 0 1.799955 1.19997 0.599985 0.599985 1.79995406 0.599985 2.39993906 1.19996907 1.79995406 0.62998406 4.16989406 1.79995406 6.59983313 2.969925 9.56975812 4.79987812 19.16951438 10.82972625 28.16928656 16.79957531a251.75362781 251.75362781 0 0 1 83.8778775 100.07746687c16.79957437 36.56907469 24.5993775 77.36804156 25.22936063 117.50702532 0.56998594 43.16890687-7.19981813 86.27781563-25.79934657 125.84681437a256.79350031 256.79350031 0 0 1-105.50732906 113.27713313c3.59990906 1.19996999 7.19981813 1.79995406 10.82972531 2.99992406 8.99977219 1.769955 17.96954531 2.969925 27.50930344 2.96992406 58.70851406 1.79995406 115.67707219-26.3693325 157.58601188-65.87833219 7.79980219-7.19981813 14.99962031-14.99962031 21.59945249-23.39940749 8.99977219-10.79972625 17.39955937-21.56945437 24.56937844-32.90916751 9.56975812-14.99962031 17.39955937-29.99924062 24.56937844-46.16883093 9.02977125-21.56945437 16.16959031-43.76889188 20.36948438-66.56831532 7.82980219-40.16898281 8.42978625-80.8779525 5.96984906-121.04693531-5.39986311-80.8779525-26.90931844-161.785905-73.67813531-228.95420531-7.19981813-10.16974219-14.36963625-19.76949937-22.19943844-28.76927156a397.48993875 397.48993875 0 0 0-42.50892375-41.36895282c-16.79957437-13.79965031-35.39910375-26.3693325-54.50862-36.59907375a396.46996406 396.46996406 0 0 0-67.67828719-23.90939437l-11.99969625-2.39993906c-8.36978812-1.19996999-16.79957437-1.769955-25.34935875-2.39994-12.98967094-0.599985-26.75932219-0.38998969-40.5889725 0.62998406-28.16928656 1.79995406-56.48857031 6.38983781-84.47786156 13.46965969C263.96627844 81.10305687 146.54925031 174.64068969 84.03083281 298.77754719a473.478015 473.478015 0 0 0-42.47892469 125.27682938 472.36804311 472.36804311 0 0 0-4.16989406 150.9861778c4.79987812 40.79896687 14.96962125 80.90795156 31.1092125 119.06698594 9.08977031 22.7994225 20.4294825 44.96886188 32.99916469 65.90833219 43.76889188 71.30819531 107.30728406 129.44672345 180.38543344 169.58570719 27.50930345 15.62960437 56.308575 27.59930156 86.27781656 37.79904281 9.02977125 2.969925 17.99954437 5.96984906 27.56930156 8.36978813l0.62998406-0.95997563z"
         ></path>
</svg>
