<svg viewBox="0 0 1024 1024" xmlns="http://www.w3.org/2000/svg" fill="currentColor" height="1em" width="1em">
    <path d="M977.40919719 251.23616562c-1.49649281-1.49649281-1.49649281-1.49649281 0 0-1.49649281-2.99298563-1.49649281-2.99298563-1.49649281-4.48947843 0 0 0-1.49649281-1.49649282-1.49649188l-1.49649187-1.49649281-1.49649281-1.49649281-1.49649282-1.49649282-179.57911125-103.25798906c-4.4894775-2.99298563-10.47544781-2.99298563-14.96492625 0l-179.57911125 103.25798906-1.49649281 1.49649282s-1.49649281 0-1.49649281 1.49649281l-1.49649188 1.49649281s0 1.49649281-1.49649281 1.49649188c0 1.49649281 0 1.49649281-1.49649281 2.99298562V453.26266531l-149.64925969 86.79657094V152.46765406v-4.4894775-1.49649281c0-1.49649281 0-1.49649281-1.49649187-2.99298562 0 0 0-1.49649281-1.49649282-1.49649282l-1.49649281-1.49649187-1.49649281-1.49649281-1.49649188-1.49649282-179.57911218-103.25798906c-4.4894775-2.99298563-10.47544781-2.99298563-14.96492532 0l-179.57911218 103.25798906-1.49649188 1.49649282s-1.49649281 0-1.49649281 1.49649281l-1.49649281 1.49649187s0 1.49649281-1.49649282 1.49649282c0 0 0 1.49649281-1.49649187 2.99298562v622.54091906c0 5.98597031 2.99298563 10.47544781 7.48246219 13.46843344l360.65471625 208.01247094c1.49649281 0 1.49649281 0 2.99298468 1.49649281h10.47544875c1.49649281 0 1.49649281 0 2.99298469-1.49649281L790.34762281 782.49103625c4.4894775-2.99298563 7.48246312-7.48246312 7.48246313-13.46843344V572.98207344l172.09664812-98.76851156c4.4894775-2.99298563 7.48246312-7.48246312 7.48246313-13.46843344V254.22915031v-2.99298469zM242.63133313 67.16757594L392.28059281 153.96414688l-149.64925969 86.79657L92.98207344 153.96414688l149.64925968-86.79657094z m164.614185 112.236945v377.11613343l-86.79657 49.38425626-62.85268969 35.91582187V264.70459906l86.79657094-49.38425625L407.24551813 179.40452094z m0 772.19017875L76.52065437 761.54014062V179.40452094l62.85268969 35.91582187 86.79657 49.38425625V671.750585s0 1.49649281 1.49649282 1.49649188c0 0 0 1.49649281 1.49649281 1.49649281l1.49649281 1.49649281s1.49649281 0 1.49649188 1.49649281l1.49649281 1.49649188L407.24551813 778.00155875v173.59314094zM422.21044437 752.56118469l-149.64925968-85.30007813 157.13172281-91.28604844L601.78955563 477.2065475l149.64925968 86.79657-109.24395937 62.85268875L422.21044437 752.56118469z m344.19329719 8.97895593L437.17537062 951.59469969V778.00155875l243.92829282-139.17381094 85.30007812-49.38425625v172.09664907z m0-222.97739718l-62.85268968-35.91582188-86.79657-50.88074812V281.16601719l62.85268875 35.91582187 86.79657093 50.88074906v170.60015532z m14.96492532-197.53702219l-149.64925969-86.79657094L781.36866687 168.92907219l149.64925969 86.79657094-149.64925969 85.30007812z m14.96492625 197.53702219V367.96258812l86.79657093-50.88074906 62.85268875-35.91582187v170.60015625l-149.64925968 86.79657z"
         ></path>
</svg>
