<svg viewBox="0 0 1024 1024" xmlns="http://www.w3.org/2000/svg" fill="currentColor" height="1em" width="1em">
    <path d="M512 31.40266667c14.19946667 0 26.935296 8.14830933 31.93787733 20.447232l29.40381867 72.50466133c12.713984 31.30436267-4.456448 66.21320533-38.33856 77.96599467A70.34197333 70.34197333 0 0 1 512 206.16533333c-36.19771733 0-65.536-27.11005867-65.536-60.555264 0-7.25265067 1.41994667-14.46161067 4.17245867-21.25550933l29.425664-72.50466133C485.04285867 39.550976 497.75684267 31.40266667 512 31.40266667z m0 961.19466666c-14.221312 0-26.95714133-8.14830933-31.93787733-20.447232l-29.425664-72.50466133a56.492032 56.492032 0 0 1-4.17245867-21.25550933C446.464 844.96657067 475.80228267 817.83466667 512 817.83466667c7.86432 0 15.64125867 1.31072 23.003136 3.84477866 33.882112 11.75278933 51.052544 46.661632 38.33856 77.98784l-29.40381867 72.482816c-5.00258133 12.29892267-17.73841067 20.447232-31.93787733 20.447232z m480.59733333-480.59733333c0 14.19946667-8.14830933 26.935296-20.447232 31.93787733l-72.50466133 29.40381867c-31.30436267 12.713984-66.21320533-4.456448-77.96599467-38.33856A70.34197333 70.34197333 0 0 1 817.83466667 512c0-36.19771733 27.11005867-65.536 60.555264-65.536 7.25265067 0 14.46161067 1.41994667 21.25550933 4.17245867l72.50466133 29.425664c12.29892267 4.980736 20.447232 17.69472 20.447232 31.93787733zM31.40266667 512c0-14.221312 8.14830933-26.95714133 20.447232-31.93787733l72.50466133-29.425664c6.77205333-2.752512 13.98101333-4.17245867 21.25550933-4.17245867C179.03342933 446.464 206.16533333 475.80228267 206.16533333 512c0 7.86432-1.31072 15.64125867-3.84477866 23.003136-11.75278933 33.882112-46.661632 51.052544-77.98784 38.33856l-72.482816-29.40381867C39.550976 538.935296 31.40266667 526.19946667 31.40266667 512zM172.15214933 172.17399467c10.04885333-10.04885333 24.81629867-13.28196267 37.04968534-8.126464l72.06775466 30.45239466c31.1296 13.172736 43.66882133 49.98212267 28.00571734 82.24768a70.34197333 70.34197333 0 0 1-13.54410667 19.00544c-25.58088533 25.58088533-65.49230933 27.15374933-89.12896 3.49525334a56.492032 56.492032 0 0 1-12.10231467-17.97870934L164.04753067 209.22368c-5.177344-12.23338667-1.94423467-27.000832 8.10461866-37.04968533z m679.673856 679.673856c-10.04885333 10.04885333-24.81629867 13.28196267-37.04968533 8.10461866l-72.04590933-30.45239466a56.492032 56.492032 0 0 1-18.00055467-12.08046934c-23.63665067-23.658496-22.06378667-63.56992 3.51709867-89.15080533a70.34197333 70.34197333 0 0 1 19.00544-13.54410667c32.26555733-15.663104 69.074944-3.12388267 82.24768 28.00571734l30.45239466 72.06775466c5.15549867 12.23338667 1.92238933 26.97898667-8.126464 37.04968534z m0-679.69570134c10.04885333 10.04885333 13.28196267 24.81629867 8.126464 37.04968534l-30.45239466 72.06775466c-13.172736 31.1296-49.98212267 43.66882133-82.24768 28.00571734a70.34197333 70.34197333 0 0 1-19.00544-13.54410667c-25.58088533-25.58088533-27.15374933-65.49230933-3.49525334-89.12896 5.111808-5.15549867 11.206656-9.240576 17.97870934-12.10231467l72.04590933-30.45239466c12.23338667-5.177344 27.000832-1.94423467 37.04968533 8.10461866zM172.15214933 851.82600533c-10.04885333-10.04885333-13.28196267-24.81629867-8.10461866-37.04968533l30.45239466-72.04590933c2.83989333-6.77205333 6.946816-12.86690133 12.08046934-18.00055467 23.658496-23.63665067 63.56992-22.06378667 89.15080533 3.51709867 5.57056 5.57056 10.15808 12.01493333 13.54410667 19.00544 15.663104 32.26555733 3.12388267 69.074944-28.00571734 82.24768l-72.06775466 30.45239466c-12.23338667 5.15549867-26.97898667 1.92238933-37.04968534-8.126464zM512 752.29866667c-132.7104 0-240.29866667-107.58826667-240.29866667-240.29866667s107.58826667-240.29866667 240.29866667-240.29866667 240.29866667 107.58826667 240.29866667 240.29866667-107.58826667 240.29866667-240.29866667 240.29866667z"
         ></path>
</svg>
