<svg viewBox="0 0 1024 1024" xmlns="http://www.w3.org/2000/svg" fill="currentColor" height="1em" width="1em">
    <path d="M828.35421874 195.64578126c66.78589062 66.78589062 66.78589062 175.36178361 0 242.14767421l-156.22430493 156.22430495L746.33645831 668.22430495l156.22430495-156.22430495C1010.35553411 404.20522917 1010.35553502 229.23400665 902.56076419 121.43923581s-282.76599245-107.79477083-390.56076419 9.3e-7l-156.22430495 156.22430495 74.20654453 74.2065445 156.22430495-156.22430493c66.78589062-66.78589062 175.36178361-66.78589062 242.14767421 0z m-199.18598957 121.07383618l-312.44861173 312.44861173 78.11215339 78.11215339L707.28038256 394.83177083l-78.11215339-78.11215339z m-117.16822917 585.84114582l156.22430495-156.22430495-74.20654453-74.2065445-156.22430495 156.22430493c-66.78589062 66.78589062-175.36178361 66.78589062-242.14767421 0s-66.78589062-175.36178361 0-242.14767421l156.22430493-156.22430495L277.66354169 355.77569505l-156.22430495 156.22430495c-107.79477083 107.79477083-107.79477083 282.76599245-9.3e-7 390.56076419s282.76599245 107.79477083 390.56076419-9.3e-7z"
         ></path>
</svg>
