<svg viewBox="0 0 1024 1024" xmlns="http://www.w3.org/2000/svg" fill="currentColor" height="1em" width="1em">
    <path d="M387.20790124 931.03893333h183.53386665v-355.35146666c0-17.5712 1.952-37.0976 7.80906668-48.81173334 11.7152-35.1456 42.95573333-72.24106667 93.7184-72.24106665 66.38613333 0 93.7184 54.66773333 93.7184 132.76799999v341.68426666h183.53386667v-365.11466665c0-181.58293333-89.8144-265.53706667-210.86826667-265.53706668-97.62559999 0-158.14933333 58.576-181.58293333 97.6256h-3.90720001l-7.80906666-83.95626667h-160.10453333c1.952 54.66773333 3.9072 119.10186667 3.9072 197.20320001v421.73759999zM149.00310124 46.56213332c-58.576 0-97.62559999 41.00373333-95.67146668 97.62560001-1.952 52.7168 37.0976 95.67146668 95.67146668 95.67146668 60.52586667 0 99.5776-42.95573333 99.5776-95.67146668-3.9072-56.624-41.00373333-97.62559999-99.5776-97.62559999zM240.7705679 931.03893333v-616.98346666h-183.53386666v616.98346666h183.53386666z"
         ></path>
</svg>
