<svg viewBox="0 0 1024 1024" version="1.1" xmlns="http://www.w3.org/2000/svg" width="1em" height="1em">
    <path d="M234.624 932.864a43.52 43.52 0 0 1-58.688-17.024 46.528 46.528 0 0 1-5.248-21.248V584.896c0 30.72 17.28 49.664 62.848 70.912l278.08 138.688-276.992 138.368z"
          fill="#6ad09d" opacity=".4"></path>
    <path d="M642.944 85.312c115.584 0 209.28 45.504 210.368 161.92v647.36a44.992 44.992 0 0 1-5.248 20.864 43.328 43.328 0 0 1-59.84 17.408L511.616 794.496l-278.08-138.688c-45.568-21.248-62.848-40.192-62.848-70.912V247.168c0-116.352 93.696-161.856 208.832-161.856z m28.992 257.792H350.912a33.6 33.6 0 0 0-33.472 33.728c0 18.56 14.976 33.728 33.472 33.728H672a33.6 33.6 0 0 0 33.472-33.728A33.6 33.6 0 0 0 672 343.104z"
          fill="#6ad09d"></path>
</svg>
