<svg viewBox="0 0 1024 1024" xmlns="http://www.w3.org/2000/svg" fill="currentColor" height="1em" width="1em">
    <path d="M303.55291933 951.35043811c-1.84934059-3.43448917-12.68119097-22.19208477-24.04142536-41.74225521l-20.07855218-35.4016586 5.01963776-9.51089265c2.90610631-5.01963776 13.20957383-23.24885049 22.9846585-40.15710664l17.70082986-31.17459456h366.69778034l6.86897834-11.09604238c3.43448917-6.34059549 13.73795669-23.77723335 22.72046763-39.10033977 8.71831893-15.32310642 22.19208477-38.30776491 29.85363797-51.51733873 7.66155321-12.94538297 16.37987214-28.00429739 19.02178646-33.02393629 2.90610631-5.28382976 14.00214869-24.30561621 24.56980821-42.27063694 10.56765952-18.22921273 29.85363797-51.51733987 43.06321181-73.97361551 12.94538297-22.45627563 35.93004146-62.08499826 51.25314787-87.71157333 15.05891442-25.89076594 28.53268025-49.93219015 29.85363797-53.63087132 3.43448917-8.98251093 8.45412693-8.18993607 12.94538184 2.11353259 2.11353145 4.4912549 8.71831893 16.90825501 14.79472355 26.94753166 6.34059549 10.30346752 20.60693618 35.13746773 32.23136143 55.48021077s25.62657394 44.38416953 30.91040369 53.63087133l9.77508466 16.64406414-6.07640462 9.77508466c-3.43448917 5.28382976-7.13317035 11.62442525-8.71831893 14.00214869-2.90610631 4.7554469-13.73795669 23.77723335-24.83399908 43.3274038-3.96287203 7.39736121-13.47376583 23.77723335-21.13531904 36.45842432-7.39736121 12.94538297-13.47376583 24.04142535-13.47376583 24.56980821 0 0.79257486-3.43448917 6.34059549-7.39736121 12.41699898-4.22706403 6.07640462-9.51089379 15.32310642-12.15280811 20.34274531-2.37772345 5.01963776-6.86897835 12.94538297-9.77508465 17.17244587-2.64191431 4.4912549-5.81221262 10.03927666-6.60478749 12.68119096-1.05676573 2.37772345-2.64191431 4.4912549-3.69868117 4.49125604s-2.64191431 2.11353145-3.43448918 4.75544576c-1.05676573 2.37772345-5.28382976 10.56765952-9.77508466 17.70082987-4.22706403 7.39736121-10.56765952 17.96502073-13.47376582 23.77723335-3.17029831 5.81221262-10.83185038 19.28597845-17.17244587 29.58944597-6.34059549 10.56765952-11.62442525 20.07855331-11.62442525 21.13531904 0 0.79257486-1.58514859 3.69868117-3.69868117 5.81221263-2.11353145 2.37772345-8.71831893 13.73795669-14.79472355 25.36238307s-18.22921273 33.81651001-26.94753053 49.66799815l-16.11568128 28.26848939H307.25159936l-3.69868003-5.81221263z"
         ></path>
    <path d="M523.88861725 694.82050674c-31.70297856-20.60693618-68.95397774-44.11997753-70.01074347-44.11997753-0.79257486 0-10.03927666-5.81221262-20.60693618-13.20957383-10.83185038-7.13317035-22.72046763-14.53053155-26.68333966-16.11568128-3.69868117-1.84934059-6.86897835-3.96287203-6.86897835-5.01963776 0-0.79257486-4.7554469-4.22706403-10.56765952-7.66155321l-10.30346752-5.81221262-0.79257486-98.27923172c-0.52838286-54.15925419 0-99.33599744 0.79257486-100.3927643 1.05676573-1.32095773 27.74010539 12.94538297 59.44308395 31.96716942 31.96716942 18.75759559 69.21816861 40.42129749 82.95612529 48.61123356l25.09819108 14.26633956 0.264192 103.56306148c0.264192 73.7094235-0.52838286 103.56306147-2.64191545 103.56306261-1.58514859 0-10.56765952-5.01963776-20.07855217-11.36023438z m0-61.29242453c0-11.09604238-0.79257486-12.15280811-11.09604239-18.2292116-6.34059549-3.43448917-33.28812715-19.02178645-59.97146681-34.34489287s-48.87542443-28.00429739-49.40380842-28.00429739-1.05676573 5.28382976-1.05676573 11.62442525v11.36023325l60.23565881 34.60908486c33.02393515 19.28597845 60.23565881 34.87327573 60.76404054 34.87327574 0.264192 0 0.52838286-5.28382976 0.528384-11.88861724z m0-42.27063695c0-11.09604238-0.79257486-12.15280811-11.09604239-18.22921273-6.34059549-3.43448917-33.28812715-19.02178645-59.97146681-34.34489287s-48.87542443-28.00429739-49.40380842-28.00429739-1.05676573 5.28382976-1.05676573 11.62442525v11.36023438l60.23565881 34.60908373c33.02393515 19.28597845 60.23565881 34.87327573 60.76404054 34.87327688 0.264192 0 0.52838286-5.28382976 0.528384-11.88861725z m-1.84934059-54.42344619c-2.11353145-2.11353145-117.30101931-68.42559488-118.88616789-68.42559374-0.52838286 0-0.79257486 5.28382976-0.79257487 11.62442525v11.36023324l60.23565881 34.60908487 59.97146681 34.60908488 0.79257373-10.83185152c0.52838286-5.81221262 0-11.62442525-1.32095659-12.94538298z"
         ></path>
    <path d="M109.10798734 615.82725347c-3.69868117-7.39736121-10.56765952-20.34274418-15.58729841-28.26848938-7.92574407-13.47376583-49.66799929-84.80546589-61.2924234-105.41240206-7.13317035-12.15280811-6.34059549-15.85148928 6.34059548-37.77938205 24.56980821-42.00644608 41.21387122-70.27493433 45.96931812-78.99325326 7.13317035-12.41700011 49.66799929-86.12642361 81.37097671-141.34244466 14.53053155-24.56980821 40.68548835-70.27493433 58.12212622-101.18533803l32.23136143-56.27278563h229.05401685c159.30746539 0 230.37497458 1.05676573 232.75269689 2.90610631 1.84934059 1.58514859 10.56765952 15.58729728 19.55017045 31.17459456 8.71831893 15.58729728 18.75759559 33.02393515 22.45627563 38.83614777l6.34059548 10.83185152-8.9825098 14.26633955c-5.01963776 7.92574407-15.32310642 25.89076594-22.72046762 39.62872264s-13.73795669 25.62657394-14.2663407 25.89076594c-0.264192 0.52838286-83.2203173 0.79257486-184.40565532 0.79257486l-183.6130816-0.264192-9.5108938 14.53053155c-5.01963776 7.92574407-9.24670179 15.85148928-9.24670179 17.17244701 0 1.58514859-1.05676573 2.64191431-2.64191431 2.64191431-1.32095773 0-2.64191431 1.05676573-2.64191545 2.11353145 0 2.90610631-29.32525511 55.21601991-48.61123243 87.18319047-8.18993607 13.47376583-14.79472355 25.09819107-14.79472355 25.8907648 0 1.05676573-3.43448917 6.86897835-7.92574407 13.47376583-4.22706403 6.34059549-7.92574407 12.15280811-7.92574521 12.94538297 0 0.52838286-2.90610631 5.54802062-6.07640349 11.09604238-3.43448917 5.28382976-9.24670179 15.05891442-12.94538296 21.6637019s-20.07855331 35.13746773-36.45842546 63.40595599-31.96716942 55.21601991-34.34489288 59.44308394c-2.64191431 4.4912549-8.18993607 14.26634069-12.94538182 21.92789276-4.4912549 7.66155321-8.18993607 14.53053155-8.18993608 15.32310642 0 2.37772345-19.28597845 30.11782883-20.87112704 30.11782884-0.79257486 0-4.4912549-6.34059549-8.18993607-13.7379567z"
         ></path>
    <path d="M625.60233813 601.56091278c-15.85148928-10.56765952-31.17459456-21.13531904-33.81651-23.51304135-4.22706403-3.69868117-4.7554469-9.24670179-4.4912549-56.00859477 0.264192-39.89291463-0.264192-52.3099136-3.17029832-54.95182905-1.84934059-1.84934059-21.13531904-13.73795669-43.0632118-26.4191488-21.6637019-12.68119097-41.74225408-25.09819107-44.11997753-27.21172252-4.22706403-3.43448917-4.7554469-9.51089379-4.75544689-50.72476502 0-25.62657394 0.52838286-47.29027584 1.58514858-48.08284956 0.79257486-0.79257486 8.18993607 2.90610631 16.37987214 8.45412693s25.36238194 15.85148928 37.77938205 22.72046763c12.41700011 7.13317035 43.06321181 25.09819107 67.89721201 40.15710549l45.44093526 27.21172366-0.52838286 103.29886948c-0.52838286 66.31206229-1.84934059 103.56306147-3.43448918 103.82725347-1.32095773 0.264192-15.58729728-8.18993607-31.70297856-18.75759559z"
         ></path>
</svg>
