<svg viewBox="0 0 1024 1024" xmlns="http://www.w3.org/2000/svg" fill="currentColor" height="1em" width="1em">
    <path d="M865.621333 356.010667m-72.832 0a72.832 72.832 0 1 0 145.664 0 72.832 72.832 0 1 0-145.664 0Z"></path>
    <path d="M792.789333 491.221333h145.621334v155.989334c0 40.192-32.64 72.789333-72.832 72.789333h-72.789334v-228.778667zM85.589333 179.2v665.6l478.421334 84.437333V94.762667L85.589333 179.2z m353.621334 230.869333l-83.2 2.090667v245.418667H293.589333V416.298667l-83.157333 4.181333V364.330667l228.778667-12.458667v58.197333z m166.357333 18.730667v353.621333h83.2c34.474667 0 62.421333-27.946667 62.421333-62.378666V428.8h-145.621333z m62.421333-208c-25.002667 0-47.146667 11.264-62.421333 28.714667v109.013333c15.232 17.450667 37.418667 28.714667 62.421333 28.714667a83.2 83.2 0 0 0 0-166.442667z"></path>
</svg>
