<svg viewBox="0 0 1024 1024" version="1.1" xmlns="http://www.w3.org/2000/svg"
    fill="currentColor" height="1em" width="1em">
  <g transform="matrix(30.989471, 0, 0, 30.989471, -215.609863, -113.381523)">
    <path d="M21.2219 26.1822C21.7957 26.8188 22.6185 27.1839 23.4793 27.1839C24.3401 27.1839 25.1628 26.8188 25.7366 26.1822L36.8899 13.8084C37.1767 13.4901 37.5881 13.3076 38.0185 13.3076H39.4963C39.7751 13.3076 40.001 13.0833 40.001 12.8067V11.805C40.001 11.5285 39.7751 11.3042 39.4963 11.3042H38.0185C37.0143 11.3042 36.0544 11.7302 35.385 12.4729L24.2317 24.8466C24.0273 25.0734 23.7415 25.193 23.4322 25.1795C23.1521 25.1674 22.8921 25.03 22.7052 24.8226L11.5736 12.4729C10.9043 11.7302 9.94436 11.3042 8.94004 11.3042H7.46227C7.18352 11.3042 6.95752 11.5285 6.95752 11.805V12.8067C6.95752 13.0833 7.18352 13.3076 7.46227 13.3076H8.94004C9.37046 13.3076 9.7817 13.4901 10.0687 13.8084L21.2219 26.1822Z"/>
    <path d="M38.0185 27.0533H39.4963C39.7751 27.0533 40.001 27.2775 40.001 27.5541V28.5558C40.001 28.8324 39.7751 29.0567 39.4963 29.0567H38.0185C37.0143 29.0567 36.0544 28.6307 35.3848 27.8879L31.3759 23.4403L32.7303 21.9377L36.8899 26.5524C37.1767 26.8707 37.5881 27.0533 38.0185 27.0533Z"/>
    <path d="M14.2283 21.9377L10.0687 26.5524C9.7817 26.8707 9.37046 27.0533 8.94004 27.0533H7.46227C7.18339 27.0533 6.95752 27.2775 6.95752 27.5541V28.5558C6.95752 28.8324 7.18339 29.0567 7.46227 29.0567H8.94004C9.94436 29.0567 10.9043 28.6307 11.5736 27.8879L15.5826 23.4402L14.2283 21.9377Z"/>
  </g>
</svg>
