<svg viewBox="0 0 1024 1024" xmlns="http://www.w3.org/2000/svg" fill="currentColor" height="1em" width="1em">
    <path d="M177.3125 65.8671875C135.4765625 75.7109375 96.8046875 108.0546875 76.4140625 149.890625L63.7578125 176.2578125v671.484375l11.25 23.90625c15.46875 32.6953125 41.8359375 59.4140625 74.53125 75.5859375l26.3671875 13.0078125 323.4375 1.0546875c237.3046875 0.703125 329.0625 0 343.125-2.8125 56.25-11.953125 103.7109375-59.4140625 115.6640625-116.015625 3.1640625-14.4140625 3.8671875-103.359375 3.1640625-343.125l-1.0546875-323.4375-13.0078125-26.3671875c-16.5234375-33.3984375-39.375-56.25-72.7734375-72.7734375L848.09375 63.7578125 519.3828125 63.0546875c-183.8671875-0.3515625-335.0390625 1.0546875-342.0703125 2.8125z m438.3984375 78.3984375c42.1875 10.8984375 103.359375 40.078125 136.0546875 65.0390625 14.0625 10.8984375 25.6640625 16.875 28.828125 15.8203125 8.7890625-3.515625 29.53125 5.2734375 39.0234375 16.5234375 25.6640625 30.9375-6.328125 78.3984375-46.0546875 68.5546875-5.2734375-1.40625-14.0625-7.3828125-19.6875-13.359375-8.0859375-8.7890625-9.84375-13.7109375-9.84375-29.1796875v-18.28125l-20.390625-14.4140625C661.765625 191.7265625 594.96875 170.984375 517.2734375 170.984375s-140.2734375 19.6875-204.609375 63.984375C283.1328125 255.359375 242 297.1953125 222.6640625 326.7265625c-28.4765625 42.890625-51.328125 102.65625-56.953125 148.0078125l-2.4609375 19.6875h217.96875l2.4609375-11.6015625c7.734375-34.453125 36.9140625-71.015625 72.0703125-88.9453125 17.578125-9.4921875 22.5-10.1953125 56.25-10.1953125 34.453125 0 38.3203125 0.703125 58.0078125 11.25 33.3984375 17.2265625 62.9296875 54.140625 70.3125 88.2421875l2.4609375 11.25 109.3359375-0.703125 109.6875-1.0546875-1.0546875-21.4453125c-0.703125-11.953125-3.1640625-30.9375-5.2734375-42.1875l-4.21875-20.7421875-70.3125-1.0546875-70.6640625-0.703125-11.25-18.984375C674.7734375 346.765625 625.90625 308.4453125 578.796875 293.6796875c-45.703125-14.765625-111.4453125-12.65625-152.9296875 4.921875C381.5703125 317.234375 325.3203125 364.34375 331.296875 377.703125c1.40625 3.1640625 3.515625 14.4140625 4.21875 24.609375 1.40625 17.2265625 0.703125 18.984375-10.8984375 30.5859375-10.546875 10.546875-14.765625 12.3046875-28.4765625 12.3046875-18.6328125 0-31.640625-7.03125-39.375-21.4453125-11.25-21.796875-2.4609375-48.8671875 18.984375-58.7109375 7.03125-3.1640625 28.125-21.09375 46.40625-39.375 28.4765625-28.828125 38.3203125-36.2109375 66.796875-50.2734375 18.28125-9.140625 43.59375-19.3359375 56.25-22.5 31.640625-8.4375 99.140625-8.4375 130.078125 0.3515625 53.7890625 14.765625 106.875 49.5703125 138.8671875 91.0546875l17.578125 23.203125 73.828125 1.0546875 73.4765625 1.0546875 8.4375 31.640625c11.25 42.890625 14.4140625 117.0703125 6.6796875 161.71875-37.6171875 214.453125-237.65625 358.2421875-450.703125 323.4375-61.171875-9.84375-124.8046875-36.5625-171.9140625-72.421875-13.7109375-10.1953125-24.9609375-16.171875-28.125-15.1171875-8.7890625 3.515625-29.53125-5.2734375-39.0234375-16.5234375-16.5234375-20.0390625-9.140625-53.4375 14.4140625-64.6875 31.640625-15.1171875 61.171875 4.21875 61.171875 39.7265625 0 17.2265625 0.3515625 17.578125 20.7421875 31.9921875 29.1796875 20.0390625 81.2109375 44.6484375 114.609375 53.4375 35.859375 9.4921875 110.390625 13.0078125 148.359375 6.6796875 114.9609375-18.28125 214.8046875-94.21875 264.7265625-201.4453125 15.1171875-31.9921875 26.3671875-69.2578125 29.8828125-98.7890625l2.4609375-19.6875h-217.96875l-2.4609375 11.25c-7.3828125 33.75-35.15625 68.90625-69.2578125 87.5390625-21.09375 11.6015625-23.90625 11.953125-59.0625 11.953125-33.75 0-38.671875-0.703125-55.546875-9.84375-36.2109375-18.984375-65.0390625-54.4921875-72.7734375-89.6484375l-2.4609375-11.25-109.3359375 0.703125-109.6875 1.0546875 1.0546875 21.4453125c0.703125 11.953125 3.1640625 30.9375 5.2734375 42.1875l4.21875 20.7421875 70.3125 1.0546875 70.6640625 0.703125 11.25 18.984375c23.5546875 39.7265625 74.1796875 79.453125 120.234375 94.21875 31.9921875 10.1953125 89.296875 12.65625 119.53125 4.921875 38.671875-9.4921875 78.046875-31.2890625 106.171875-58.359375 20.0390625-19.3359375 24.2578125-25.3125 22.1484375-30.5859375-1.7578125-3.515625-3.8671875-14.765625-4.5703125-24.9609375-1.40625-17.2265625-0.703125-18.984375 10.8984375-30.5859375 10.546875-10.546875 14.765625-12.3046875 28.4765625-12.3046875 18.6328125 0 31.640625 7.03125 39.375 21.4453125 11.25 21.796875 2.4609375 48.8671875-18.984375 58.7109375-7.03125 3.1640625-28.125 21.09375-46.40625 39.375-28.4765625 28.828125-38.3203125 36.2109375-66.796875 50.2734375-18.28125 9.140625-43.59375 19.3359375-56.25 22.5-31.640625 8.4375-99.140625 8.4375-130.078125-0.3515625-50.9765625-13.7109375-105.1171875-48.515625-133.59375-85.078125-28.828125-36.5625-18.984375-33.3984375-98.7890625-33.046875-39.0234375 0.3515625-71.015625 0-71.71875-0.703125-0.3515625-0.703125-4.5703125-15.46875-9.140625-32.6953125-7.3828125-27.7734375-8.4375-39.375-8.0859375-94.921875 0-56.6015625 1.0546875-66.796875 9.4921875-97.3828125 40.078125-149.4140625 161.3671875-261.2109375 313.59375-289.3359375 43.2421875-8.0859375 120.234375-4.921875 165.234375 6.6796875z"
         ></path>
    <path d="M763.3671875 246.921875c-15.1171875 16.171875-10.546875 38.671875 9.140625 48.8671875 14.4140625 7.734375 32.6953125 1.7578125 40.078125-12.3046875 7.3828125-14.4140625 6.6796875-22.5-3.8671875-34.8046875-12.3046875-14.765625-32.6953125-15.46875-45.3515625-1.7578125z m38.3203125 9.140625c3.1640625 4.21875 5.625 10.546875 5.625 13.7109375 0 6.6796875-15.8203125 20.7421875-23.203125 20.7421875-7.3828125 0-18.984375-13.0078125-18.984375-21.796875 0-18.6328125 26.015625-27.7734375 36.5625-12.65625zM279.96875 375.9453125c-19.3359375 9.84375-21.796875 37.96875-4.5703125 51.6796875 13.0078125 10.1953125 27.7734375 9.140625 40.078125-3.1640625 13.7109375-14.0625 13.7109375-28.828125 0-42.890625-11.25-10.8984375-21.4453125-12.65625-35.5078125-5.625z m27.421875 11.6015625c14.765625 10.1953125 6.328125 36.5625-12.3046875 36.5625-9.84375 0-22.1484375-11.6015625-22.1484375-21.09375 0-8.7890625 11.953125-21.09375 20.390625-21.09375 3.515625 0 9.84375 2.4609375 14.0625 5.625zM486.6875 422c-60.46875 16.171875-88.2421875 92.4609375-51.6796875 142.3828125 39.375 54.84375 114.609375 54.84375 153.984375 0 37.6171875-51.328125 6.6796875-130.078125-56.25-143.4375-21.4453125-4.5703125-24.9609375-4.5703125-46.0546875 1.0546875z m58.7109375 18.984375c49.5703125 24.2578125 60.46875 90.703125 20.390625 127.6171875-16.171875 15.1171875-31.9921875 21.4453125-53.7890625 21.4453125-68.90625 0-104.0625-81.2109375-56.6015625-131.8359375 22.8515625-24.609375 60.46875-31.9921875 90-17.2265625z"
         ></path>
    <path d="M485.6328125 451.53125c-34.453125 16.5234375-49.21875 53.7890625-33.75 86.8359375 24.609375 53.0859375 95.625 53.0859375 120.234375 0 8.7890625-18.984375 8.4375-35.859375-1.0546875-54.4921875-17.2265625-33.3984375-54.140625-47.109375-85.4296875-32.34375zM708.5234375 599.5390625c-14.0625 14.0625-13.7109375 28.828125 0.3515625 43.2421875 9.4921875 9.140625 12.65625 10.546875 23.5546875 8.7890625 18.28125-3.1640625 27.421875-13.359375 27.421875-30.9375 0-28.4765625-30.9375-41.1328125-51.328125-21.09375zM744.03125 606.921875c3.8671875 3.8671875 7.03125 10.1953125 7.03125 14.0625 0 8.7890625-11.953125 21.09375-20.390625 21.09375-10.546875 0-21.796875-10.1953125-21.796875-20.0390625 0-20.0390625 21.4453125-28.828125 35.15625-15.1171875zM225.4765625 727.859375c-10.8984375 4.5703125-19.3359375 17.9296875-19.3359375 30.234375 0 3.515625 4.21875 11.25 9.140625 17.2265625 7.03125 8.4375 11.953125 10.8984375 22.1484375 10.8984375 31.640625 0 43.59375-40.078125 16.875-56.25-13.0078125-8.0859375-14.765625-8.4375-28.828125-2.109375zM251.84375 740.515625c13.7109375 13.7109375 4.921875 35.15625-14.4140625 35.15625-20.0390625 0-27.421875-29.1796875-9.4921875-37.96875 11.6015625-5.625 16.171875-4.921875 23.90625 2.8125z"
         ></path>
</svg>
