<svg viewBox="0 0 1024 1024" version="1.1" xmlns="http://www.w3.org/2000/svg"
     fill="currentColor" height="1em" width="1em">
    <path d="M733.013333 406.101333c-53.888-237.226667-180.992-315.178667-194.645333-345.002666C523.349333 40.064 507.093333 0 507.093333 0l-0.213333 2.090667v0.554666h-0.042667a24.490667 24.490667 0 0 0-0.170666 1.664v0.64h-0.085334l-0.085333 1.109334v1.109333h-0.128c-0.042667 0.341333-0.042667 0.768-0.128 1.066667v0.896h-0.085333c0 0.298667 0 0.64-0.085334 0.896v0.853333h-0.085333l-0.085333 1.365333v0.085334l-0.384 2.133333v0.341333h-0.085334l-0.128 0.512v0.725334h-0.128v0.938666h-0.213333v0.768h-0.213333v0.896h-0.170667v0.810667h-0.170667v0.725333h-0.256v0.597334h-0.170666v0.768h-0.170667v0.597333h-0.213333v0.554667H503.466667v0.64h-0.170667l-0.042667 0.170666v0.426667h-0.128l-0.042666 0.256v0.256h-0.085334a1.877333 1.877333 0 0 0-0.085333 0.426667l-0.426667 0.896v0.085333a1.28 1.28 0 0 0-0.213333 0.298667v0.341333h-0.170667v0.341333h-0.213333v0.341334h-0.128v0.426666h-0.256v0.597334h-0.170667v0.170666h-0.170666v0.341334h-0.170667v0.469333h-0.170667v0.341333h-0.256v0.469334h-0.170666v0.341333h-0.213334v0.341333h-0.128v0.426667h-0.213333v0.341333h-0.170667v0.256h-0.170666v0.341334h-0.256V32.426667h-0.170667v0.256h-0.213333v0.341333h-0.170667v0.469333h-0.213333v0.170667h-0.128v0.341333h-0.256v0.170667h-0.170667v0.426667h-0.170667v0.170666h-0.170666v0.341334h-0.213334v0.256h-0.128l-0.085333 0.170666v0.170667h-0.085333l-0.085334 0.170667v0.042666h-0.042666a0.682667 0.682667 0 0 1-0.170667 0.298667v0.128h-0.042667L496.213333 37.12v0.042667c-0.085333 0.085333-0.298667 0.256-0.384 0.426666v0.085334h-0.042666l-0.128 0.128v0.128h-0.085334l-0.128 0.128v0.042666h-0.042666l-0.128 0.170667v0.170667h-0.128l-0.085334 0.085333v0.085333h-0.085333c0 0.085333-0.085333 0.085333-0.085333 0.128v0.128h-0.170667l-0.085333 0.128V39.253333h-0.128v0.170667h-0.170667V39.68h-0.170667v0.341333h-0.213333V39.68h-0.213333v0.170667h-0.170667V40.106667h-0.213333v0.341333h-0.213334v0.170667h-0.170666v0.256h-0.170667v0.170666h-0.170667V41.386667h-0.256v0.170666h-0.170666V41.813333h-0.213334v0.170667h-0.170666v0.213333h-0.213334v0.426667h-0.085333v0.170667h-0.256v0.213333h-0.170667v0.085333h-0.170666v0.170667h-0.213334v0.426667h-0.170666v0.170666h-0.213334v0.170667h-0.170666v0.256h-0.213334v0.170667h-0.213333v0.170666h-0.170667v0.170667h-0.170666v0.426667h-0.170667v0.213333h-0.256v0.170667h-0.170667v0.170666h-0.213333v0.256h-0.170667v0.170667h-0.213333v0.298667h-0.170667v0.170666h-0.256V46.933333h-0.085333v0.170667h-0.170667v0.170667h-0.213333v0.170666h-0.170667v0.256h-0.213333v0.170667h-0.128l-0.042667 0.085333v0.085334h-0.085333l-0.170667 0.170666-0.170666 0.128v0.256h-0.170667v0.213334h-0.170667v0.170666h-0.170666v0.170667h-0.128l-0.128 0.128v0.128h-0.085334l-0.085333 0.085333v0.128h-0.085333c-0.213333 0.256-0.298667 0.426667-0.597334 0.682667a15.616 15.616 0 0 0-2.176 1.792l-0.938666 0.725333v0.042667h-0.042667a120.362667 120.362667 0 0 1-2.090667 1.664v0.042667l-3.157333 2.645333V57.173333h-0.085333c-2.432 2.005333-4.992 4.266667-7.936 6.784V64h-0.042667c-7.210667 6.314667-15.786667 14.421333-25.386667 24.234667l-0.64 0.64-0.170666 0.170666C384 149.077333 292.565333 274.176 282.922667 476.330667c-0.853333 16.725333-0.682667 32.981333 0.256 48.810666v0.384c4.650667 79.658667 29.653333 147.669333 60.928 202.922667v0.042667c12.458667 22.016 25.898667 42.026667 39.509333 59.946666v0.042667c47.018667 62.08 95.018667 98.858667 107.264 107.776 18.816 43.648 17.066667 118.570667 17.066667 118.570667l27.477333 9.173333s-5.589333-72.576 2.261333-107.605333c2.432-10.965333 8.192-20.309333 14.890667-28.245334a357.546667 357.546667 0 0 0 34.005333-27.52c0.768-0.810667 1.194667-1.536 1.877334-2.304 64.896-60.501333 186.112-209.493333 144.554666-452.224z"></path>
</svg>
