<svg viewBox="0 0 1036 1024" xmlns="http://www.w3.org/2000/svg" fill="currentColor" height="1em" width="1em">
    <path d="M971.92408062 960.85569125c-1.12514531-1.65820687-27.65270625-41.86363219-69.57535968-78.04252031-16.7572575-14.50696781-35.76480375-28.36283156-52.40401875-40.50146625l-1.0651875-0.77008313c-12.73165594-9.29626313-30.85014094-22.5591075-38.60717625-30.0210375 5.32968281-0.65110406 12.73165594-1.18416562 19.89567094-1.65820687l3.61151812-0.23608407c51.63393655-3.375435 99.00525187-8.05307625 111.02490844-28.77785062a27.06062345 27.06062345 0 0 0 1.71722812-22.14502406c-8.5271175-28.24572656-57.61472343-67.85813156-124.99881468-100.95856313a575.54953031 575.54953031 0 0 0-72.23973188-30.43512093l-0.88812469-0.29604188c-15.86913281-5.44772437-20.60579625-7.04691094-28.54083093-17.11325625-25.46143781-32.21136938-49.67968875-85.79955469-75.55614563-143.1772575-33.69157687-74.6071275-68.50923562-151.82148-113.15528344-199.07287969-3.07939313-3.31641375-7.22397281-8.17205531-12.4346775-14.27088375l-0.65110406-0.88812468c-27.23862281-32.21136938-77.98349906-92.194425-138.49961531-116.58973875-66.377925-26.7645825-89.41201031-31.85724469-118.54398656-38.19215626l-15.15807094-3.43445531c-12.19765687-2.78335125-25.87645781-11.19149063-41.68657031-20.90277375C176.99004311 56.73388813 143.17948719 35.9500925 98.41446125 32.27861655c-32.86341094-2.96041406-49.26466875 18.29648531-55.8375375 30.43512095C28.83910156 88.05713281 29.72722625 122.22275094 39.14246844 137.086655c6.7499325 10.71744937 17.46738188 23.98123031 27.82976906 36.88994813l0.94808156 1.18416656c11.72361563 14.74398844 23.86225219 29.96107969 31.02720469 41.86363218 8.29009687 13.73688469 20.48775375 50.21181375 31.20520312 82.42318313l0.35599969 1.06706062c8.6442225 25.99356281 16.87529906 50.5678125 22.79612719 62.76547032 3.73049719 7.75703531 8.64516 15.69206999 13.38182344 23.33012625l0.41502 0.65110406c7.28299406 11.66459531 15.51407063 24.98739657 17.05329843 34.52068031 2.01326906 13.44178031-2.13224813 24.69229219-7.81605656 40.38342563-9.11920031 24.81033375-21.4948575 58.97595187-15.21802875 122.6304825 8.82315937 89.3520525 62.23334437 146.25571406 91.60234219 139.38680343 31.08716156-7.28299406 44.884005-50.685855 45.77212875-76.79933343 0.11804156-3.49347657 0.35506219-10.00638844 0.71012437-14.7439875 2.4273525 4.32258 5.38870406 10.59940781 7.40103657 14.86296656 7.16588906 14.98007156 15.98811187 33.63255655 28.83780843 48.37654406 43.16584031 49.97572969 102.55587562 97.99721156 109.3667025 103.4458725l26.82172875 14.68403063-15.809175-22.91510625-78.16056093-103.20885281c-19.4815875-30.73116281-36.11986594-70.75952531-46.00821282-94.74075563l-2.54633156-6.03887062a85.26649312 85.26649312 0 0 1-2.13224719-6.27682874l-0.23702062-0.88812376c-4.14458063-12.90871875-21.49392-34.10659687-33.45455718-35.23174219-9.35622094-0.9480825-31.62022406 30.31614281-37.18599001 64.77873844-1.53922781 9.41524219-2.48731031 34.28459719-2.78241469 41.6266125-0.29697844 5.44772437-7.63899375 12.61267687-9.35622093 15.92815312-9.00022219-4.55960062-35.70578343-51.15989531-32.86341094-118.36598719 1.00710281-24.04118813 7.81605657-49.38364688 13.914885-72.00364875 8.29009687-30.67214156 15.45504937-57.14068219 7.40103562-75.85125093-4.14364313-9.59324156-5.50580906-11.901615-9.23724187-18.23746407l-0.59114625-1.06612406c-3.13841437-5.32968281-9.71128311-16.34317406-25.63943719-45.77212875-7.22303625-13.3818225-14.38892531-36.29692875-22.0269825-60.87024281-9.4742625-30.5541-19.30358813-62.055345-31.1461828-79.87872563-15.39509156-23.3891475-28.18576875-40.79750813-37.48203095-53.5282275C81.1841 107.06468 76.80156219 99.24862343 83.25639031 87.46505001a18.29648531 18.29648531 0 0 1 17.64538125-10.65842814c20.546775 0 50.50785469 19.89567094 76.917375 37.42301063 17.88240187 11.84165719 33.33651469 22.08600281 45.12008813 25.69752094 10.42140844 3.13841437 19.95469219 5.09266219 31.501245 7.28393156 23.33012625 4.55960062 49.73870906 9.77030438 94.03063125 30.90916219 43.40286094 20.90183719 110.37286781 90.18115594 144.77550656 131.62976718 35.11276313 42.21963188 76.44333375 126.65702156 113.15528344 201.62014782 20.72477437 42.33767344 40.20636281 82.30607812 55.54243312 107.886495l2.54539406 4.44062156c5.27066156 9.29626313 12.43561406 22.14596062 25.63943719 29.90299594 17.70533906 10.48042875 38.90321813 18.53350594 61.46326219 27.00066562 14.44794656 5.44772437 29.42895469 11.07344906 43.16584031 17.35027688 46.30519125 21.37494188 76.79933344 50.74487531 78.51656063 57.4357875a26.40951937 26.40951937 0 0 1-8.23013907 0.82910343c-3.13841437 0-6.57286969-0.11897906-10.42140843-0.35599968l-3.43445532-0.11804157a209.02212094 209.02212094 0 0 0-21.0798375 0.05902125c-23.44910531 1.65820687-79.04962313 8.5271175-87.99082312 36.11986594-6.15784969 18.83048438 13.38275906 54.77235094 52.28504063 78.22051969 76.02925031 46.00821281 165.736365 101.90570813 166.32938438 102.20174906l31.50124499 19.65865125-20.31069094-31.14618281zM234.13072531 211.75280281l-6.09882844 4.7376 6.45482813 4.32258c0.117105 0.05902125 12.72978188 8.64516 22.08600281 18.65248407 8.76320156 9.41430563 14.09194687 28.42185188 14.15096813 28.71789375l2.07322687 7.46005687 6.57193313-4.38160031c3.96751781-2.78241469 16.99427813-13.02676031 19.06656749-28.18483219a32.44839001 32.44839001 0 0 0-8.8222228-25.99449937 37.24501125 37.24501125 0 0 0-29.0738925-14.56692469c-14.74398844 0-25.93547906 8.88217969-26.40951938 9.23724187z"
         ></path>
</svg>
