<svg viewBox="0 0 1024 1024" xmlns="http://www.w3.org/2000/svg" fill="currentColor" height="1em" width="1em">
    <path d="M588.35871604 77.60822642c-62.42464227 11.73080589-108.50995007 33.93554407-148.72985416 72.06066045-31.00284221 28.90805605-50.69383795 59.49194198-65.77630199 100.96871803-18.4341222 50.27488011-22.20473819 82.11563803-22.20473819 188.11184252 0 92.17061405 0.41895787 98.45497405 7.54123203 95.52227219 22.62369604-8.79810401 51.53175211-11.73080589 74.99336229-7.54123202 13.40663417 2.51374401 27.65118406 5.86540215 31.84075792 7.54123202 6.70331787 2.93270186 7.12227415-2.93270186 7.12227417-88.39999645 0-103.90141835 4.60853014-134.0663464 25.55639788-173.44833636 30.16492806-56.97819797 87.98104016-87.98104016 163.39336034-87.98104017 85.04833833 0 150.40568244 45.66634994 175.96208035 123.59241253 4.18957387 12.56872002 5.86540215 67.45213027 7.54123201 211.57345429l2.513744 194.81516037h121.49762639V527.98735959c0-201.51847826-1.25687199-216.60094228-23.04265233-276.93079683-34.77345822-95.52227219-107.67203436-154.5952563-215.76302813-173.44833634-43.57156223-7.54123201-101.8066322-7.54123201-142.44549258 0z"></path>
    <path d="M99.01654922 378.83854916c-71.22274628 25.55639792-93.0085282 116.88909623-39.38198996 169.25876247 9.63601817 9.21706188 25.13744005 20.52890989 34.35450193 24.2995259 23.46161018 10.05497602 58.65402625 8.79810401 82.53459432-2.51374399l19.69099576-9.21706189 54.0454961 37.2872038 54.0454961 36.86824436-0.41895785 29.32701392-0.41895787 29.32701391-54.0454961 36.86824436-53.62653824 36.86824593-19.2720379-9.63601818c-70.80379001-34.77345822-154.5952563 24.7184822-146.21610858 104.32037622 9.21706188 87.56208233 116.05118208 123.59241411 177.63790863 59.07298413 18.85308003-19.69099419 27.23222619-42.73364807 27.23222777-73.317534l-0.41895785-25.9753542 55.30236811-37.28720379 55.30236812-36.86824436 18.85308003 9.63601816c51.95070996 26.81326991 120.65971222-2.93270186 140.35070642-61.16777027 8.37914617-25.13744005 7.96018988-41.89573393-2.513744-69.12796012-20.10995203-54.88341025-82.95355218-80.02085029-138.25592029-56.55924013l-20.94786618 9.21706031-54.04549609-36.86824437-53.62653827-36.86824593v-25.55639789c0-34.35450193-10.05497602-57.39715425-34.35450192-79.18293618-29.74597021-26.81326991-66.19525826-34.77345822-101.80663219-22.20473817z"></path>
</svg>
