<svg viewBox="0 0 1024 1024" xmlns="http://www.w3.org/2000/svg" fill="currentColor" height="1em" width="1em">
    <path d="M298.40118557 124.99778333c-53.20552334 29.90383445-87.18715221 57.08913778-122.52804779 98.06127445-53.39970333 61.94365667-91.07076779 146.21809778-105.44014223 236.70632334-10.48576 66.02145223-7.76723001 114.37245667 9.70903666 172.43249778 44.66156999 147.57736334 197.28763221 260.00801223 376.51645668 277.67845888 50.48699221 5.04869888 86.41043001 4.27197667 133.98471111-2.91271111 104.27505778-15.92282112 200.58870557-64.46800555 267.96942222-134.95561444 29.12711111-30.48637667 46.02083555-54.75896889 64.27382557-92.04167111 31.26309888-64.27382557 41.16631666-131.65454222 30.68055666-206.80248889-8.15559111-56.70077667-22.52496555-105.82850333-45.43829334-154.37368889-38.44778667-81.36172999-103.88669667-150.68425443-180.97644999-192.04475335-9.51485667-4.8545189-20.00061667-10.67994112-23.30168889-12.81592889-3.49525333-2.13598777-6.99050667-3.88361443-7.76723001-3.88361443-3.88361443 0-35.53507555 39.22451001-41.36049777 51.45789667-10.29157888 21.3598811-18.05880889 49.12772779-21.35988111 77.08975332-0.58254222 6.21378333-2.13598777 11.26248334-3.30107335 11.26248334-0.97090333 0-8.54395221-1.74762667-16.69954332-3.88361443-34.17580999-8.73813333-51.84625778-10.48576-101.36234667-10.48576-49.71027001-0.19418112-61.55529443 0.97090333-98.64381667 9.70903665-11.06830222 2.52435001-20.77733888 4.66033778-21.74824221 4.66033778-0.77672334 0-2.13598777-4.66033778-2.91271111-10.29157888-3.88361443-31.8456411-13.39847111-65.05054777-24.07841223-83.69190002-6.01960334-10.29157888-35.92343666-45.82665443-38.64196779-45.82665443-0.77672334 0.19418112-13.20428999 6.79632555-27.57366442 14.95191666z m-14.17519446 169.9081489c-0.58254222 15.3402789-3.49525333 50.29281223-6.21378332 77.86647666-2.91271111 27.57366557-4.66033778 50.68117333-4.07779556 51.26371556 0.58254222 0.58254222 20.38897778-9.51485667 44.27320889-22.33078557 90.48822557-49.12772779 117.47934777-58.0600411 182.14153443-60.00184889 63.3029211-1.94180779 110.4888411 9.51485667 168.93724445 41.1663178 12.23338667 6.60214557 34.75835221 18.83553223 50.09863111 27.18530332 15.3402789 8.15559111 28.15620779 14.56355555 28.73875001 13.98101334 0.58254222-0.58254222-1.35926557-23.88423111-4.07779555-52.0404389-2.91271111-28.15620779-5.6312411-63.3029211-6.21378447-78.06065778-1.35926557-32.62236445-0.77672334-33.01072555 18.25299001-11.65084444 7.18468779 8.34977223 13.78683221 15.53445888 14.36937444 16.11700224 4.07779555 3.10689223 32.62236445 47.96264334 39.41869112 61.94365553 34.36999111 70.29342777 48.93354667 157.48058112 36.31179776 217.09406891-5.24288 25.24349667-11.84502557 44.07902777-22.71914666 64.07964444-34.36999111 63.69128334-99.2263589 115.34336-179.0346422 142.52866333-151.07261667 51.84625778-324.6701989 10.0973989-417.10023112-100.19726223-55.34151111-66.02145223-69.32252445-145.05301333-43.30230556-246.60954112 11.06830222-43.30230557 28.93292999-83.30353778 52.62298112-118.06188998 14.75773667-21.16570112 41.5546789-51.84625778 45.63247332-51.84625778 2.71852999 0 2.91271111 3.10689223 1.94180778 27.57366556z"
         ></path>
</svg>
