<svg viewBox="0 0 1024 1024" xmlns="http://www.w3.org/2000/svg" fill="currentColor" height="1em" width="1em">
    <path d="M435.2 35.84C252.15999969 71.67999969 107.52000031 198.39999969 52.47999969 371.19999969 37.11999969 419.19999969 35.19999969 435.84000031 35.19999969 512s1.92 92.80000031 17.28 140.80000031c48.64000031 151.03999969 167.68000031 270.07999969 318.72 318.72 48 15.36 64.63999969 17.28 140.80000031 17.28s92.80000031-1.92 140.80000031-17.28c151.03999969-48.64000031 270.07999969-167.68000031 318.72-318.72 15.36-48 17.28-64.63999969 17.28-140.80000031s-1.92-92.80000031-17.28-140.80000031c-48-149.76-167.68000031-270.07999969-315.52000031-317.43999938-40.32-12.79999969-67.84000031-16.63999969-127.99999969-18.56000062C485.76000031 33.92 444.15999969 34.56000031 435.2 35.84z m160.63999969 232.32c17.92000031 18.55999969 18.55999969 20.47999969 18.56000062 82.56 0 58.24000031-1.27999969 64.63999969-16.00000031 80.64-10.87999969 12.16000031-21.76000031 16.63999969-38.4 16.63999969-20.47999969 0-22.39999969 1.27999969-22.39999969 19.2v19.2h249.6v51.20000062h-96v19.2c0 17.28 1.92 19.2 19.2 19.2 11.52 0 26.88 7.03999969 39.03999938 17.91999938 17.28 15.36 20.47999969 23.04 23.04 60.16000031 4.48000031 55.03999969-1.92 85.75999969-20.47999969 104.95999969-14.08000031 14.08000031-20.47999969 15.36-83.20000031 15.36-63.36 0-68.47999969-1.27999969-83.19999938-15.99999938-14.71999969-14.08000031-16.00000031-19.84000031-16.00000031-80.00000062 0-63.36 0.64000031-65.28 18.55999969-83.83999969 12.79999969-12.16000031 25.60000031-18.55999969 38.4-18.55999969 17.92000031 0 19.84000031-1.92 19.84000031-19.2v-19.2H377.6v19.2c0 17.28 1.92 19.2 19.84000031 19.2 46.72000031 0 63.36 27.52000031 63.36 104.95999969 0 48.64000031-1.27999969 55.68-16.64000062 73.60000031l-16.63999969 19.83999938H289.28l-16.63999969-19.83999938c-15.36-17.92000031-16.63999969-24.31999969-16.64000062-80.64 0-58.24000031 0.64000031-61.44 18.56000062-79.36000031 12.79999969-12.16000031 25.60000031-18.55999969 38.4-18.55999969 17.92000031 0 19.84000031-1.92 19.83999938-19.2v-19.2H236.16000031l1.92-24.32000062 1.92-23.67999938 126.72-1.92L492.8 486.39999969v-19.2c0-17.28-1.92-18.55999969-26.88-20.47999969-42.24-3.19999969-53.11999969-23.04-53.11999969-99.19999969 0-60.16000031 0-60.79999969 21.12-79.36000031 19.84000031-17.92000031 23.04-18.55999969 81.91999969-18.55999969 58.87999969 0 62.08000031 0.64000031 79.99999969 18.55999969z"
         ></path>
    <path d="M462.08 302.07999969c-4.48000031 4.48000031-7.68 24.96-7.68 47.36000062 0 52.48000031 7.68 60.16000031 60.79999969 60.15999938 48.64000031 0 60.79999969-11.52 60.80000062-57.6 0-16.00000031-4.48000031-35.83999969-10.24000031-43.51999969-8.32000031-12.16000031-15.36-14.08000031-53.11999969-14.08000031-24.96 0-46.08 3.19999969-50.56000031 7.68zM308.48 628.47999969c-11.52 11.52-9.6 85.12000031 2.56000031 97.28000062 14.71999969 15.36 80.64 14.08000031 94.08-1.28000062 12.79999969-14.08000031 15.36-83.83999969 3.19999969-96-4.48000031-4.48000031-25.60000031-7.68-49.92-7.68s-45.43999969 3.19999969-49.92 7.68zM614.40000031 632.96c-9.6 19.2-7.68 72.31999969 3.84 88.96000031 8.32000031 12.16000031 15.36 14.08000031 49.92 14.07999938 51.19999969 0 61.44-9.6 61.44-56.95999969 0-53.11999969-5.11999969-58.24000031-60.80000062-58.24000031-40.32 0-48.64000031 1.92-54.39999938 12.16000031z"
         ></path>
</svg>
