<svg viewBox="0 0 1024 1024" xmlns="http://www.w3.org/2000/svg" fill="currentColor" height="1em" width="1em">
    <path d="M752 699.32c0 28.8-25.92 52.68-61.32 52.68-25.32 0-54.18-10.38-72.24-33.06l-240.6-291.48v271.8c0 29.46-22.8 52.68-51.06 52.68h-3A52.56 52.56 0 0 1 272 699.32V324.68C272 295.88 297.26 272 332.12 272c25.92 0 55.38 10.44 73.44 33.06l239.4 291.48V324.68c0-29.4 24-52.68 51.72-52.68h3c28.86 0 51.72 24.48 51.72 52.68l0.6 374.64zM512 32L92 272v480l420 240 420-240V272L512 32z"
         ></path>
</svg>
