<svg fill="currentColor" width="1em" height="1em" viewBox="0 0 206 141" xmlns="http://www.w3.org/2000/svg">
    <path d="M103.445 0S95.58 6.216 87.562 12.389c-8.249-.262-24.426 1.585-33.192 4.773C46.295 12.046 39.2 6.398 39.2 6.398s-6.064 10.43-9.877 16.552c-5.655 3.007-11.332 6.39-16.392 10.866A901.116 901.116 0 0 1 0 28.536c7.794 15.72 13.034 31.462 27.287 40.923c22.691-35.838 128.137-32.535 151.298-.203c14.968-7.807 20.79-24.604 26.676-40.112c-.646.213-8.655 2.894-13.847 4.875c-3.1-3.375-10.407-8.564-14.56-11.07c-3.939-7.213-9.672-16.958-9.672-16.958s-6.79 5.05-14.662 10.561c-10.633-1.962-23.495-4.347-34.312-3.757C110.845 6.742 103.445 0 103.445 0"/>
    <path d="M8.059 61.944s11.047 26.748 18.719 45.335c32.51 42.89 115.528 45.872 151.72.83c8.564-19.3 20.118-46.425 20.118-46.425c-9.285 13.755-24.396 23.25-33.702 28.365c-6.613 3.622-21.872 5.812-21.872 5.812l-40.06-20.759l-40.289 20.344s-15.056-2.419-21.871-5.605c-13.757-7.343-23.009-16.02-32.763-27.897"/>
</svg>
