
<svg version="1.0" xmlns="http://www.w3.org/2000/svg"
 width="1.12em" height="1.12em" fill="currentColor" viewBox="0 0 720.000000 386.000000"
 preserveAspectRatio="xMidYMid meet">

<g transform="translate(0,386) scale(0.11,-0.11)">
<path d="M3253 3790 c-731 -52 -1254 -287 -2350 -1053 -268 -188 -345 -245
-443 -331 -169 -149 -259 -288 -285 -439 -8 -48 11 -144 39 -193 27 -48 98
-97 174 -119 47 -14 269 -59 397 -81 89 -15 325 -78 425 -113 267 -92 561
-233 936 -449 117 -66 251 -140 298 -164 47 -23 86 -45 86 -49 0 -3 -10 -11
-23 -16 -17 -8 -29 -7 -48 3 -15 8 -58 13 -115 14 l-91 0 -43 -93 -43 -92 -43
92 -43 92 -212 0 c-224 0 -256 -5 -279 -49 -15 -28 -23 -25 -45 16 l-19 36
-104 -4 c-103 -3 -104 -3 -133 -36 -43 -48 -41 -102 6 -149 l35 -35 0 -120 c0
-114 -1 -122 -25 -150 -18 -21 -25 -41 -25 -72 0 -82 53 -116 180 -116 88 0
134 15 163 51 l23 30 22 -40 23 -40 182 0 c201 0 246 7 275 44 l20 25 16 -25
c25 -38 75 -45 284 -43 180 3 192 4 221 26 l31 23 31 -23 c30 -22 38 -23 281
-26 283 -2 319 3 349 51 23 37 21 98 -6 127 -15 17 -14 19 21 30 20 7 54 28
76 48 57 51 81 104 82 179 l1 61 105 6 c206 11 425 27 454 33 28 6 28 5 13
-18 -30 -45 -50 -147 -42 -215 28 -263 302 -399 500 -248 26 19 48 34 49 32 1
-2 7 -14 14 -28 22 -44 50 -54 157 -58 132 -5 173 8 201 65 l22 43 28 -55 29
-55 60 0 c76 0 130 15 148 41 14 19 15 19 83 -13 64 -30 77 -33 169 -32 104 0
165 16 243 64 31 19 32 23 32 82 1 40 6 70 15 82 8 11 15 40 15 64 0 38 -5 50
-33 76 -33 31 -33 33 -18 56 12 17 16 48 16 110 0 93 -16 133 -58 149 -12 5
-87 8 -167 7 -137 -1 -148 -2 -202 -29 -58 -29 -118 -87 -140 -139 -16 -36
-24 -35 -31 2 -9 41 -73 109 -127 134 -38 17 -70 21 -206 24 -179 4 -214 -4
-236 -56 -7 -15 -13 -29 -15 -31 -1 -2 -18 10 -38 28 -31 27 -34 32 -18 38 75
27 256 120 443 227 309 177 608 331 779 401 121 49 287 105 314 105 9 0 25 4
35 9 23 13 108 32 327 75 291 58 357 80 459 154 63 46 90 103 89 189 -1 121
-107 285 -287 445 -90 80 -357 283 -591 449 -755 538 -1417 842 -2055 945
-120 19 -644 28 -837 14z m737 -15 c69 -8 163 -21 210 -30 226 -42 663 -180
685 -216 13 -20 -2 -19 -66 7 -234 97 -516 172 -809 216 -121 18 -663 14 -862
-7 -267 -28 -545 -93 -763 -179 -103 -41 -95 -39 -95 -25 0 14 83 49 233 98
232 75 471 122 724 140 203 14 606 12 743 -4z m-120 -25 c256 -19 523 -75 777
-164 190 -65 241 -87 247 -102 8 -20 -4 -18 -91 17 -323 130 -665 211 -963
228 -158 9 -582 -2 -735 -19 -230 -26 -515 -96 -717 -178 -65 -26 -98 -35 -98
-27 0 16 205 92 375 139 235 64 447 95 740 105 306 12 321 12 465 1z m104 -45
c222 -26 412 -70 649 -151 158 -54 277 -104 277 -115 0 -12 5 -14 -105 31
-282 115 -592 192 -885 221 -151 14 -578 6 -782 -16 -253 -27 -502 -88 -732
-180 -61 -25 -112 -42 -115 -39 -11 11 30 34 129 72 265 101 531 160 821 181
202 14 603 12 743 -4z m86 -45 c220 -32 442 -92 679 -182 151 -57 161 -63 161
-99 0 -108 -68 -291 -134 -364 l-37 -39 33 -18 c18 -9 38 -17 43 -17 6 0 -5 8
-24 18 -19 10 -30 20 -24 22 6 2 28 32 50 66 48 73 92 202 101 295 l7 66 85
-41 85 -42 -2 -65 c-5 -112 -55 -239 -123 -312 -11 -12 -20 -26 -20 -31 0 -5
-7 -6 -16 -3 -8 3 -12 2 -9 -4 3 -6 1 -10 -6 -10 -10 0 -10 -3 -1 -12 10 -10
15 -10 21 1 5 8 14 10 21 6 8 -5 11 -4 7 2 -4 6 15 44 42 84 58 87 88 171 97
268 l7 70 89 -45 c49 -25 92 -52 95 -60 10 -26 -15 -172 -41 -235 -31 -76 -67
-130 -84 -124 -7 3 -10 1 -7 -4 3 -5 -6 -22 -19 -36 -21 -23 -28 -25 -48 -15
-22 11 -22 10 -4 -4 25 -20 31 -20 50 0 9 8 20 12 26 9 6 -4 9 -3 8 2 -1 4 17
37 40 72 49 75 79 165 89 263 7 79 0 78 105 17 l71 -41 -6 -57 c-4 -31 -16
-83 -27 -116 -25 -75 -92 -191 -108 -187 -7 1 -11 -1 -11 -5 3 -21 -2 -33 -13
-27 -7 5 -8 3 -3 -6 5 -8 2 -18 -9 -26 -18 -13 -19 -12 34 -42 25 -14 25 -14
3 3 -23 18 -33 42 -11 29 7 -4 8 -3 4 5 -4 6 1 23 12 39 75 105 130 232 140
325 l7 57 93 -56 c50 -31 92 -61 92 -66 0 -42 -38 -176 -66 -233 -37 -76 -86
-139 -99 -127 -5 4 -4 1 0 -7 6 -11 4 -13 -7 -8 -10 3 -15 0 -14 -11 1 -12 -6
-17 -23 -16 -23 1 -23 0 -5 -13 10 -8 28 -19 39 -24 19 -9 19 -9 2 4 -15 13
-15 16 -2 27 12 10 22 8 52 -10 36 -21 36 -21 13 -1 -14 11 -28 21 -32 21 -5
0 -8 5 -8 11 0 5 5 7 12 3 6 -4 8 -3 5 3 -4 5 5 25 19 44 56 74 106 198 120
291 l6 47 84 -56 c46 -31 84 -59 84 -63 0 -4 -9 -41 -19 -82 -24 -93 -60 -166
-108 -219 -30 -33 -38 -37 -52 -27 -14 11 -14 11 -4 -3 13 -16 0 -33 -42 -56
-11 -7 -14 -13 -7 -17 6 -4 42 23 80 61 76 75 121 156 146 262 8 35 17 65 20
68 8 9 171 -113 174 -130 2 -10 -10 -47 -27 -83 -36 -77 -160 -210 -187 -200
-10 4 -13 2 -8 -6 5 -7 2 -9 -9 -5 -12 4 -14 2 -10 -10 5 -14 -1 -12 -28 6
l-34 23 30 -27 c26 -24 27 -26 8 -22 -17 4 -20 1 -15 -11 4 -12 -3 -10 -26 7
-18 12 -32 20 -32 17 0 -3 21 -20 48 -37 27 -19 41 -25 32 -14 -14 17 -13 18
2 12 12 -4 15 -2 11 9 -6 17 8 18 27 1 11 -9 11 -8 0 7 -14 18 -13 19 3 13 12
-5 16 -3 11 5 -5 7 -2 9 9 5 10 -4 14 -2 11 7 -2 6 14 27 37 45 54 44 125 141
146 202 11 30 23 47 30 45 6 -3 43 -28 82 -56 l70 -51 -14 -38 c-26 -74 -57
-124 -113 -180 -94 -92 -117 -107 -140 -89 -15 12 -16 11 -3 -4 19 -25 -3 -24
-42 3 l-32 21 28 -24 c28 -24 39 -51 12 -28 -8 7 -15 10 -15 7 0 -3 15 -16 33
-28 21 -16 27 -17 18 -6 -18 23 -6 21 32 -4 l32 -21 -28 24 c-27 24 -27 49 0
26 10 -8 12 -8 8 3 -3 9 16 30 50 57 67 53 129 133 159 204 11 29 25 55 29 57
5 2 38 -18 74 -43 36 -26 67 -45 70 -43 2 3 -30 29 -71 58 -42 29 -76 59 -76
67 0 19 16 12 94 -44 l67 -48 -7 -41 c-3 -22 -18 -64 -32 -94 -29 -63 -158
-205 -179 -197 -8 3 -12 2 -9 -3 3 -5 -1 -14 -9 -21 -11 -9 -21 -7 -47 10
l-33 22 28 -24 c27 -24 27 -49 0 -26 -11 9 -12 7 -7 -7 6 -14 4 -16 -6 -10 -9
6 -11 4 -6 -4 5 -7 15 -10 23 -6 9 3 25 -3 37 -12 21 -18 21 -18 4 2 -14 17
-14 22 -2 33 8 7 20 10 27 6 6 -4 9 -4 5 0 -3 4 22 34 56 67 76 71 110 118
141 194 l23 57 83 -68 c46 -37 85 -68 87 -69 9 -8 -45 -92 -83 -130 -56 -57
-150 -119 -169 -112 -10 4 -13 1 -9 -9 6 -17 -8 -18 -27 -1 -12 10 -12 9 -1
-5 17 -22 3 -23 -29 -2 l-25 16 23 -20 c15 -14 18 -22 10 -25 -7 -2 -10 -8 -6
-12 4 -4 14 -3 21 3 8 7 17 9 20 5 4 -3 7 -2 7 4 0 18 31 24 49 11 14 -11 14
-11 3 4 -12 15 -8 20 29 44 62 39 147 122 176 171 l25 43 42 -37 c24 -21 57
-54 75 -75 l31 -36 -42 -37 c-51 -44 -219 -128 -258 -129 -15 -1 -25 -5 -22
-10 3 -5 -1 -7 -9 -4 -9 4 -15 -1 -16 -12 -1 -13 6 -17 27 -16 15 1 25 5 22
10 -3 5 2 6 12 3 10 -4 15 -3 11 3 -8 13 1 13 28 -1 21 -9 21 -9 4 5 -17 13
-12 18 74 60 51 26 111 62 135 81 23 19 44 35 47 35 7 0 74 -104 81 -127 6
-18 1 -25 -22 -37 -47 -24 -181 -55 -260 -60 -41 -2 -76 -7 -79 -10 -4 -3 4
-18 18 -32 20 -21 21 -27 9 -34 -13 -8 -12 -10 3 -10 10 0 16 -4 13 -9 -3 -5
2 -8 12 -7 9 0 16 -5 14 -12 -1 -8 2 -11 8 -7 5 3 19 0 31 -8 20 -14 20 -16 2
-27 -17 -11 -17 -11 1 -6 18 6 56 -18 56 -35 0 -8 -92 -39 -117 -39 -17 0 -17
47 0 53 8 4 6 6 -4 6 -9 1 -16 7 -17 14 -3 35 -8 53 -17 63 -15 18 -26 5 -15
-17 8 -14 7 -19 -2 -19 -10 0 -10 -2 1 -9 11 -7 10 -10 -5 -14 -17 -4 -17 -5
2 -6 16 -1 21 -9 22 -40 3 -43 1 -44 -70 -57 -38 -6 -38 -6 -39 27 0 19 -2 41
-4 50 -4 23 -35 69 -46 69 -14 0 -11 -9 13 -42 13 -19 22 -47 22 -72 l1 -41
-50 -11 c-96 -23 -100 -21 -102 40 -3 52 -34 126 -53 126 -5 0 2 -19 15 -42
17 -30 25 -58 25 -94 l0 -52 -71 -16 c-39 -9 -77 -16 -83 -16 -7 0 -10 20 -8
59 5 74 -25 131 -68 131 -12 -1 -12 -3 2 -14 10 -7 15 -16 11 -19 -3 -4 1 -7
9 -7 24 0 42 -54 34 -107 -3 -26 -8 -48 -10 -50 -2 -2 -33 -12 -69 -22 -75
-22 -69 -25 -82 56 -4 23 -16 52 -27 65 -11 13 -26 31 -33 42 -7 10 -19 16
-26 14 -8 -3 -3 -13 14 -30 38 -38 67 -98 67 -138 0 -36 -1 -36 -68 -58 -83
-27 -82 -27 -82 -3 0 10 -13 43 -28 74 -18 36 -25 58 -18 61 6 3 2 4 -9 3 -12
-1 -19 3 -17 11 1 8 -2 11 -7 7 -6 -3 -19 0 -29 6 -14 9 -23 9 -38 0 -18 -11
-17 -12 4 -6 13 4 22 2 22 -4 0 -6 5 -11 12 -11 34 0 108 -124 96 -162 -3 -9
-139 -72 -143 -66 -1 2 -13 23 -27 48 -15 25 -38 57 -52 72 -15 14 -23 28 -19
30 4 3 3 3 -4 2 -16 -4 -65 21 -57 29 3 3 -4 3 -17 0 -13 -4 -18 -8 -11 -11 7
-2 10 -8 7 -13 -4 -5 1 -6 9 -3 22 8 42 -6 25 -17 -10 -6 -6 -8 11 -7 16 2 24
-2 22 -10 -1 -8 1 -11 6 -8 16 10 92 -89 92 -119 0 -5 -144 -75 -155 -75 -3 0
-5 6 -5 13 0 6 -13 32 -30 57 l-30 45 23 12 c12 7 18 12 12 12 -5 1 -17 -4
-25 -9 -17 -10 -53 16 -44 32 3 5 -2 8 -12 6 -12 -2 -18 2 -16 11 2 8 -3 11
-11 8 -8 -3 -19 -1 -25 5 -7 7 -16 7 -28 0 -15 -8 -13 -11 14 -17 54 -11 162
-129 162 -175 0 -23 -150 -96 -161 -78 -5 7 -9 17 -9 22 0 4 -14 29 -31 54
-24 35 -28 47 -17 54 9 7 8 8 -5 4 -20 -6 -52 18 -43 33 3 5 -2 8 -12 7 -9 0
-16 5 -14 12 1 8 -2 11 -7 7 -6 -3 -19 0 -30 7 -16 10 -23 10 -33 0 -9 -9 -8
-12 7 -12 17 0 18 -2 5 -10 -11 -8 -8 -9 13 -4 27 6 39 -9 15 -20 -7 -3 0 -2
16 1 24 5 28 3 23 -10 -4 -11 -2 -14 9 -10 23 9 16 -13 -8 -26 -21 -11 -6 -8
26 5 16 6 74 -79 78 -115 3 -20 -8 -30 -67 -62 -38 -21 -73 -39 -76 -39 -3 0
-11 17 -17 39 -7 21 -23 55 -37 75 -14 21 -23 42 -19 47 3 5 0 8 -8 7 -7 -2
-12 3 -10 10 1 8 -2 11 -7 8 -5 -4 -16 1 -24 9 -9 8 -20 15 -26 15 -6 0 -11 5
-11 12 0 6 -3 8 -7 5 -3 -4 -11 -3 -17 2 -6 5 -20 5 -31 1 -17 -6 -14 -9 18
-15 20 -4 37 -11 37 -16 0 -5 7 -9 15 -9 16 0 21 -15 8 -23 -5 -2 -2 -2 6 0 7
2 25 -9 39 -24 27 -29 72 -118 72 -143 0 -12 -94 -72 -152 -98 -4 -2 -10 9
-14 25 -11 44 -33 85 -66 119 -28 30 -29 33 -11 43 15 9 13 10 -12 5 -34 -7
-58 -24 -34 -24 35 0 105 -98 111 -155 3 -28 -2 -32 -142 -102 -321 -161 -623
-223 -1090 -223 -136 0 -196 4 -225 15 -28 10 -86 14 -191 15 -176 0 -267 15
-434 69 -100 33 -319 134 -408 188 l-30 18 15 45 c20 60 81 143 100 136 8 -3
11 -1 8 4 -3 6 -1 10 4 10 6 0 11 5 11 10 0 21 -23 8 -60 -32 -34 -38 -67 -97
-84 -151 -5 -16 -11 -14 -63 14 -84 47 -87 50 -74 91 6 19 24 54 39 77 24 38
30 42 57 37 l30 -6 -25 16 -25 15 30 -6 c29 -6 29 -6 10 9 -23 18 -45 21 -45
5 0 -6 -9 -8 -22 -4 -20 5 -21 5 -5 -5 17 -11 16 -13 -7 -40 -13 -16 -32 -51
-42 -77 -10 -26 -19 -49 -20 -51 -6 -9 -164 85 -164 98 0 9 15 40 33 70 27 45
38 55 57 53 14 -1 19 1 13 3 -19 8 -15 24 4 17 11 -4 14 -3 9 5 -4 7 -1 12 9
12 10 0 13 5 9 11 -5 9 2 10 22 6 16 -3 23 -4 16 -1 -10 5 -10 9 0 22 11 14
10 15 -7 7 -11 -4 -28 -8 -37 -9 -9 0 -15 -2 -13 -5 7 -7 -47 -49 -59 -47 -6
2 -8 1 -5 -1 4 -2 -8 -29 -27 -60 -19 -31 -34 -63 -34 -70 0 -7 -2 -13 -5 -13
-5 0 -146 69 -153 75 -5 4 27 71 47 97 14 17 28 25 39 22 13 -5 14 -4 4 4 -11
7 -7 14 17 31 17 12 36 19 42 15 8 -4 9 -3 5 4 -5 8 1 12 16 12 21 1 21 2 5
11 -13 8 -22 7 -32 -1 -8 -6 -24 -9 -37 -5 -18 5 -20 4 -8 -4 14 -10 7 -16
-15 -11 -5 1 -7 -1 -3 -5 12 -12 -19 -35 -39 -29 -12 4 -14 3 -5 -3 9 -7 5
-23 -20 -69 -17 -32 -32 -60 -32 -61 -1 -1 -34 13 -74 32 -68 33 -71 36 -62
60 19 49 41 85 52 85 6 0 9 3 5 6 -11 11 21 34 40 28 15 -5 15 -4 3 5 -13 9
-13 11 3 11 9 0 17 5 17 10 0 6 8 10 17 10 9 0 13 3 9 7 -10 11 -36 12 -36 2
0 -5 -6 -9 -13 -9 -7 0 -19 -9 -27 -20 -9 -13 -22 -18 -35 -15 -11 3 -14 2 -7
-1 6 -3 12 -10 12 -15 0 -6 -9 -5 -21 1 -11 7 -23 9 -26 7 -2 -3 5 -8 17 -12
12 -4 20 -10 18 -13 -2 -4 -14 -28 -26 -54 -12 -27 -25 -48 -29 -48 -4 0 -41
14 -81 32 -71 31 -73 33 -66 62 11 55 48 111 69 108 16 -2 17 -1 6 7 -11 7
-10 10 5 13 17 5 18 6 2 12 -11 5 -23 2 -32 -6 -20 -20 -52 -87 -61 -126 -4
-18 -12 -32 -18 -30 -7 2 -38 12 -71 23 l-58 19 5 51 c7 66 25 105 46 98 12
-4 13 -3 2 5 -17 12 1 23 19 11 8 -5 22 -8 30 -8 8 0 3 5 -12 10 -17 7 -25 15
-21 25 7 18 -4 18 -23 -1 -26 -26 -54 -99 -54 -142 0 -24 -1 -43 -2 -43 -2 0
-37 11 -78 23 l-75 24 -3 51 c-2 36 3 62 17 91 23 44 26 61 12 61 -17 0 -41
-81 -41 -141 0 -53 -2 -60 -17 -55 -10 3 -40 10 -68 17 -27 7 -58 16 -67 21
-24 12 -22 51 6 121 13 31 20 57 15 57 -17 0 -41 -64 -46 -120 l-5 -57 -74 16
-74 15 0 36 c0 20 9 52 19 73 10 20 15 37 10 37 -13 0 -36 -50 -44 -98 l-7
-43 -41 6 c-23 4 -45 9 -49 12 -14 8 -9 83 7 113 16 31 13 34 -20 20 -11 -5
-14 -9 -8 -9 9 -1 10 -8 3 -25 -5 -13 -7 -40 -5 -61 4 -41 9 -41 -103 -9 -52
15 -52 15 -36 39 22 34 61 57 87 51 12 -3 16 -3 10 0 -21 9 -15 27 7 21 13 -3
18 -1 13 6 -4 6 2 8 16 4 22 -5 22 -5 5 15 -13 14 -28 19 -51 16 -39 -5 -40
-2 -11 29 28 30 47 30 22 1 l-19 -23 26 23 c33 28 60 30 34 2 -10 -11 -16 -20
-13 -20 2 0 15 12 29 27 13 14 18 23 12 19 -7 -4 -13 -2 -13 3 0 6 -3 10 -7
10 -26 -4 -43 2 -37 14 6 10 4 10 -7 0 -16 -16 -43 -17 -33 -2 5 8 2 9 -11 2
-17 -10 -138 5 -210 25 -37 11 -36 32 5 117 16 33 27 61 25 63 -7 8 -45 -63
-62 -115 -18 -58 -20 -60 -48 -39 -18 13 -18 15 -2 57 9 23 31 66 48 95 l32
51 57 -57 c41 -41 83 -70 156 -105 54 -27 101 -52 102 -57 2 -4 8 -5 13 -2 6
3 15 2 22 -4 19 -14 47 -22 47 -13 0 4 -19 16 -42 26 -167 68 -298 148 -298
180 0 13 146 175 159 175 3 0 21 -29 40 -65 18 -36 54 -87 80 -113 49 -51 131
-123 131 -116 0 2 9 -4 19 -13 11 -9 18 -20 15 -24 -2 -4 6 -5 18 -1 12 3 17
7 10 10 -7 2 -9 9 -6 14 4 7 2 8 -4 4 -7 -4 -12 -3 -12 3 0 5 -9 13 -21 16
-17 6 -18 9 -7 23 12 15 11 16 -4 3 -16 -12 -24 -8 -67 28 -85 72 -150 159
-166 223 -6 23 0 32 58 78 36 29 68 53 72 54 4 0 15 -22 25 -51 10 -28 35 -77
55 -107 37 -55 128 -146 147 -146 6 0 8 -7 5 -14 -4 -11 -1 -13 11 -9 14 5 14
3 -3 -18 l-20 -24 23 19 c18 16 26 17 48 8 16 -8 22 -17 18 -25 -5 -7 0 -6 11
3 17 14 17 15 -8 24 -15 6 -27 14 -27 19 0 4 -5 5 -12 1 -8 -5 -9 -2 -5 10 4
10 3 15 -3 11 -32 -20 -162 109 -209 207 -50 106 -52 99 38 162 43 31 81 56
84 56 2 0 12 -21 22 -47 26 -69 100 -178 151 -220 36 -31 41 -39 31 -52 -11
-14 -10 -14 5 -3 15 12 20 12 32 -1 14 -13 11 -18 -24 -41 -22 -14 -40 -29
-40 -32 0 -3 20 9 44 26 51 34 61 37 52 14 -5 -14 -4 -15 9 -4 9 7 19 10 22 6
4 -4 -6 -18 -22 -32 -17 -14 -2 -7 32 16 35 22 63 43 63 46 0 3 -10 -2 -22
-10 -12 -9 -29 -16 -36 -16 -12 0 -12 3 -1 18 11 14 11 15 -1 5 -20 -18 -33
-16 -25 5 5 13 3 14 -6 5 -9 -9 -16 -9 -30 0 -18 11 -17 13 9 35 l27 24 -33
-22 -34 -23 -67 69 c-43 44 -79 93 -99 134 -53 111 -54 108 33 168 65 45 76
50 81 35 30 -90 70 -151 147 -229 l84 -83 -39 -26 c-21 -14 -38 -28 -38 -31 0
-3 20 9 45 26 39 27 47 29 59 17 11 -11 12 -17 3 -27 -8 -8 -5 -8 11 1 19 12
24 12 31 0 5 -7 11 -9 14 -4 3 5 -3 16 -13 23 -16 11 -17 17 -7 29 10 12 9 12
-9 1 -19 -12 -27 -9 -83 34 -86 66 -151 155 -186 256 l-13 38 88 61 88 61 7
-41 c10 -60 87 -206 140 -267 l47 -52 -24 -21 -23 -21 25 16 c32 21 46 20 29
-1 -11 -15 -11 -16 1 -5 19 16 33 15 27 -2 -4 -11 -1 -13 10 -9 12 5 15 2 10
-10 -6 -16 -5 -16 18 -1 29 19 32 26 8 17 -12 -5 -15 -2 -11 8 4 11 0 15 -16
15 -14 -1 -21 5 -20 16 1 10 -3 15 -8 12 -12 -8 -59 37 -105 99 -39 53 -87
161 -97 219 l-7 37 91 61 c118 79 120 80 120 39 0 -54 39 -183 81 -266 32 -63
36 -79 26 -92 -10 -14 -10 -14 4 -3 13 10 19 9 29 -3 11 -13 10 -18 -6 -31
-18 -14 -18 -14 4 -4 20 10 26 8 41 -8 17 -20 17 -20 41 0 24 19 24 19 2 8
-20 -10 -26 -8 -43 11 -15 18 -17 25 -6 38 10 14 10 14 -5 3 -14 -11 -19 -9
-37 17 -55 76 -121 267 -121 346 0 28 8 36 77 81 98 63 93 61 93 21 0 -56 37
-185 77 -266 21 -42 37 -81 37 -88 -1 -6 4 -9 11 -6 7 2 16 -4 19 -15 6 -19
45 -70 47 -61 5 26 4 47 -3 43 -12 -8 -54 44 -92 116 -44 84 -76 191 -79 265
l-2 58 80 49 c44 26 83 48 88 48 4 0 7 -17 7 -39 0 -54 15 -127 39 -192 22
-58 98 -192 113 -197 4 -2 6 -8 2 -13 -3 -5 0 -8 8 -7 7 2 12 -3 10 -11 -3
-13 80 29 103 52 6 6 -11 -2 -36 -16 -46 -26 -74 -26 -41 0 15 12 14 13 -7 2
-21 -10 -23 -9 -18 5 4 11 3 15 -4 10 -17 -10 -30 18 -16 36 10 13 10 13 -5 2
-15 -12 -20 -8 -44 30 -15 24 -38 69 -51 102 -25 61 -51 212 -40 239 4 12 162
107 178 107 2 0 5 -30 7 -68 4 -96 25 -175 76 -274 l44 -87 -21 -16 c-21 -16
-21 -16 5 -1 24 14 27 14 39 0 11 -13 9 -19 -11 -36 l-25 -20 30 17 c28 15 45
58 20 48 -6 -2 -16 7 -23 21 -9 21 -8 27 11 40 l22 17 -22 -11 c-35 -16 -38
-13 -71 58 -42 91 -62 173 -62 254 l0 68 79 39 79 40 6 -70 c10 -93 30 -170
67 -249 17 -36 31 -67 31 -70 1 -3 14 -18 30 -35 15 -16 28 -33 28 -36 0 -3
-32 -21 -71 -39 -39 -19 -73 -38 -76 -43 -2 -4 52 20 121 55 69 34 123 64 121
66 -2 2 -17 -4 -34 -12 -35 -19 -55 -21 -45 -4 4 7 3 8 -4 4 -6 -4 -19 6 -29
21 -10 15 -20 30 -23 33 -16 15 -40 63 -63 127 -26 70 -53 235 -42 252 8 14
162 76 296 119 252 82 481 119 804 132 275 11 514 4 675 -20z m-1780 -123 c0
-7 -33 -28 -72 -45 -79 -35 -93 -38 -82 -21 5 8 130 73 152 78 1 1 2 -5 2 -12z
m2704 -41 c45 -21 76 -41 76 -50 0 -11 -13 -8 -57 13 -32 16 -68 31 -80 35
-13 4 -23 14 -23 22 0 19 -2 19 84 -20z m-2704 -2 c0 -5 -145 -74 -156 -74
-35 0 101 78 139 79 9 1 17 -2 17 -5z m2790 -92 c0 -16 2 -16 -93 24 -44 19
-67 35 -67 46 0 14 13 11 80 -19 46 -21 80 -42 80 -51z m-2961 44 c-18 -12
-171 -87 -174 -84 -10 9 17 29 90 66 44 22 82 36 84 30 1 -5 1 -10 0 -12z
m161 11 c0 -7 -34 -29 -75 -50 -85 -42 -85 -42 -85 -24 0 8 35 30 78 50 89 43
82 41 82 24z m2903 -48 c77 -39 96 -53 97 -71 0 -12 -189 85 -194 99 -8 21 9
16 97 -28z m-173 -5 c44 -20 80 -41 80 -45 0 -5 -2 -9 -5 -9 -15 0 -165 74
-165 81 0 13 4 12 90 -27z m-2896 14 c-6 -16 -184 -112 -184 -100 0 14 23 31
103 73 79 42 89 45 81 27z m3139 -88 c20 -12 37 -28 37 -36 0 -19 -187 74
-193 97 -4 14 6 12 58 -12 34 -15 78 -37 98 -49z m-3143 46 c0 -8 -40 -37 -90
-64 -73 -41 -90 -47 -90 -33 0 12 29 33 88 64 48 26 88 47 90 47 1 0 2 -6 2
-14z m-182 -18 c-5 -14 -177 -112 -184 -105 -8 8 16 26 96 72 81 46 94 51 88
33z m3362 -105 c0 -15 -183 80 -188 97 -2 6 39 -11 92 -37 53 -26 96 -53 96
-60z m78 60 c37 -20 70 -42 74 -47 19 -28 2 -24 -72 16 -44 24 -80 49 -80 56
0 17 4 16 78 -25z m-3448 3 c0 -8 -29 -30 -65 -50 -36 -20 -77 -43 -90 -52
-22 -14 -25 -15 -25 -1 0 9 37 37 88 66 48 28 88 51 90 51 1 0 2 -6 2 -14z
m3470 -58 c44 -25 76 -51 78 -62 3 -15 -11 -10 -80 27 -45 26 -84 53 -86 62
-5 22 6 19 88 -27z m-3476 7 c-5 -12 -166 -115 -180 -115 -2 0 -4 7 -4 15 0
14 153 113 177 114 7 1 10 -6 7 -14z m-195 -36 c-8 -4 -50 -30 -94 -58 -44
-27 -82 -45 -84 -39 -2 6 3 14 10 19 8 4 50 30 94 58 44 27 82 45 84 39 2 -6
-3 -14 -10 -19z m3850 -28 c83 -48 112 -73 99 -86 -5 -5 -191 105 -200 119
-10 15 -10 29 0 24 4 -1 49 -27 101 -57z m-170 3 c45 -25 81 -49 81 -55 0 -5
-2 -9 -5 -9 -10 0 -165 91 -171 101 -11 18 16 8 95 -37z m-3675 -6 c-2 -7 -42
-35 -86 -63 -99 -61 -98 -60 -98 -43 0 7 37 37 83 65 83 52 110 63 101 41z
m3857 -50 c80 -48 108 -73 95 -85 -8 -9 -196 109 -196 123 0 8 3 14 6 14 3 0
46 -24 95 -52z m-3863 -12 c-51 -36 -172 -106 -175 -102 -13 13 12 37 89 85
65 40 84 48 86 35 2 -8 2 -17 0 -18z m3875 -45 c75 -45 104 -71 80 -71 -17 0
-182 107 -183 118 0 7 3 11 8 9 4 -2 46 -27 95 -56z m-4063 30 c0 -8 -184
-131 -196 -131 -20 0 14 29 91 80 92 60 105 67 105 51z m4217 -29 c32 -21 73
-47 91 -57 17 -11 32 -27 32 -37 0 -16 -8 -13 -56 17 -116 74 -134 88 -134
101 0 19 1 19 67 -24z m-4218 -14 c0 -12 -186 -138 -203 -138 -21 0 21 38 100
90 93 63 104 68 103 48z m4279 -73 c55 -36 79 -65 53 -65 -6 0 -46 23 -90 52
-54 35 -81 58 -81 71 0 21 -14 28 118 -58z m-4278 28 c0 -11 -35 -41 -92 -78
-109 -72 -108 -71 -108 -48 0 12 33 40 93 80 50 34 95 62 100 62 4 1 7 -7 7
-16z m4328 -127 c3 -12 -21 -1 -82 40 -47 31 -86 63 -86 71 0 19 164 -89 168
-111z m-4547 70 c-13 -16 -156 -116 -165 -116 -22 0 6 27 81 79 83 57 110 69
84 37z m4670 -37 c49 -34 89 -67 89 -75 0 -8 -3 -14 -6 -14 -3 0 -42 25 -86
56 -43 31 -82 54 -84 51 -3 -3 35 -33 85 -66 51 -34 91 -69 91 -77 0 -22 -15
-15 -109 51 -77 54 -80 57 -79 95 0 22 2 40 5 40 3 0 45 -27 94 -61z m-4671
-2 c0 -8 -39 -40 -86 -71 -79 -53 -106 -64 -89 -36 6 9 165 120 172 120 2 0 3
-6 3 -13z m8 -61 c-52 -38 -168 -116 -172 -116 -3 0 -6 8 -6 18 0 10 32 39 83
73 66 46 84 54 90 42 5 -8 7 -16 5 -17z m4638 -22 c88 -59 104 -74 104 -91 0
-15 -181 106 -188 126 -7 21 15 11 84 -35z m-4839 -7 c-3 -8 -34 -34 -69 -59
-89 -62 -90 -63 -86 -45 3 15 149 127 157 121 2 -2 1 -9 -2 -17z m5057 -43
c39 -28 66 -55 66 -66 0 -13 -18 -5 -80 39 -44 32 -80 64 -80 71 0 19 17 11
94 -44z m-5055 -8 c-40 -34 -150 -103 -153 -97 -7 10 12 27 89 80 34 24 61 37
63 31 2 -6 2 -13 1 -14z m5095 -72 c17 -12 27 -27 25 -37 -6 -25 -159 86 -159
114 0 21 5 18 134 -77z m-5084 38 c0 -11 -28 -38 -74 -70 -41 -29 -77 -52 -80
-52 -3 0 -6 8 -6 19 0 12 26 37 73 69 39 28 75 51 80 52 4 0 7 -8 7 -18z
m5039 -60 c50 -36 70 -57 63 -64 -13 -13 -162 95 -162 118 0 18 2 17 99 -54z
m-5221 26 c-3 -7 -31 -32 -64 -56 -84 -60 -94 -66 -94 -49 0 13 135 116 153
117 5 0 7 -6 5 -12z m5429 -71 c31 -21 50 -68 20 -50 -71 43 -145 106 -140
119 4 11 14 8 47 -17 22 -17 56 -41 73 -52z m-5439 12 c-8 -4 -43 -29 -77 -54
-58 -43 -83 -52 -66 -25 14 23 150 111 154 99 2 -6 -3 -15 -11 -20z m5398 -31
c45 -33 74 -60 74 -71 0 -23 0 -23 -88 38 -41 29 -71 57 -72 68 0 9 3 17 6 17
3 0 39 -24 80 -52z m-5376 5 c-1 -26 -148 -129 -163 -114 -14 14 -3 25 83 85
72 51 80 54 80 29z m-180 -32 c0 -6 -28 -31 -62 -57 -35 -26 -69 -52 -75 -57
-9 -7 -13 -5 -13 6 0 9 30 39 66 67 67 50 84 58 84 41z m5741 -62 c74 -56 99
-83 87 -94 -6 -7 -188 134 -188 146 0 19 24 7 101 -52z m-5754 0 c-8 -5 -40
-29 -70 -54 -60 -48 -67 -52 -67 -32 1 18 144 120 149 106 2 -6 -3 -16 -12
-20z m5756 -53 c77 -59 78 -60 72 -95 -4 -20 -8 -38 -10 -40 -7 -7 -175 133
-175 146 0 21 11 16 94 -48 43 -33 80 -58 83 -55 3 2 -34 33 -81 68 -51 38
-85 70 -86 81 0 22 3 21 103 -57z m-5735 9 c-1 -2 -34 -28 -73 -59 -59 -47
-71 -53 -76 -38 -8 20 5 34 81 91 46 34 56 38 63 25 5 -9 7 -17 5 -19z m-229
-74 c-35 -30 -83 -74 -106 -97 -31 -30 -44 -37 -48 -26 -7 19 3 31 114 124
107 89 143 88 40 -1z m6164 -45 c40 -35 67 -66 67 -78 0 -15 -18 -4 -82 53
-46 40 -85 82 -87 93 -4 24 -13 31 102 -68z m-6200 -40 c-60 -58 -102 -91
-107 -85 -12 11 23 49 124 136 41 35 76 60 78 54 2 -5 -41 -53 -95 -105z m107
50 c0 -16 -14 -35 -42 -58 -24 -20 -63 -61 -88 -92 -40 -50 -46 -55 -57 -39
-7 9 -13 20 -13 23 0 10 183 190 192 190 5 0 8 -11 8 -24z m6073 -47 c47 -43
77 -78 77 -91 0 -15 -19 -3 -85 57 -75 68 -102 105 -77 105 4 0 42 -32 85 -71z
m-8 -51 c59 -57 73 -76 65 -88 -8 -12 -23 -1 -85 60 -70 69 -90 100 -65 100 6
0 44 -33 85 -72z m-6337 -70 c-24 -29 -57 -79 -73 -110 -32 -62 -39 -68 -49
-42 -8 21 31 89 97 172 40 49 53 59 59 48 6 -11 -4 -31 -34 -68z m6576 -66
c25 -37 30 -72 9 -72 -4 0 -25 26 -45 58 -21 31 -51 71 -68 89 -16 18 -30 42
-30 55 1 20 8 16 53 -33 29 -30 65 -74 81 -97z m-6524 83 c0 -8 -18 -42 -40
-76 -22 -35 -45 -80 -52 -101 -11 -38 -34 -50 -44 -24 -7 18 32 95 82 163 40
54 54 64 54 38z m6445 -57 c67 -89 78 -113 60 -128 -11 -9 -18 -4 -34 28 -11
21 -36 60 -55 86 -35 45 -46 76 -27 76 5 0 30 -28 56 -62z m-39 -21 c18 -23
41 -61 53 -84 18 -37 19 -42 4 -47 -19 -8 -16 -10 -38 34 -10 19 -31 54 -47
77 -27 36 -31 64 -10 63 4 0 21 -20 38 -43z m202 -219 c4 -71 6 -68 -40 -72
-8 -1 -11 16 -9 55 1 30 -4 74 -12 96 -13 37 -12 43 2 58 15 15 18 13 35 -27
11 -24 22 -73 24 -110z m-6775 15 c-5 -73 -8 -83 -24 -83 -16 0 -19 8 -19 58
0 31 5 74 11 96 9 32 13 36 24 25 9 -10 11 -36 8 -96z m6706 53 c21 -84 13
-146 -19 -146 -16 0 -18 6 -13 54 3 30 1 68 -5 84 -7 21 -7 33 1 41 18 18 24
13 36 -33z m-6663 6 c7 -4 13 -40 16 -79 3 -70 3 -73 -18 -73 -12 0 -25 7 -28
16 -13 34 -3 144 13 144 3 0 11 -4 17 -8z m6619 -45 c8 -62 -5 -101 -38 -105
l-27 -3 16 37 c10 24 13 50 9 72 -4 24 -2 37 6 43 20 12 27 2 34 -44z m-65
-87 c-9 -18 -21 -20 -93 -20 -71 0 -84 3 -94 20 -7 10 -23 24 -35 30 -18 9
-17 6 5 -10 30 -24 36 -44 10 -36 -10 3 -40 8 -68 11 -28 3 -58 13 -68 24 -18
17 -17 18 10 19 89 2 225 31 298 62 l40 17 3 -48 c2 -27 -2 -58 -8 -69z
m-6484 102 c6 -4 14 -33 17 -64 l6 -58 -29 0 c-31 0 -40 18 -40 88 0 33 4 42
18 42 9 0 22 -4 28 -8z m129 -31 c33 -6 78 -14 100 -18 22 -4 46 -7 53 -6 17
1 15 -8 -12 -38 -22 -25 -28 -27 -124 -28 -55 -1 -103 3 -106 8 -3 5 -9 31
-13 57 -6 46 -6 47 18 41 13 -3 51 -10 84 -16z m6109 -96 c11 -1 21 -3 21 -4
0 -1 44 -3 97 -4 54 -1 98 -3 98 -5 0 -14 -132 -102 -154 -102 -2 0 -11 12
-21 26 -14 21 -14 28 -3 42 12 16 11 16 -6 2 -16 -13 -20 -12 -36 8 -10 12
-22 22 -27 22 -5 0 -18 7 -29 15 -18 14 -17 15 10 9 16 -4 38 -8 50 -9z
m-6358 -3 c6 -4 21 -26 33 -50 28 -54 82 -93 171 -122 44 -14 70 -28 70 -37 0
-17 -28 -13 -127 19 -94 31 -151 87 -178 176 -7 23 8 30 31 14z m431 -8 c-16
-9 -35 -13 -43 -10 -8 3 -13 2 -10 -3 3 -5 -1 -14 -9 -21 -12 -10 -19 -10 -32
1 -16 13 -17 12 -4 -4 13 -16 12 -21 -11 -44 l-26 -26 -46 27 c-25 14 -52 36
-61 49 -16 22 -15 22 47 27 35 3 69 1 77 -5 10 -7 13 -7 8 1 -4 7 11 11 45 13
29 1 54 4 57 6 2 3 11 5 20 5 10 -1 4 -7 -12 -16z m-333 -33 c29 -46 70 -77
134 -101 44 -17 60 -39 24 -32 -94 17 -181 71 -212 132 l-20 40 25 0 c18 0 31
-11 49 -39z m74 7 c23 -31 64 -67 94 -79 28 -11 35 -23 20 -33 -16 -10 -128
51 -160 88 -17 20 -32 41 -32 46 0 16 64 -2 78 -22z m6448 -7 c-49 -52 -153
-99 -291 -135 -54 -14 -77 -14 -63 -1 9 10 142 44 150 39 4 -3 8 -1 8 3 0 5
20 19 45 31 24 12 61 37 82 56 33 29 78 49 92 39 3 -2 -8 -16 -23 -32z m84 30
c0 -34 -109 -115 -202 -149 -84 -31 -74 -5 14 37 41 19 89 52 112 77 38 38 76
57 76 35z m70 -6 c0 -26 -68 -91 -130 -124 -60 -32 -162 -71 -187 -71 -31 0
-9 19 45 38 78 29 141 70 188 125 39 47 84 63 84 32z m-6372 -141 c39 -10 72
-21 72 -26 0 -10 -2 -10 -89 10 -41 10 -76 23 -79 31 -3 8 1 11 9 8 8 -3 47
-13 87 -23z m81 -51 c2 -2 2 -5 -1 -8 -8 -8 -181 30 -185 41 -3 9 171 -22 186
-33z m5944 27 c-12 -12 -163 -43 -170 -36 -9 9 -4 11 82 33 77 19 106 20 88 3z
m-5838 -22 c7 -7 -6 -8 -40 -3 -27 3 -54 11 -60 17 -7 7 6 8 40 3 28 -3 55
-11 60 -17z m5655 13 c-24 -14 -117 -25 -105 -13 11 11 44 19 90 20 22 1 26
-1 15 -7z m-5831 -29 c47 -10 86 -23 89 -30 5 -15 -2 -15 -117 6 -52 10 -96
23 -99 30 -5 16 25 15 127 -6z m294 -2 c31 -6 57 -16 57 -22 0 -6 -10 -8 -22
-4 -13 3 -49 11 -80 17 -32 6 -58 16 -58 21 0 6 10 8 23 5 12 -3 48 -11 80
-17z m5417 11 c0 -4 -34 -15 -75 -23 -41 -8 -75 -11 -75 -7 0 5 10 11 23 14
115 27 127 28 127 16z m310 0 c0 -4 -39 -16 -87 -25 -49 -10 -97 -20 -108 -23
-14 -4 -17 -2 -10 5 10 10 152 49 188 51 9 1 17 -3 17 -8z m-5840 -23 c10 -6
-2 -7 -35 -3 -27 4 -54 11 -60 17 -12 12 73 0 95 -14z m5640 12 c0 -5 -17 -12
-37 -15 -21 -4 -46 -9 -55 -12 -10 -2 -18 0 -18 6 0 6 12 13 28 17 15 3 32 7
37 9 21 7 45 5 45 -5z m-5531 -31 c34 -6 64 -16 67 -20 7 -12 -1 -12 -83 8
-40 9 -73 21 -73 26 0 5 6 7 14 4 8 -3 42 -11 75 -18z m5249 6 c-5 -5 -147
-44 -162 -45 -6 0 -5 5 1 11 6 6 45 19 85 29 68 16 89 18 76 5z m160 3 c-5
-14 -158 -49 -158 -36 0 11 20 18 89 34 74 16 73 16 69 2z m-5505 -20 c9 -5
17 -13 17 -17 0 -13 -83 8 -100 25 -13 14 -11 15 25 8 22 -3 48 -11 58 -16z
m262 6 c37 -9 65 -22 65 -29 0 -9 -19 -7 -74 9 -121 35 -113 50 9 20z m5335
-3 c-24 -14 -107 -25 -95 -13 11 11 43 19 85 20 19 1 21 -1 10 -7z m-5406 -52
c19 -18 -1 -18 -71 0 -75 20 -93 27 -93 41 0 9 151 -27 164 -41z m151 -10 c14
-14 -10 -11 -86 12 -38 12 -69 25 -69 29 0 10 141 -27 155 -41z m4990 41 c-5
-9 -64 -28 -139 -46 -22 -5 -28 -4 -24 7 2 7 33 21 69 30 76 20 102 23 94 9z
m150 1 c-9 -7 -132 -41 -152 -41 -24 0 22 22 72 34 72 17 92 19 80 7z m-5042
-27 c33 -10 57 -23 57 -32 0 -9 -7 -11 -22 -6 -88 28 -122 42 -126 53 -5 14
-6 14 91 -15z m4722 17 c-5 -10 -102 -41 -126 -41 -24 0 6 20 52 34 53 17 82
19 74 7z m-4874 -42 c63 -19 88 -34 77 -44 -7 -7 -133 36 -148 50 -19 20 -11
19 71 -6z m4863 7 c-6 -15 -123 -60 -133 -51 -9 10 15 25 69 44 68 24 71 24
64 7z m161 5 c-9 -7 -144 -51 -159 -51 -3 0 -6 4 -6 9 0 5 33 18 73 29 81 23
106 26 92 13z m-4861 -31 c28 -9 52 -23 54 -30 3 -9 -1 -11 -14 -6 -11 5 -45
17 -76 28 -32 11 -58 24 -58 30 0 10 7 8 94 -22z m4564 19 c-4 -12 -129 -61
-137 -53 -9 9 15 24 69 43 66 23 73 24 68 10z m-4433 -22 c38 -14 61 -28 63
-40 3 -16 -1 -16 -50 4 -29 12 -61 24 -70 26 -17 5 -26 34 -10 32 4 0 34 -10
67 -22z m-115 -37 c25 -10 46 -24 48 -33 2 -12 -11 -10 -64 12 -37 15 -70 33
-72 40 -5 14 10 11 88 -19z m4540 17 c0 -7 -24 -21 -52 -32 -29 -10 -59 -20
-65 -23 -7 -2 -13 2 -13 10 0 8 25 23 58 35 69 26 72 26 72 10z m122 1 c-12
-12 -99 -48 -115 -48 -5 0 -7 5 -5 12 4 11 89 46 118 47 11 1 11 -2 2 -11z
m-4485 -48 c2 0 3 -6 3 -14 0 -10 -15 -8 -65 13 -36 14 -65 31 -65 38 0 7 22
3 62 -13 34 -13 63 -24 65 -24z m165 -29 c4 -3 4 -11 0 -17 -10 -16 -152 50
-152 70 0 12 15 9 73 -15 39 -17 75 -34 79 -38z m4048 56 c-27 -25 -140 -68
-140 -53 0 14 102 64 135 65 17 1 17 -1 5 -12z m135 -28 c-6 -15 -115 -62
-124 -54 -9 10 24 34 74 53 56 21 58 21 50 1z m-4333 -54 c17 -23 5 -22 -54 3
-60 25 -77 38 -78 54 0 10 123 -43 132 -57z m4202 42 c-3 -10 -40 -28 -131
-64 -7 -3 -13 1 -13 9 0 14 128 78 142 71 4 -2 5 -9 2 -16z m-4054 -68 c0 -14
-10 -11 -77 17 -35 15 -63 33 -63 40 0 9 22 3 70 -18 39 -17 70 -35 70 -39z
m3900 43 c0 -7 -142 -82 -155 -82 -3 0 -5 6 -5 14 0 7 30 27 68 44 70 32 92
37 92 24z m-3798 -35 c48 -23 65 -36 60 -45 -7 -9 -24 -5 -78 19 -80 36 -78
35 -69 48 8 15 10 14 87 -22z m3948 19 c0 -8 -30 -28 -66 -45 -77 -36 -74 -35
-74 -15 0 9 25 27 63 44 72 34 77 35 77 16z m-4097 -37 c20 -11 37 -26 37 -34
0 -11 -10 -9 -47 8 -62 29 -73 36 -73 48 0 12 30 4 83 -22z m3941 1 c-21 -20
-144 -69 -144 -57 0 16 144 88 149 75 2 -5 -1 -14 -5 -18z m-3785 -35 c28 -14
51 -30 51 -36 0 -12 2 -13 -84 26 -36 17 -66 36 -66 42 0 15 22 7 99 -32z
m221 -77 c0 -10 -2 -18 -4 -18 -3 0 -38 18 -80 41 -51 27 -73 45 -70 54 8 21
154 -53 154 -77z m3400 82 c0 -7 -91 -60 -152 -88 -5 -2 -8 2 -8 10 0 7 31 29
68 50 70 38 92 45 92 28z m170 -4 c0 -14 -145 -98 -154 -89 -15 15 14 45 72
72 76 35 82 36 82 17z m-3810 -31 c40 -20 70 -42 70 -50 0 -20 -1 -20 -80 20
-40 20 -70 42 -70 50 0 20 1 20 80 -20z m3646 -4 c-9 -14 -157 -93 -163 -87
-11 10 11 28 75 61 67 34 98 43 88 26z m-3486 -36 c66 -33 88 -51 77 -62 -8
-7 -157 76 -157 88 0 13 4 12 80 -26z m3480 -14 c0 -14 -22 -31 -76 -60 -41
-23 -78 -41 -80 -41 -3 0 -4 10 -2 22 2 15 24 33 73 60 81 44 85 45 85 19z
m-3474 -32 c41 -22 74 -47 74 -56 0 -8 -3 -13 -7 -11 -94 42 -152 81 -153 101
0 12 10 8 86 -34z m175 -1 c56 -30 79 -47 79 -61 0 -22 6 -24 -93 31 -42 24
-77 50 -77 58 0 20 4 19 91 -28z m3129 33 c0 -8 -141 -91 -155 -91 -3 0 -5 6
-5 13 0 6 31 28 68 49 69 37 92 45 92 29z m0 -40 c0 -9 -139 -91 -154 -91 -3
0 -6 4 -6 10 0 9 137 90 153 90 4 0 7 -4 7 -9z m-3134 -42 c41 -22 74 -47 74
-55 0 -8 -3 -13 -7 -11 -89 49 -153 90 -153 97 0 15 8 13 86 -31z m3128 -11
c-4 -13 -12 -26 -18 -31 -22 -14 -134 -77 -139 -77 -3 0 -2 11 2 25 4 18 27
37 76 65 82 46 89 47 79 18z m-3125 -33 c47 -27 71 -46 71 -58 0 -18 -1 -18
-32 1 -18 11 -54 32 -80 47 -27 15 -48 34 -48 42 0 18 1 18 89 -32z m2959 33
c-4 -13 -145 -98 -161 -98 -25 0 8 30 74 67 79 45 93 50 87 31z m-2786 -34
c77 -45 72 -40 65 -58 -5 -13 -19 -8 -77 25 -38 22 -70 47 -70 55 0 21 13 18
82 -22z m2788 -3 c0 -12 -15 -23 -97 -69 -48 -27 -73 -36 -73 -27 0 7 35 33
78 58 82 48 92 52 92 38z m-2794 -47 c35 -20 64 -42 64 -51 0 -11 -14 -6 -57
18 -65 36 -105 69 -84 69 7 0 42 -16 77 -36z m510 -193 c66 -22 148 -45 184
-52 76 -15 93 -25 56 -35 -37 -9 -212 36 -340 87 -152 60 -320 152 -324 177
-3 17 20 8 151 -59 85 -43 208 -97 273 -118z m2272 177 c-2 -16 -27 -36 -85
-70 -81 -46 -83 -47 -83 -23 0 20 15 33 78 69 42 25 81 46 85 46 5 0 7 -10 5
-22z m-2782 -29 c41 -22 74 -47 74 -55 0 -8 -3 -14 -6 -14 -18 0 -154 86 -154
97 0 19 5 17 86 -28z m2612 29 c-5 -20 -297 -163 -401 -197 -211 -70 -375 -96
-705 -113 -191 -9 -237 -9 -257 2 -29 16 -33 30 -6 23 10 -3 129 0 262 6 446
20 673 72 964 222 139 72 149 76 143 57z m0 -40 c-12 -37 -345 -192 -401 -186
-29 3 -26 5 35 26 36 13 131 56 210 96 157 80 161 82 156 64z m-2378 -71 c74
-37 171 -80 215 -97 75 -27 77 -29 41 -30 -65 0 -406 157 -406 188 0 8 3 12 8
10 4 -1 68 -33 142 -71z m115 -100 l60 -26 -39 0 c-52 -1 -286 114 -286 141 0
15 17 9 103 -35 56 -29 129 -65 162 -80z m2251 117 c-3 -9 -6 -20 -6 -25 0
-10 -119 -71 -219 -114 -39 -16 -73 -24 -87 -21 -34 9 -29 21 14 34 20 6 93
40 162 76 137 70 145 73 136 50z m-1867 -191 c3 -2 0 -8 -6 -14 -19 -19 -143
16 -143 41 0 6 139 -19 149 -27z m1271 13 c0 -2 -11 -11 -25 -20 -33 -22 -186
-43 -405 -56 -204 -13 -292 -11 -297 6 -2 7 57 13 189 17 199 7 327 19 452 41
39 8 74 14 79 15 4 0 7 -1 7 -3z m232 -32 c61 -20 123 -75 155 -138 36 -67 38
-186 7 -257 -48 -104 -133 -163 -235 -162 -98 1 -171 50 -220 145 -80 157 -4
365 151 413 60 18 87 18 142 -1z m1144 1 c42 -13 50 -13 64 0 43 39 70 4 70
-90 0 -65 -3 -76 -20 -85 -30 -16 -54 -4 -71 32 -20 46 -52 59 -129 56 -118
-6 -160 -58 -160 -200 0 -97 17 -135 73 -161 40 -19 138 -23 186 -6 26 9 31
16 31 45 l0 33 -66 3 c-54 2 -69 7 -80 23 -12 18 -11 24 2 43 14 21 23 22 133
22 78 0 121 -4 129 -12 18 -18 14 -55 -7 -71 -16 -10 -21 -27 -23 -77 l-3 -64
-60 -24 c-123 -50 -285 -25 -355 54 -53 61 -74 185 -49 294 33 146 185 230
335 185z m-4015 -172 c62 -98 116 -182 121 -187 4 -6 8 51 8 126 l0 137 -36 3
c-44 4 -67 32 -53 66 8 21 14 22 114 22 89 0 107 -3 112 -16 6 -15 7 -15 17
-1 8 10 34 16 83 19 l72 3 46 -99 c26 -55 53 -117 62 -138 9 -21 18 -36 22
-33 3 4 31 64 62 133 l56 127 77 3 c74 3 76 2 88 -24 11 -24 10 -29 -15 -50
l-27 -23 0 -174 c0 -190 1 -193 55 -179 24 7 35 26 91 167 87 216 83 195 30
195 -64 0 -93 33 -63 73 10 14 32 17 132 18 l120 2 90 -223 c81 -199 94 -225
118 -233 15 -5 27 -13 27 -19 0 -6 8 -4 18 5 10 10 28 17 40 17 22 0 22 2 22
180 l0 180 -24 0 c-31 0 -48 22 -44 57 l3 28 164 3 c149 2 167 1 207 -19 58
-28 87 -69 92 -135 6 -73 -24 -135 -83 -169 -34 -20 -60 -26 -131 -30 l-89 -4
-3 -45 -3 -45 67 -3 c74 -3 92 -16 80 -61 l-6 -27 -138 0 c-94 0 -142 4 -150
12 -9 9 -15 9 -24 0 -8 -8 -48 -12 -115 -12 -91 0 -103 2 -113 19 -5 11 -10
24 -10 30 0 18 31 41 56 41 27 0 27 0 14 34 -9 26 -11 26 -119 26 l-109 0 -11
-30 c-9 -29 -9 -30 18 -30 32 0 51 -16 51 -45 0 -42 -14 -45 -227 -45 l-203 0
-12 25 c-14 32 10 62 54 67 l29 3 2 127 c1 69 -1 124 -4 122 -3 -2 -26 -51
-50 -109 l-44 -105 -47 0 c-38 0 -48 4 -53 21 -4 11 -26 61 -51 112 l-44 92 0
-132 0 -133 33 0 c18 0 38 -5 45 -12 15 -15 15 -51 0 -66 -16 -16 -200 -16
-216 0 -21 21 -14 57 13 70 l25 11 0 176 c-1 175 -1 176 -25 194 -14 10 -25
13 -25 8 0 -6 -11 -13 -25 -17 l-25 -6 0 -224 0 -224 -47 0 -48 0 -114 180
c-63 99 -116 180 -118 180 -2 0 -3 -61 -3 -135 l0 -135 33 0 c38 0 57 -15 57
-45 0 -38 -19 -45 -122 -45 -88 0 -98 2 -108 20 -15 29 -3 59 26 66 l24 6 0
179 0 179 -24 0 c-26 0 -56 23 -56 44 0 32 25 45 95 49 39 2 71 4 72 5 0 1 52
-78 114 -175z m1312 161 c26 -4 37 -11 37 -24 0 -16 -5 -17 -37 -9 -21 5 -41
9 -45 9 -4 0 -12 9 -19 21 -9 18 -8 20 8 15 10 -2 35 -8 56 -12z m2164 -15
c105 -50 120 -182 30 -254 l-35 -28 54 -66 c30 -35 54 -69 54 -73 0 -4 11 -8
24 -8 25 0 56 -23 56 -41 0 -6 -5 -19 -10 -30 -9 -15 -22 -19 -69 -19 l-58 0
-36 57 c-19 32 -57 80 -83 106 -44 45 -50 48 -93 45 l-46 -3 -3 -57 -3 -58 35
0 c33 0 66 -21 66 -41 0 -6 -5 -19 -10 -30 -10 -17 -22 -19 -118 -19 -113 0
-132 6 -132 45 0 27 18 45 47 45 l23 0 0 180 0 180 -23 0 c-31 0 -47 18 -47
52 0 19 6 31 19 36 11 4 86 6 168 4 124 -3 155 -6 190 -23z m-916 -18 c-14
-25 -155 -41 -417 -48 -171 -5 -202 -3 -207 9 -4 13 25 16 201 22 114 4 248
13 297 21 133 19 138 19 126 -4z m-1239 -15 c17 -4 34 -18 43 -36 8 -16 27
-37 40 -46 24 -16 25 -20 25 -135 0 -113 -7 -143 -27 -116 -6 6 -39 84 -74
172 -35 87 -66 163 -68 168 -2 5 5 7 15 4 11 -3 31 -8 46 -11z m-404 -151
c-43 -108 -43 -108 -46 -21 -4 103 -1 110 37 89 l29 -17 -20 -51z m3093 30
c24 -40 23 -42 -9 -37 -42 6 -105 -14 -132 -43 -17 -19 -23 -36 -23 -70 0 -28
-4 -41 -9 -33 -13 22 -9 137 7 168 21 40 42 50 99 47 43 -2 52 -6 67 -32z
m-399 -152 c4 -51 -1 -54 -25 -13 -17 28 -17 31 0 57 19 29 20 28 25 -44z"/>
<path d="M3303 3273 c26 -2 68 -2 95 0 26 2 4 3 -48 3 -52 0 -74 -1 -47 -3z"/>
<path d="M3698 3273 c18 -2 45 -2 60 0 15 2 0 4 -33 4 -33 0 -45 -2 -27 -4z"/>
<path d="M3923 3263 c9 -2 23 -2 30 0 6 3 -1 5 -18 5 -16 0 -22 -2 -12 -5z"/>
<path d="M3048 3253 c7 -3 16 -2 19 1 4 3 -2 6 -13 5 -11 0 -14 -3 -6 -6z"/>
<path d="M4018 3253 c7 -3 16 -2 19 1 4 3 -2 6 -13 5 -11 0 -14 -3 -6 -6z"/>
<path d="M2928 3233 c7 -3 16 -2 19 1 4 3 -2 6 -13 5 -11 0 -14 -3 -6 -6z"/>
<path d="M3288 3213 c6 -2 18 -2 25 0 6 3 1 5 -13 5 -14 0 -19 -2 -12 -5z"/>
<path d="M3348 3213 c7 -3 16 -2 19 1 4 3 -2 6 -13 5 -11 0 -14 -3 -6 -6z"/>
<path d="M3758 3213 c17 -2 47 -2 65 0 17 2 3 4 -33 4 -36 0 -50 -2 -32 -4z"/>
<path d="M3128 3203 c6 -2 18 -2 25 0 6 3 1 5 -13 5 -14 0 -19 -2 -12 -5z"/>
<path d="M3938 3203 c6 -2 18 -2 25 0 6 3 1 5 -13 5 -14 0 -19 -2 -12 -5z"/>
<path d="M3048 3193 c7 -3 16 -2 19 1 4 3 -2 6 -13 5 -11 0 -14 -3 -6 -6z"/>
<path d="M3263 3193 c26 -2 68 -2 95 0 26 2 4 3 -48 3 -52 0 -74 -1 -47 -3z"/>
<path d="M3578 3193 c29 -2 74 -2 100 0 26 2 2 3 -53 3 -55 0 -76 -1 -47 -3z"/>
<path d="M3765 3194 c48 -8 115 -9 115 -2 0 5 -30 7 -67 7 -38 -1 -59 -3 -48
-5z"/>
<path d="M3133 3183 c9 -2 23 -2 30 0 6 3 -1 5 -18 5 -16 0 -22 -2 -12 -5z"/>
<path d="M3920 3186 c0 -2 18 -6 39 -8 22 -2 37 0 35 4 -5 8 -74 11 -74 4z"/>
<path d="M4108 3183 c7 -3 16 -2 19 1 4 3 -2 6 -13 5 -11 0 -14 -3 -6 -6z"/>
<path d="M3058 3173 c7 -3 16 -2 19 1 4 3 -2 6 -13 5 -11 0 -14 -3 -6 -6z"/>
<path d="M4045 3170 c17 -4 44 -8 60 -8 25 0 24 2 -10 9 -51 10 -92 10 -50 -1z"/>
<path d="M2898 3163 c7 -3 16 -2 19 1 4 3 -2 6 -13 5 -11 0 -14 -3 -6 -6z"/>
<path d="M2998 3163 c7 -3 16 -2 19 1 4 3 -2 6 -13 5 -11 0 -14 -3 -6 -6z"/>
<path d="M2948 3153 c6 -2 18 -2 25 0 6 3 1 5 -13 5 -14 0 -19 -2 -12 -5z"/>
<path d="M4158 3153 c6 -2 18 -2 25 0 6 3 1 5 -13 5 -14 0 -19 -2 -12 -5z"/>
<path d="M2908 3143 c7 -3 16 -2 19 1 4 3 -2 6 -13 5 -11 0 -14 -3 -6 -6z"/>
<path d="M4215 3140 c19 -8 73 -14 64 -6 -2 2 -22 6 -44 9 -28 5 -34 4 -20 -3z"/>
<path d="M2860 3130 c0 -5 7 -7 15 -4 8 4 15 8 15 10 0 2 -7 4 -15 4 -8 0 -15
-4 -15 -10z"/>
<path d="M2772 3109 c-35 -11 -62 -22 -60 -24 4 -4 129 33 137 40 8 9 -13 4
-77 -16z"/>
<path d="M4298 3123 c7 -3 16 -2 19 1 4 3 -2 6 -13 5 -11 0 -14 -3 -6 -6z"/>
<path d="M4368 3103 c7 -3 16 -2 19 1 4 3 -2 6 -13 5 -11 0 -14 -3 -6 -6z"/>
<path d="M2440 3070 c-8 -5 -10 -10 -5 -10 6 0 17 5 25 10 8 5 11 10 5 10 -5
0 -17 -5 -25 -10z"/>
<path d="M2655 3065 c-16 -7 -23 -14 -15 -14 8 0 26 6 40 14 32 18 14 18 -25
0z"/>
<path d="M4519 3055 c18 -8 38 -15 45 -15 6 1 -4 7 -23 15 -18 8 -38 15 -45
15 -6 -1 4 -7 23 -15z"/>
<path d="M2575 3031 c-22 -11 -37 -20 -34 -20 10 -1 79 29 79 34 0 7 0 7 -45
-14z"/>
<path d="M2510 3030 c-8 -5 -10 -10 -5 -10 6 0 17 5 25 10 8 5 11 10 5 10 -5
0 -17 -5 -25 -10z"/>
<path d="M4586 3031 c5 -5 23 -12 39 -16 30 -6 30 -6 -4 10 -38 17 -49 19 -35
6z"/>
<path d="M4860 3000 c8 -5 20 -10 25 -10 6 0 3 5 -5 10 -8 5 -19 10 -25 10 -5
0 -3 -5 5 -10z"/>
<path d="M4690 2990 c8 -5 20 -10 25 -10 6 0 3 5 -5 10 -8 5 -19 10 -25 10 -5
0 -3 -5 5 -10z"/>
<path d="M2315 2960 c-3 -6 1 -7 9 -4 18 7 21 14 7 14 -6 0 -13 -4 -16 -10z"/>
<path d="M4827 2929 c7 -7 15 -10 18 -7 3 3 -2 9 -12 12 -14 6 -15 5 -6 -5z"/>
<path d="M2124 2904 c-18 -14 -18 -15 4 -4 12 6 22 13 22 15 0 8 -5 6 -26 -11z"/>
<path d="M4970 2906 c0 -2 7 -7 16 -10 8 -3 12 -2 9 4 -6 10 -25 14 -25 6z"/>
<path d="M2114 2874 c-18 -14 -18 -15 4 -4 12 6 22 13 22 15 0 8 -5 6 -26 -11z"/>
<path d="M4970 2885 c0 -2 18 -14 40 -25 22 -11 40 -18 40 -15 0 2 -18 14 -40
25 -22 11 -40 18 -40 15z"/>
<path d="M4940 2875 c0 -2 27 -18 60 -35 33 -17 60 -28 60 -25 0 2 -27 18 -60
35 -33 17 -60 28 -60 25z"/>
<path d="M2118 2854 c-38 -20 -36 -28 2 -9 17 9 30 18 30 20 0 7 -1 6 -32 -11z"/>
<path d="M2154 2844 c-18 -14 -18 -15 4 -4 12 6 22 13 22 15 0 8 -5 6 -26 -11z"/>
<path d="M1984 2824 c-18 -14 -18 -15 4 -4 12 6 22 13 22 15 0 8 -5 6 -26 -11z"/>
<path d="M1994 2804 c-18 -14 -18 -15 4 -4 12 6 22 13 22 15 0 8 -5 6 -26 -11z"/>
<path d="M1934 2794 c-18 -14 -18 -15 4 -4 12 6 22 13 22 15 0 8 -5 6 -26 -11z"/>
<path d="M1944 2774 c-18 -14 -18 -15 4 -4 12 6 22 13 22 15 0 8 -5 6 -26 -11z"/>
<path d="M1884 2764 c-18 -14 -18 -15 4 -4 12 6 22 13 22 15 0 8 -5 6 -26 -11z"/>
<path d="M5170 2776 c0 -3 9 -10 20 -16 11 -6 20 -8 20 -6 0 3 -9 10 -20 16
-11 6 -20 8 -20 6z"/>
<path d="M2034 2744 c-18 -14 -18 -15 4 -4 12 6 22 13 22 15 0 8 -5 6 -26 -11z"/>
<path d="M3483 2750 c-179 -42 -341 -240 -343 -417 l0 -33 115 0 c114 0 115 0
115 24 0 83 85 176 183 200 l27 6 0 115 0 115 -32 -1 c-18 -1 -47 -4 -65 -9z"/>
<path d="M3600 2646 l0 -114 33 -7 c44 -10 98 -38 124 -67 27 -29 62 -105 63
-135 0 -23 2 -23 115 -23 l115 0 0 33 c0 73 -39 172 -99 255 -65 89 -218 172
-317 172 l-34 0 0 -114z"/>
<path d="M5160 2756 c0 -3 9 -10 20 -16 11 -6 20 -8 20 -6 0 3 -9 10 -20 16
-11 6 -20 8 -20 6z"/>
<path d="M1904 2724 c-18 -14 -18 -15 4 -4 12 6 22 13 22 15 0 8 -5 6 -26 -11z"/>
<path d="M1967 2706 c-48 -29 -61 -43 -22 -23 31 16 74 46 65 46 -3 0 -22 -10
-43 -23z"/>
<path d="M5230 2716 c0 -3 9 -10 20 -16 11 -6 20 -8 20 -6 0 3 -9 10 -20 16
-11 6 -20 8 -20 6z"/>
<path d="M1754 2684 c-18 -14 -18 -15 4 -4 12 6 22 13 22 15 0 8 -5 6 -26 -11z"/>
<path d="M1734 2644 c-18 -14 -18 -15 4 -4 12 6 22 13 22 15 0 8 -5 6 -26 -11z"/>
<path d="M1774 2644 c-18 -14 -18 -15 4 -4 12 6 22 13 22 15 0 8 -5 6 -26 -11z"/>
<path d="M1804 2634 c-18 -14 -18 -15 4 -4 12 6 22 13 22 15 0 8 -5 6 -26 -11z"/>
<path d="M1843 2629 c-35 -22 -46 -37 -15 -20 22 13 58 40 52 41 -3 0 -20 -10
-37 -21z"/>
<path d="M5375 2625 c11 -9 29 -21 40 -26 l20 -10 -20 16 c-11 9 -29 21 -40
26 l-20 10 20 -16z"/>
<path d="M5529 2552 c14 -11 38 -27 55 -37 l31 -17 -24 20 c-14 11 -38 27 -55
37 l-31 17 24 -20z"/>
<path d="M1534 2544 c-18 -14 -18 -15 4 -4 12 6 22 13 22 15 0 8 -5 6 -26 -11z"/>
<path d="M1664 2544 c-18 -14 -18 -15 4 -4 12 6 22 13 22 15 0 8 -5 6 -26 -11z"/>
<path d="M5710 2516 c0 -2 8 -10 18 -17 15 -13 16 -12 3 4 -13 16 -21 21 -21
13z"/>
<path d="M1630 2489 c-22 -18 -22 -19 -3 -10 12 6 25 16 28 21 9 15 3 12 -25
-11z"/>
<path d="M3506 2477 c-52 -29 -93 -82 -104 -134 l-10 -43 58 0 c54 0 58 2 64
26 4 16 18 30 36 37 29 11 30 14 30 74 0 73 -9 78 -74 40z"/>
<path d="M3600 2436 c0 -60 2 -64 25 -70 13 -3 32 -20 40 -37 15 -29 18 -30
73 -27 54 3 57 4 53 28 -9 64 -60 128 -123 155 -64 26 -68 23 -68 -49z"/>
<path d="M5750 2487 c0 -3 12 -12 26 -22 15 -9 23 -12 20 -6 -7 11 -46 35 -46
28z"/>
<path d="M5680 2456 c0 -2 8 -10 18 -17 15 -13 16 -12 3 4 -13 16 -21 21 -21
13z"/>
<path d="M1400 2430 c-9 -6 -10 -10 -3 -10 6 0 15 5 18 10 8 12 4 12 -15 0z"/>
<path d="M5880 2376 c0 -2 14 -14 30 -26 17 -12 30 -19 30 -16 0 2 -13 14 -30
26 -16 12 -30 19 -30 16z"/>
<path d="M5810 2366 c0 -2 14 -14 30 -26 17 -12 30 -19 30 -16 0 2 -13 14 -30
26 -16 12 -30 19 -30 16z"/>
<path d="M5870 2356 c0 -2 14 -14 30 -26 17 -12 30 -19 30 -16 0 2 -13 14 -30
26 -16 12 -30 19 -30 16z"/>
<path d="M5960 2346 c0 -2 8 -10 18 -17 15 -13 16 -12 3 4 -13 16 -21 21 -21
13z"/>
<path d="M5830 2326 c0 -2 14 -14 30 -26 17 -12 30 -19 30 -16 0 2 -13 14 -30
26 -16 12 -30 19 -30 16z"/>
<path d="M1145 2254 l-30 -26 33 22 c17 12 32 23 32 26 0 7 -4 5 -35 -22z"/>
<path d="M3731 2272 c-43 -3 -58 -8 -73 -27 -10 -13 -27 -27 -38 -30 -17 -5
-20 -15 -20 -71 0 -72 4 -75 68 -49 62 26 102 74 123 147 9 33 8 34 -60 30z"/>
<path d="M3825 2265 c-32 -123 -92 -188 -192 -210 l-33 -7 0 -115 c0 -101 2
-114 16 -109 9 3 29 6 45 6 17 0 28 4 25 9 -4 5 2 7 13 4 22 -6 123 36 115 48
-3 5 1 6 9 3 8 -3 40 21 78 56 35 34 57 59 49 55 -8 -4 -5 2 6 12 28 24 57 81
48 95 -4 7 -3 8 4 4 12 -7 26 35 38 111 l6 42 -112 3 c-69 2 -114 -1 -115 -7z"/>
<path d="M3140 2241 c0 -16 5 -42 11 -58 6 -15 13 -39 15 -51 6 -28 33 -74 51
-85 8 -5 11 -13 7 -18 -7 -13 41 -62 86 -86 19 -11 35 -26 35 -34 0 -8 8 -13
18 -11 9 2 16 -2 15 -8 -4 -16 81 -48 117 -44 23 2 26 1 15 -7 -11 -8 -5 -9
22 -7 21 2 40 -1 42 -7 2 -5 5 43 5 107 l1 117 -38 11 c-81 21 -142 84 -165
168 l-11 42 -113 0 -113 0 0 -29z"/>
<path d="M3399 2242 c13 -43 37 -85 63 -109 23 -21 87 -53 108 -53 6 0 10 27
10 64 0 56 -3 66 -20 71 -11 3 -28 17 -39 31 -16 20 -27 24 -74 24 l-56 0 8
-28z"/>
<path d="M6010 2256 c0 -2 14 -14 30 -26 17 -12 30 -19 30 -16 0 2 -13 14 -30
26 -16 12 -30 19 -30 16z"/>
<path d="M6050 2256 c0 -2 8 -10 18 -17 15 -13 16 -12 3 4 -13 16 -21 21 -21
13z"/>
<path d="M6090 2256 c0 -2 8 -10 18 -17 15 -13 16 -12 3 4 -13 16 -21 21 -21
13z"/>
<path d="M1079 2209 l-24 -20 28 17 c15 9 27 18 27 20 0 8 -8 4 -31 -17z"/>
<path d="M5970 2226 c0 -2 14 -14 30 -26 17 -12 30 -19 30 -16 0 2 -13 14 -30
26 -16 12 -30 19 -30 16z"/>
<path d="M6020 2216 c0 -2 8 -10 18 -17 15 -13 16 -12 3 4 -13 16 -21 21 -21
13z"/>
<path d="M1140 2159 c-22 -18 -22 -19 -3 -10 12 6 25 16 28 21 9 15 3 12 -25
-11z"/>
<path d="M6040 2176 c0 -2 8 -10 18 -17 15 -13 16 -12 3 4 -13 16 -21 21 -21
13z"/>
<path d="M6190 2156 c0 -2 8 -10 18 -17 15 -13 16 -12 3 4 -13 16 -21 21 -21
13z"/>
<path d="M6230 2156 c0 -2 8 -10 18 -17 15 -13 16 -12 3 4 -13 16 -21 21 -21
13z"/>
<path d="M925 2104 l-30 -26 33 22 c17 12 32 23 32 26 0 7 -4 5 -35 -22z"/>
<path d="M6190 2126 c0 -2 8 -10 18 -17 15 -13 16 -12 3 4 -13 16 -21 21 -21
13z"/>
<path d="M6230 2126 c0 -2 8 -10 18 -17 15 -13 16 -12 3 4 -13 16 -21 21 -21
13z"/>
<path d="M953 2099 c-35 -22 -46 -37 -15 -20 22 13 58 40 52 41 -3 0 -20 -10
-37 -21z"/>
<path d="M994 2094 c-18 -14 -18 -15 4 -4 12 6 22 13 22 15 0 8 -5 6 -26 -11z"/>
<path d="M1044 2094 c-18 -14 -18 -15 4 -4 12 6 22 13 22 15 0 8 -5 6 -26 -11z"/>
<path d="M6330 2056 c0 -3 9 -10 20 -16 11 -6 20 -8 20 -6 0 3 -9 10 -20 16
-11 6 -20 8 -20 6z"/>
<path d="M6370 2056 c0 -3 9 -10 20 -16 11 -6 20 -8 20 -6 0 3 -9 10 -20 16
-11 6 -20 8 -20 6z"/>
<path d="M6122 1938 c3 -7 22 -14 44 -15 21 0 29 1 17 4 -13 2 -23 9 -23 14 0
5 -9 9 -21 9 -12 0 -19 -5 -17 -12z"/>
<path d="M996 1925 c-3 -9 0 -15 8 -15 7 0 19 7 26 15 10 12 9 15 -8 15 -11 0
-22 -7 -26 -15z"/>
<path d="M3315 1920 c3 -5 11 -10 16 -10 6 0 7 5 4 10 -3 6 -11 10 -16 10 -6
0 -7 -4 -4 -10z"/>
<path d="M958 1903 c7 -3 16 -2 19 1 4 3 -2 6 -13 5 -11 0 -14 -3 -6 -6z"/>
<path d="M6188 1863 c6 -2 18 -2 25 0 6 3 1 5 -13 5 -14 0 -19 -2 -12 -5z"/>
<path d="M818 1853 c7 -3 16 -2 19 1 4 3 -2 6 -13 5 -11 0 -14 -3 -6 -6z"/>
<path d="M793 1823 c9 -2 25 -2 35 0 9 3 1 5 -18 5 -19 0 -27 -2 -17 -5z"/>
<path d="M6243 1823 c9 -2 25 -2 35 0 9 3 1 5 -18 5 -19 0 -27 -2 -17 -5z"/>
<path d="M938 1813 c12 -2 32 -2 45 0 12 2 2 4 -23 4 -25 0 -35 -2 -22 -4z"/>
<path d="M1093 1803 c9 -2 25 -2 35 0 9 3 1 5 -18 5 -19 0 -27 -2 -17 -5z"/>
<path d="M898 1793 c6 -2 18 -2 25 0 6 3 1 5 -13 5 -14 0 -19 -2 -12 -5z"/>
<path d="M5918 1793 c7 -3 16 -2 19 1 4 3 -2 6 -13 5 -11 0 -14 -3 -6 -6z"/>
<path d="M1063 1783 c9 -2 23 -2 30 0 6 3 -1 5 -18 5 -16 0 -22 -2 -12 -5z"/>
<path d="M1248 1783 c7 -3 16 -2 19 1 4 3 -2 6 -13 5 -11 0 -14 -3 -6 -6z"/>
<path d="M1288 1773 c7 -3 16 -2 19 1 4 3 -2 6 -13 5 -11 0 -14 -3 -6 -6z"/>
<path d="M6028 1773 c7 -3 16 -2 19 1 4 3 -2 6 -13 5 -11 0 -14 -3 -6 -6z"/>
<path d="M6418 1763 c7 -3 16 -2 19 1 4 3 -2 6 -13 5 -11 0 -14 -3 -6 -6z"/>
<path d="M5938 1753 c7 -3 16 -2 19 1 4 3 -2 6 -13 5 -11 0 -14 -3 -6 -6z"/>
<path d="M5898 1743 c7 -3 16 -2 19 1 4 3 -2 6 -13 5 -11 0 -14 -3 -6 -6z"/>
<path d="M1495 1680 c27 -12 43 -12 25 0 -8 5 -22 9 -30 9 -10 0 -8 -3 5 -9z"/>
<path d="M1580 1680 c0 -5 9 -10 21 -10 11 0 17 5 14 10 -3 6 -13 10 -21 10
-8 0 -14 -4 -14 -10z"/>
<path d="M5680 1680 c-18 -12 -2 -12 25 0 13 6 15 9 5 9 -8 0 -22 -4 -30 -9z"/>
<path d="M5470 1660 c-8 -5 -10 -10 -5 -10 6 0 17 5 25 10 8 5 11 10 5 10 -5
0 -17 -5 -25 -10z"/>
<path d="M5720 1640 c-8 -5 -10 -10 -5 -10 6 0 17 5 25 10 8 5 11 10 5 10 -5
0 -17 -5 -25 -10z"/>
<path d="M5510 1620 c-8 -5 -10 -10 -5 -10 6 0 17 5 25 10 8 5 11 10 5 10 -5
0 -17 -5 -25 -10z"/>
<path d="M5490 1580 c-8 -5 -10 -10 -5 -10 6 0 17 5 25 10 8 5 11 10 5 10 -5
0 -17 -5 -25 -10z"/>
<path d="M5230 1570 c-8 -5 -10 -10 -5 -10 6 0 17 5 25 10 8 5 11 10 5 10 -5
0 -17 -5 -25 -10z"/>
<path d="M5350 1560 c-8 -5 -10 -10 -5 -10 6 0 17 5 25 10 8 5 11 10 5 10 -5
0 -17 -5 -25 -10z"/>
<path d="M5500 1560 c-8 -5 -10 -10 -5 -10 6 0 17 5 25 10 8 5 11 10 5 10 -5
0 -17 -5 -25 -10z"/>
<path d="M1870 1550 c8 -5 20 -10 25 -10 6 0 3 5 -5 10 -8 5 -19 10 -25 10 -5
0 -3 -5 5 -10z"/>
<path d="M1830 1540 c8 -5 20 -10 25 -10 6 0 3 5 -5 10 -8 5 -19 10 -25 10 -5
0 -3 -5 5 -10z"/>
<path d="M5360 1530 c-8 -5 -10 -10 -5 -10 6 0 17 5 25 10 8 5 11 10 5 10 -5
0 -17 -5 -25 -10z"/>
<path d="M2060 1510 c8 -5 20 -10 25 -10 6 0 3 5 -5 10 -8 5 -19 10 -25 10 -5
0 -3 -5 5 -10z"/>
<path d="M5170 1490 c-8 -5 -10 -10 -5 -10 6 0 17 5 25 10 8 5 11 10 5 10 -5
0 -17 -5 -25 -10z"/>
<path d="M1990 1480 c8 -5 20 -10 25 -10 6 0 3 5 -5 10 -8 5 -19 10 -25 10 -5
0 -3 -5 5 -10z"/>
<path d="M2060 1480 c8 -5 20 -10 25 -10 6 0 3 5 -5 10 -8 5 -19 10 -25 10 -5
0 -3 -5 5 -10z"/>
<path d="M5120 1470 c-8 -5 -10 -10 -5 -10 6 0 17 5 25 10 8 5 11 10 5 10 -5
0 -17 -5 -25 -10z"/>
<path d="M2190 1460 c8 -5 20 -10 25 -10 6 0 3 5 -5 10 -8 5 -19 10 -25 10 -5
0 -3 -5 5 -10z"/>
<path d="M4950 1460 c-8 -5 -10 -10 -5 -10 6 0 17 5 25 10 8 5 11 10 5 10 -5
0 -17 -5 -25 -10z"/>
<path d="M5180 1460 c-8 -5 -10 -10 -5 -10 6 0 17 5 25 10 8 5 11 10 5 10 -5
0 -17 -5 -25 -10z"/>
<path d="M1940 1450 c8 -5 20 -10 25 -10 6 0 3 5 -5 10 -8 5 -19 10 -25 10 -5
0 -3 -5 5 -10z"/>
<path d="M2000 1450 c8 -5 20 -10 25 -10 6 0 3 5 -5 10 -8 5 -19 10 -25 10 -5
0 -3 -5 5 -10z"/>
<path d="M5220 1450 c-8 -5 -10 -10 -5 -10 6 0 17 5 25 10 8 5 11 10 5 10 -5
0 -17 -5 -25 -10z"/>
<path d="M4900 1440 c-8 -5 -10 -10 -5 -10 6 0 17 5 25 10 8 5 11 10 5 10 -5
0 -17 -5 -25 -10z"/>
<path d="M5130 1440 c-8 -5 -10 -10 -5 -10 6 0 17 5 25 10 8 5 11 10 5 10 -5
0 -17 -5 -25 -10z"/>
<path d="M2190 1430 c8 -5 20 -10 25 -10 6 0 3 5 -5 10 -8 5 -19 10 -25 10 -5
0 -3 -5 5 -10z"/>
<path d="M2270 1430 c8 -5 20 -10 25 -10 6 0 3 5 -5 10 -8 5 -19 10 -25 10 -5
0 -3 -5 5 -10z"/>
<path d="M4910 1420 c-8 -5 -10 -10 -5 -10 6 0 17 5 25 10 8 5 11 10 5 10 -5
0 -17 -5 -25 -10z"/>
<path d="M2280 1396 c23 -14 21 -21 -5 -16 -5 1 -4 -4 3 -12 10 -10 16 -10 33
0 11 7 25 10 31 6 7 -4 8 -3 4 4 -5 8 1 12 16 12 21 1 22 1 4 11 -14 9 -20 8
-26 -1 -8 -12 -18 -11 -65 5 -13 4 -12 1 5 -9z"/>
<path d="M4940 1400 c-8 -5 -10 -10 -5 -10 6 0 17 5 25 10 8 5 11 10 5 10 -5
0 -17 -5 -25 -10z"/>
<path d="M5000 1390 c-8 -5 -10 -10 -5 -10 6 0 17 5 25 10 8 5 11 10 5 10 -5
0 -17 -5 -25 -10z"/>
<path d="M2180 1380 c8 -5 20 -10 25 -10 6 0 3 5 -5 10 -8 5 -19 10 -25 10 -5
0 -3 -5 5 -10z"/>
<path d="M2400 1380 c8 -5 20 -10 25 -10 6 0 3 5 -5 10 -8 5 -19 10 -25 10 -5
0 -3 -5 5 -10z"/>
<path d="M4780 1370 c-8 -5 -10 -10 -5 -10 6 0 17 5 25 10 8 5 11 10 5 10 -5
0 -17 -5 -25 -10z"/>
<path d="M5020 1370 c-8 -5 -10 -10 -5 -10 6 0 17 5 25 10 8 5 11 10 5 10 -5
0 -17 -5 -25 -10z"/>
<path d="M2450 1360 c8 -5 20 -10 25 -10 6 0 3 5 -5 10 -8 5 -19 10 -25 10 -5
0 -3 -5 5 -10z"/>
<path d="M2400 1350 c8 -5 20 -10 25 -10 6 0 3 5 -5 10 -8 5 -19 10 -25 10 -5
0 -3 -5 5 -10z"/>
<path d="M4810 1350 c-8 -5 -10 -10 -5 -10 6 0 17 5 25 10 8 5 11 10 5 10 -5
0 -17 -5 -25 -10z"/>
<path d="M4625 1335 c-22 -11 -24 -13 -6 -9 16 4 21 3 17 -5 -4 -7 1 -11 13
-11 11 0 23 5 26 10 3 6 -2 10 -12 10 -15 0 -16 2 -3 10 23 15 -1 11 -35 -5z"/>
<path d="M4700 1340 c-8 -5 -10 -10 -5 -10 6 0 17 5 25 10 8 5 11 10 5 10 -5
0 -17 -5 -25 -10z"/>
<path d="M2520 1331 c0 -5 -16 -13 -36 -17 -25 -5 -32 -10 -25 -17 7 -7 18 -7
35 2 13 8 30 10 37 6 8 -6 10 -4 4 5 -6 10 -1 12 26 7 21 -4 28 -3 19 2 -28
16 -60 23 -60 12z"/>
<path d="M2410 1320 c8 -5 20 -10 25 -10 6 0 3 5 -5 10 -8 5 -19 10 -25 10 -5
0 -3 -5 5 -10z"/>
<path d="M4725 1320 c-13 -6 -15 -9 -5 -9 8 0 22 4 30 9 18 12 2 12 -25 0z"/>
<path d="M4805 1315 c-25 -12 -26 -14 -5 -9 28 7 60 23 45 23 -5 0 -23 -6 -40
-14z"/>
<path d="M2360 1310 c8 -5 20 -10 25 -10 6 0 3 5 -5 10 -8 5 -19 10 -25 10 -5
0 -3 -5 5 -10z"/>
<path d="M2320 1300 c8 -5 20 -10 25 -10 6 0 3 5 -5 10 -8 5 -19 10 -25 10 -5
0 -3 -5 5 -10z"/>
<path d="M4590 1300 c-8 -5 -10 -10 -5 -10 6 0 17 5 25 10 8 5 11 10 5 10 -5
0 -17 -5 -25 -10z"/>
<path d="M4665 1300 c-3 -5 3 -10 14 -10 10 0 21 -5 23 -12 3 -8 11 -9 24 -3
18 8 18 9 -3 12 -13 3 -23 9 -23 14 0 12 -27 12 -35 -1z"/>
<path d="M2640 1292 c8 -5 26 -13 40 -16 17 -5 20 -4 10 2 -8 5 -26 13 -40 16
-17 5 -20 4 -10 -2z"/>
<path d="M4605 1275 c-25 -12 -26 -14 -5 -9 28 7 60 23 45 23 -5 0 -23 -6 -40
-14z"/>
<path d="M2620 1272 c8 -5 26 -13 40 -16 17 -5 20 -4 10 2 -8 5 -26 13 -40 16
-17 5 -20 4 -10 -2z"/>
<path d="M2485 1260 c27 -12 43 -12 25 0 -8 5 -22 9 -30 9 -10 0 -8 -3 5 -9z"/>
<path d="M2570 1262 c8 -5 26 -13 40 -16 17 -5 20 -4 10 2 -8 5 -26 13 -40 16
-17 5 -20 4 -10 -2z"/>
<path d="M2540 1240 c8 -5 20 -10 25 -10 6 0 3 5 -5 10 -8 5 -19 10 -25 10 -5
0 -3 -5 5 -10z"/>
<path d="M4665 1235 c-25 -12 -26 -14 -5 -9 28 7 60 23 45 23 -5 0 -23 -6 -40
-14z"/>
<path d="M2500 1230 c8 -5 20 -10 25 -10 6 0 3 5 -5 10 -8 5 -19 10 -25 10 -5
0 -3 -5 5 -10z"/>
<path d="M4375 1230 c-13 -5 -14 -9 -5 -9 8 0 24 4 35 9 13 5 14 9 5 9 -8 0
-24 -4 -35 -9z"/>
<path d="M4435 1220 c-27 -10 -43 -18 -35 -18 8 0 38 8 65 18 28 10 43 18 35
18 -8 0 -37 -8 -65 -18z"/>
<path d="M2765 1220 c11 -5 27 -9 35 -9 9 0 8 4 -5 9 -11 5 -27 9 -35 9 -9 0
-8 -4 5 -9z"/>
<path d="M4288 1223 c7 -3 16 -2 19 1 4 3 -2 6 -13 5 -11 0 -14 -3 -6 -6z"/>
<path d="M2580 1200 c8 -5 20 -10 25 -10 6 0 3 5 -5 10 -8 5 -19 10 -25 10 -5
0 -3 -5 5 -10z"/>
<path d="M2641 1206 c8 -8 149 -56 163 -55 6 0 -19 11 -56 24 -92 32 -114 38
-107 31z"/>
<path d="M2908 1203 c7 -3 16 -2 19 1 4 3 -2 6 -13 5 -11 0 -14 -3 -6 -6z"/>
<path d="M4275 1200 c-13 -5 -14 -9 -5 -9 8 0 24 4 35 9 13 5 14 9 5 9 -8 0
-24 -4 -35 -9z"/>
<path d="M2775 1190 c11 -5 27 -9 35 -9 9 0 8 4 -5 9 -11 5 -27 9 -35 9 -9 0
-8 -4 5 -9z"/>
<path d="M2948 1193 c7 -3 16 -2 19 1 4 3 -2 6 -13 5 -11 0 -14 -3 -6 -6z"/>
<path d="M4178 1193 c7 -3 16 -2 19 1 4 3 -2 6 -13 5 -11 0 -14 -3 -6 -6z"/>
<path d="M4435 1190 c-13 -5 -14 -9 -5 -9 8 0 24 4 35 9 13 5 14 9 5 9 -8 0
-24 -4 -35 -9z"/>
<path d="M2888 1183 c7 -3 16 -2 19 1 4 3 -2 6 -13 5 -11 0 -14 -3 -6 -6z"/>
<path d="M2988 1183 c7 -3 16 -2 19 1 4 3 -2 6 -13 5 -11 0 -14 -3 -6 -6z"/>
<path d="M4138 1183 c7 -3 16 -2 19 1 4 3 -2 6 -13 5 -11 0 -14 -3 -6 -6z"/>
<path d="M4228 1183 c7 -3 16 -2 19 1 4 3 -2 6 -13 5 -11 0 -14 -3 -6 -6z"/>
<path d="M4328 1183 c7 -3 16 -2 19 1 4 3 -2 6 -13 5 -11 0 -14 -3 -6 -6z"/>
<path d="M2928 1173 c7 -3 16 -2 19 1 4 3 -2 6 -13 5 -11 0 -14 -3 -6 -6z"/>
<path d="M3028 1173 c7 -3 16 -2 19 1 4 3 -2 6 -13 5 -11 0 -14 -3 -6 -6z"/>
<path d="M4098 1173 c7 -3 16 -2 19 1 4 3 -2 6 -13 5 -11 0 -14 -3 -6 -6z"/>
<path d="M4188 1173 c7 -3 16 -2 19 1 4 3 -2 6 -13 5 -11 0 -14 -3 -6 -6z"/>
<path d="M2706 1155 c17 -7 44 -16 60 -20 25 -4 24 -3 -6 8 -19 8 -46 17 -60
20 -19 5 -17 3 6 -8z"/>
<path d="M2968 1163 c7 -3 16 -2 19 1 4 3 -2 6 -13 5 -11 0 -14 -3 -6 -6z"/>
<path d="M3068 1163 c6 -2 18 -2 25 0 6 3 1 5 -13 5 -14 0 -19 -2 -12 -5z"/>
<path d="M4048 1163 c7 -3 16 -2 19 1 4 3 -2 6 -13 5 -11 0 -14 -3 -6 -6z"/>
<path d="M4148 1163 c7 -3 16 -2 19 1 4 3 -2 6 -13 5 -11 0 -14 -3 -6 -6z"/>
<path d="M4258 1163 c7 -3 16 -2 19 1 4 3 -2 6 -13 5 -11 0 -14 -3 -6 -6z"/>
<path d="M4335 1160 c-13 -5 -14 -9 -5 -9 8 0 24 4 35 9 13 5 14 9 5 9 -8 0
-24 -4 -35 -9z"/>
<path d="M3008 1153 c7 -3 16 -2 19 1 4 3 -2 6 -13 5 -11 0 -14 -3 -6 -6z"/>
<path d="M3128 1153 c7 -3 16 -2 19 1 4 3 -2 6 -13 5 -11 0 -14 -3 -6 -6z"/>
<path d="M3998 1153 c7 -3 16 -2 19 1 4 3 -2 6 -13 5 -11 0 -14 -3 -6 -6z"/>
<path d="M4108 1153 c7 -3 16 -2 19 1 4 3 -2 6 -13 5 -11 0 -14 -3 -6 -6z"/>
<path d="M4218 1153 c7 -3 16 -2 19 1 4 3 -2 6 -13 5 -11 0 -14 -3 -6 -6z"/>
<path d="M2938 1143 c7 -3 16 -2 19 1 4 3 -2 6 -13 5 -11 0 -14 -3 -6 -6z"/>
<path d="M3058 1143 c7 -3 16 -2 19 1 4 3 -2 6 -13 5 -11 0 -14 -3 -6 -6z"/>
<path d="M3178 1143 c6 -2 18 -2 25 0 6 3 1 5 -13 5 -14 0 -19 -2 -12 -5z"/>
<path d="M3938 1143 c6 -2 18 -2 25 0 6 3 1 5 -13 5 -14 0 -19 -2 -12 -5z"/>
<path d="M4058 1143 c6 -2 18 -2 25 0 6 3 1 5 -13 5 -14 0 -19 -2 -12 -5z"/>
<path d="M4178 1143 c7 -3 16 -2 19 1 4 3 -2 6 -13 5 -11 0 -14 -3 -6 -6z"/>
<path d="M2865 1130 c11 -5 27 -9 35 -9 9 0 8 4 -5 9 -11 5 -27 9 -35 9 -9 0
-8 -4 5 -9z"/>
<path d="M2978 1133 c7 -3 16 -2 19 1 4 3 -2 6 -13 5 -11 0 -14 -3 -6 -6z"/>
<path d="M3098 1133 c6 -2 18 -2 25 0 6 3 1 5 -13 5 -14 0 -19 -2 -12 -5z"/>
<path d="M3243 1133 c9 -2 23 -2 30 0 6 3 -1 5 -18 5 -16 0 -22 -2 -12 -5z"/>
<path d="M3878 1133 c6 -2 18 -2 25 0 6 3 1 5 -13 5 -14 0 -19 -2 -12 -5z"/>
<path d="M4008 1133 c6 -2 18 -2 25 0 6 3 1 5 -13 5 -14 0 -19 -2 -12 -5z"/>
<path d="M4138 1133 c7 -3 16 -2 19 1 4 3 -2 6 -13 5 -11 0 -14 -3 -6 -6z"/>
<path d="M4248 1133 c7 -3 16 -2 19 1 4 3 -2 6 -13 5 -11 0 -14 -3 -6 -6z"/>
<path d="M4368 1133 c7 -3 16 -2 19 1 4 3 -2 6 -13 5 -11 0 -14 -3 -6 -6z"/>
<path d="M3028 1123 c7 -3 16 -2 19 1 4 3 -2 6 -13 5 -11 0 -14 -3 -6 -6z"/>
<path d="M3158 1123 c6 -2 18 -2 25 0 6 3 1 5 -13 5 -14 0 -19 -2 -12 -5z"/>
<path d="M3328 1123 c12 -2 30 -2 40 0 9 3 -1 5 -23 4 -22 0 -30 -2 -17 -4z"/>
<path d="M3793 1123 c9 -2 23 -2 30 0 6 3 -1 5 -18 5 -16 0 -22 -2 -12 -5z"/>
<path d="M3948 1123 c6 -2 18 -2 25 0 6 3 1 5 -13 5 -14 0 -19 -2 -12 -5z"/>
<path d="M4088 1123 c6 -2 18 -2 25 0 6 3 1 5 -13 5 -14 0 -19 -2 -12 -5z"/>
<path d="M4180 1120 c-20 -6 -21 -8 -5 -8 11 0 29 3 40 8 25 11 -1 11 -35 0z"/>
<path d="M2928 1113 c7 -3 16 -2 19 1 4 3 -2 6 -13 5 -11 0 -14 -3 -6 -6z"/>
<path d="M3068 1113 c6 -2 18 -2 25 0 6 3 1 5 -13 5 -14 0 -19 -2 -12 -5z"/>
<path d="M3223 1113 c9 -2 23 -2 30 0 6 3 -1 5 -18 5 -16 0 -22 -2 -12 -5z"/>
<path d="M3513 1113 c43 -2 110 -2 150 0 40 1 5 3 -78 3 -82 0 -115 -2 -72 -3z"/>
<path d="M3888 1113 c6 -2 18 -2 25 0 6 3 1 5 -13 5 -14 0 -19 -2 -12 -5z"/>
<path d="M4048 1113 c7 -3 16 -2 19 1 4 3 -2 6 -13 5 -11 0 -14 -3 -6 -6z"/>
<path d="M4298 1113 c7 -3 16 -2 19 1 4 3 -2 6 -13 5 -11 0 -14 -3 -6 -6z"/>
<path d="M2868 1103 c7 -3 16 -2 19 1 4 3 -2 6 -13 5 -11 0 -14 -3 -6 -6z"/>
<path d="M2968 1103 c7 -3 16 -2 19 1 4 3 -2 6 -13 5 -11 0 -14 -3 -6 -6z"/>
<path d="M3118 1103 c6 -2 18 -2 25 0 6 3 1 5 -13 5 -14 0 -19 -2 -12 -5z"/>
<path d="M3303 1103 c9 -2 25 -2 35 0 9 3 1 5 -18 5 -19 0 -27 -2 -17 -5z"/>
<path d="M3813 1103 c9 -2 25 -2 35 0 9 3 1 5 -18 5 -19 0 -27 -2 -17 -5z"/>
<path d="M3988 1103 c6 -2 18 -2 25 0 6 3 1 5 -13 5 -14 0 -19 -2 -12 -5z"/>
<path d="M4128 1103 c7 -3 16 -2 19 1 4 3 -2 6 -13 5 -11 0 -14 -3 -6 -6z"/>
<path d="M3008 1093 c7 -3 16 -2 19 1 4 3 -2 6 -13 5 -11 0 -14 -3 -6 -6z"/>
<path d="M3183 1093 c9 -2 23 -2 30 0 6 3 -1 5 -18 5 -16 0 -22 -2 -12 -5z"/>
<path d="M3428 1093 c23 -2 59 -2 80 0 20 2 1 4 -43 4 -44 0 -61 -2 -37 -4z"/>
<path d="M3678 1093 c18 -2 45 -2 60 0 15 2 0 4 -33 4 -33 0 -45 -2 -27 -4z"/>
<path d="M3933 1093 c9 -2 23 -2 30 0 6 3 -1 5 -18 5 -16 0 -22 -2 -12 -5z"/>
<path d="M4088 1093 c7 -3 16 -2 19 1 4 3 -2 6 -13 5 -11 0 -14 -3 -6 -6z"/>
<path d="M3058 1083 c7 -3 16 -2 19 1 4 3 -2 6 -13 5 -11 0 -14 -3 -6 -6z"/>
<path d="M3253 1083 c9 -2 25 -2 35 0 9 3 1 5 -18 5 -19 0 -27 -2 -17 -5z"/>
<path d="M3853 1083 c9 -2 25 -2 35 0 9 3 1 5 -18 5 -19 0 -27 -2 -17 -5z"/>
<path d="M4028 1083 c6 -2 18 -2 25 0 6 3 1 5 -13 5 -14 0 -19 -2 -12 -5z"/>
<path d="M2978 1073 c7 -3 16 -2 19 1 4 3 -2 6 -13 5 -11 0 -14 -3 -6 -6z"/>
<path d="M3108 1073 c6 -2 18 -2 25 0 6 3 1 5 -13 5 -14 0 -19 -2 -12 -5z"/>
<path d="M3343 1073 c15 -2 39 -2 55 0 15 2 2 4 -28 4 -30 0 -43 -2 -27 -4z"/>
<path d="M3758 1073 c12 -2 32 -2 45 0 12 2 2 4 -23 4 -25 0 -35 -2 -22 -4z"/>
<path d="M3978 1073 c6 -2 18 -2 25 0 6 3 1 5 -13 5 -14 0 -19 -2 -12 -5z"/>
<path d="M4138 1073 c7 -3 16 -2 19 1 4 3 -2 6 -13 5 -11 0 -14 -3 -6 -6z"/>
<path d="M3028 1063 c7 -3 16 -2 19 1 4 3 -2 6 -13 5 -11 0 -14 -3 -6 -6z"/>
<path d="M3163 1063 c9 -2 23 -2 30 0 6 3 -1 5 -18 5 -16 0 -22 -2 -12 -5z"/>
<path d="M3533 1063 c31 -2 83 -2 115 0 31 2 5 3 -58 3 -63 0 -89 -1 -57 -3z"/>
<path d="M3923 1063 c9 -2 23 -2 30 0 6 3 -1 5 -18 5 -16 0 -22 -2 -12 -5z"/>
<path d="M4098 1063 c7 -3 16 -2 19 1 4 3 -2 6 -13 5 -11 0 -14 -3 -6 -6z"/>
<path d="M3068 1053 c7 -3 16 -2 19 1 4 3 -2 6 -13 5 -11 0 -14 -3 -6 -6z"/>
<path d="M3233 1053 c9 -2 25 -2 35 0 9 3 1 5 -18 5 -19 0 -27 -2 -17 -5z"/>
<path d="M3843 1053 c9 -2 23 -2 30 0 6 3 -1 5 -18 5 -16 0 -22 -2 -12 -5z"/>
<path d="M4048 1053 c6 -2 18 -2 25 0 6 3 1 5 -13 5 -14 0 -19 -2 -12 -5z"/>
<path d="M3118 1043 c6 -2 18 -2 25 0 6 3 1 5 -13 5 -14 0 -19 -2 -12 -5z"/>
<path d="M3328 1043 c12 -2 32 -2 45 0 12 2 2 4 -23 4 -25 0 -35 -2 -22 -4z"/>
<path d="M3743 1043 c15 -2 37 -2 50 0 12 2 0 4 -28 4 -27 0 -38 -2 -22 -4z"/>
<path d="M3988 1043 c6 -2 18 -2 25 0 6 3 1 5 -13 5 -14 0 -19 -2 -12 -5z"/>
<path d="M3173 1033 c9 -2 25 -2 35 0 9 3 1 5 -18 5 -19 0 -27 -2 -17 -5z"/>
<path d="M3498 1033 c34 -2 90 -2 125 0 34 2 6 3 -63 3 -69 0 -97 -1 -62 -3z"/>
<path d="M3933 1033 c9 -2 23 -2 30 0 6 3 -1 5 -18 5 -16 0 -22 -2 -12 -5z"/>
<path d="M3253 1023 c9 -2 23 -2 30 0 6 3 -1 5 -18 5 -16 0 -22 -2 -12 -5z"/>
<path d="M3863 1023 c9 -2 23 -2 30 0 6 3 -1 5 -18 5 -16 0 -22 -2 -12 -5z"/>
<path d="M3343 1013 c15 -2 39 -2 55 0 15 2 2 4 -28 4 -30 0 -43 -2 -27 -4z"/>
<path d="M3768 1013 c12 -2 30 -2 40 0 9 3 -1 5 -23 4 -22 0 -30 -2 -17 -4z"/>
<path d="M3523 1003 c37 -2 96 -2 130 0 34 2 4 3 -68 3 -71 0 -99 -1 -62 -3z"/>
<path d="M6560 1926 c0 -2 8 -10 18 -17 15 -13 16 -12 3 4 -13 16 -21 21 -21
13z"/>
<path d="M550 1915 c-7 -9 -11 -17 -9 -20 3 -2 10 5 17 15 14 24 10 26 -8 5z"/>
<path d="M584 1908 l-19 -23 23 19 c21 18 27 26 19 26 -2 0 -12 -10 -23 -22z"/>
<path d="M4345 640 c-11 -4 -32 -21 -47 -36 -114 -121 -48 -334 103 -334 126
0 201 157 138 287 -37 76 -123 113 -194 83z m103 -66 c92 -64 53 -244 -53
-244 -26 0 -75 52 -86 91 -31 102 63 206 139 153z"/>
<path d="M3180 555 l0 -85 79 0 c64 0 83 4 105 21 26 21 35 65 20 104 -11 28
-60 45 -134 45 l-70 0 0 -85z m147 9 c7 -20 -13 -34 -49 -34 -23 0 -28 4 -28
25 0 22 4 25 35 25 23 0 38 -6 42 -16z"/>
<path d="M2706 569 c-8 -19 -24 -56 -35 -82 -12 -27 -21 -51 -21 -53 0 -2 32
-4 70 -4 39 0 70 2 70 5 0 7 -61 159 -66 164 -2 2 -10 -11 -18 -30z"/>
<path d="M4860 564 l0 -77 73 5 c102 7 150 42 132 98 -10 33 -57 50 -135 50
l-70 0 0 -76z m130 6 c0 -5 -6 -10 -14 -10 -8 0 -21 -3 -30 -6 -11 -4 -16 -1
-16 10 0 11 9 16 30 16 17 0 30 -4 30 -10z"/>
<path d="M3785 350 c-35 -14 -66 -57 -72 -97 -14 -102 94 -174 191 -128 85 40
89 177 6 220 -31 16 -93 19 -125 5z m105 -70 c42 -42 16 -104 -43 -104 -46 0
-67 19 -67 60 0 57 69 85 110 44z"/>
</g>
</svg>
