<svg viewBox="0 0 1024 1024" xmlns="http://www.w3.org/2000/svg" fill="currentColor" height="1em" width="1em">
    <path d="M448.495616 243.60823467l-151.08232533-76.26205867-165.80608 82.75012267 155.16740266 77.922304 161.72100267-84.410368zM517.74532267 278.560768l158.400512 79.95392-164.34244267 82.53166933-155.40770133-78.053376 161.349632-84.43221333zM729.29553067 168.50397867l162.725888 81.59232-145.53361067 73.09448533-158.728192-80.06314667 141.53591467-74.62365866zM659.259392 133.35483733l-146.49480533-73.44401066-144.92194134 72.30805333 150.95125334 76.13098667 140.46549333-74.99502934zM544.72430933 764.182528v199.90664533l177.471488-88.56098133-0.196608-199.99402667-177.27488 88.64836267zM721.93365333 605.73832533l-0.196608-197.89687466-177.012736 87.99300266v197.96241067l177.209344-88.05853867zM934.99118933 568.64494933v200.69307734l-151.36631466 75.54116266-0.10922667-199.77557333 151.47554133-76.45866667zM934.99118933 498.47773867v-196.65169067l-151.650304 75.38824533 0.131072 198.29009067 151.519232-77.02664533z"
         ></path>
    <path d="M482.07189333 495.83445333l-119.537664-60.096512V695.5008s-146.18897067-311.05570133-159.73307733-338.99588267c-1.74762667-3.60448-8.93474133-7.55848533-10.76974933-8.51968-26.2144-13.76256-103.022592-52.66909867-103.022592-52.66909866v458.92676266l106.25570133 56.79786667V571.15716267s144.637952 277.938176 146.10158933 280.97467733 15.990784 32.33109333 31.50097067 42.62024533c20.66568533 13.67517867 109.22666667 66.93410133 109.22666667 66.93410134z"
         ></path>
</svg>
