<svg viewBox="0 0 1024 1024" version="1.1" xmlns="http://www.w3.org/2000/svg"
    fill="currentColor" height="1em" width="1em">
  <path d="M 825.807 790.956 C 853.291 749.618 879.725 707.591 905.083 664.916 C 912.07 652.764 911.025 637.595 902.438 626.516 C 880.421 597.289 838.266 537.981 815.311 483.068 C 791.716 426.705 788.174 339.066 788.004 296.313 C 788.042 280.096 782.666 264.329 772.729 251.513 L 636.279 78.113 C 635.765 85.904 634.682 93.648 633.036 101.281 C 628.513 122.743 619.937 144.119 610.166 165.282 C 604.449 177.655 597.793 190.882 591.137 204.28 L 577.91 230.99 C 555.893 276.558 535.37 326.01 529.61 384.165 C 524.32 437.926 531.573 500.647 564.384 575.358 C 569.846 575.827 575.35 576.424 580.854 577.235 C 633.414 584.319 682.749 606.643 722.765 641.449 C 761.849 675.157 797.177 723.456 825.807 790.785 L 825.807 790.956 Z M 349.81 962.948 C 352.925 963.46 356.04 963.801 359.197 963.801 C 392.478 964.825 448.585 967.727 494.026 976.175 C 531.146 983.001 604.662 1003.48 665.122 1021.19 C 711.331 1034.67 758.905 997.807 765.603 950.19 C 770.467 915.459 779.684 876.162 796.537 840.109 L 796.111 840.322 C 767.523 760.534 731.171 708.992 693.026 676.095 C 659.63 646.982 618.41 628.331 574.496 622.462 C 508.789 613.246 448.542 630.569 410.654 641.663 C 433.353 736.299 426.355 847.703 349.853 962.99 L 349.81 962.948 Z M 236.059 424.017 C 235.078 428.283 233.67 432.422 231.878 436.39 L 120.303 685.183 C 108.843 710.741 114.135 740.704 133.657 760.79 L 309.276 941.699 C 399.006 809.388 385.907 684.842 344.946 587.561 C 313.884 513.746 266.78 456.102 236.144 424.102 L 236.059 424.017 Z M 397.64 597.758 C 423.881 589.95 466.164 577.918 514.762 574.974 C 485.62 501.373 478.58 437.03 484.212 379.685 C 490.783 313.466 514.079 258.211 536.906 211.149 C 541.728 201.122 546.421 191.778 550.901 182.818 C 557.259 170.146 563.19 158.199 568.779 146.124 C 578.038 126.071 584.95 108.364 588.406 91.937 C 591.819 75.723 591.819 61.216 587.809 47.435 C 583.755 33.568 575.136 18.634 558.795 2.207 C 536.568 -3.586 512.919 2.186 495.86 17.568 L 284.657 207.523 C 272.873 218.116 265.136 232.474 262.769 248.142 L 244.55 368.89 C 273.222 394.064 343.879 467.708 386.845 569.896 C 390.685 578.856 394.312 588.243 397.64 597.758 Z"/>
</svg>
