<svg viewBox="0 0 1024 1024" version="1.1" xmlns="http://www.w3.org/2000/svg"
    fill="currentColor" height="1em" width="1em">
  <path d="M 908.353 401.596 L 943.213 401.596 L 943.213 544.419 L 1024 544.419 L 1024 573.51 L 908.353 573.51 L 908.353 401.596 Z M 817.804 577.402 C 816.164 577.504 814.287 577.573 812.375 577.573 C 794.177 577.573 777.241 571.973 763.277 562.413 L 763.584 562.617 C 751.327 552.921 743.507 538.034 743.507 521.338 C 743.507 521.03 743.507 520.69 743.507 520.382 L 743.507 520.416 L 777.652 520.416 C 778.027 529.362 782.227 537.284 788.645 542.609 L 788.679 542.644 C 795.61 546.878 804.01 549.37 813.024 549.37 C 814.185 549.37 815.345 549.336 816.506 549.234 L 816.335 549.234 C 816.439 549.234 816.609 549.234 816.745 549.234 C 821.116 549.234 825.384 548.79 829.516 547.97 L 829.106 548.038 C 833.1 547.288 836.618 545.956 839.861 544.113 L 839.69 544.215 C 842.695 542.507 845.153 540.186 846.962 537.42 L 846.997 537.351 C 848.738 534.586 849.762 531.24 849.762 527.621 C 849.762 527.45 849.762 527.245 849.762 527.074 L 849.762 527.109 C 849.762 526.938 849.762 526.699 849.762 526.494 C 849.762 522.874 848.636 519.495 846.724 516.728 L 846.758 516.797 C 844.504 513.895 841.636 511.574 838.358 510.003 L 838.222 509.934 C 834.432 508.057 829.993 506.418 825.349 505.222 L 824.872 505.12 C 819.659 503.755 813.775 502.344 807.22 500.886 C 799.548 499.134 792.14 497.176 784.992 495.014 C 777.856 492.897 771.608 489.893 765.973 486.068 L 766.213 486.205 C 760.852 482.518 756.517 477.771 753.341 472.239 L 753.238 472.035 C 750.098 466.128 748.254 459.095 748.254 451.651 C 748.254 451.037 748.254 450.456 748.288 449.876 L 748.288 449.944 C 748.288 449.602 748.288 449.193 748.288 448.817 C 748.288 441.101 750.131 433.794 753.375 427.306 L 753.238 427.58 C 756.584 421.093 761.228 415.698 766.827 411.533 L 766.964 411.43 C 772.871 407.128 779.802 403.748 787.314 401.802 L 787.758 401.7 C 795.372 399.65 804.112 398.456 813.126 398.456 C 813.502 398.456 813.877 398.456 814.253 398.456 L 814.185 398.456 C 815.277 398.388 816.541 398.353 817.839 398.353 C 834.022 398.353 848.977 403.509 861.166 412.284 L 860.961 412.148 C 872.672 421.639 880.218 435.945 880.559 451.993 L 880.559 452.06 L 847.168 452.06 C 846.689 444.071 842.66 437.106 836.651 432.667 L 836.583 432.633 C 830.608 428.57 823.233 426.112 815.277 426.112 C 814.833 426.112 814.356 426.112 813.912 426.146 L 813.98 426.146 C 813.366 426.112 812.648 426.077 811.931 426.077 C 804.352 426.077 797.25 428.16 791.206 431.779 L 791.377 431.677 C 786.323 434.614 782.977 440.042 782.977 446.223 C 782.977 446.256 782.977 446.325 782.977 446.358 C 782.977 446.529 782.977 446.735 782.977 446.939 C 782.977 449.979 783.831 452.812 785.333 455.202 L 785.3 455.133 C 787.108 457.695 789.431 459.777 792.162 461.212 L 792.264 461.28 C 795.61 463.124 799.469 464.694 803.532 465.752 L 803.908 465.821 C 808.551 467.085 814.048 468.45 820.501 469.918 C 829.334 471.83 837.63 473.947 845.392 476.268 C 853.176 478.556 859.937 481.697 866.151 485.726 L 865.844 485.556 C 871.58 489.312 876.224 494.228 879.57 500.033 L 879.672 500.238 C 882.882 506.349 884.759 513.553 884.759 521.201 C 884.759 521.851 884.759 522.499 884.726 523.148 L 884.726 523.045 C 884.726 523.319 884.726 523.66 884.726 524.001 C 884.726 532.094 882.847 539.742 879.536 546.571 L 879.672 546.263 C 876.292 553.092 871.58 558.794 865.844 563.232 L 865.741 563.301 C 859.732 567.876 852.664 571.461 845.016 573.646 L 844.572 573.748 C 836.788 576.071 827.843 577.368 818.624 577.368 C 818.385 577.368 818.145 577.368 817.872 577.368 L 817.906 577.368 L 817.804 577.402 Z M 657.431 577.402 C 655.793 577.504 653.914 577.573 652.003 577.573 C 633.804 577.573 616.869 571.973 602.904 562.413 L 603.212 562.617 C 590.954 552.921 583.135 538.034 583.135 521.305 C 583.135 520.997 583.135 520.655 583.135 520.348 L 583.135 520.382 L 617.279 520.382 C 617.654 529.328 621.854 537.249 628.273 542.576 L 628.308 542.609 C 635.239 546.844 643.637 549.336 652.651 549.336 C 653.812 549.336 654.973 549.302 656.134 549.2 L 655.964 549.2 C 656.066 549.2 656.237 549.2 656.373 549.2 C 660.743 549.2 665.012 548.755 669.143 547.936 L 668.733 548.005 C 672.728 547.253 676.245 545.922 679.488 544.078 L 679.318 544.18 C 682.322 542.473 684.78 540.151 686.59 537.386 L 686.624 537.317 C 688.366 534.552 689.39 531.205 689.39 527.586 C 689.39 527.416 689.39 527.211 689.39 527.04 L 689.39 527.074 C 689.39 526.903 689.39 526.665 689.39 526.459 C 689.39 522.84 688.263 519.461 686.351 516.695 L 686.385 516.763 C 684.132 513.861 681.264 511.539 677.986 509.968 L 677.849 509.901 C 674.06 508.022 669.62 506.384 664.977 505.188 L 664.499 505.086 C 659.287 503.72 653.403 502.309 646.847 500.853 C 639.176 499.1 631.767 497.142 624.62 494.98 C 617.483 492.862 611.235 489.858 605.602 486.034 L 605.841 486.17 C 600.48 482.483 596.144 477.737 592.969 472.206 L 592.866 472.001 C 589.725 466.094 587.881 459.06 587.881 451.617 C 587.881 451.002 587.881 450.422 587.915 449.841 L 587.915 449.91 C 587.915 449.568 587.915 449.158 587.915 448.783 C 587.915 441.067 589.759 433.76 593.002 427.273 L 592.866 427.546 C 596.212 421.058 600.856 415.664 606.456 411.498 L 606.592 411.396 C 612.498 407.094 619.429 403.748 626.941 401.767 L 627.385 401.665 C 634.999 399.617 643.739 398.421 652.754 398.421 C 653.129 398.421 653.505 398.421 653.881 398.421 L 653.812 398.421 C 654.905 398.353 656.168 398.319 657.466 398.319 C 673.649 398.319 688.605 403.475 700.794 412.25 L 700.589 412.113 C 712.301 421.604 719.846 435.911 720.188 451.958 L 720.188 452.027 L 686.795 452.027 C 686.317 444.037 682.288 437.072 676.279 432.633 L 676.21 432.6 C 670.235 428.536 662.86 426.077 654.905 426.077 C 654.461 426.077 653.983 426.077 653.539 426.112 L 653.608 426.112 C 652.993 426.077 652.276 426.044 651.559 426.044 C 643.979 426.044 636.877 428.127 630.833 431.746 L 631.004 431.643 C 625.952 434.579 622.606 440.008 622.606 446.189 C 622.606 446.223 622.606 446.291 622.606 446.325 C 622.606 446.496 622.606 446.7 622.606 446.906 C 622.606 449.944 623.458 452.778 624.961 455.168 L 624.927 455.1 C 626.737 457.66 629.058 459.743 631.789 461.177 L 631.892 461.245 C 635.239 463.089 639.097 464.66 643.16 465.718 L 643.535 465.787 C 648.179 467.05 653.676 468.416 660.129 469.884 C 668.961 471.796 677.257 473.912 685.02 476.235 C 692.805 478.522 699.565 481.664 705.778 485.693 L 705.472 485.522 C 711.207 489.278 715.851 494.195 719.197 499.999 L 719.3 500.203 C 722.509 506.315 724.388 513.52 724.388 521.168 C 724.388 521.816 724.388 522.465 724.353 523.114 L 724.353 523.011 C 724.353 523.284 724.353 523.626 724.353 523.967 C 724.353 532.059 722.475 539.707 719.163 546.536 L 719.3 546.229 C 715.919 553.057 711.207 558.759 705.472 563.198 L 705.369 563.267 C 699.36 567.842 692.292 571.427 684.644 573.612 L 684.201 573.715 C 676.449 576.002 667.504 577.334 658.285 577.334 C 658.012 577.334 657.773 577.334 657.5 577.334 L 657.534 577.334 L 657.431 577.402 Z M 474.422 466.537 L 474.9 466.537 C 479.237 460.802 484.597 456.124 490.777 452.675 L 491.05 452.539 C 497.332 449.295 504.776 447.383 512.663 447.383 C 513.174 447.383 513.687 447.383 514.199 447.418 L 514.131 447.418 C 514.882 447.383 515.77 447.349 516.657 447.349 C 527.345 447.349 537.109 451.208 544.655 457.627 L 544.587 457.558 C 551.518 464.421 555.82 473.981 555.82 484.497 C 555.82 485.42 555.786 486.307 555.718 487.195 L 555.718 487.058 L 555.718 573.851 L 536.359 573.851 L 536.359 488.731 C 536.393 488.287 536.393 487.741 536.393 487.195 C 536.393 480.434 533.524 474.357 528.915 470.089 C 523.828 466.026 517.307 463.602 510.205 463.602 C 509.556 463.602 508.907 463.635 508.293 463.67 L 508.395 463.67 C 508.293 463.67 508.156 463.67 508.02 463.67 C 503.239 463.67 498.698 464.591 494.533 466.264 L 494.772 466.162 C 490.606 467.835 487.021 470.191 484.016 473.128 C 481.012 476.098 478.622 479.683 477.051 483.678 L 476.983 483.883 C 475.378 487.912 474.456 492.589 474.456 497.472 C 474.456 497.609 474.456 497.779 474.456 497.916 L 474.456 497.882 L 474.456 573.919 L 455.097 573.919 L 455.097 450.32 L 474.456 450.32 L 474.422 466.537 Z M 375.815 462.509 C 375.611 462.509 375.372 462.509 375.098 462.509 C 369.807 462.509 364.787 463.602 360.246 465.582 L 360.485 465.479 C 356.012 467.493 352.222 470.328 349.184 473.81 L 349.149 473.845 C 346.042 477.464 343.447 481.664 341.603 486.205 L 341.501 486.512 C 339.555 491.087 338.189 496.38 337.609 501.911 L 337.574 502.149 L 411.94 502.149 C 411.94 502.116 411.94 502.082 411.94 502.047 C 411.94 491.018 408.115 480.878 401.696 472.854 L 401.765 472.957 C 395.755 466.47 387.151 462.406 377.625 462.406 C 376.976 462.406 376.328 462.441 375.678 462.475 L 375.782 462.475 L 375.815 462.509 Z M 377.011 577.231 C 376.703 577.231 376.361 577.231 376.02 577.231 C 367.245 577.231 358.914 575.354 351.437 571.939 L 351.812 572.075 C 344.403 568.661 338.155 563.95 333.101 558.145 L 333.033 558.077 C 328.014 552.238 324.02 545.375 321.424 537.83 L 321.288 537.386 C 318.727 530.045 317.225 521.611 317.225 512.803 C 317.225 512.597 317.225 512.359 317.225 512.153 L 317.225 512.188 C 317.225 512.051 317.225 511.915 317.225 511.778 C 317.225 502.901 318.762 494.365 321.562 486.443 L 321.391 486.956 C 324.191 478.966 328.253 472.103 333.409 466.197 L 333.341 466.264 C 338.428 460.495 344.574 455.783 351.505 452.402 L 351.847 452.266 C 358.641 449.022 366.597 447.144 374.996 447.144 C 375.269 447.144 375.509 447.144 375.747 447.144 L 375.713 447.144 C 376.055 447.144 376.43 447.144 376.84 447.144 C 385.307 447.144 393.331 449.022 400.536 452.437 L 400.194 452.3 C 407.33 455.748 413.271 460.597 417.915 466.537 L 417.983 466.641 C 422.763 472.889 426.519 480.229 428.738 488.185 L 428.84 488.629 C 431.196 496.755 432.562 506.076 432.562 515.705 C 432.562 516.046 432.562 516.422 432.562 516.763 L 432.562 516.695 L 336.995 516.695 C 337.301 523.045 338.497 528.986 340.443 534.586 L 340.306 534.142 C 342.184 539.571 344.881 544.249 348.261 548.346 L 348.193 548.278 C 351.505 552.17 355.568 555.346 360.178 557.53 L 360.382 557.633 C 365.026 559.75 370.421 560.979 376.123 560.979 C 376.396 560.979 376.669 560.979 376.942 560.979 L 376.907 560.979 C 377.386 561.013 377.967 561.013 378.581 561.013 C 386.263 561.013 393.399 558.623 399.272 554.594 L 399.136 554.663 C 405.077 549.984 409.344 543.429 411.052 535.884 L 411.086 535.678 L 430.002 535.678 C 427.748 548.209 421.192 558.93 411.905 566.442 L 411.802 566.51 C 402.721 573.236 391.317 577.265 378.957 577.265 C 378.24 577.265 377.522 577.265 376.805 577.231 L 376.907 577.231 L 377.011 577.231 Z M 247.436 561.217 C 247.64 561.217 247.879 561.217 248.119 561.217 C 253.548 561.217 258.669 559.852 263.108 557.428 L 262.937 557.496 C 267.444 554.969 271.2 551.555 274 547.459 L 274.067 547.355 C 277.004 542.986 279.291 537.863 280.589 532.367 L 280.658 532.059 C 282.023 526.494 282.808 520.143 282.808 513.588 C 282.808 513.28 282.808 512.974 282.808 512.666 L 282.808 512.7 C 282.808 512.563 282.808 512.393 282.808 512.222 C 282.808 505.564 282.023 499.076 280.554 492.897 L 280.658 493.477 C 279.291 487.605 277.038 482.38 273.965 477.771 L 274.067 477.941 C 271.233 473.674 267.546 470.225 263.21 467.733 L 263.039 467.664 C 258.806 465.308 253.752 463.943 248.357 463.943 C 248.119 463.943 247.846 463.943 247.606 463.943 L 247.64 463.943 C 247.402 463.943 247.094 463.943 246.787 463.943 C 240.709 463.943 234.939 465.377 229.852 467.904 L 230.09 467.801 C 225.105 470.328 220.94 473.912 217.833 478.249 L 217.765 478.351 C 214.624 482.791 212.131 487.98 210.663 493.545 L 210.594 493.887 C 209.092 499.453 208.205 505.803 208.205 512.393 C 208.205 512.53 208.205 512.666 208.205 512.803 L 208.205 512.768 C 208.205 512.905 208.205 513.041 208.205 513.178 C 208.205 519.734 208.99 526.118 210.459 532.23 L 210.355 531.684 C 211.721 537.557 214.077 542.713 217.286 547.219 L 217.184 547.082 C 220.326 551.453 224.355 554.969 229.067 557.394 L 229.237 557.496 C 234.222 559.886 240.061 561.321 246.24 561.321 C 246.65 561.321 247.06 561.321 247.504 561.286 L 247.436 561.286 L 247.436 561.217 Z M 190.04 450.285 L 209.399 450.285 L 209.399 467.733 L 209.878 467.733 C 214.248 461.621 219.779 456.602 226.13 452.914 L 226.369 452.778 C 232.686 449.364 240.197 447.383 248.152 447.383 C 248.665 447.383 249.142 447.383 249.655 447.418 L 249.586 447.418 C 249.757 447.418 249.928 447.418 250.133 447.418 C 257.713 447.418 264.917 449.056 271.438 451.993 L 271.097 451.856 C 277.754 454.86 283.321 459.162 287.759 464.455 L 287.827 464.523 C 292.539 470.293 296.26 477.122 298.583 484.532 L 298.685 484.976 C 301.177 492.795 302.612 501.774 302.612 511.095 C 302.612 511.574 302.612 512.051 302.612 512.53 L 302.612 512.461 C 302.612 512.803 302.612 513.212 302.612 513.588 C 302.612 522.772 301.246 531.615 298.719 539.98 L 298.889 539.332 C 296.533 547.219 292.914 554.082 288.169 560.023 L 288.271 559.886 C 283.764 565.417 278.062 569.823 271.575 572.792 L 271.302 572.896 C 264.917 575.763 257.473 577.436 249.655 577.436 C 249.348 577.436 249.075 577.436 248.767 577.436 L 248.802 577.436 C 248.425 577.436 248.016 577.436 247.606 577.436 C 240.094 577.436 232.959 575.934 226.438 573.236 L 226.813 573.373 C 219.915 570.096 214.18 565.281 209.911 559.374 L 209.809 559.238 L 209.365 559.238 L 209.365 625.681 L 190.006 625.681 L 190.04 450.285 Z M 83.648 558.589 C 84.025 558.589 84.469 558.589 84.912 558.589 C 94.063 558.589 102.769 556.609 110.554 553.057 L 110.179 553.228 C 117.827 549.644 124.314 544.692 129.47 538.58 L 129.537 538.513 C 134.762 532.264 138.825 524.855 141.249 516.728 L 141.351 516.285 C 143.843 508.193 145.278 498.906 145.278 489.278 C 145.278 488.936 145.278 488.595 145.278 488.253 L 145.278 488.322 C 145.278 488.116 145.278 487.843 145.278 487.57 C 145.278 477.874 143.843 468.484 141.181 459.641 L 141.351 460.324 C 138.756 451.72 134.727 444.277 129.435 437.858 L 129.537 437.96 C 124.314 431.746 117.86 426.727 110.52 423.312 L 110.179 423.175 C 102.769 419.796 94.131 417.815 85.015 417.815 C 84.536 417.815 84.025 417.815 83.546 417.85 L 83.615 417.85 C 83.239 417.85 82.796 417.85 82.352 417.85 C 73.201 417.85 64.528 419.829 56.709 423.381 L 57.086 423.21 C 49.403 426.795 42.95 431.814 37.794 437.925 L 37.726 437.994 C 32.501 444.277 28.473 451.754 26.015 459.914 L 25.912 460.358 C 23.42 468.45 21.986 477.737 21.986 487.366 C 21.986 487.707 21.986 488.049 21.986 488.389 L 21.986 488.322 C 21.986 488.526 21.986 488.799 21.986 489.072 C 21.986 498.77 23.42 508.159 26.082 517.003 L 25.912 516.319 C 28.473 524.889 32.536 532.299 37.828 538.649 L 37.759 538.547 C 43.018 544.727 49.471 549.678 56.778 553.126 L 57.119 553.263 C 64.563 556.642 73.269 558.623 82.454 558.623 C 82.863 558.623 83.307 558.623 83.717 558.623 L 83.648 558.623 L 83.648 558.589 Z M 83.648 577.471 C 83.239 577.471 82.761 577.471 82.248 577.471 C 70.162 577.471 58.621 575.012 48.174 570.54 L 48.754 570.744 C 38.409 566.305 29.634 559.988 22.532 552.17 L 22.463 552.102 C 15.361 544.146 9.728 534.723 6.041 524.343 L 5.87 523.763 C 2.149 513.144 -0.003 500.92 -0.003 488.185 C -0.003 475.518 2.149 463.329 6.074 451.958 L 5.836 452.744 C 9.694 441.783 15.328 432.36 22.497 424.336 L 22.43 424.404 C 29.634 416.483 38.409 410.167 48.276 405.898 L 48.754 405.728 C 58.656 401.494 70.196 399.002 82.283 399.002 C 82.761 399.002 83.239 399.002 83.717 399.002 L 83.648 399.002 C 84.058 399.002 84.536 399.002 85.048 399.002 C 97.135 399.002 108.676 401.46 119.124 405.933 L 118.543 405.728 C 128.889 410.167 137.664 416.483 144.766 424.302 L 144.834 424.371 C 151.936 432.326 157.57 441.75 161.257 452.129 L 161.428 452.71 C 165.149 463.294 167.266 475.518 167.266 488.22 C 167.266 500.92 165.116 513.144 161.189 524.48 L 161.428 523.694 C 157.57 534.655 151.902 544.078 144.766 552.102 L 144.834 551.999 C 137.664 559.921 128.889 566.203 119.021 570.471 L 118.543 570.642 C 108.608 574.91 97.067 577.402 84.912 577.402 C 84.469 577.402 84.025 577.402 83.546 577.402 L 83.615 577.402 L 83.648 577.471 Z"/>
</svg>
