<svg viewBox="0 0 1024 1024" xmlns="http://www.w3.org/2000/svg" fill="currentColor" height="1em" width="1em">
    <path d="M1024 315.178667v447.061333a32.853333 32.853333 0 0 1-10.154667 24.576 34.133333 34.133333 0 0 1-24.746666 9.813333h-364.672v-296.917333l68.266666 52.437333a24.405333 24.405333 0 0 0 16.170667 5.376 26.368 26.368 0 0 0 16.597333-5.418666L1024 315.178667z m-399.573333-86.229334h364.672c9.002667 0 16.768 2.688 23.168 8.192 6.4 5.461333 9.984 12.8 10.581333 21.76l-314.410667 250.709334-84.010666-66.090667V228.949333zM571.904 36.864v950.229333L0 888.277333V138.410667L571.989333 36.864h-0.085333z m-172.757333 477.013333c-0.853333-48.341333-13.354667-88.405333-37.504-120.064-23.68-31.573333-54.4-48.256-90.922667-49.664-35.157333 1.408-65.237333 18.048-89.6 49.664-24.32 31.658667-36.48 71.765333-37.12 120.064 0.64 47.658667 13.44 87.338667 37.76 119.082667 24.362667 31.573333 54.357333 48.341333 89.642667 50.176 36.48-1.493333 67.157333-18.090667 91.52-49.92 24.32-31.914667 37.12-71.68 37.76-119.338667h-1.536z m-133.12-105.898666c18.389333 0.853333 33.877333 10.922667 46.208 30.592 12.16 19.669333 18.56 44.586667 18.56 74.752 0 30.762667-6.357333 55.765333-18.56 75.562666-12.842667 19.797333-28.16 30.037333-46.762667 30.037334s-33.92-9.642667-46.72-29.44-18.56-44.8-18.56-74.837334c0-30.08 5.76-55.082667 18.56-74.24 12.117333-19.2 27.562667-29.44 46.122667-30.762666l1.152-1.664z"
          fill=""></path>
</svg>
