<svg viewBox="0 0 1024 1024" xmlns="http://www.w3.org/2000/svg" fill="currentColor" height="1em" width="1em">
    <path d="M811.48 780.6c0.37 5.75 1.54 24.02-10.95 35.65-9.48 8.82-25.18 12.29-28.98 7.49-2.83-3.57 2.75-9.43 8.02-23.55 10.17-27.28 4.27-45.45 11.52-47.59 5.43-1.6 13.22 7.24 16.62 13.38 0.75 1.36 3.22 6.08 3.77 14.62z"
         ></path>
    <path d="M777.84 826.15c-0.42 0-0.82-0.01-1.21-0.04-2.46-0.19-4.28-0.95-5.28-2.21-1.87-2.36-0.35-5.48 2.41-11.14 1.61-3.29 3.6-7.39 5.56-12.65 5.2-13.96 6.18-25.42 6.89-33.79 0.68-8.02 1.1-12.87 4.79-13.96 5.54-1.63 13.37 7.09 16.91 13.5 2.08 3.76 3.43 8.99 3.8 14.72l-0.25 0.02 0.25-0.01c0.38 5.97 1.55 24.14-11.03 35.84-6.94 6.48-16.61 9.72-22.84 9.72z m14.58-73.48c-0.44 0-0.86 0.06-1.26 0.18-3.37 0.99-3.77 5.71-4.44 13.52-0.71 8.4-1.69 19.9-6.92 33.92-1.97 5.28-3.97 9.39-5.58 12.7-2.67 5.48-4.14 8.5-2.47 10.61 0.91 1.15 2.61 1.85 4.93 2.03 6.02 0.46 16.36-2.73 23.69-9.55 12.4-11.54 11.25-29.53 10.87-35.45-0.36-5.66-1.69-10.81-3.74-14.51-3.32-6.01-10.09-13.45-15.08-13.45z"
         ></path>
    <path d="M339.04 903.35c-29.17 28-114.32 43.12-131.91 14.85-19.96-30.52 25.82-87.62 45.59-99.8 22.15 53.43 80.74 83.13 86.32 84.95z"
         ></path>
    <path d="M258.33 578.3c-6.5 14.39-5.59 21.31-13.26 25.46-10.98 5.94-29.78 0.92-35.65-10.79-5.9-11.78 3.41-26.04 9.46-35.29 29.82-45.64 95.25-58.87 96.99-55.21 0.19 0.4-0.37 0.99-1.04 1.73-23.21 25.45-45.62 50.03-56.5 74.1z"
         ></path>
    <path d="M556.35 962.47c-11.2 0-22.72-0.59-34.56-1.77-63.07-6.28-118.29-27.94-141.87-37.19-4.46-1.75-7.99-3.13-10.1-3.84-46.39-15.46-86.29-46.09-112.36-86.25-30.96-47.7-39.42-123.5-22.08-197.83 15.01-64.32 46.82-115.01 87.27-139.06l1.61-0.96 1.57 1.03c58.98 38.67 132.2 64.03 206.18 71.41 76.94 7.68 149.97-3.74 211.19-33.04l2.47-1.18 1.4 2.35c37.21 62.21 53.96 134.31 47.17 203.02-6.65 67.24-35.03 126.55-79.92 167-41.52 37.43-94.56 56.31-157.97 56.31zM324.12 502.65c-38.3 23.6-68.46 72.41-82.9 134.3-8.07 34.57-10.55 70.58-7.17 104.16 3.52 35.01 13.35 65.8 28.44 89.04 25.33 39.02 64.12 68.79 109.22 83.83 2.26 0.75 5.67 2.09 10.4 3.94 23.35 9.16 78.02 30.61 140.27 36.81 77.15 7.68 140.38-10.16 187.93-53.02l2.01 2.23-2.01-2.23c43.77-39.45 71.46-97.39 77.96-163.14 6.58-66.57-9.38-136.43-44.96-197.01-61.7 28.9-134.9 40.11-211.9 32.42-74.26-7.41-147.79-32.72-207.29-71.33z"
         ></path>
    <path d="M707.43 1001.08c53.13-18.06 36.3-108.81 33.33-117.43-27.13-78.8-68.78-76.97-99.13-66.52s-59.29 66.63-46.9 104.3c17.6 53.52 53.82 99.65 112.7 79.65z"
         ></path>
    <path d="M680.42 1006.21c-10.53 0-20.51-2.33-29.87-7-16.72-8.34-40.04-28.59-56.18-77.66-12.63-38.4 16.86-94.35 47.13-104.77 19.8-6.82 36.5-6.88 51.05-0.2 20.11 9.24 36.44 31.76 48.56 66.95 1.97 5.73 12.16 57.38-4.54 91.43-6.48 13.22-16.25 22.13-29.03 26.47l-0.12-0.36 0.12 0.36c-9.37 3.19-18.43 4.78-27.12 4.78z m-11.18-193.85c-8.46 0-17.58 1.71-27.49 5.12-14.39 4.96-29.43 20.95-39.26 41.75-10.42 22.06-13.12 44.69-7.4 62.08 16.06 48.83 39.21 68.95 55.8 77.22 16.9 8.43 35.88 9.17 56.42 2.18 12.59-4.28 22.21-13.06 28.6-26.09 16.58-33.83 6.46-85.16 4.5-90.86-12.05-34.98-28.25-57.36-48.16-66.51-7.11-3.25-14.74-4.89-23.01-4.89z"
         ></path>
    <path d="M651.26 775.88c45.57-0.85 76.47-62.82 87.99-110.4 14.16-58.52-34.52-86.48-75.22-85.77-40.7 0.71-60.26 17.58-72.18 88.34-8.07 47.87-21.78 109.34 59.41 107.83z"
         ></path>
    <path d="M412.85 55.25c-17.93 9.11-42.68 24.24-67.13 48.59-28.27 28.16-44.54 57.09-53.6 76.65-2.33-1.51-42.26-28.4-41.08-77.15 0.83-34.04 21.36-64.6 51.1-78.15 37.14-16.92 83.53-5 110.71 30.06zM863.23 84.81c45.59 63.62 6.01 129.25-19.54 157.3-21.04-83.16-111.22-151.79-140.77-165.82 34.56-33.06 111.71-47.59 160.31 8.52z"
         ></path>
    <path d="M590.72 574.91c-20.93 0-47.14-0.96-75.59-4.22-39.6-4.54-75.78-12.62-107.53-24-39.76-14.25-72.68-33.78-97.84-58.02-46.57-44.88-67.13-106.23-61.13-182.36l0.02-0.16c8.18-61.5 30.52-119.06 64.61-166.46 36.95-51.38 85.9-87.42 141.58-104.22 64.24-19.38 164.49-5.45 214.29 19.18 82.4 40.76 138.28 92.25 166.1 153.04 25.74 56.27 23.28 110.61 19.19 146.59-0.08 0.69-0.16 1.46-0.25 2.31-0.95 8.66-2.71 24.79-7.89 44.88-6.37 24.7-15.89 47.42-28.3 67.52C781.23 528.5 721.09 563.5 639.24 573c-0.32 0.04-19.26 1.91-48.52 1.91zM254.6 306.86c-5.82 74.05 14.04 133.67 59.02 177.2 107.56 104.08 322.77 83.23 324.91 82.99 79.93-9.28 138.58-43.33 174.32-101.21 28.34-45.88 33.6-94.07 35.33-109.9 0.09-0.86 0.18-1.64 0.26-2.33l2.98 0.34-2.98-0.34c9.41-82.73 0.79-203.17-181.98-293.58-23.73-11.74-60.59-21.22-98.61-25.36-42.44-4.63-81.97-2.3-111.29 6.55-54.4 16.42-102.27 51.68-138.44 101.98-33.49 46.57-55.45 103.17-63.52 163.66z"
         ></path>
    <path d="M381.2 369.29c1.17-18.2 39.45-10.89 41.67 3.29 0 0 1.95 24.46-23.14 24.39-5.14-0.01-19.33-15.33-18.53-27.68zM354.65 205.18c-29 6.44-48.33 38.67-54.78 64.44-9.51 38.03 19.33 51.56 51.56 51.56 32.86 0 58-32.22 58-51.56 0-33.8-21.77-71.77-54.78-64.44z m-12.89 59.63c-7.57 0-13.7-6.13-13.7-13.7s6.13-13.7 13.7-13.7 13.7 6.13 13.7 13.7-6.13 13.7-13.7 13.7z"
         ></path>
    <path d="M531.58 195.56c-28.53-0.16-51.29 17.18-64.32 38.61-6.88 11.32-35.67 85.28-9.46 119.36s67.81 59.65 116.55 62.24c26.39 1.4 66.76-26.03 80.75-54.86 46.31-95.46-90.84-165.17-123.52-165.35z m-26.72 97.57c-7.43 1.44-14.62-3.41-16.06-10.84-1.44-7.43 3.41-14.62 10.84-16.06 7.43-1.44 14.62 3.41 16.06 10.84 1.44 7.43-3.42 14.62-10.84 16.06z"
         ></path>
    <path d="M429.45 431.89c-0.06 0.97-22.76 5.79-40.42-6.71-10.54-7.46-15.78-18.6-14.95-19.3 0.86-0.72 7.75 10.31 21.81 18 17.45 9.54 33.61 7.19 33.56 8.01z"
         ></path>
</svg>
