<svg viewBox="0 0 1024 1024" xmlns="http://www.w3.org/2000/svg" fill="currentColor" height="1em" width="1em">
    <path d="M876.08888853 56.88888853H329.9555552c-50.28977813 0-91.02222187 40.7324448-91.02222187 91.02222294v546.13333333c0 50.28977813 40.7324448 91.02222187 91.02222187 91.02222187h546.13333333c50.28977813 0 91.02222187-40.7324448 91.02222294-91.02222187V147.91111147c0-50.28977813-40.7324448-91.02222187-91.02222294-91.02222294zM489.2444448 398.22222187c0 37.77422187-30.4924448 68.26666667-68.26666667 68.26666666h-45.51111146v91.02222294h-68.26666667V284.4444448h113.77777813c37.77422187 0 68.26666667 30.4924448 68.26666667 68.26666667v45.5111104z m227.5555552 91.02222293c0 37.77422187-30.4924448 68.26666667-68.26666667 68.26666667h-113.77777813V284.4444448h113.77777813c37.77422187 0 68.26666667 30.4924448 68.26666667 68.26666667v136.53333333z m182.0444448-136.53333333h-68.26666667v45.5111104h68.26666667v68.26666666h-68.26666667v91.02222294h-68.26666666V284.4444448h136.53333333v68.26666667z m-523.37777813 45.5111104h45.51111146v-45.5111104h-45.51111146v45.5111104zM147.91111147 238.93333333H56.88888853v637.1555552c0 50.28977813 40.7324448 91.02222187 91.02222294 91.02222294h637.1555552v-91.02222294H147.91111147V238.93333333z m455.1111104 250.31111147h45.51111146v-136.53333333h-45.51111146v136.53333333z"
         ></path>
</svg>
