<svg viewBox="0 0 1024 1024" version="1.1" xmlns="http://www.w3.org/2000/svg"
     fill="currentColor" width="1em" height="1em">
    <path d="M708.7 60.5c-26.7-2.4-53.4-4.9-80-7.3C474.4 149.1 440.8 234.7 330.4 366c-44.9-76.6 65.7-208.3-58.2-269.2-46.8-16-110.5 23.6-167.3 36.4-7.3 14.5-14.6 29.1-21.8 43.7 18 19.5 31.1 24.4 65.5 29.1 21.5 108.2-47.4 418.9 196.4 349.2 48 84.1 36.6 304.2 0 378.3l43.7 0c21.8-114 43.7-228 65.5-341.9 17-2.4 34-4.9 50.9-7.3 2.4 4.8 4.9 9.7 7.3 14.6-9.7 50.9-19.4 101.9-29.1 152.8 33.9 36.4 67.9 72.8 101.9 109.1-15.4 29.6-17.3 38.1-50.9 50.9-2.4 7.3-4.9 14.6-7.3 21.8 84.7-1.1 77.1-9.4 138.2 0l7.3 0c10.7-51.4-14.5-58.4-29.1-101.9 46.1-82.2 70.3-189.1 101.9-298.3 4.8-2.4 9.7-4.9 14.6-7.3 64.9 71.7 104.5 274.8 58.2 385.6l0 21.8 50.9 0c-17.6-147.8-18-319.9 7.3-487.4l7.3 0c37.2 43.2 16.2 113.3 0 160.1l0 7.3c4.8 2.4 9.7 4.9 14.6 7.3C1002.3 468.7 805.5 151.8 708.7 60.5zM628.7 809.8c-7.3 4.8-14.6 9.7-21.8 14.6-31-17.5-45.5-28.8-58.2-65.5-6-38.9 59.5-134 80-189.2C685.6 619.9 648 756.1 628.7 809.8z"></path>
</svg>
