<svg viewBox="0 0 1024 1024" xmlns="http://www.w3.org/2000/svg" fill="currentColor" height="1em" width="1em">
    <path d="M512 51.56l367.92 74.4a40.00000031 40.00000031 0 0 1 32.08000031 39.19999969v541.48000031a40.00000031 40.00000031 0 0 1-19.28000062 34.2L512 971.6l-380.59999969-228.6A40.00000031 40.00000031 0 0 1 111.99999969 708.68V165.2a40.00000031 40.00000031 0 0 1 32.08000031-39.19999969L512 51.51999969z m-0.04000031 81.55999969L192.00000031 197.84v488.20000031l319.8 192.03999938L831.99999969 684.03999969V197.84l-320.04-64.72000031zM512 231.99999969a160.00000031 160.00000031 0 0 1 40.00000031 314.96000062V591.99999969h60a19.99999969 19.99999969 0 0 1 19.99999969 20.00000062v39.99999938a19.99999969 19.99999969 0 0 1-19.99999969 20.00000062H552.00000031v60a19.99999969 19.99999969 0 0 1-20.00000062 19.99999969h-39.99999938a19.99999969 19.99999969 0 0 1-20.00000062-19.99999969v-185.04A160.08 160.08 0 0 1 512 231.99999969z m0 80.00000062a79.99999969 79.99999969 0 1 0 0 159.99999938 79.99999969 79.99999969 0 0 0 0-159.99999938z"
         ></path>
</svg>
