<svg viewBox="0 0 1024 1024" xmlns="http://www.w3.org/2000/svg" fill="currentColor" height="1em" width="1em">
    <path d="M773.216 420.896h-54.432l-21.216 136.128h51.456s63.552 2.976 63.552-87.744c2.976-54.432-39.36-48.384-39.36-48.384z m-465.888 0H252.8l-21.024 136.128h51.456s63.552 2.976 63.552-87.744c2.88-54.432-39.456-48.384-39.456-48.384z"
         ></path>
    <path d="M513.056 35.648A476.352 476.352 0 1 0 989.504 512 476.448 476.448 0 0 0 513.056 35.648zM280.064 605.408h-54.432l-15.072 87.648h-60.48l54.72-320.64h123.744c48 0 99.84 39.264 75.552 133.056-27.168 108.96-124.032 99.936-124.032 99.936z m266.208 0s15.072-75.552 21.216-127.008c2.976-21.216 15.072-57.6-15.072-57.6H491.84l-30.24 184.608h-57.6L452.48 281.6h60.48l-15.072 87.744h60.48s81.696-9.024 72.576 72.576c-9.024 78.624-27.264 163.2-27.264 163.2h-57.6z m199.584 0H691.52l-15.072 84.768h-60.48l54.432-320.64h123.936c48 0 99.84 39.264 75.552 133.056-27.072 111.84-123.936 102.816-123.936 102.816z"
         ></path>
</svg>
