<svg viewBox="0 0 1027 1024" height="1em" width="1em" fill="currentColor" xmlns="http://www.w3.org/2000/svg">
    <path d="M552.74182254 933.875H92.75350454V92.75350454h841.12149546v841.12149546H552.74182254m16.58060705-734.53037421c-47.73364507 9.22605112-86.41471948 41.79059556-89.19830594 96.75262875-1.81366782 35.75554925 7.42289722 67.5657128 41.11244139 85.8049066 18.23656531 9.87266355 38.30782708 16.54117988 57.92698635 23.61448608 23.33849332 8.41910065 47.3288552 15.0560744 70.53855139 23.78796735 11.36565444 4.27920584 17.59783914 13.81016382 16.70414722 27.00262847-0.87266327 12.87967319-7.82505863 21.18837607-19.16179898 25.76460252-6.38200964 2.57593496-13.33703266 4.38434583-20.17640177 5.04672912-26.34287365 2.56279175-51.50292022-2.46028025-74.82564267-14.78796707-14.13872699-7.47283914-27.45998795-16.48860947-41.90625028-25.27044433l-45.27073552 53.54789749c33.09813062 29.13697403 70.05753479 47.26051391 112.03212634 53.69509313 44.61098153 6.84199759 88.15216141 4.63931077 127.09082923-22.39748794 47.53124973-33.00087608 54.66764026-110.85718469 13.27920528-150.00876179-18.89369165-17.86857495-42.94188089-26.37967319-67.21086401-33.94450909-23.30695075-7.26518683-47.11857441-13.09783859-69.99182282-21.51168228-18.77015149-6.90508191-24.90771011-18.85952143-22.16092318-35.32710306 2.29994137-13.79439212 14.70911187-23.21495316 32.80899545-25.06016354 25.23627329-2.57330566 48.57476661 3.74036188 70.73831827 15.22429953 10.30373823 5.33586428 20.3525115 11.16588757 30.84550186 16.95385437l39.09375055-57.7876745c-47.66793228-38.79672912-102.10163544-47.15537393-162.26810816-41.09929981m-241.75671707 243.01840018c9.42581799-1.77161215 19.03300268-2.88346948 28.24065445-5.44100509 27.20239453-7.54906504 51.42669433-20.79147162 67.7602219-44.25613276 26.58995316-38.20531558 29.56542022-80.14573609 11.31571252-122.14135547-19.26168201-44.32447403-57.74036188-64.11448609-103.4973718-66.54848153-53.26664694-2.83352839-106.76985947-1.19596948-160.167932-1.42990659-0.64661243-0.00262849-1.29848098 0.92523367-1.60338785 1.15654229V548.56249973h76.81279175v-106.12324705c27.23130863 0 52.99591114 0 81.14193952-0.07885519m155.27365631 333.80957922H173.23306077v51.90771012H487.73890149c0-16.77774546 0.0367987-32.90099304-0.09988303-49.02161215-0.00788544-0.93311911-1.43516355-1.85309583-4.79702114-2.88609797z"/>
    <path d="M570.42114453 198.95297912c59.06775696-5.66442746 113.50146011 2.69421735 161.16939322 41.49094647l-39.09375055 57.78767451c-10.49299036-5.78796762-20.54176364-11.6179909-30.84550187-16.95385437-22.16355167-11.48393683-45.49941568-17.79497671-70.73831826-15.22429953-18.09988357 1.84521039-30.50905408 11.26577142-32.80899546 25.06016354-2.74678775 16.46758163 3.39077088 28.42202115 22.16092319 35.32710306 22.87324759 8.4138437 46.68224277 14.24649546 69.99182282 21.51168228 24.26898396 7.56483673 48.31717319 16.07593496 67.21086401 33.94713758 41.38843496 39.14894861 34.25204443 117.00525723-13.27920528 150.00613329-38.93866782 27.0367987-82.47984851 29.23948636-127.08820076 22.39748795-41.97722003-6.43457922-78.93662421-24.55811911-112.03475481-53.69509313l45.27073552-53.5478975c14.4462615 8.78183405 27.76752329 17.79497671 41.90625028 25.27044433 23.32272162 12.32768682 48.48276902 17.35075964 74.82564267 14.79059556 6.83936911-0.66501177 13.79439212-2.47605112 20.17640178-5.0493576 11.33674036-4.57359797 18.28913572-12.88493015 19.16179897-25.76460252 0.89369192-13.19509314-5.33849277-22.72342264-16.70414722-27-23.20969619-8.73452143-47.20005808-15.37149517-70.53855139-23.78796735-19.61915927-7.07593469-39.69042023-13.74707949-57.92698635-23.61711455-33.68954416-18.24182227-42.92348154-50.04672885-41.11244139-85.8049066 2.78621494-54.96203238 41.46466086-87.5292053 90.29702088-97.14427542z" style="fill-opacity: 0;"/>
    <path d="M326.37762848 442.40245316c-26.95531504 0.03942718-52.71991837 0.03942718-79.95122699 0.03942801v106.12324704H169.61623822V203.70268683c0.30227839-0.23130863 0.95414694-1.15917078 1.60075937-1.1565423 53.40070102 0.2339371 106.90128506-1.40362179 160.167932 1.42990659 45.7570091 2.43399546 84.23568896 22.22400668 103.4973718 66.54848154 18.2497077 41.99561938 15.27424063 83.93603989-11.31571253 122.14135546-16.33352838 23.46466113-40.55782736 36.70706772-67.76022189 44.25876124-9.20765176 2.5549063-18.81483645 3.66676364-29.42873848 5.4778038M321.9354553 379.26051418c3.76927597-1.09082949 7.66209128-1.8820091 11.29468469-3.32505888 21.82447458-8.68457949 36.07097003-30.00175268 35.01431075-52.12061857-1.13025668-23.67231345-14.05198636-42.85514026-37.11448608-46.25116891-27.72021067-4.08469592-56.11331772-3.5957947-84.19100399-5.08352783v107.06950936c24.86039749 0 48.82710306 0 74.99386614-0.28913517z" style="fill-opacity: 0;"/>
    <path d="M484.13785065 776.22780408c2.06600427 0.97780408 3.49591086 1.89777997 3.50116782 2.8282706 0.13668256 16.12324759 0.09988303 32.24649518 0.09988302 49.02161214H173.23306077v-51.90508162c103.37908859 0 206.49532681 0 310.90741835 0.0525704z" style="fill-opacity: 0;"/>
    <path d="M320.83148339 379.40508218c-25.06542051 0.14456799-49.03212608 0.14456799-73.89515121 0.14456718V272.48013999c28.08031558 1.48773395 56.47342264 0.99883191 84.19626096 5.08352783 23.05987124 3.39602783 35.98422858 22.57885547 37.11448608 46.25116891 1.05402997 22.1188667-13.19246467 43.43603989-35.01693923 52.12061857-3.63259342 1.44567746-7.52540872 2.23422858-12.3986566 3.46962688z"/>
</svg>