<svg viewBox="0 0 1024 1024" xmlns="http://www.w3.org/2000/svg" fill="currentColor" height="1em" width="1em">
    <path d="M977 512c0 256.875-208.125 465-465 465-48 0-94.125-7.3125-137.625-20.8125 18.9375-30.9375 47.25-81.5625 57.75-121.875 5.625-21.75 28.875-110.625 28.875-110.625 15.1875 28.875 59.4375 53.4375 106.5 53.4375 140.25 0 241.3125-129 241.3125-289.3125 0-153.5625-125.4375-268.5-286.6875-268.5-200.625 0-307.3125 134.625-307.3125 281.4375 0 68.25 36.375 153.1875 94.3125 180.1875 8.8125 4.125 13.5 2.25 15.5625-6.1875 1.5-6.375 9.375-38.0625 12.9375-52.6875 1.125-4.6875 0.5625-8.8125-3.1875-13.3125-18.9375-23.4375-34.3125-66.1875-34.3125-106.125 0-102.5625 77.625-201.75 210-201.75 114.1875 0 194.25 77.8125 194.25 189.1875 0 125.8125-63.5625 213-146.25 213-45.5625 0-79.875-37.6875-68.8125-84 13.125-55.3125 38.4375-114.9375 38.4375-154.875 0-35.625-19.125-65.4375-58.875-65.4375-46.6875 0-84.1875 48.1875-84.1875 112.875 0 41.25 13.875 69 13.875 69s-45.9375 194.625-54.375 231c-9.375 40.125-5.625 96.75-1.6875 133.5C169.625 877.4375 47 709.0625 47 512 47 255.125 255.125 47 512 47s465 208.125 465 465z"
         ></path>
</svg>
