<svg viewBox="0 0 1024 1024" xmlns="http://www.w3.org/2000/svg" fill="currentColor" height="1em" width="1em">
    <path d="M802.773333 437.717333l-240.896 231.210667a70.357333 70.357333 0 0 1-97.365333 0l-240.896-231.210667a70.186667 70.186667 0 0 1 97.109333-101.376l192.469334 184.405334 192.725333-184.405334a70.101333 70.101333 0 0 1 99.242667 2.090667 69.973333 69.973333 0 0 1-1.92 99.242667l-0.469334 0.042666z m216.874667-321.962666a92.288 92.288 0 0 0-87.082667-61.269334H93.056c-38.4 0-73.258667 24.064-86.912 59.946667-4.010667 10.666667-6.058667 21.802667-6.058667 33.024v309.12l3.584 61.482667c14.848 139.818667 87.338667 262.058667 199.765334 347.264 1.92 1.536 4.010667 2.986667 6.101333 4.48l1.28 0.981333a507.690667 507.690667 0 0 0 200.277333 88.405333c33.536 6.741333 67.882667 10.24 101.930667 10.24 31.530667 0 63.189333-2.858667 94.250667-8.704 3.754667-1.237333 7.509333-1.92 11.264-2.56 0.981333 0 2.090667-0.64 3.157333-1.237333a512.085333 512.085333 0 0 0 192.341333-86.4l1.237334-1.322667 5.76-4.48c112.085333-85.12 184.490667-207.445333 199.936-347.648L1024.085333 455.594667V146.986667c0-10.709333-1.322667-21.333333-5.162666-31.658667l0.725333 0.426667z"
          fill=""></path>
</svg>
