<svg viewBox="0 0 1024 1024" xmlns="http://www.w3.org/2000/svg" fill="currentColor" height="1em" width="1em">
    <path d="M717.12000031 32a405.36 405.36 0 0 0-110.20000031 16.12000031l-2.52 0.79999969A436.87999969 436.87999969 0 0 0 536 42.32C488.88000031 41.52000031 448.4 52.95999969 415.76 72.00000031 383.6 60.84000031 316.88 41.6 246.56 45.44 197.6 48.12000031 144.15999969 63.00000031 104.55999969 104.79999969 65.07999969 146.6 44.19999969 211.28 48.60000031 299.28000031c1.2 24.28000031 8.11999969 63.88000031 19.59999938 115.15999969s27.6 111.31999969 47.72000062 166.08c20.11999969 54.79999969 42.16000031 103.99999969 76.59999938 137.44000031 17.20000031 16.75999969 40.87999969 30.84 68.80000031 29.67999938 19.60000031-0.79999969 37.32-9.40000031 52.60000031-22.08 7.44 9.79999969 15.40000031 14.08000031 22.63999969 18.04000031 9.12 4.99999969 18 8.4 27.19999969 10.63999969 16.51999969 4.12000031 44.80000031 9.64000031 77.92000031 4.00000031 11.28-1.87999969 23.16-5.56000031 34.99999969-10.8 0.43999969 13.2 0.96 26.11999969 1.48000031 39.19999969 1.63999969 41.44000031 2.68000031 79.72000031 15.12 113.28 1.99999969 5.47999969 7.48000031 33.72 29.08000031 58.64000062 21.6 24.96 63.91999969 40.51999969 112.11999938 30.19999969 34.00000031-7.27999969 77.23999969-20.4 105.96-61.27999969 28.39999969-40.39999969 41.20000031-98.35999969 43.72000031-192.36a189.19999969 189.19999969 0 0 1 2.20000031-13.44l6.75999938 0.6h0.80000062c36.28000031 1.63999969 75.64000031-3.52000031 108.51999938-18.80000062 29.11999969-13.48000031 51.16000031-27.12 67.2-51.31999969 4.00000031-6 8.4-13.24000031 9.6-25.72000031s-5.95999969-31.99999969-17.83999969-40.99999969c-23.80000031-18.07999969-38.76-11.20000031-54.79999969-7.87999969a250.8 250.8 0 0 1-48.08000062 5.83999969c46.24000031-77.88 79.39999969-160.60000031 98.32000031-233.80000031 11.20000031-43.2 17.47999969-83.04 18-117.87999938 0.52000031-34.84000031-2.32000031-65.68000031-23.20000031-92.36000062C886.4 56 794.67999969 32.96 723.72000031 32.16000031c-2.20000031-0.04000031-4.39999969-0.07999969-6.6-0.04000031z m-1.88000062 25.60000031c67.12000031-0.64000031 152.88 18.19999969 214.44 96.87999938 13.84000031 17.68000031 17.95999969 43.51999969 17.48000062 75.36-0.52000031 31.8-6.40000031 69.88000031-17.16 111.6-20.88 80.80000031-60.31999969 175.00000031-115.88000062 259.52000062a30.24 30.24 0 0 0 6.32000062 3.43999969c11.59999969 4.8 38.04 8.92000031 90.79999969-1.92 13.27999969-2.80000031 22.99999969-4.68 33.07999969 3a20.80000031 20.80000031 0 0 1 7.32 16.99999969 28.15999969 28.15999969 0 0 1-5.19999938 13.44c-10.2 15.31999969-30.31999969 29.83999969-56.12000062 41.80000031-22.84000031 10.63999969-55.60000031 16.2-84.63999938 16.51999969-14.56000031 0.16000031-28.00000031-0.96-39.40000031-4.51999969l-0.72-0.28000031c-4.39999969 42.40000031-14.52 126.12-21.12 164.32000031-5.28 30.79999969-14.52 55.27999969-32.16 73.60000031-17.59999969 18.31999969-42.52000031 29.35999969-76.03999969 36.55999969-41.52 8.92000031-71.80000031-0.67999969-91.32-17.11999969-19.48000031-16.39999969-28.39999969-38.16-33.76000031-51.48-3.67999969-9.19999969-5.59999969-21.12-7.44-37.04000062-1.84000031-15.91999969-3.19999969-35.4-4.12000031-57.36a2057.04 2057.04 0 0 1-1.2-100.92 122.44000031 122.44000031 0 0 1-62.07999938 30.40000031c-27.55999969 4.68-52.15999969 0.07999969-66.84-3.6a91.03999969 91.03999969 0 0 1-20.80000031-8.04c-6.79999969-3.64000031-13.27999969-7.75999969-17.59999969-15.88000031a22.39999969 22.39999969 0 0 1-2.28-15.24 24.40000031 24.40000031 0 0 1 8.71999969-13.23999938c7.92-6.43999969 18.40000031-10.03999969 34.2-13.32 28.75999969-5.92000031 38.80000031-9.96 44.92000031-14.80000031 5.20000031-4.15999969 11.08000031-12.55999969 21.48-24.88000031a46.39999969 46.39999969 0 0 1-0.12-1.63999969 118.39999969 118.39999969 0 0 1-53.20000031-14.32000031c-6 6.31999969-36.64000031 38.71999969-73.99999969 83.68000031-15.72 18.79999969-33.07999969 29.59999969-51.40000031 30.36-18.31999969 0.79999969-34.87999969-8.44000031-48.96-22.08-28.12000031-27.31999969-50.56000031-74.32000031-70.12000031-127.44-19.51999969-53.11999969-35.4-112.27999969-46.68-162.67999969-11.32000031-50.4-18-91.03999969-18.96-110.64-4.2-83.28 15.28000031-139.39999969 48.68000062-174.80000062 33.43999969-35.4 79.27999969-48.79999969 123.96-51.36 80.20000031-4.60000031 156.36 23.35999969 171.75999938 29.36000062 29.68000031-20.16 67.92-32.71999969 115.68-31.92a295.60000031 295.60000031 0 0 1 67.24000031 8.71999969l0.79999969-0.36a274.15999969 274.15999969 0 0 1 29.56000031-8.56000031A385.03999969 385.03999969 0 0 1 715.20000031 57.68z m6.08000062 26.79999938h-5.84000062a349.60000031 349.60000031 0 0 0-68.16 7.68c49.84000031 22.08 87.48 56.08000031 114 90a337.60000031 337.60000031 0 0 1 45.28000031 76.8c4.39999969 10.56 7.36000031 19.48000031 9.04000031 26.4 0.84 3.48 1.39999969 6.40000031 1.59999938 9.44000062a17.59999969 17.59999969 0 0 1-0.48 5.76c0 0.12-0.19999969 0.40000031-0.24 0.51999938 1.2 35.04-7.48000031 58.8-8.52 92.24000062-0.79999969 24.24 5.4 52.72000031 6.92000062 83.79999938 1.44 29.20000031-2.08000031 61.27999969-21.04000031 92.76 1.60000031 1.92 3.04000031 3.84 4.56 5.76 50.16-79.00000031 86.32000031-166.39999969 105.6-240.91999969 10.32-40.12000031 15.79999969-76.48000031 16.27999969-105.28000031 0.40000031-28.8-4.96000031-49.68-11.79999938-58.39999969-53.68000031-68.64-126.31999969-86.11999969-187.2-86.59999969z m-191.60000062 10.24000031c-47.28 0.12-81.19999969 14.4-106.92 35.80000031-26.52 22.12000031-44.32000031 52.39999969-55.99999969 83.4-13.87999969 36.79999969-18.64000031 72.40000031-20.52 96.55999969l0.52000031-0.31999969c14.28-7.99999969 33.04000031-16.00000031 53.11999969-20.64 20.08000031-4.60000031 41.71999969-6.04000031 61.32 1.56s35.80000031 25.48000031 41.68000031 52.59999938c28.15999969 130.27999969-8.76 178.72000031-22.36000031 215.28a384.40000031 384.40000031 0 0 0-13.24000031 40.52000062c1.72000031-0.40000031 3.43999969-0.88000031 5.16-1.04000062 9.6-0.79999969 17.11999969 2.4 21.6 4.32 13.68 5.68000031 23.08000031 17.59999969 28.16000062 31.2 1.32 3.55999969 2.28 7.39999969 2.83999969 11.36000062a13.44 13.44 0 0 1 0.79999969 5.07999938 2205.6 2205.6 0 0 0 0.52000031 149.52c0.91999969 21.52000031 2.28 40.48000031 4.00000031 55.44 1.72000031 14.92000031 4.15999969 26.28 5.71999969 30.12 5.11999969 12.79999969 12.6 29.56000031 26.11999969 40.96000031 13.51999969 11.35999969 32.92000031 18.96 68.36000062 11.35999969 30.72-6.6 49.68-15.76000031 62.35999969-28.92 12.64000031-13.15999969 20.20000031-31.48000031 25.03999969-59.52 7.24000031-42 21.79999969-163.8 23.56000031-186.72-0.79999969-17.28 1.75999969-30.55999969 7.27999969-40.68 5.68000031-10.39999969 14.47999969-16.75999969 22.08-20.19999938 3.79999969-1.72000031 7.36000031-2.88 10.28000062-3.72a238.24000031 238.24000031 0 0 0-9.72-13.00000031 178.24000031 178.24000031 0 0 1-26.64-43.96000031 331.84000031 331.84000031 0 0 0-10.28000062-19.32c-5.32000031-9.6-12.04000031-21.6-19.08-35.07999938-14.08000031-27-29.4-59.71999969-37.35999938-91.60000031-7.92-31.84000031-9.07999969-64.8 11.23999969-88.03999969 18-20.64 49.60000031-29.20000031 97.03999969-24.40000031-1.39999969-4.2-2.23999969-7.68-4.59999938-13.27999969a312.67999969 312.67999969 0 0 0-41.64-70.56c-40.2-51.40000031-105.28000031-102.36-205.84000031-104.00000062h-4.60000031z m-265.68 2.08000031c-5.08000031 0-10.15999969 0.16000031-15.19999969 0.43999969-40.39999969 2.32000031-78.6 14.04-105.91999969 43.00000031-27.36 28.96000031-45.36 76.44-41.44000031 155.04 0.76000031 14.88 7.24000031 56.56000031 18.36 106.08 11.08000031 49.51999969 26.80000031 107.80000031 45.67999969 159.27999938 18.91999969 51.48 41.83999969 96.28000031 63.6 117.48 10.96000031 10.60000031 20.47999969 14.88 29.12000062 14.52 8.68000031-0.40000031 19.12000031-5.4 31.87999969-20.71999969a1729.75999969 1729.75999969 0 0 1 72.40000031-81.91999969 139.87999969 139.87999969 0 0 1-46.68-126c4.12000031-29.56000031 4.68-57.19999969 4.2-79.04000062-0.48-21.28000031-1.99999969-35.44000031-2.00000062-44.28a13.44 13.44 0 0 1 0-0.75999938v-0.20000062l-0.03999938-0.24v-0.03999938a395.71999969 395.71999969 0 0 1 23.67999938-135.04000031c11.20000031-29.76 27.88000031-60 52.88000062-84.48-24.55999969-8.08000031-68.16-20.4-115.36000031-22.72000031a304.12000031 304.12000031 0 0 0-15.19999969-0.39999938zM759.96000031 308c-27.16000031 0.36-42.40000031 7.36000031-50.4 16.51999969-11.32000031 13.00000031-12.40000031 35.80000031-5.36000062 63.88000031 7.00000031 28.12000031 21.48 59.56000031 35.08000031 85.68 6.79999969 13.08 13.39999969 24.84 18.72 34.39999969 5.35999969 9.6 9.28000031 16.39999969 11.68000031 22.2 2.20000031 5.35999969 4.63999969 10.08 7.11999938 14.48000062 10.51999969-22.2 12.40000031-43.99999969 11.32000031-66.72-1.39999969-28.12000031-7.92-56.88-6.96-86.00000062 1.08-34.03999969 7.8-56.20000031 8.4-82.51999969a231.72 231.72 0 0 0-29.59999969-1.92z m-329.36000062 4.60000031a112.8 112.8 0 0 0-24.63999938 2.95999969 186.6 186.6 0 0 0-46.12000031 17.95999969 96.67999969 96.67999969 0 0 0-13.96000031 9.12l-0.87999938 0.80000062c0.24 5.83999969 1.39999969 19.99999969 1.87999969 40.83999938 0.48 22.8-0.07999969 51.88000031-4.48000031 83.36000062-9.55999969 68.4 40.08 125.04 98.4 125.11999969 3.40000031-14.04 9-28.27999969 14.60000062-43.27999969 16.24000031-43.75999969 48.19999969-75.67999969 21.27999938-200.24000062-4.39999969-20.4-13.12000031-28.63999969-25.11999938-33.27999938a58.96000031 58.96000031 0 0 0-20.96000062-3.36z m316.68 8.16h2.00000062a35.11999969 35.11999969 0 0 1 7.2 0.87999938c2.16 0.48 4.00000031 1.2 5.52 2.20000031a6.55999969 6.55999969 0 0 1 3 4.39999969l-0.04000031 0.32000062h0.04000031-0.04000031a9.6 9.6 0 0 1-1.39999969 5.4 26.71999969 26.71999969 0 0 1-4.40000062 6 27.07999969 27.07999969 0 0 1-15.43999969 8.47999969 23.59999969 23.59999969 0 0 1-16.39999969-4.12000031 24.31999969 24.31999969 0 0 1-5.20000031-4.71999938 10.39999969 10.39999969 0 0 1-2.52-5.08000031 6.79999969 6.79999969 0 0 1 1.68-5.11999969 15.36 15.36 0 0 1 4.68-3.6c3.84-2.16 9.04000031-3.76000031 14.92000031-4.64000062 2.20000031-0.31999969 4.36000031-0.48 6.39999938-0.51999938z m-312.79999969 6.72c2.11999969 0 4.36000031 0.19999969 6.64000031 0.51999938 6.12 0.84 11.56000031 2.47999969 15.72 4.88000062a17.83999969 17.83999969 0 0 1 5.31999938 4.23999938 8.92000031 8.92000031 0 0 1 2.16 6.80000062 12.07999969 12.07999969 0 0 1-3 6.15999938 25.96000031 25.96000031 0 0 1-5.71999969 5.20000031 25.60000031 25.60000031 0 0 1-17.92000031 4.51999969 29.11999969 29.11999969 0 0 1-16.8-9.12 28.39999969 28.39999969 0 0 1-4.71999938-6.55999969 11.20000031 11.20000031 0 0 1-1.64000062-7.08c0.6-4.32 4.15999969-6.55999969 7.64000062-7.8a34.63999969 34.63999969 0 0 1 12.27999938-1.60000031z m362.4 293.71999969l-0.12 0.04000031c-5.88 2.11999969-10.72000031 3-14.80000031 4.8a18.07999969 18.07999969 0 0 0-9.55999969 8.55999938c-2.52 4.60000031-4.68 12.76000031-4.03999969 26.64a20.4 20.4 0 0 0 5.91999938 2.80000031c6.84 2.08000031 18.31999969 3.43999969 31.12000031 3.24 25.51999969-0.28000031 56.92000031-6.24 73.60000031-13.99999969a157.99999969 157.99999969 0 0 0 37.71999938-24.6h-0.03999938c-55.72000031 11.52-87.19999969 8.44000031-106.52000062 0.48a52.60000031 52.60000031 0 0 1-13.27999969-8.00000062z m-321.24 3.76000031h-0.84c-2.11999969 0.19999969-5.20000031 0.91999969-11.16 7.51999969-13.92 15.6-18.79999969 25.39999969-30.28000031 34.56-11.47999969 9.12-26.4 13.99999969-56.19999938 20.11999969a76.72000031 76.72000031 0 0 0-18.44000062 5.76c1.15999969 0.96 1.03999969 1.2 2.80000031 2.12000062 4.36000031 2.4 9.96 4.51999969 14.47999969 5.67999938 12.79999969 3.19999969 33.84 6.91999969 55.8 3.20000062 21.96-3.76000031 44.80000031-14.28 64.28000062-41.60000062 3.36-4.72000031 3.72-11.68000031 0.96-19.15999969-2.80000031-7.48000031-8.92000031-13.92-13.24000031-15.72a26.11999969 26.11999969 0 0 0-8.16-2.4z"
         ></path>
</svg>
