<svg viewBox="0 0 1024 1024" xmlns="http://www.w3.org/2000/svg" fill="currentColor" height="1em" width="1em">
    <path d="M577.152 4.224C296.746667-31.744 40.192 166.4 4.224 446.848c-35.968 280.405333 162.133333 536.917333 442.581333 572.928 280.448 35.968 537.045333-162.176 572.928-442.624C1055.744 296.746667 857.642667 40.234667 577.152 4.224z m105.429333 319.36a36.48 36.48 0 0 0-25.301333 10.666667l-189.994667 189.994666-13.098666-13.098666-27.434667-27.434667c187.264-186.709333 221.013333-188.501333 255.829333-160.128z m-207.488 207.402667l189.44-189.44a26.453333 26.453333 0 1 1 36.138667 38.528l-200.490667 176-25.088-25.088z m14.08 29.610666l-46.933333 10.154667a2.56 2.56 0 0 1-2.858667-1.365333 2.56 2.56 0 0 1 0.426667-3.114667l27.52-27.52 21.845333 21.845333z m-119.594666-19.584l50.005333-50.005333 37.504 37.461333-84.437333 18.176a3.157333 3.157333 0 0 1-3.626667-1.664 3.072 3.072 0 0 1 0.554667-3.968z m-155.562667 258.474667a3.242667 3.242667 0 0 1-2.944-3.541333 3.285333 3.285333 0 0 1 0.938667-1.962667h0.085333l40.362667-40.362667 52.138666 52.138667-90.581333-6.272z m103.466667-53.589333a9.728 9.728 0 0 0-4.992 10.922666l8.661333 36.906667a5.333333 5.333333 0 0 1-9.002667 4.992h-0.128l-39.850666-39.850667-12.544-12.586666 160.512-160.341334 77.653333-16.768 37.290667 37.290667c-53.546667 47.018667-126.762667 93.909333-217.6 139.434667z m225.237333-146.261334h-0.085333l-35.797334-35.797333 200.490667-176a40.618667 40.618667 0 0 0 5.077333-5.418667c-6.314667 57.386667-86.570667 138.453333-169.685333 217.216z m156.032-275.626666l-0.128-0.085334a77.738667 77.738667 0 0 1 104.917333-114.517333l-68.693333 68.821333a5.077333 5.077333 0 0 0 0 7.210667l53.205333 53.205333a77.525333 77.525333 0 0 1-89.301333-14.634666z m109.994667 0a73.130667 73.130667 0 0 1-11.562667 9.301333h-0.042667l-51.498666-51.498667 65.408-65.408c28.202667 30.72 27.178667 78.165333-2.304 107.605334z m-4.266667-65.877334a6.101333 6.101333 0 0 0-2.261333 6.698667 17.749333 17.749333 0 0 1-2.261334 19.2 5.973333 5.973333 0 0 0 0.981334 8.405333 6.016 6.016 0 0 0 3.584 1.28 5.973333 5.973333 0 0 0 4.522666-2.133333 29.482667 29.482667 0 0 0 3.712-32.042667 5.888 5.888 0 0 0-8.277333-1.408z"></path>
</svg>
