<?xml version="1.0" encoding="utf-8"?>
<svg viewBox="0 0 1024 1024" version="1.1" xmlns="http://www.w3.org/2000/svg" fill="currentColor" height="1em" width="1em" xmlns:bx="https://boxy-svg.com">
  <defs>
    <bx:guide x="0" y="284.207" angle="0"/>
    <bx:guide x="1024" y="483.252" angle="0"/>
    <bx:guide x="392.859" y="0" angle="90"/>
    <bx:guide x="752.11" y="1024" angle="90"/>
  </defs>
  <path d="M 512.411 759.942 C 512.275 759.942 512.104 759.942 511.934 759.942 C 490.203 759.942 472.598 780.788 472.598 806.562 C 472.598 832.337 490.203 853.183 511.934 853.183 C 512.104 853.183 512.275 853.183 512.446 853.183 L 701.411 853.183 C 701.513 853.183 701.649 853.183 701.786 853.183 C 723.518 853.183 741.12 832.337 741.12 806.602 C 741.12 780.869 723.518 760.023 701.786 760.023 C 701.649 760.023 701.513 760.023 701.411 760.023 L 701.444 760.023 L 512.411 759.942 Z M 631.61 537.869 C 636.181 529.87 638.91 520.012 638.91 509.428 C 638.91 496.217 634.68 484.179 627.756 475.089 L 627.789 475.129 L 389.323 174.641 C 381.17 165.472 370.15 159.816 358.007 159.816 C 332.897 159.816 312.53 183.934 312.53 213.668 C 312.53 226.837 316.521 238.916 323.141 248.249 L 323.072 248.167 L 521.828 498.56 L 521.828 504.095 L 205.511 775.414 C 195.309 785.353 188.829 800.341 188.829 817.107 C 188.829 846.841 209.195 870.959 234.305 870.959 C 243.447 870.959 251.943 867.767 259.072 862.273 L 258.902 862.394 L 609.708 564.047 C 618.748 557.463 626.151 548.615 631.474 538.152 L 631.645 537.789 L 631.61 537.869 Z M 988.659 66.049 C 989.073 66.009 989.552 66.009 990.061 66.009 C 1008.83 66.009 1024 84.027 1024 106.206 C 1024 110.529 1023.43 114.689 1022.37 118.568 L 1022.44 118.286 L 866.457 925.134 C 860.082 954.382 838.59 975.875 812.658 977.369 L 812.522 977.369 L 35.343 977.369 C 34.934 977.409 34.456 977.409 33.945 977.409 C 15.181 977.409 0 959.391 0 937.212 C 0 932.89 0.581 928.729 1.638 924.85 L 1.571 925.134 L 157.545 118.286 C 163.924 89.036 185.417 67.544 211.345 66.049 L 211.481 66.049 L 988.659 66.049 Z" style=""/>
</svg>