<svg viewBox="0 0 1024 1024" xmlns="http://www.w3.org/2000/svg" fill="currentColor" height="1em" width="1em">
    <path d="M375.466667 375.466667c0-74.666667 59.733333-136.533333 136.533333-136.533334 74.666667 0 136.533333 59.733333 136.533333 136.533334 0 74.666667-59.733333 136.533333-136.533333 136.533333-66.133333 0-119.466667 53.333333-119.466667 119.466667 0 66.133333 53.333333 119.466667 119.466667 119.466666 206.933333 0 375.466667-168.533333 375.466667-375.466666S718.933333 0 512 0 136.533333 168.533333 136.533333 375.466667v482.133333c40.533333 0 74.666667 34.133333 74.666667 74.666667 0 25.6-12.8 46.933333-32 61.866666 51.2 42.666667 125.866667 36.266667 170.666667-14.933333 19.2-21.333333 27.733333-49.066667 27.733333-76.8V375.466667z m151.466666 332.8c40.533333 0 74.666667-34.133333 74.666667-74.666667s-34.133333-74.666667-74.666667-74.666667-74.666667 34.133333-74.666666 74.666667 34.133333 74.666667 74.666666 74.666667z"
         ></path>
    <path d="M484.266667 593.066667c0 25.6 19.2 44.8 44.8 44.8 25.6 0 44.8-19.2 44.8-44.8 0-25.6-19.2-44.8-44.8-44.8-23.466667 0-44.8 19.2-44.8 44.8z"
         ></path>
</svg>
