<svg viewBox="0 0 1024 1024" version="1.1" xmlns="http://www.w3.org/2000/svg"
    fill="currentColor" height="1em" width="1em">
  <path d="M 512 938.667 C 276.352 938.667 85.333 747.648 85.333 512 C 85.333 276.352 276.352 85.333 512 85.333 C 747.648 85.333 938.667 276.352 938.667 512 C 938.667 747.648 747.648 938.667 512 938.667 Z M 512 0 C 229.248 0 0 229.248 0 512 C 0 794.752 229.248 1024 512 1024 C 794.752 1024 1024 794.752 1024 512 C 1024 229.248 794.752 0 512 0 Z M 512 511.872 C 480.939 511.872 455.851 486.699 455.851 455.68 C 455.851 424.661 480.939 399.488 512 399.488 C 543.061 399.488 568.149 424.619 568.149 455.637 C 568.149 486.656 543.061 511.872 512 511.872 Z M 636.416 510.976 C 636.416 390.315 589.099 280.704 512 199.595 C 434.901 280.661 387.584 390.315 387.584 510.976 C 387.584 566.315 397.568 619.136 415.744 668.117 C 389.376 706.517 369.92 760.277 361.344 822.4 C 388.608 789.675 422.016 766.677 459.136 754.517 C 474.624 778.197 492.416 801.28 512 821.675 C 531.669 800.597 549.376 778.155 564.864 753.835 C 601.984 765.397 635.392 789.077 662.571 821.077 C 654.08 758.955 634.624 705.195 608.171 666.837 C 626.389 617.557 636.331 565.077 636.331 509.397 L 636.416 510.976 Z"/>
</svg>
