<svg viewBox="0 0 1024 1024" xmlns="http://www.w3.org/2000/svg" fill="currentColor" height="1em" width="1em">
    <path d="M90.125 512v421.875h843.75V90.125H90.125v421.875z m582.53219331-316.21891689c28.9242897 1.87333511 50.7299068 7.19360569 72.76032476 17.90908154 16.33547956 7.94293973 30.27309082 17.6093476 43.46136721 30.19815692l6.51920554 6.21947158-17.75921457 20.60668295c-9.74134094 11.31494211-20.75654992 24.05361923-24.42828543 28.32482263l-6.74400558 7.71813886-5.39520447-4.79573656c-30.49789087-27.12588849-66.39098538-38.74056372-101.08514657-32.82082609-14.61201142 2.54773525-27.27575464 7.64320578-39.56483085 16.0357456-7.34347266 5.09547053-19.63254886 17.30961365-24.87788636 24.87788635-14.76187839 21.20615002-22.10535105 48.55683856-20.08214895 75.00832609 0.89920102 11.46480908 2.32293521 18.58348169 6.06960462 29.74855682 12.51387625 37.69149655 42.1875 63.24378306 80.1037966 68.78885449 8.16773977 1.19893414 32.1464251 0.4496001 39.71469781-1.19893414 19.40774881-4.2712034 38.74056372-14.31227829 56.05017737-29.14908976 3.44693628-2.92240229 7.34347266-6.21947158 8.69227377-7.34347266l2.39786829-2.02320125 24.27841928 24.27841927 24.20348621 24.20348539-1.57360117 2.24800213c-2.09813516 2.92240229-16.11067951 16.26054648-23.00455206 21.88055018-18.88321481 15.43627853-40.53896575 26.22668747-64.44271719 32.22135901-19.78241583 4.94560355-26.00188742 5.62000451-53.95204304 5.62000451-22.55495114 0-25.47735342-0.14986697-33.72002626-1.72346814-31.77175808-5.99467154-56.94937839-17.23468057-80.10379661-35.66829528-33.1205592-26.37655445-56.20004434-66.91551938-63.16884997-110.75155362-2.09813516-13.18827722-1.87333511-47.73257144 0.37466702-60.54618165 8.84213992-51.02963992 35.81816144-93.29207382 76.58192724-120.26809451 25.70215347-17.0098797 55.67551035-27.05095459 87.74700239-29.52375678 11.46480908-0.89920102 17.68428067-0.89920102 30.94749097-0.07493389zM335.15719331 202.74988873c29.8984238 4.7957374 52.75310806 14.68694531 70.96192272 30.64775785 18.95814871 16.6352135 31.24722492 39.86456479 35.89309533 67.7397865 1.87333511 10.94027509 1.87333511 34.31949417 0.07493308 44.5104352-3.52186936 19.40774881-11.09014207 37.9162966-20.98134998 50.95470686-19.78241583 26.1517544-52.00377402 43.46136804-91.19393866 49.15630563-6.81893866 0.9741341-16.5602796 1.34880112-46.98323657 1.57360116l-38.4408306 0.37466702V550.96536377H168.05572837V200.95148752l79.6541965 0.29973395c70.06272171 0.22480005 80.5533967 0.4496001 87.44726844 1.49866726z m151.36545327 599.61700772V828.96825012H328.48812161c-143.42251355 0-158.03452497-0.07493308-158.48412506-1.19893413-0.59946707-1.57360117-0.59946707-50.87977377 0.07493308-51.47924085 0.22480005-0.29973395 71.5613898-0.52453399 158.48412506-0.52453317H486.52264658v26.60135448z"
         ></path>
    <path d="M244.48778863 323.46758416V377.11989325h33.19549311c41.21336591 0 46.30883643-0.67440015 59.64698062-7.19360568 10.11600796-4.94560355 17.68428067-12.2890762 22.18028412-21.58081704 4.64587043-9.36667392 5.62000451-13.93761128 5.62000452-25.17761948 0-11.68960913-1.34880112-18.05894768-5.3202714-26.22668748-5.91973764-12.06427615-16.86001355-20.23201594-32.74589218-24.57815322l-7.26853959-1.94826819-37.61656264-0.29973313-37.69149656-0.22480005v53.57737519z"
         ></path>
</svg>
