<svg viewBox="0 0 1024 1024" xmlns="http://www.w3.org/2000/svg" fill="currentColor" height="1em" width="1em">
    <path d="M360.19920592 495.1451117a158.53886578 158.53886578 0 0 1 28.12222578-2.52677688l-7.5779034-0.0364089h252.00533807a116.80457008 116.80457008 0 0 0 31.33106252-4.25741274c47.01601185-13.01739141 80.93696-54.70314192 80.93696-105.98142103V170.62783052c0-60.27370192-51.33653333-105.54694163-112.35540386-115.5521043-38.66866725-6.3691283-95.289344-9.28912118-133.71528533-9.09979497-38.42108682 0.2087443-75.19891911 3.407872-107.47175822 9.09979497-95.15341748 16.56118992-112.49133037 51.39721482-112.49133037 115.5521043V240.14696297h233.01688889v38.83614814H203.30116741c-86.47839289 0-156.65045808 103.33085392-157.31795438 231.17702637-0.00485452 0.61409659-0.01699082 1.22576592-0.01699081 1.83986252 0 23.11478992 2.2816237 45.43829333 6.51719111 66.51661275C71.81167882 674.79627852 132.01499022 745.01688889 203.30116741 745.01688889H240.14696297v-111.49615407c0-65.11608415 48.89956503-125.56940325 120.05224295-138.37562312z m24.74833541-296.25670162c-23.28227082 0-42.19547497-18.89621333-42.19547496-42.2415929 0-23.45703348 18.86951348-42.52558222 42.19547496-42.52558221 23.23858015 0 42.23188385 19.06612148 42.23188385 42.52558221 0.00242725 23.34537955-18.95446755 42.24159289-42.23188385 42.2415929z"
         ></path>
    <path d="M968.20580503 430.79118697C945.94541037 342.1428243 888.30528475 278.98311111 820.69883259 278.98311111H783.85303703v98.72148859c0 82.32049778-54.09389985 141.93155792-120.12263348 152.14303763a130.93364622 130.93364622 0 0 1-20.1486791 1.56800949H391.48900503a124.78539852 124.78539852 0 0 0-31.67330606 4.05837748C313.40164741 547.65401125 278.98311111 586.27413333 278.98311111 636.36305541v211.72254341c0 60.27370192 60.62565452 95.69712355 120.10321541 112.99134577 71.1842323 20.70694875 148.71089303 24.43764622 233.90526578 0C689.55401482 944.91139792 745.01688889 912.23806103 745.01688889 848.08559882V783.85303703H512v-38.83614814h308.69883259c61.2640237 0 114.34090192-51.85839408 140.32956682-127.55004681C971.90252089 585.79839052 978.03377778 549.96476208 978.03377778 512c0-28.56398697-3.47826252-55.91919882-9.82797275-81.20881303zM637.894656 819.82501925c23.2774163 0 42.18819318 18.89621333 42.18819318 42.23431112 0 23.42305185-18.91077689 42.52800948-42.18819318 42.52800948-23.24586192 0-42.23188385-19.10495763-42.23188385-42.52800948 0-23.37450667 18.94718578-42.23431111 42.23188385-42.23431112z"
         ></path>
</svg>
