<svg viewBox="0 0 1024 1024" version="1.1" xmlns="http://www.w3.org/2000/svg"
    fill="currentColor" height="1em" width="1em">
  <path d="M 945.237 945.247 L 511.997 945.247 C 392.313 945.732 277.862 896.224 196.261 808.67 C 113.487 720.648 72.1 605.448 79.695 484.273 C 93.135 267.056 267.003 93.103 484.263 79.62 C 493.65 79.023 503.036 78.767 512.295 78.767 C 622.491 78.433 728.592 120.507 808.617 196.271 C 896.188 277.86 945.712 392.314 945.237 512.007 L 945.237 945.247 Z M 862.548 138.842 C 758.526 41.092 622.504 -7.933 479.399 1.027 C 222.629 17.027 16.974 222.682 1.017 479.452 C -7.815 622.514 41.124 758.622 138.874 862.601 C 235.785 965.397 370.728 1023.77 511.997 1024.02 L 984.619 1024.02 C 1006.38 1024.02 1024 1006.38 1024 984.672 L 1024 512.007 C 1023.74 370.729 965.348 235.786 862.548 138.884 M 689.235 649.864 L 334.758 649.864 C 304.442 649.864 285.494 682.682 300.652 708.936 C 307.687 721.121 320.688 728.627 334.758 728.627 L 689.235 728.627 C 719.551 728.627 738.499 695.809 723.341 669.555 C 716.306 657.37 703.305 649.864 689.235 649.864 M 334.758 374.193 L 689.235 374.193 C 719.568 374.193 738.525 341.357 723.359 315.088 C 716.32 302.897 703.312 295.387 689.235 295.387 L 334.758 295.387 C 304.426 295.387 285.468 328.223 300.634 354.491 C 307.673 366.682 320.681 374.193 334.758 374.193 M 216.613 472.668 C 186.314 473.666 168.456 507.09 184.47 532.831 C 191.415 543.994 203.473 550.956 216.613 551.389 L 807.38 551.389 C 837.696 551.389 856.643 518.571 841.485 492.316 C 834.451 480.131 821.45 472.625 807.38 472.625 L 216.613 472.625 L 216.613 472.668 Z"/>
</svg>
