<svg viewBox="0 0 1024 1024" xmlns="http://www.w3.org/2000/svg" fill="currentColor" height="1em" width="1em">
    <path d="M816.125 364.25c-10.125-3.375-20.25-6.5625-30.375-9.5625 1.6875-6.9375 3.1875-13.875 4.6875-20.8125 23.0625-111.75 7.875-201.5625-43.3125-231.1875-49.3125-28.3125-129.75 1.125-211.125 72-8.0625 6.9375-15.9375 14.25-23.4375 21.5625-5.0625-4.875-10.3125-9.75-15.5625-14.4375-85.3125-75.75-170.8125-107.625-222-77.8125-49.125 28.5-63.75 113.0625-43.125 218.8125 2.0625 10.5 4.3125 20.8125 6.9375 31.3125-12 3.375-23.8125 7.125-34.875 11.0625C103.8125 399.875 32 454.625 32 511.25c0 58.5 76.5 117.1875 180.5625 152.8125 8.4375 2.8125 16.875 5.625 25.5 8.0625-2.8125 11.25-5.25 22.3125-7.5 33.75-19.6875 104.0625-4.3125 186.5625 44.8125 214.875 50.625 29.25 135.75-0.75 218.625-73.3125 6.5625-5.8125 13.125-11.8125 19.6875-18.1875 8.25 8.0625 16.875 15.75 25.5 23.25 80.25 69 159.5625 96.9375 208.5 68.625 50.625-29.25 67.125-117.9375 45.75-225.9375-1.6875-8.25-3.5625-16.6875-5.625-25.3125 6-1.6875 11.8125-3.5625 17.625-5.4375 108.1875-35.8125 186.5625-93.75 186.5625-153.1875 0-56.8125-73.875-111.9375-175.875-147zM562.4375 205.0625c69.75-60.75 134.8125-84.5625 164.4375-67.5 31.6875 18.1875 43.875 91.6875 24 188.25-1.3125 6.375-2.625 12.5625-4.3125 18.75-41.625-9.375-83.8125-16.125-126.1875-19.875-24.375-34.875-51-68.25-79.875-99.5625 7.3125-6.9375 14.4375-13.5 21.9375-20.0625zM345.5 608.5625c9.5625 16.3125 19.3125 32.625 29.625 48.5625-29.25-3.1875-58.3125-7.875-87-14.0625 8.25-27 18.5625-54.9375 30.5625-83.4375 8.625 16.5 17.4375 32.8125 26.8125 48.9375z m-56.8125-225.5625c27-6 55.6875-10.875 85.5-14.625-9.9375 15.5625-19.6875 31.5-28.875 47.625-9.1875 15.9375-18.1875 32.25-26.625 48.75-11.8125-27.9375-21.75-55.3125-30-81.75z m51.375 129.1875c12.375-25.875 25.875-51.1875 40.125-76.125s29.625-49.125 45.75-72.9375c28.125-2.0625 56.8125-3.1875 86.0625-3.1875s58.125 1.125 86.0625 3.1875c15.9375 23.625 31.125 47.8125 45.5625 72.5625s27.9375 50.0625 40.6875 75.75c-12.5625 25.875-26.0625 51.375-40.5 76.5-14.25 24.9375-29.4375 49.125-45.375 73.125-27.9375 2.0625-57 3-86.4375 3s-57.9375-0.9375-85.5-2.625c-16.3125-23.8125-31.6875-48.1875-46.125-73.125s-27.75-50.25-40.3125-76.125z m338.625 96c9.5625-16.5 18.5625-33.1875 27.375-50.0625 12 27.1875 22.5 54.75 31.6875 83.0625-29.0625 6.5625-58.5 11.625-88.125 15 10.125-15.75 19.6875-31.875 29.0625-48z m27-143.4375c-8.8125-16.5-17.8125-33-27.1875-49.125-9.1875-15.9375-18.75-31.6875-28.6875-47.25 30.1875 3.75 59.0625 8.8125 86.0625 15-8.625 27.75-18.75 54.75-30.1875 81.375zM512.375 253.8125c19.6875 21.375 38.25 43.875 55.5 67.125-37.125-1.6875-74.4375-1.6875-111.5625 0 18.375-24.1875 37.3125-46.6875 56.0625-67.125zM294.875 138.875c31.5-18.375 101.4375 7.875 175.125 73.125 4.6875 4.125 9.375 8.625 14.25 13.125-29.0625 31.3125-55.875 64.6875-80.4375 99.5625-42.375 3.75-84.375 10.3125-126 19.5-2.4375-9.5625-4.5-19.3125-6.5625-29.0625-17.625-90.75-6-159.1875 23.625-176.25z m-45.9375 494.25c-7.875-2.25-15.5625-4.6875-23.25-7.3125-39.9375-12.5625-85.3125-32.4375-118.125-58.5-18.9375-13.125-31.6875-33.375-35.25-56.0625 0-34.3125 59.25-78.1875 144.75-108 10.6875-3.75 21.5625-7.125 32.4375-10.3125 12.75 40.6875 28.125 80.625 45.9375 119.25-18 39.1875-33.5625 79.6875-46.5 120.9375z m218.625 183.75c-30.9375 28.3125-66.75 50.8125-105.75 66.1875-20.8125 9.9375-44.8125 10.875-66.1875 2.4375-29.8125-17.25-42.1875-83.4375-25.3125-172.5 2.0625-10.5 4.3125-21 6.9375-31.3125 42 9 84.375 15.1875 127.3125 18.375 24.75 35.0625 51.9375 68.625 81 100.125-6 5.8125-12 11.4375-18 16.6875z m45.9375-45.5625c-19.125-20.625-38.25-43.5-56.8125-68.0625 18 0.75 36.5625 1.125 55.3125 1.125 19.3125 0 38.25-0.375 57-1.3125-17.25 23.8125-35.8125 46.5-55.5 68.25z m245.0625 56.25c-1.6875 22.875-12.9375 44.25-30.9375 58.6875-29.8125 17.25-93.375-5.25-162-64.125-7.875-6.75-15.75-14.0625-23.8125-21.5625 28.6875-31.6875 55.125-65.25 79.125-100.5 42.9375-3.5625 85.6875-10.125 127.875-19.6875 1.875 7.6875 3.5625 15.375 5.0625 22.875 9.1875 40.5 10.6875 82.6875 4.6875 124.3125z m34.125-201.5625c-5.25 1.6875-10.5 3.375-15.9375 4.875-13.125-40.875-29.25-80.8125-47.8125-119.625 18-38.25 33.1875-77.625 45.9375-117.9375 9.75 2.8125 19.125 5.8125 28.125 8.8125 87.375 30 148.6875 74.625 148.6875 108.75 0 36.75-65.4375 84.1875-159 115.125z m-280.6875-28.125c47.4375 0 85.875-38.4375 85.875-85.875s-38.4375-85.875-85.875-85.875c-47.4375 0-85.875 38.4375-85.875 85.875s38.4375 85.875 85.875 85.875z"
         ></path>
</svg>
