<svg viewBox="0 0 1024 1024" xmlns="http://www.w3.org/2000/svg" fill="currentColor" height="1em" width="1em">
    <path d="M830.73813333 279.88586667c29.1712 0 54.9152-24.02453333 54.9152-54.9152s-24.02453333-54.9152-54.9152-54.9152c-29.1712 0-54.9152 24.02453333-54.9152 54.9152 0 29.1712 24.02453333 54.9152 54.9152 54.9152zM518.416 741.504c-97.81333333 0-154.44693333-41.184-154.44693333-41.184-5.1488-3.4336-10.29653333-1.71626667-12.01386667 3.4336l-10.29653333 18.87573333c-1.71626667 5.1488-1.71626667 12.01386667 3.4336 15.4432 0 0 48.048 49.76746667 173.32266666 49.76746667s169.888-53.1968 169.888-53.1968c3.4336-3.4336 3.4336-10.29653333 1.71626667-13.728l-12.01386667-17.16266667c-3.4336-3.4336-8.5792-5.1488-13.728-1.71626666 0-1.71626667-48.048 39.46986667-145.8656 39.46986666zM341.66506667 609.3696c29.1712 0 54.9152-24.02453333 54.9152-54.9152s-24.02453333-54.9152-54.9152-54.9152c-29.1712 0-54.9152 24.02453333-54.9152 54.9152 1.71626667 30.8896 25.7408 54.9152 54.9152 54.9152zM667.71413333 609.3696c29.1712 0 54.9152-24.02453333 54.9152-54.9152s-24.02453333-54.9152-54.9152-54.9152-54.9152 24.02453333-54.9152 54.9152c0 30.8896 24.02453333 54.9152 54.9152 54.9152zM722.6272 216.39466667c-8.5792-3.4336-101.24693333-34.31893333-140.7168-6.86293334-41.184 29.1712-39.46986667 125.2704-36.0384 125.2704 90.9504 6.86293333 175.0368 34.31893333 238.53013333 77.2224 5.1488 3.4336 60.06186667-44.61653333 120.1248-34.31893333 60.06186667 10.29653333 101.24693333 66.9248 82.37013334 130.4192-18.87573333 61.77813333-77.2224 80.656-75.50613334 99.5296v15.4432c0 159.5936-181.9008 288.29653333-406.704 288.29653333s-406.704-128.70293333-406.704-288.29653333c0-8.5792 0-15.4432 1.71626667-24.02453333 0-1.71626667-41.184-24.02453333-56.62933333-61.77813334-15.4432-36.0384-8.5792-78.9376 6.86293333-104.67946666 25.7408-39.46986667 56.62933333-54.9152 99.5296-54.9152s89.2352 25.7408 90.9504 25.7408c68.6432-41.184 157.87626667-66.9248 253.97333333-68.6432 3.4336 0-6.86293333-116.6912 58.34666667-159.5936 66.9248-42.90133333 176.752 0 178.46933333 0v3.4336c17.16266667-37.7536 54.9152-63.49333333 97.81333334-63.49333334 60.06186667 0 108.11306667 49.76746667 108.11306666 109.82613334 0 60.06186667-48.048 109.82613333-108.11306666 109.82613333s-108.11306667-49.76746667-108.11306667-109.82613333c0-3.4336 0-6.86293333 1.71626667-8.5792z"
         ></path>
</svg>
