<svg viewBox="0 0 1024 1024" xmlns="http://www.w3.org/2000/svg" fill="currentColor" height="1em" width="1em">
    <path d="M970.1824 454.912c-0.0768 27.68-0.15573333 55.35573333-0.23573333 83.0368-0.032 11.66826667-7.70026667 23.3184-23.01866667 32.2208l0.23573333-83.03893333c15.31733333-8.90133333 22.98666667-20.55146667 23.01866667-32.21866667zM75.1872 537.49546667l0.23573333-83.03786667c-0.03306667 11.8208 7.7696 23.65866667 23.392 32.6784l-0.23573333 83.0368c-15.62346667-9.01866667-23.42506667-20.8576-23.392-32.67733333z"
         ></path>
    <path d="M947.16373333 487.13173333l-0.23573333 83.03893334-366.9504 213.248 0.23573333-83.03786667 366.9504-213.24906667zM468.16426667 700.37973333l-0.23573334 83.03786667-369.3504-213.2448 0.23573334-83.0368a65634778.22933333 65634778.22933333 0 0 0 369.3504 213.24373333zM580.21333333 700.37973333l-0.23573333 83.03786667c-30.84266667 17.9232-81.0048 17.9232-112.04906667 0l0.23573334-83.03786667c31.04426667 17.9232 81.2064 17.9232 112.04906666 0z"
         ></path>
    <path d="M970.1824 602.05226667c-0.0768 27.68-0.15573333 55.35573333-0.23573333 83.0368-0.032 11.66826667-7.70026667 23.3184-23.01866667 32.2208l0.23573333-83.03893334c15.31733333-8.90026667 22.98666667-20.55146667 23.01866667-32.21866666zM75.1872 684.63573333l0.23573333-83.03786666c-0.03306667 11.81973333 7.7696 23.65866667 23.392 32.67733333l-0.23573333 83.03786667c-15.62346667-9.01973333-23.42506667-20.85866667-23.392-32.67733334z"
         ></path>
    <path d="M947.16373333 634.27093333l-0.23573333 83.03893334-366.9504 213.248 0.23573333-83.03786667 366.9504-213.24906667zM468.16426667 847.52l-0.23573334 83.03786667L98.57813333 717.312l0.23573334-83.03786667L468.16426667 847.52zM580.21333333 847.52l-0.23573333 83.03786667c-30.84266667 17.92426667-81.0048 17.92426667-112.04906667 0l0.23573334-83.03786667c31.04426667 17.92426667 81.2064 17.92426667 112.04906666 0z"
         ></path>
    <path d="M969.44533333 351.2896l-0.14506666 50.81173333c-0.00106667 0.21333333-0.00426667 0.42666667-0.01066667 0.64l0.14506667-50.8128c0.0064-0.21333333 0.0096-0.42666667 0.01066666-0.63893333"
         ></path>
    <path d="M969.43573333 351.92853333l-0.14506666 50.8128a24.7104 24.7104 0 0 1-0.47573334 4.17173334l0.144-50.8128c0.27733333-1.3856 0.43626667-2.7776 0.4768-4.17173334M968.95786667 356.0992l-0.144 50.8128a26.58453333 26.58453333 0 0 1-1.1744 4.09386667l0.144-50.8128a26.432 26.432 0 0 0 1.1744-4.09386667"
         ></path>
    <path d="M967.78453333 360.19413333l-0.144 50.8128a29.86986667 29.86986667 0 0 1-1.93706666 4.13333334l0.1408-50.81173334a29.4112 29.4112 0 0 0 1.94026666-4.1344"
         ></path>
    <path d="M965.84426667 364.32853333c-0.04693333 16.93653333-0.09493333 33.87413333-0.1408 50.81173334a34.288 34.288 0 0 1-2.92693334 4.3456l0.14506667-50.8128a34.27626667 34.27626667 0 0 0 2.92266667-4.34453334M962.92053333 368.67306667l-0.14506666 50.8128a42 42 0 0 1-4.50986667 4.84906666l0.144-50.8128a41.64586667 41.64586667 0 0 0 4.51093333-4.84906666"
         ></path>
    <path d="M958.41066667 373.52213333l-0.144 50.8128c-2.6048 2.4064-5.6768 4.69333333-9.20746667 6.81813334l0.144-50.8128c3.53066667-2.12373333 6.59946667-4.41173333 9.20746667-6.81813334"
         ></path>
    <path d="M949.2032 380.3392c-0.048 16.9376-0.09386667 33.8752-0.144 50.8128-0.29226667 0.176-0.58666667 0.352-0.88853333 0.5248l0.144-50.8128c0.29866667-0.1728 0.59626667-0.34773333 0.88853333-0.5248"
         ></path>
    <path d="M96.1664 380.87253333l-0.14293333 50.8128c-14.34026667-8.27946667-21.50186667-19.1456-21.46986667-29.99573333l0.14293333-50.81173333c-0.03093333 10.85013333 7.13066667 21.7152 21.46986667 29.99466666"
         ></path>
    <path d="M948.31466667 380.86506667l-0.144 50.8128L574.73813333 648.69333333l0.14506667-50.81386666c124.4768-72.33813333 248.95466667-144.6752 373.43146667-217.0144z"
         ></path>
    <path d="M472.04053333 597.88373333l-0.144 50.81493334-375.87306666-217.01226667 0.14293333-50.8128 375.87413333 217.01013333z"
         ></path>
    <path d="M574.8832 597.88053333l-0.14506667 50.81386667c-4.85333333 2.81813333-10.22293333 5.15413333-15.93813333 7.00586667l0.14613333-50.81066667c5.712-1.85386667 11.0848-4.19093333 15.93706667-7.00906667M558.94613333 604.8896l-0.14613333 50.81066667c-4.4128 1.4336-9.02933333 2.57386667-13.7696 3.4304l0.14506667-50.81493334a105.40053333 105.40053333 0 0 0 13.77066666-3.42613333"
         ></path>
    <path d="M545.17546667 608.31573333l-0.14506667 50.81493334c-3.0464 0.54933333-6.14933333 0.9792-9.27466667 1.29066666l0.144-50.8128c3.1264-0.31253333 6.2272-0.74133333 9.27573334-1.2928M535.89866667 609.60853333l-0.144 50.8128c-2.672 0.26666667-5.3632 0.44586667-8.06506667 0.53653334l0.14293333-50.81173334a124.88533333 124.88533333 0 0 0 8.06613334-0.5376"
         ></path>
    <path d="M527.8336 610.14613333l-0.14293333 50.81173334a125.65333333 125.65333333 0 0 1-7.44853334 0.03626666l0.14293334-50.8128c2.48213333 0.05973333 4.9696 0.05013333 7.44853333-0.0352M520.384 610.18133333l-0.14293333 50.8128a129.00053333 129.00053333 0 0 1-7.1616-0.38293333l0.14293333-50.81386667c2.37866667 0.1952 4.768 0.32533333 7.1616 0.384"
         ></path>
    <path d="M513.2224 609.79733333l-0.14293333 50.81386667a123.7216 123.7216 0 0 1-7.07093334-0.79146667l0.14506667-50.81386666c2.33706667 0.3328 4.69653333 0.5952 7.0688 0.79146666"
         ></path>
    <path d="M506.15466667 609.0048l-0.14506667 50.81386667a115.744 115.744 0 0 1-7.20853333-1.25226667l0.144-50.81493333c2.3712 0.4928 4.7776 0.91093333 7.2096 1.25333333"
         ></path>
    <path d="M498.94506667 607.75253333l-0.144 50.81493334a107.792 107.792 0 0 1-7.584-1.86026667l0.14293333-50.81173333c2.47893333 0.70506667 5.0112 1.32373333 7.58506667 1.85706666M491.36 605.8944l-0.14293333 50.81173333a95.29706667 95.29706667 0 0 1-8.82986667-2.98026666l0.14506667-50.8128a94.00853333 94.00853333 0 0 0 8.82773333 2.98133333"
         ></path>
    <path d="M482.5312 602.91306667c-0.048 16.9376-0.09493333 33.8752-0.14506667 50.8128-3.6928-1.4592-7.20746667-3.13493333-10.4896-5.02826667l0.144-50.81493333c3.28213333 1.89653333 6.79573333 3.5712 10.49066667 5.0304"
         ></path>
    <path d="M947.97866667 321.29813333L572.10666667 104.288c-28.49706667-16.45333333-74.53866667-16.45333333-102.84373334-0.00426667L95.8304 321.29813333c-28.30933333 16.45226667-28.15893333 43.12106667 0.33493333 59.5744l375.8752 217.0112c28.4896 16.45013333 74.53226667 16.44906667 102.84266667-0.0032 124.4768-72.33813333 248.95573333-144.67626667 373.43146667-217.01546666 28.30293333-16.44906667 28.15253333-43.11893333-0.336-59.56693334zM447.2448 175.856l63.52426667 20.20053333 63.1008-37.28746666-20.26026667 52.62186666 59.99466667 24.01493334-76.04586667 12.31253333-26.01706667 52.13226667-26.736-45.0112-76.07466666 8.20906666 59.5168-40.1408-21.00266667-47.05173333z m-185.88693333 184.26666667c-13.5744-7.8368-22.72213333-18.34453333-24.75626667-30.23893334-4.64746667-27.19146667 29.6288-51.344 76.55573333-53.9488 26.4-1.4656 51.17546667 4.20053333 68.63146667 14.27946667 13.5744 7.83786667 22.7232 18.3456 24.7552 30.24 4.64853333 27.1904-29.6224 51.3472-76.55466667 53.94773333-26.4 1.4656-51.17333333-4.20053333-68.63146666-14.27946666z m272.816 174.70826666l-165.952-95.81333333 225.76213333-35.06773333-59.81013333 130.88106666zM700.12373333 423.12533333l-137.0176-79.1072 136.1248-79.1104 137.01973334 79.10933334-136.12693334 79.10826666z"
         ></path>
    <path d="M970.1824 454.912c-0.0768 27.68-0.15573333 55.35573333-0.23573333 83.0368-0.032 11.66826667-7.70026667 23.3184-23.01866667 32.2208l0.23573333-83.03893333c15.31733333-8.90133333 22.98666667-20.55146667 23.01866667-32.21866667zM75.1872 537.49546667l0.23573333-83.03786667c-0.03306667 11.8208 7.7696 23.65866667 23.392 32.6784l-0.23573333 83.0368c-15.62346667-9.01866667-23.42506667-20.8576-23.392-32.67733333z"
         ></path>
    <path d="M947.16373333 487.13173333l-0.23573333 83.03893334-366.9504 213.248 0.23573333-83.03786667 366.9504-213.24906667zM468.16426667 700.37973333l-0.23573334 83.03786667-369.3504-213.2448 0.23573334-83.0368a65634778.22933333 65634778.22933333 0 0 0 369.3504 213.24373333zM580.21333333 700.37973333l-0.23573333 83.03786667c-30.84266667 17.9232-81.0048 17.9232-112.04906667 0l0.23573334-83.03786667c31.04426667 17.9232 81.2064 17.9232 112.04906666 0z"
         ></path>
    <path d="M970.1824 602.05226667c-0.0768 27.68-0.15573333 55.35573333-0.23573333 83.0368-0.032 11.66826667-7.70026667 23.3184-23.01866667 32.2208l0.23573333-83.03893334c15.31733333-8.90026667 22.98666667-20.55146667 23.01866667-32.21866666zM75.1872 684.63573333l0.23573333-83.03786666c-0.03306667 11.81973333 7.7696 23.65866667 23.392 32.67733333l-0.23573333 83.03786667c-15.62346667-9.01973333-23.42506667-20.85866667-23.392-32.67733334z"
         ></path>
    <path d="M947.16373333 634.27093333l-0.23573333 83.03893334-366.9504 213.248 0.23573333-83.03786667 366.9504-213.24906667zM468.16426667 847.52l-0.23573334 83.03786667L98.57813333 717.312l0.23573334-83.03786667L468.16426667 847.52zM580.21333333 847.52l-0.23573333 83.03786667c-30.84266667 17.92426667-81.0048 17.92426667-112.04906667 0l0.23573334-83.03786667c31.04426667 17.92426667 81.2064 17.92426667 112.04906666 0z"
         ></path>
    <path d="M969.44533333 351.2896l-0.14506666 50.81173333c-0.00106667 0.21333333-0.00426667 0.42666667-0.01066667 0.64l0.14506667-50.8128c0.0064-0.21333333 0.0096-0.42666667 0.01066666-0.63893333"
         ></path>
    <path d="M969.43573333 351.92853333l-0.14506666 50.8128a24.7104 24.7104 0 0 1-0.47573334 4.17173334l0.144-50.8128c0.27733333-1.3856 0.43626667-2.7776 0.4768-4.17173334M968.95786667 356.0992l-0.144 50.8128a26.58453333 26.58453333 0 0 1-1.1744 4.09386667l0.144-50.8128a26.432 26.432 0 0 0 1.1744-4.09386667"
         ></path>
    <path d="M967.78453333 360.19413333l-0.144 50.8128a29.86986667 29.86986667 0 0 1-1.93706666 4.13333334l0.1408-50.81173334a29.4112 29.4112 0 0 0 1.94026666-4.1344"
         ></path>
    <path d="M965.84426667 364.32853333c-0.04693333 16.93653333-0.09493333 33.87413333-0.1408 50.81173334a34.288 34.288 0 0 1-2.92693334 4.3456l0.14506667-50.8128a34.27626667 34.27626667 0 0 0 2.92266667-4.34453334M962.92053333 368.67306667l-0.14506666 50.8128a42 42 0 0 1-4.50986667 4.84906666l0.144-50.8128a41.64586667 41.64586667 0 0 0 4.51093333-4.84906666"
         ></path>
    <path d="M958.41066667 373.52213333l-0.144 50.8128c-2.6048 2.4064-5.6768 4.69333333-9.20746667 6.81813334l0.144-50.8128c3.53066667-2.12373333 6.59946667-4.41173333 9.20746667-6.81813334"
         ></path>
    <path d="M949.2032 380.3392c-0.048 16.9376-0.09386667 33.8752-0.144 50.8128-0.29226667 0.176-0.58666667 0.352-0.88853333 0.5248l0.144-50.8128c0.29866667-0.1728 0.59626667-0.34773333 0.88853333-0.5248"
         ></path>
    <path d="M96.1664 380.87253333l-0.14293333 50.8128c-14.34026667-8.27946667-21.50186667-19.1456-21.46986667-29.99573333l0.14293333-50.81173333c-0.03093333 10.85013333 7.13066667 21.7152 21.46986667 29.99466666"
         ></path>
    <path d="M948.31466667 380.86506667l-0.144 50.8128L574.73813333 648.69333333l0.14506667-50.81386666c124.4768-72.33813333 248.95466667-144.6752 373.43146667-217.0144z"
         ></path>
    <path d="M472.04053333 597.88373333l-0.144 50.81493334-375.87306666-217.01226667 0.14293333-50.8128 375.87413333 217.01013333z"
         ></path>
    <path d="M574.8832 597.88053333l-0.14506667 50.81386667c-4.85333333 2.81813333-10.22293333 5.15413333-15.93813333 7.00586667l0.14613333-50.81066667c5.712-1.85386667 11.0848-4.19093333 15.93706667-7.00906667M558.94613333 604.8896l-0.14613333 50.81066667c-4.4128 1.4336-9.02933333 2.57386667-13.7696 3.4304l0.14506667-50.81493334a105.40053333 105.40053333 0 0 0 13.77066666-3.42613333"
         ></path>
    <path d="M545.17546667 608.31573333l-0.14506667 50.81493334c-3.0464 0.54933333-6.14933333 0.9792-9.27466667 1.29066666l0.144-50.8128c3.1264-0.31253333 6.2272-0.74133333 9.27573334-1.2928M535.89866667 609.60853333l-0.144 50.8128c-2.672 0.26666667-5.3632 0.44586667-8.06506667 0.53653334l0.14293333-50.81173334a124.88533333 124.88533333 0 0 0 8.06613334-0.5376"
         ></path>
    <path d="M527.8336 610.14613333l-0.14293333 50.81173334a125.65333333 125.65333333 0 0 1-7.44853334 0.03626666l0.14293334-50.8128c2.48213333 0.05973333 4.9696 0.05013333 7.44853333-0.0352M520.384 610.18133333l-0.14293333 50.8128a129.00053333 129.00053333 0 0 1-7.1616-0.38293333l0.14293333-50.81386667c2.37866667 0.1952 4.768 0.32533333 7.1616 0.384"
         ></path>
    <path d="M513.2224 609.79733333l-0.14293333 50.81386667a123.7216 123.7216 0 0 1-7.07093334-0.79146667l0.14506667-50.81386666c2.33706667 0.3328 4.69653333 0.5952 7.0688 0.79146666"
         ></path>
    <path d="M506.15466667 609.0048l-0.14506667 50.81386667a115.744 115.744 0 0 1-7.20853333-1.25226667l0.144-50.81493333c2.3712 0.4928 4.7776 0.91093333 7.2096 1.25333333"
         ></path>
    <path d="M498.94506667 607.75253333l-0.144 50.81493334a107.792 107.792 0 0 1-7.584-1.86026667l0.14293333-50.81173333c2.47893333 0.70506667 5.0112 1.32373333 7.58506667 1.85706666M491.36 605.8944l-0.14293333 50.81173333a95.29706667 95.29706667 0 0 1-8.82986667-2.98026666l0.14506667-50.8128a94.00853333 94.00853333 0 0 0 8.82773333 2.98133333"
         ></path>
    <path d="M482.5312 602.91306667c-0.048 16.9376-0.09493333 33.8752-0.14506667 50.8128-3.6928-1.4592-7.20746667-3.13493333-10.4896-5.02826667l0.144-50.81493333c3.28213333 1.89653333 6.79573333 3.5712 10.49066667 5.0304"
         ></path>
    <path d="M947.97866667 321.29813333L572.10666667 104.288c-28.49706667-16.45333333-74.53866667-16.45333333-102.84373334-0.00426667L95.8304 321.29813333c-28.30933333 16.45226667-28.15893333 43.12106667 0.33493333 59.5744l375.8752 217.0112c28.4896 16.45013333 74.53226667 16.44906667 102.84266667-0.0032 124.4768-72.33813333 248.95573333-144.67626667 373.43146667-217.01546666 28.30293333-16.44906667 28.15253333-43.11893333-0.336-59.56693334zM447.2448 175.856l63.52426667 20.20053333 63.1008-37.28746666-20.26026667 52.62186666 59.99466667 24.01493334-76.04586667 12.31253333-26.01706667 52.13226667-26.736-45.0112-76.07466666 8.20906666 59.5168-40.1408-21.00266667-47.05173333z m-185.88693333 184.26666667c-13.5744-7.8368-22.72213333-18.34453333-24.75626667-30.23893334-4.64746667-27.19146667 29.6288-51.344 76.55573333-53.9488 26.4-1.4656 51.17546667 4.20053333 68.63146667 14.27946667 13.5744 7.83786667 22.7232 18.3456 24.7552 30.24 4.64853333 27.1904-29.6224 51.3472-76.55466667 53.94773333-26.4 1.4656-51.17333333-4.20053333-68.63146666-14.27946666z m272.816 174.70826666l-165.952-95.81333333 225.76213333-35.06773333-59.81013333 130.88106666zM700.12373333 423.12533333l-137.0176-79.1072 136.1248-79.1104 137.01973334 79.10933334-136.12693334 79.10826666z"
         ></path>
    <path d="M970.1824 454.912c-0.0768 27.68-0.15573333 55.35573333-0.23573333 83.0368-0.032 11.66826667-7.70026667 23.3184-23.01866667 32.2208l0.23573333-83.03893333c15.31733333-8.90133333 22.98666667-20.55146667 23.01866667-32.21866667zM75.1872 537.49546667l0.23573333-83.03786667c-0.03306667 11.8208 7.7696 23.65866667 23.392 32.6784l-0.23573333 83.0368c-15.62346667-9.01866667-23.42506667-20.8576-23.392-32.67733333z"
         ></path>
    <path d="M947.16373333 487.13173333l-0.23573333 83.03893334-366.9504 213.248 0.23573333-83.03786667 366.9504-213.24906667zM468.16426667 700.37973333l-0.23573334 83.03786667-369.3504-213.2448 0.23573334-83.0368a65634778.22933333 65634778.22933333 0 0 0 369.3504 213.24373333zM580.21333333 700.37973333l-0.23573333 83.03786667c-30.84266667 17.9232-81.0048 17.9232-112.04906667 0l0.23573334-83.03786667c31.04426667 17.9232 81.2064 17.9232 112.04906666 0z"
         ></path>
    <path d="M970.1824 602.05226667c-0.0768 27.68-0.15573333 55.35573333-0.23573333 83.0368-0.032 11.66826667-7.70026667 23.3184-23.01866667 32.2208l0.23573333-83.03893334c15.31733333-8.90026667 22.98666667-20.55146667 23.01866667-32.21866666zM75.1872 684.63573333l0.23573333-83.03786666c-0.03306667 11.81973333 7.7696 23.65866667 23.392 32.67733333l-0.23573333 83.03786667c-15.62346667-9.01973333-23.42506667-20.85866667-23.392-32.67733334z"
         ></path>
    <path d="M947.16373333 634.27093333l-0.23573333 83.03893334-366.9504 213.248 0.23573333-83.03786667 366.9504-213.24906667zM468.16426667 847.52l-0.23573334 83.03786667L98.57813333 717.312l0.23573334-83.03786667L468.16426667 847.52zM580.21333333 847.52l-0.23573333 83.03786667c-30.84266667 17.92426667-81.0048 17.92426667-112.04906667 0l0.23573334-83.03786667c31.04426667 17.92426667 81.2064 17.92426667 112.04906666 0z"
         ></path>
    <path d="M969.44533333 351.2896l-0.14506666 50.81173333c-0.00106667 0.21333333-0.00426667 0.42666667-0.01066667 0.64l0.14506667-50.8128c0.0064-0.21333333 0.0096-0.42666667 0.01066666-0.63893333"
         ></path>
    <path d="M969.43573333 351.92853333l-0.14506666 50.8128a24.7104 24.7104 0 0 1-0.47573334 4.17173334l0.144-50.8128c0.27733333-1.3856 0.43626667-2.7776 0.4768-4.17173334M968.95786667 356.0992l-0.144 50.8128a26.58453333 26.58453333 0 0 1-1.1744 4.09386667l0.144-50.8128a26.432 26.432 0 0 0 1.1744-4.09386667"
         ></path>
    <path d="M967.78453333 360.19413333l-0.144 50.8128a29.86986667 29.86986667 0 0 1-1.93706666 4.13333334l0.1408-50.81173334a29.4112 29.4112 0 0 0 1.94026666-4.1344"
         ></path>
    <path d="M965.84426667 364.32853333c-0.04693333 16.93653333-0.09493333 33.87413333-0.1408 50.81173334a34.288 34.288 0 0 1-2.92693334 4.3456l0.14506667-50.8128a34.27626667 34.27626667 0 0 0 2.92266667-4.34453334M962.92053333 368.67306667l-0.14506666 50.8128a42 42 0 0 1-4.50986667 4.84906666l0.144-50.8128a41.64586667 41.64586667 0 0 0 4.51093333-4.84906666"
         ></path>
    <path d="M958.41066667 373.52213333l-0.144 50.8128c-2.6048 2.4064-5.6768 4.69333333-9.20746667 6.81813334l0.144-50.8128c3.53066667-2.12373333 6.59946667-4.41173333 9.20746667-6.81813334"
         ></path>
    <path d="M949.2032 380.3392c-0.048 16.9376-0.09386667 33.8752-0.144 50.8128-0.29226667 0.176-0.58666667 0.352-0.88853333 0.5248l0.144-50.8128c0.29866667-0.1728 0.59626667-0.34773333 0.88853333-0.5248"
         ></path>
    <path d="M96.1664 380.87253333l-0.14293333 50.8128c-14.34026667-8.27946667-21.50186667-19.1456-21.46986667-29.99573333l0.14293333-50.81173333c-0.03093333 10.85013333 7.13066667 21.7152 21.46986667 29.99466666"
         ></path>
    <path d="M948.31466667 380.86506667l-0.144 50.8128L574.73813333 648.69333333l0.14506667-50.81386666c124.4768-72.33813333 248.95466667-144.6752 373.43146667-217.0144z"
         ></path>
    <path d="M472.04053333 597.88373333l-0.144 50.81493334-375.87306666-217.01226667 0.14293333-50.8128 375.87413333 217.01013333z"
         ></path>
    <path d="M574.8832 597.88053333l-0.14506667 50.81386667c-4.85333333 2.81813333-10.22293333 5.15413333-15.93813333 7.00586667l0.14613333-50.81066667c5.712-1.85386667 11.0848-4.19093333 15.93706667-7.00906667M558.94613333 604.8896l-0.14613333 50.81066667c-4.4128 1.4336-9.02933333 2.57386667-13.7696 3.4304l0.14506667-50.81493334a105.40053333 105.40053333 0 0 0 13.77066666-3.42613333"
         ></path>
    <path d="M545.17546667 608.31573333l-0.14506667 50.81493334c-3.0464 0.54933333-6.14933333 0.9792-9.27466667 1.29066666l0.144-50.8128c3.1264-0.31253333 6.2272-0.74133333 9.27573334-1.2928M535.89866667 609.60853333l-0.144 50.8128c-2.672 0.26666667-5.3632 0.44586667-8.06506667 0.53653334l0.14293333-50.81173334a124.88533333 124.88533333 0 0 0 8.06613334-0.5376"
         ></path>
    <path d="M527.8336 610.14613333l-0.14293333 50.81173334a125.65333333 125.65333333 0 0 1-7.44853334 0.03626666l0.14293334-50.8128c2.48213333 0.05973333 4.9696 0.05013333 7.44853333-0.0352M520.384 610.18133333l-0.14293333 50.8128a129.00053333 129.00053333 0 0 1-7.1616-0.38293333l0.14293333-50.81386667c2.37866667 0.1952 4.768 0.32533333 7.1616 0.384"
         ></path>
    <path d="M513.2224 609.79733333l-0.14293333 50.81386667a123.7216 123.7216 0 0 1-7.07093334-0.79146667l0.14506667-50.81386666c2.33706667 0.3328 4.69653333 0.5952 7.0688 0.79146666"
         ></path>
    <path d="M506.15466667 609.0048l-0.14506667 50.81386667a115.744 115.744 0 0 1-7.20853333-1.25226667l0.144-50.81493333c2.3712 0.4928 4.7776 0.91093333 7.2096 1.25333333"
         ></path>
    <path d="M498.94506667 607.75253333l-0.144 50.81493334a107.792 107.792 0 0 1-7.584-1.86026667l0.14293333-50.81173333c2.47893333 0.70506667 5.0112 1.32373333 7.58506667 1.85706666M491.36 605.8944l-0.14293333 50.81173333a95.29706667 95.29706667 0 0 1-8.82986667-2.98026666l0.14506667-50.8128a94.00853333 94.00853333 0 0 0 8.82773333 2.98133333"
         ></path>
    <path d="M482.5312 602.91306667c-0.048 16.9376-0.09493333 33.8752-0.14506667 50.8128-3.6928-1.4592-7.20746667-3.13493333-10.4896-5.02826667l0.144-50.81493333c3.28213333 1.89653333 6.79573333 3.5712 10.49066667 5.0304"
         ></path>
    <path d="M947.97866667 321.29813333L572.10666667 104.288c-28.49706667-16.45333333-74.53866667-16.45333333-102.84373334-0.00426667L95.8304 321.29813333c-28.30933333 16.45226667-28.15893333 43.12106667 0.33493333 59.5744l375.8752 217.0112c28.4896 16.45013333 74.53226667 16.44906667 102.84266667-0.0032 124.4768-72.33813333 248.95573333-144.67626667 373.43146667-217.01546666 28.30293333-16.44906667 28.15253333-43.11893333-0.336-59.56693334zM447.2448 175.856l63.52426667 20.20053333 63.1008-37.28746666-20.26026667 52.62186666 59.99466667 24.01493334-76.04586667 12.31253333-26.01706667 52.13226667-26.736-45.0112-76.07466666 8.20906666 59.5168-40.1408-21.00266667-47.05173333z m-185.88693333 184.26666667c-13.5744-7.8368-22.72213333-18.34453333-24.75626667-30.23893334-4.64746667-27.19146667 29.6288-51.344 76.55573333-53.9488 26.4-1.4656 51.17546667 4.20053333 68.63146667 14.27946667 13.5744 7.83786667 22.7232 18.3456 24.7552 30.24 4.64853333 27.1904-29.6224 51.3472-76.55466667 53.94773333-26.4 1.4656-51.17333333-4.20053333-68.63146666-14.27946666z m272.816 174.70826666l-165.952-95.81333333 225.76213333-35.06773333-59.81013333 130.88106666zM700.12373333 423.12533333l-137.0176-79.1072 136.1248-79.1104 137.01973334 79.10933334-136.12693334 79.10826666z"
         ></path>
</svg>
