<svg viewBox="0 0 1213 1024" xmlns="http://www.w3.org/2000/svg" fill="currentColor" height="1em" width="1em">
    <path d="M962 62c91.9000002 0 166.66666699 74.7666668 166.66666699 166.66666699v566.66666602c0 91.9000002-74.7666668 166.66666699-166.66666699 166.66666699H853.6666669a41.66666631 41.66666631 0 1 1 0-83.33333349h108.3333331c45.9500001 0 83.33333349-37.3833334 83.33333349-83.3333335V228.66666699c0-45.9500001-37.3833334-83.33333349-83.33333349-83.3333335H228.66666699c-45.9500001 0-83.33333349 37.3833334-83.3333335 83.33333351v114.583333a41.66666631 41.66666631 0 1 1-83.33333349 0V228.66666699C62 136.7666668 136.7666668 62 228.66666699 62h733.33333301zM857.83333291 392.13333301L735.38333369 516.1166668A165.5833333 165.5833333 0 0 1 757.83333359 599.50000039V795.33333301c0 91.9000002-74.7666668 166.66666699-166.66666698 166.66666699H228.66666699C136.7666668 962 62 887.2333332 62 795.33333301V599.50000039c0-91.9000002 74.7666668-166.66666699 166.66666699-166.66666699h362.49999961c31.35833349 0 60.71666661 8.716667 85.7916668 23.8333333L799.266667 332.8333332H691.1666668a41.66666631 41.66666631 0 1 1 0-83.33333349h142.71666679c59.1583333 0 107.28333369 48.12500039 107.28333282 107.28333368V499.50000019a41.66666631 41.66666631 0 1 1-83.3333335 0V392.13333301zM674.5000001 795.33333301V599.50000039c0-45.9500001-37.3833334-83.33333349-83.33333349-83.33333349H228.66666699c-45.9500001 0-83.33333349 37.3833334-83.3333335 83.33333349V795.33333301c0 45.9500001 37.3833334 83.33333349 83.33333351 83.3333335h362.4999996c45.9500001 0 83.33333349-37.3833334 83.3333335-83.33333351z"
         ></path>
</svg>
