<svg viewBox="0 0 1024 1024" xmlns="http://www.w3.org/2000/svg" fill="currentColor" height="1em" width="1em">
    <path d="M979.47999969 500.36l-39.79999969-24.64000031a542.35999969 542.35999969 0 0 0-1.12000031-11.59999969l34.2-31.87999969a13.75999969 13.75999969 0 0 0-4.56-22.84000031l-43.71999938-16.36000031a335.68000031 335.68000031 0 0 0-3.44000062-11.28l27.28000031-37.87999969a13.68 13.68 0 0 0-8.92000031-21.52000031l-46.08-7.47999938a369.72 369.72 0 0 0-5.55999938-10.36000031l19.35999938-42.52000031c1.99999969-4.32 1.56-9.36-1.08-13.27999969s-7.12000031-6.24-11.88-6.07999969l-46.8 1.63999969a266.47999969 266.47999969 0 0 0-7.39999969-8.95999969l10.75999969-45.56000062a13.72000031 13.72000031 0 0 0-16.47999938-16.47999938l-45.56000062 10.75999969a553.87999969 553.87999969 0 0 0-9-7.39999969l1.64000062-46.8a13.60000031 13.60000031 0 0 0-19.36000031-12.96l-42.52000031 19.39999969c-3.43999969-1.87999969-6.88000031-3.76000031-10.35999938-5.56000031l-7.52000062-46.11999938a13.75999969 13.75999969 0 0 0-21.51999938-8.92000031l-37.92 27.28000031a335.32000031 335.32000031 0 0 0-11.28-3.40000031L614.48 55.83999969a13.75999969 13.75999969 0 0 0-22.84000031-4.56l-31.87999969 34.24000031a367.2 367.2 0 0 0-11.59999969-1.12000031l-24.64000031-39.79999969a13.68 13.68 0 0 0-23.28 0l-24.64000031 39.79999969c-3.88000031 0.31999969-7.75999969 0.72-11.59999969 1.12000031l-31.92-34.24000031a13.68 13.68 0 0 0-22.84000031 4.56l-16.35999938 43.72000031c-3.79999969 1.08-7.51999969 2.23999969-11.28 3.40000031l-37.88000062-27.28000031a13.75999969 13.75999969 0 0 0-21.51999938 8.92000031l-7.52000062 46.11999938a369.72 369.72 0 0 0-10.35999938 5.56000031l-42.52000031-19.39999969a13.68 13.68 0 0 0-19.36000031 12.96l1.64000062 46.8c-3.04000031 2.4-6.04000031 4.87999969-9 7.39999969l-45.56000062-10.75999969a13.72000031 13.72000031 0 0 0-16.47999938 16.47999938l10.71999938 45.56000062c-2.47999969 2.95999969-4.96000031 5.95999969-7.35999938 8.95999969l-46.8-1.63999969a13.68 13.68 0 0 0-12.96 19.35999938l19.39999969 42.52000031a362.20000031 362.20000031 0 0 0-5.56000031 10.36000031l-46.08 7.47999938a13.75999969 13.75999969 0 0 0-8.91999938 21.52000031l27.27999938 37.87999969c-1.2 3.76000031-2.32000031 7.48000031-3.43999969 11.28L55.59999969 409.4a13.75999969 13.75999969 0 0 0-4.56 22.84000031l34.2 31.87999969a367.2 367.2 0 0 0-1.11999938 11.59999969l-39.80000062 24.64000031a13.60000031 13.60000031 0 0 0 0 23.28l39.80000062 24.64000031c0.31999969 3.88000031 0.72 7.75999969 1.11999938 11.59999969l-34.2 31.92a13.68 13.68 0 0 0 4.56 22.84000031l43.72000031 16.35999938c1.08 3.79999969 2.23999969 7.56 3.43999969 11.28l-27.27999938 37.88000062a13.63999969 13.63999969 0 0 0 8.95999969 21.51999938l46.08 7.48000031c1.8 3.48 3.64000031 6.91999969 5.56000031 10.36000031l-19.40000062 42.51999938a13.68 13.68 0 0 0 12.96 19.36000031l46.76000062-1.63999969c2.44000031 3.04000031 4.87999969 6.04000031 7.39999969 9l-10.72000031 45.6a13.68 13.68 0 0 0 16.48000031 16.44l45.55999969-10.72000031c2.95999969 2.52 5.95999969 4.96000031 9 7.36000031l-1.63999969 46.8a13.60000031 13.60000031 0 0 0 19.36000031 12.91999969l42.51999938-19.36000031c3.43999969 1.92 6.88000031 3.76000031 10.36000031 5.56000031l7.51999969 46.08a13.75999969 13.75999969 0 0 0 21.52000031 8.95999969l37.87999969-27.27999938c3.76000031 1.2 7.48000031 2.35999969 11.28 3.43999969l16.36000031 43.72000031a13.63999969 13.63999969 0 0 0 22.84000031 4.56l31.92-34.2c3.84 0.43999969 7.72000031 0.79999969 11.59999969 1.15999969l24.64000031 39.79999969a13.72000031 13.72000031 0 0 0 23.28 0l24.63999938-39.79999969c3.88000031-0.36 7.75999969-0.72 11.60000062-1.15999969l31.87999969 34.2a13.75999969 13.75999969 0 0 0 22.84000031-4.56l16.35999938-43.72000031c3.79999969-1.08 7.56-2.23999969 11.28-3.43999969l37.88000062 27.27999938a13.63999969 13.63999969 0 0 0 21.51999938-8.95999969l7.52000062-46.08c3.48-1.8 6.91999969-3.67999969 10.35999938-5.56000031l42.52000031 19.36000031a13.72000031 13.72000031 0 0 0 19.36000031-12.91999969l-1.64000062-46.8c3.04000031-2.4 6.04000031-4.84000031 8.96000062-7.36000031l45.55999969 10.72000031a13.72000031 13.72000031 0 0 0 16.48000031-16.44l-10.72000031-45.6c2.47999969-2.95999969 4.96000031-5.95999969 7.36000031-9l46.8 1.63999969a13.60000031 13.60000031 0 0 0 12.96-19.36000031l-19.36000031-42.51999938c1.87999969-3.43999969 3.76000031-6.88000031 5.56000031-10.36000031l46.08-7.48000031a13.75999969 13.75999969 0 0 0 8.91999938-21.51999938l-27.27999938-37.88000062 3.43999969-11.28 43.72000031-16.35999938a13.68 13.68 0 0 0 4.56-22.84000031l-34.2-31.92c0.40000031-3.84 0.79999969-7.72000031 1.11999938-11.59999969l39.80000062-24.64000031a13.60000031 13.60000031 0 0 0 0-23.28z m-266.35999969 330.12a28.2 28.2 0 0 1 11.80000031-55.15999969 28.2 28.2 0 1 1-11.84000062 55.15999969z m-13.51999969-91.44a25.63999969 25.63999969 0 0 0-30.48 19.75999969l-14.12000062 65.92000031c-43.60000031 19.8-91.99999969 30.79999969-142.99999969 30.79999969a345.19999969 345.19999969 0 0 1-145.99999969-32.16l-14.12000062-65.91999938a25.60000031 25.60000031 0 0 0-30.48-19.72000031l-58.2 12.48a344.59999969 344.59999969 0 0 1-30.07999969-35.47999969h283.2c3.19999969 0 5.35999969-0.55999969 5.35999969-3.48v-100.2c0-2.92000031-2.11999969-3.48-5.35999969-3.48h-82.84000031v-63.52000031h89.60000062c8.16 0 43.72000031 2.32000031 55.08 47.76 3.55999969 13.96000031 11.35999969 59.44000031 16.71999938 73.99999969 5.32000031 16.32 27 48.91999969 50.12000062 48.92000062h141.12a29.59999969 29.59999969 0 0 0 5.11999969-0.52000031 347.20000031 347.20000031 0 0 1-32.08000031 37.63999969l-59.55999938-12.79999969z m-391.72000031 90.07999969a28.2 28.2 0 1 1-11.83999969-55.15999969 28.2 28.2 0 0 1 11.83999969 55.15999969zM200.43999969 393.44a28.2 28.2 0 1 1-51.51999938 22.87999969 28.2 28.2 0 0 1 51.51999938-22.87999969z m-33 78.28000031l60.64000031-26.96000062a25.68 25.68 0 0 0 13.03999969-33.91999969l-12.48-28.24000031h49.12000031v221.36000062H178.68000031a346.72000031 346.72000031 0 0 1-11.20000031-132.28000031z m266.08000031-21.48V384.99999969h116.95999969c6.04000031 0 42.64000031 7.00000031 42.64000031 34.36000031 0 22.72000031-28.08 30.88000031-51.16000031 30.88000031h-108.43999969z m425.04 58.71999938c0 8.64-0.31999969 17.23999969-0.96 25.72000031h-35.56000031c-3.55999969 0-4.99999969 2.32000031-4.99999969 5.83999969v16.32c0 38.44000031-21.67999969 46.8-40.68 48.92000062-18.07999969 2.04-38.11999969-7.56-40.60000031-18.64000031-10.68-60-28.44-72.84-56.52-94.96000031 34.84000031-22.12000031 71.08000031-54.76000031 71.08000031-98.43999938 0-47.16-32.35999969-76.87999969-54.40000031-91.48000031-30.91999969-20.4-65.16-24.48-74.4-24.48H253.80000031a346.32 346.32 0 0 1 193.87999969-109.44l43.36000031 45.48a25.60000031 25.60000031 0 0 0 36.27999938 0.84l48.48-46.39999969a346.72000031 346.72000031 0 0 1 237.24 168.96l-33.19999969 75a25.75999969 25.75999969 0 0 0 13.03999969 33.91999969l63.92000062 28.39999969c1.12000031 11.35999969 1.68 22.8 1.68 34.44z m-367.48000031-379.27999969a28.12000031 28.12000031 0 1 1 38.88 40.75999969 28.2 28.2 0 0 1-38.88-40.75999969z m329.48000062 265.12000031a28.08 28.08 0 0 1 37.11999938-14.32000031 28.2 28.2 0 1 1-37.15999969 14.35999969z"
         ></path>
</svg>
