<svg viewBox="0 0 1280 1024" xmlns="http://www.w3.org/2000/svg" fill="currentColor" height="1em" width="1em">
    <path d="M597.95 742.475c-0.5625 1.125-1.125 2.025 0 0z m467.11875-163.125a245.925 245.925 0 0 0-108.75 25.3125c-11.0625-22.3125-22.5-41.8125-24.375-56.4375-2.25-17.0625-4.6875-27.1875-2.0625-47.4375s14.4375-48.9375 14.25-51-2.625-12.375-26.8125-12.5625-45 4.6875-47.41875 11.0625a230.30625 230.30625 0 0 0-9.9375 35.8125c-4.3125 21.9375-48.35625 100.3125-73.29375 141.1875-8.25-15.9375-15.1875-30-16.6875-41.25-2.25-17.0625-4.6875-27.1875-2.0625-47.4375s14.4375-48.9375 14.25-51-2.625-12.375-26.79375-12.5625-45 4.6875-47.4375 11.0625-5.0625 21.375-9.9375 35.8125-63.54375 144.9375-78.9 178.875c-7.875 17.25-14.625 31.125-19.5 40.5-0.75 1.5-1.3125 2.4375-1.6875 3.1875 0.5625-0.9375 0.9375-1.875 0.9375-1.5-4.125 8.0625-6.5625 12.5625-6.5625 12.5625v0.1875c-3.1875 6-6.75 11.4375-8.4375 11.4375-1.125 0-3.5625-15.75 0.5625-37.3125 8.8125-45.375 29.625-115.875 29.4375-118.3125-0.1875-1.3125 3.9375-13.5-13.6875-20.0625-17.0625-6.1875-23.25 4.125-24.75 4.125s-2.625 3.75-2.625 3.75 18.9375-79.5-36.35625-79.5c-34.5 0-82.5 37.875-106.0875 72.1875-14.8125 8.0625-46.875 25.5-80.625 44.0625-12.9375 7.125-26.25 14.4375-38.8125 21.375-0.9375-0.9375-1.6875-1.875-2.625-2.8125-67.10625-71.625-191.00625-122.25-185.75625-218.4375 1.875-35.0625 14.0625-127.125 238.25625-238.875 183.75-91.5 330.65625-66.375 355.95-10.5 36.375 79.6875-78.54375 228-269.3625 249.375-72.73125 8.0625-110.9625-20.0625-120.525-30.5625-9.9375-11.0625-11.4375-11.625-15.1875-9.5625-6.1875 3.375-2.25 13.125 0 18.9375 5.625 14.8125 29.0625 41.0625 68.98125 54.1875 35.0625 11.4375 120.3375 17.8125 223.44375-22.125 115.8375-44.625 206.00625-168.9375 179.56875-273C756.725 66.35 581.375 31.6625 415.56875 90.5375c-98.79375 35.0625-205.63125 90.1875-282.4875 162-91.29375 85.5-105.9 159.9375-99.9 191.0625 21.35625 110.4375 173.56875 182.4375 234.4875 235.6875-3 1.6875-5.8125 3.1875-8.4375 4.6875-30.54375 15.1875-146.5875 75.9375-175.63125 140.0625-32.8125 72.75 5.4375 124.875 30.54375 132 78.35625 21.75 158.5875-17.4375 201.69375-81.75s37.875-148.3125 18-186.5625c-0.1875-0.5625-0.5625-0.9375-0.75-1.5 7.875-4.6875 15.9375-9.375 24-14.0625 15.54375-9.1875 30.73125-17.625 44.04375-24.9375-7.5 20.25-12.9375 44.625-15.75 79.875-3.375 41.25 13.6875 94.6875 35.8125 115.6875 9.75 9.1875 21.54375 9.375 28.85625 9.375 25.875 0 37.5-21.375 50.41875-46.875 15.9375-31.125 30-67.3125 30-67.3125s-17.625 97.875 30.5625 97.875c17.60625 0 35.23125-22.6875 43.125-34.3125v0.1875s0.375-0.75 1.3125-2.25c1.875-2.8125 2.8125-4.5 2.8125-4.5v-0.5625c7.125-12.1875 22.6875-40.125 46.10625-86.25 30.375-59.625 59.41875-134.0625 59.41875-134.0625a377.325 377.325 0 0 0 11.625 48.375c5.25 17.8125 16.3125 37.3125 25.125 56.25-7.125 9.75-11.4375 15.375-11.4375 15.375a0.58125 0.58125 0 0 0 0.1875 0.375c-5.625 7.5-12 15.5625-18.5625 23.4375-23.98125 28.5-52.5 61.125-56.25 70.5-4.5 11.0625-3.375 19.3125 5.25 25.6875 6.375 4.875 17.625 5.625 29.41875 4.6875 21.5625-1.5 36.75-6.75 44.0625-10.125a154.125 154.125 0 0 0 37.85625-19.875c23.4375-17.25 37.6875-42 36.375-74.625-0.75-18-6.5625-36-13.6875-52.875 2.0625-3 4.3125-6.1875 6.375-9.375C847.25 597.725 875.9375 538.25 875.9375 538.25a377.325 377.325 0 0 0 11.625 48.375c4.5 15.1875 13.29375 31.875 21.35625 48.1875-34.85625 28.3125-56.41875 61.125-63.91875 82.6875-13.875 39.9375-3 57.9375 17.4375 62.0625 9.1875 1.875 22.3125-2.4375 32.0625-6.5625a148.9875 148.9875 0 0 0 40.48125-20.8125c23.4375-17.25 46.10625-41.4375 44.60625-74.25-0.5625-14.8125-4.6875-29.625-10.125-43.875 29.4375-12.375 67.66875-19.125 116.41875-13.5 104.4 12.1875 124.8375 77.4375 120.9 104.625s-25.875 42.375-33.1875 46.875-9.5625 6.1875-9 9.5625c0.9375 4.875 4.3125 4.6875 10.5 3.5625 8.625-1.5 54.73125-22.125 56.79375-72.5625 3-63.75-58.29375-133.875-166.875-133.3125z m-804.7125 271.3125c-34.48125 37.6875-82.85625 51.9375-103.65 39.9375C134.39375 877.625 143.20625 822.1625 185.75 782c25.875-24.375 59.23125-46.875 81.35625-60.75 5.0625-3 12.375-7.5 21.375-12.9375 1.5-0.9375 2.25-1.3125 2.25-1.3125 1.6875-1.125 3.5625-2.0625 5.4375-3.1875 15.54375 57 0.5625 107.25-35.8125 146.8125z m251.925-171.375c-12 29.4375-37.29375 104.4375-52.66875 100.5-13.125-3.375-21.1875-60.5625-2.625-116.8125 9.375-28.3125 29.25-62.0625 41.0625-75.1875 18.91875-21.1875 39.73125-27.9375 44.60625-19.5 6.5625 11.0625-22.875 92.625-30.375 111z m208.125 99.375c-5.0625 2.625-9.75 4.3125-12 3-1.6875-0.9375 2.0625-4.5 2.0625-4.5s26.0625-27.9375 36.375-40.6875c6-7.5 12.9375-16.3125 20.41875-26.0625 0 0.9375 0.1875 1.875 0.1875 3-0.24375 33.5625-32.475 56.25-47.1 65.25z m160.4625-36.5625c-3.75-2.625-3.1875-11.4375 9.375-38.8125 4.875-10.6875 16.10625-28.6875 35.625-45.9375a67.8375 67.8375 0 0 1 3.5625 20.25c-0.1875 42.1875-30.375 57.9375-48.54375 64.5z"></path>
</svg>
