<svg viewBox="0 0 1024 1024" xmlns="http://www.w3.org/2000/svg" fill="currentColor" height="1em" width="1em">
    <path d="M942.14826666 878.7968l-200.56746667-229.92213333C795.37493333 583.8848 827.73333333 500.5312 827.73333333 409.6 827.73333333 202.27413333 659.59253333 34.13333333 452.26666666 34.13333333 244.87253333 34.13333333 76.79999999 202.27413333 76.79999999 409.6S244.87253333 785.06666667 452.26666666 785.06666667c77.14133333 0 148.82133333-23.3472 208.41813333-63.21493334l199.33866667 228.5568c19.72906667 22.7328 54.272 24.91733333 76.8 5.25653334C959.62453333 935.86773333 961.87733333 901.46133333 942.14826666 878.7968zM179.19999999 409.6c0-150.59626667 122.4704-273.06666667 273.06666667-273.06666667 150.59626667 0 273.06666667 122.4704 273.06666667 273.06666667s-122.4704 273.06666667-273.06666667 273.06666667C301.67039999 682.66666667 179.19999999 560.19626667 179.19999999 409.6z"
         ></path>
</svg>
