<svg viewBox="0 0 1024 1024" xmlns="http://www.w3.org/2000/svg" fill="currentColor" height="1em" width="1em">
    <path d="M830.0316448 57.43502187l136.53333333 136.53333333L862.48106667 298.09777813l-136.53333334-136.53333333zM329.9555552 694.0444448h136.53333333l331.63946667-331.63946667-136.53333333-136.53333333L329.9555552 557.51111147z"
         ></path>
    <path d="M830.57777813 830.57777813H337.14631147c-1.18328853 0-2.41208853 0.45511147-3.59537814 0.4551104-1.50186667 0-3.00373333-0.4096-4.55111146-0.4551104H193.42222187V193.42222187h311.61457813l91.02222187-91.02222187H193.42222187c-50.1987552 0-91.02222187 40.7779552-91.02222187 91.02222187v637.15555626c0 50.24426667 40.82346667 91.02222187 91.02222187 91.02222187h637.15555626a91.02222187 91.02222187 0 0 0 91.02222187-91.02222187v-394.49031146l-91.02222187 91.02222186V830.57777813z"
         ></path>
</svg>
