<svg viewBox="0 0 1024 1024" version="1.1" xmlns="http://www.w3.org/2000/svg"
     fill="currentColor" height="1em" width="1em">
    <path d="M139.17297778 56.32252799a82.85044978 82.85044978 0 0 0-82.85044979 82.85044979v745.65404444a82.85044978 82.85044978 0 0 0 82.85044979 82.85044979h745.65404444a82.85044978 82.85044978 0 0 0 82.85044979-82.85044979V144.18542956l-310.68918518 310.68918519-209.61163735-209.61163614 87.82147675-87.90432759 121.7901606 121.79016059L879.81457044 56.32252799H139.17297778z m165.28664652 450.70644504c75.84958601 0 128.3353465 41.05239726 129.70237891 100.99469821h-76.05671253c-1.78128426-22.90814885-23.52952722-38.81543513-52.48576049-38.81543635-28.99765689 0-48.01183502 13.67032415-48.01183502 35.2114418 0 17.68857054 14.37455338 28.00345149 48.46751288 34.79718874l41.7566265 8.07791882c63.96054733 12.34471655 92.62680201 41.34237465 92.626802 92.70965286 0.04142482 67.52311584-51.57440475 108.32696298-136.4132641 108.32696175-81.89766922 0-133.47207395-38.56688379-134.83910637-100.95327216H247.70706606c2.07126164 23.57095325 25.60078885 38.56688379 59.69374959 38.56688379 30.77894235 0 51.78153127-14.78880522 51.78153006-36.0399455 0-17.97854791-14.08457599-27.6720505-51.11872686-35.0871649l-42.66798104-8.49217066c-59.23807171-11.18481067-89.68561186-43.49648592-89.68561186-94.44951229 0-63.33916896 50.62162417-104.80581806 128.70817353-104.80581928z m333.05880652 83.38897732c75.80816118 0 119.9674503 45.98199941 119.9674503 124.39994974v21.70681814h-165.45234702v3.97682158c0.66280319 32.02169909 18.93132729 51.86438091 48.75748906 51.8643809 22.78387317 0 38.48403414-8.40932101 43.78646331-22.78387317h71.37566174c-8.61644633 47.97041019-53.6870912 78.29367467-117.31623633 78.29367467-78.45937516 0-123.57144485-46.4791021-123.57144485-127.13401458 0-81.11059035 46.18912594-130.32375728 122.41153896-130.32375728z m0.41425184 55.50980148c-25.68363971 0-43.49648592 17.81284622-45.52632154 45.69202203h89.27135881c-1.32560759-28.70768071-17.72999658-45.73344805-43.7864621-45.73344807z"></path>
</svg>
