<svg viewBox="0 0 1024 1024" xmlns="http://www.w3.org/2000/svg" fill="currentColor" height="1em" width="1em">
    <path d="M786.89507555 594.71644445c-55.20384 0-104.21589333 26.50794667-135.0087111 67.48728888l-265.2421689-133.07448888c4.19157333-14.71829333 6.43640889-30.25464889 6.4364089-46.31893334 0-17.59573333-2.69539555-34.55886222-7.69137778-50.50709333l264.23864888-132.57386667c30.62442667 42.72241778 80.69006222 70.56156445 137.26606223 70.56156444 93.21358222 0 168.77795555-75.56209778 168.77795555-168.77795555 0-93.21358222-75.56323555-168.77795555-168.77795555-168.77795555-93.21472 0-168.77795555 75.56323555-168.77795556 168.77795555 0 6.44892445 0.37546667 12.80910222 1.07861333 19.07143111l-278.69297777 139.82378667c-30.26261333-28.73912889-71.17141333-46.37809778-116.20010667-46.37809778-93.21358222 0-168.77795555 75.56209778-168.77795556 168.77795555s75.56323555 168.77795555 168.77795556 168.77795556c46.66936889 0 88.91050667-18.94172445 119.46325334-49.55591111l275.9213511 138.43114667c-1.02855111 7.53322667-1.57240889 15.21664-1.57240888 23.03089778 0 93.21472 75.56209778 168.77795555 168.77795555 168.77795555s168.77795555-75.56323555 168.77795556-168.77795555c-0.00113778-93.21244445-75.55868445-168.77681778-168.77340445-168.77681778l0 0z"></path>
</svg>
