<svg viewBox="0 0 1024 1024" xmlns="http://www.w3.org/2000/svg" fill="currentColor" height="1em" width="1em">
    <path d="M840.64 208.2a9.32 9.32 0 0 0-8.8-8c-4 0-74.46-1.6-74.46-1.6s-43.22-41.64-59.24-57.66V1006.4L949.52 944s-108.08-731-108.88-735.8z m-199.34-67.26a233.34 233.34 0 0 0-14.42-35.22C606 65.7 574.84 44 538 44a30 30 0 0 0-8 0.8c-0.8-1.6-2.4-2.4-3.2-4-16-17.54-36.8-25.54-61.64-24.8-48 1.6-96 36-134.5 97.66-27.22 43.24-48 97.68-53.64 140.12-55.24 16.8-93.66 28.82-94.46 29.62-28 8.8-28.82 9.6-32 36-2.4 20-76 583.64-76 583.64L679.72 1008V131.34a83.32 83.32 0 0 0-8.8 0.8s-11.2 3.2-29.62 8.8z m-110.48 34.44c-32 9.6-67.26 20.8-101.68 31.22 9.6-37.64 28.82-75.26 51.24-100 8.8-8.8 20.82-19.22 34.42-25.62 13.62 28.74 16.82 67.98 16.02 94.4z m-65.66-126.5A54.98 54.98 0 0 1 494 56c-12.8 6.4-25.62 16.82-37.62 28.82-30.42 32.84-53.64 84-63.24 132.9-28.84 8.82-57.66 17.62-84 25.62 17.52-76.78 82.36-192.86 156.02-194.46z m-92.86 440.34c3.2 51.22 138.5 62.44 146.5 183.32 5.6 95.28-50.44 160.12-131.3 164.94-97.66 6.4-151.3-51.24-151.3-51.24l20.8-88s53.64 40.84 96.88 37.64c28-1.6 38.44-24.82 37.62-40.84-4-67.24-114.48-63.24-121.68-173.72-6.4-92.88 54.44-186.54 188.94-195.36 52-3.2 78.46 9.62 78.46 9.62l-30.42 115.2s-34.42-16-75.26-12.8c-59.24 4.02-60.04 41.62-59.24 51.24z m190.54-323.46c0-24-3.2-58.44-14.42-87.26 36.84 7.2 54.44 48 62.46 72.86q-21.62 6-48.04 14.4z"></path>
</svg>
