<svg viewBox="0 0 1024 1024" xmlns="http://www.w3.org/2000/svg" fill="currentColor" height="1em" width="1em">
    <path d="M512 53.333333l288 283.178667V85.333333L512 53.333333z m0 0l-258.133333 298.666667h516.266666l-258.133333-298.666667z m0 0L224 85.333333v251.178667L512 53.333333zM224 85.333333L0 384l188.416-29.013333L224 85.333333zM0 384l510.250667 584.661333 0.341333-0.597333L189.568 384H0z m800-298.666667l35.584 269.653334L1024 384l-224-298.666667zM1024 384h-192.256l-320.981333 584.106667 1.237333 2.56L1024 384zM512 970.666667l-1.322667-2.432-0.341333 0.512 1.664 1.92zM231.936 384l278.741333 583.936L792.064 384H231.936z"></path>
</svg>
