<svg viewBox="0 0 1024 1024" version="1.1" xmlns="http://www.w3.org/2000/svg"
    fill="currentColor" height="1em" width="1em">
  <path d="M 753.15 762.436 L 652.546 820.163 L 652.546 766.02 L 730.824 721.231 C 781.45 684.704 814.803 626.908 817.705 561.227 L 817.705 560.783 L 817.397 317.414 L 603.831 194.518 C 579.525 181.033 550.542 173.113 519.715 173.113 C 517.36 173.113 515.004 173.147 512.683 173.25 L 513.024 173.25 C 510.839 173.147 508.245 173.113 505.684 173.113 C 475.472 173.113 446.967 180.453 421.876 193.391 L 422.9 192.913 L 347.899 236.029 L 300.55 208.685 L 404.158 149.422 C 433.961 135.152 468.952 126.856 505.889 126.856 C 508.279 126.856 510.669 126.891 513.024 126.959 L 512.683 126.959 C 552.931 127.232 591.029 136.176 625.304 152.016 L 623.631 151.299 L 864.781 290.616 L 864.474 556.209 C 862.767 641.656 819.446 716.657 753.969 761.923 L 753.116 762.47 L 753.15 762.436 Z M 480.047 311.884 C 489.537 310.348 500.427 309.494 511.556 309.494 C 546.479 309.494 579.422 318.131 608.303 333.356 L 607.176 332.81 L 699.792 386.134 C 699.792 386.134 699.929 432.937 699.929 502.851 C 695.116 546.616 678.012 585.67 652.17 617.315 L 652.477 616.906 L 652.58 411.464 L 480.047 311.884 Z M 982.625 223.091 L 649.371 30.963 C 611.273 11.47 566.245 0.068 518.554 0.068 C 516.37 0.068 514.185 0.102 512 0.137 L 512.307 0.137 C 509.644 0.034 506.538 0 503.397 0 C 455.98 0 411.327 11.846 372.239 32.704 L 373.741 31.987 L 65.067 208.582 L 534.702 478.545 L 534.702 1024 L 843.786 847.541 C 884.308 821.528 917.148 786.878 940.26 745.981 L 941.011 744.547 C 962.244 708.395 976.992 665.894 982.454 620.559 L 982.591 618.988 L 982.625 223.091 Z M 41.375 385.212 L 370.567 574.097 L 370.328 630.424 L 183.047 522.992 L 65.169 589.971 L 370.089 765.713 L 370.294 819.89 L 43.594 631.961 C 52.641 686.103 73.43 734.204 103.267 775.306 L 102.584 774.316 C 124.671 805.176 152.357 830.575 184.379 849.419 L 185.608 850.102 L 487.557 1023.93 L 487.557 505.582 L 41.614 249.48 L 41.375 385.212 Z"/>
</svg>
