<svg viewBox="0 0 1024 1024" xmlns="http://www.w3.org/2000/svg" fill="currentColor" height="1em" width="1em">
    <path d="M136.533604 0.00026a49.119975 49.119975 0 0 0-35.839982 15.359992C91.307627 25.600247 85.33463 38.40024 85.33463 51.200234v921.599532a49.119975 49.119975 0 0 0 15.359992 35.839982 50.545974 50.545974 0 0 0 35.839982 15.359992h750.931619a49.119975 49.119975 0 0 0 35.839981-15.359992 50.546974 50.546974 0 0 0 15.359993-35.839982V290.134113L648.533344 0.00026z"
         ></path>
    <path d="M938.666197 290.133113H699.733318a52.492973 52.492973 0 0 1-51.199974-51.199974V0.00026z"
         ></path>
    <path d="M721.778307 767.80587L379.278481 864.999821 311.233515 653.658928l-46.179976-276.930859 325.555834-43.728978 167.610915 128.739935z m-337.680829-36.432981l104.480947-26.707987-26.776986-51.015974-97.114951 21.859989z m-31.594984-148.179925l102.021949-21.839989 26.776986 48.574975 114.131942-24.299987-70.416964-87.458956-191.924903 34.026983 19.41099 50.999974zM583.323377 364.585075l-284.216856 36.442981 19.410991 43.728978 204.053896-29.145985 75.323962 75.294962 118.984939-19.43099-133.556932-106.889946z"
         ></path>
</svg>
