<svg viewBox="0 0 1024 1024" xmlns="http://www.w3.org/2000/svg" fill="currentColor" height="1em" width="1em">
    <path d="M975.296 577.952c2.816-20.8 4.416-41.952 4.416-63.488 0-258.304-210.528-467.744-470.208-467.744-25.792 0-51.104 2.112-75.744 6.176-44.128-28.768-96.672-45.536-153.216-45.536C125.536 7.36 0 132.96 0 287.968c0 56.384 16.608 108.8 45.184 152.768-3.84 24.032-5.824 48.64-5.824 73.728 0 258.336 210.432 467.776 470.176 467.776 29.312 0 57.856-2.848 85.6-7.872 43.104 26.752 93.856 42.304 148.288 42.304C898.432 1016.64 1024 891.008 1024 736.032 1024 677.44 1006.08 622.976 975.296 577.952zM553.472 859.2c-149.408 7.776-219.328-25.28-283.392-85.376-71.52-67.136-42.784-143.712 15.488-147.616 58.24-3.872 93.216 66.016 124.288 85.472 31.04 19.392 149.184 63.52 211.584-7.808 67.936-77.664-45.184-117.856-128.128-130.016-118.4-17.536-267.904-81.6-256.256-207.808 11.616-126.144 107.168-190.816 207.712-199.936 128.16-11.648 211.584 19.424 277.568 75.712 76.288 65.056 35.008 137.792-13.6 143.648-48.416 5.824-102.816-107.008-209.568-108.704-110.048-1.728-184.448 114.528-48.576 147.584 135.936 33.024 281.504 46.56 333.92 170.848C836.992 719.424 703.008 851.392 553.472 859.2z"></path>
</svg>
