<svg viewBox="0 0 1024 1024" xmlns="http://www.w3.org/2000/svg" fill="currentColor" height="1em" width="1em">
    <path d="M554.666667 682.666667h256a42.666667 42.666667 0 1 0-22.869334-78.72c-31.402667 20.053333-71.552-6.997333-64.853333-43.605334A149.333333 149.333333 0 0 0 554.666667 385.536L554.624 682.666667z m384-42.666667a128 128 0 0 1-128 128h-298.666667a42.666667 42.666667 0 0 1-42.666667-42.666667V352.256a42.666667 42.666667 0 0 1 28.458667-40.234667A234.666667 234.666667 0 0 1 809.685333 512 128.213333 128.213333 0 0 1 938.666667 640zM170.666667 725.333333a42.666667 42.666667 0 0 1-85.333334 0v-128a42.666667 42.666667 0 0 1 85.333334 0v128z m128 0a42.666667 42.666667 0 0 1-85.333334 0v-256a42.666667 42.666667 0 0 1 85.333334 0v256z m128 0a42.666667 42.666667 0 0 1-85.333334 0v-213.333333a42.666667 42.666667 0 0 1 85.333334 0v213.333333z"></path>
</svg>
