<svg viewBox="0 0 1024 1024" xmlns="http://www.w3.org/2000/svg" fill="currentColor" height="1em" width="1em">
    <path d="M717.12 691.424q0-18.272-17.152-29.152-110.272-65.728-255.424-65.728-76 0-164 19.424-24 5.152-24 29.728 0 11.424 7.712 19.712t20.288 8.288q2.848 0 21.152-4.576 75.424-15.424 138.848-15.424 129.152 0 226.848 58.848 10.848 6.272 18.848 6.272 10.848 0 18.848-7.712t8-19.712zM771.968 568.576q0-22.848-20-34.848-135.424-80.576-313.152-80.576-87.424 0-173.152 24-27.424 7.424-27.424 36.576 0 14.272 10.016 24.288t24.288 10.016q4 0 21.152-4.576 69.728-18.848 143.424-18.848 159.424 0 278.848 70.848 13.728 7.424 21.728 7.424 14.272 0 24.288-10.016t10.016-24.288zM833.696 426.848q0-26.848-22.848-40-72-41.728-167.424-63.136t-196-21.44q-116.576 0-208 26.848-13.152 4-22.016 14.56t-8.864 27.712q0 17.728 11.712 29.728t29.44 12q6.272 0 22.848-4.576 76-21.152 175.424-21.152 90.848 0 176.864 19.424t144.864 54.272q12 6.848 22.848 6.848 16.576 0 28.864-11.712t12.288-29.44zM950.848 512q0 119.424-58.848 220.288t-159.712 159.712-220.288 58.848-220.288-58.848-159.712-159.712-58.848-220.288 58.848-220.288 159.712-159.712 220.288-58.848 220.288 58.848 159.712 159.712 58.848 220.288z"></path>
</svg>
