<svg viewBox="0 0 1024 1024" xmlns="http://www.w3.org/2000/svg" fill="currentColor" height="1em" width="1em">
    <path d="M232.51626667 863.98293333l0-287.99431146 157.8780448 379.74471146-66.1276448 0q-36.2723552 0-63.98862187-27.71626666t-27.71626667-63.98862187zM324.26666667 364.81706667q19.20568853 0 31.99431146-13.88088854t12.78862187-33.08657813-12.78862187-31.99431147-31.99431146-12.78862186-31.99431147 12.78862186-12.78862187 31.99431147 12.78862187 33.08657813 31.99431147 13.88088854zM968.5219552 691.2227552q14.9276448 34.13333333 0 69.31342187t-49.06097813 50.1532448l-334.91626667 138.6723552q-17.06666667 6.41706667-36.2723552 6.41706666-59.75608853 0-83.19431147-55.4780448l-226.14471146-546.13333333q-6.41706667-19.20568853-6.41706667-36.2723552 0-57.61706667 55.4780448-81.05528853l337.05528853-138.6723552q19.20568853-6.41706667 36.2723552-6.41706667 57.61706667 0 81.05528854 55.4780448zM81.05528853 859.7504q-34.13333333-14.9276448-49.06097813-49.06097813t0-68.26666667l110.95608853-266.6496 0 409.6z"></path>
</svg>
