<svg
        xmlns="http://www.w3.org/2000/svg"
        width="1em"
        height="1em"
        fill="currentColor" viewBox="0 0 66 66"
        preserveAspectRatio="xMidYMid meet"
>
    <circle
            fill="#FFF"
            cx="32.455"
            cy="32.665"
            r="32.455">

    </circle>
    <path
            fill="#1A171B"
            d="M46.644 12.219c-3.297.115-6.175 1.932-8.317 4.446-2.372 2.756-3.95 6.025-5.087 9.362-2.034-1.667-3.603-3.825-6.866-4.766-2.522-.724-5.171-.425-7.607 1.39-1.154.862-1.949 2.165-2.327 3.39-.979 3.183 1.029 6.016 1.941 7.033l1.994 2.137c.411.419 1.401 1.512.917 3.079-.523 1.704-2.577 2.807-4.684 2.157-.941-.287-2.293-.988-1.99-1.975.125-.404.414-.706.569-1.055.142-.3.21-.525.253-.657.385-1.257-.141-2.892-1.487-3.307-1.256-.385-2.541-.08-3.039 1.537-.565 1.837.314 5.171 5.023 6.623 5.517 1.695 10.184-1.309 10.846-5.227.417-2.454-.691-4.277-2.721-6.622l-1.654-1.829c-1.002-1.001-1.346-2.707-.309-4.018.875-1.106 2.121-1.578 4.162-1.023 2.979.809 4.307 2.876 6.523 4.543-.915 3.001-1.513 6.013-2.054 8.714l-.33 2.014c-1.584 8.308-2.793 12.87-5.935 15.489-.633.45-1.538 1.124-2.902 1.171-.715.022-.946-.47-.956-.684-.017-.502.406-.732.687-.958.42-.229 1.055-.609 1.012-1.826-.046-1.438-1.237-2.685-2.959-2.628-1.29.044-3.256 1.258-3.182 3.48.077 2.295 2.216 4.015 5.441 3.906 1.724-.059 5.574-.761 9.368-5.271 4.416-5.17 5.651-11.097 6.58-15.435l1.037-5.727c.576.069 1.192.115 1.862.131 5.5.116 8.251-2.733 8.292-4.805.027-1.254-.823-2.488-2.013-2.46-.852.024-1.922.591-2.179 1.769-.251 1.156 1.75 2.199.186 3.212-1.111.719-3.103 1.226-5.908.814l.51-2.819c1.041-5.346 2.325-11.922 7.196-12.082.355-.018 1.654.016 1.684.875.009.287-.062.36-.398 1.017-.342.512-.471.948-.455 1.449.047 1.365 1.085 2.262 2.586 2.208 2.01-.065 2.588-2.022 2.555-3.027-.081-2.361-2.57-3.853-5.865-3.745z">

    </path>
</svg>