<svg viewBox="0 0 1024 1024" version="1.1" xmlns="http://www.w3.org/2000/svg"
    fill="currentColor" height="1em" width="1em">
  <path d="M 512 0 C 229.675 0 0 229.675 0 512 C 0 794.325 229.675 1024 512 1024 C 794.325 1024 1024 794.325 1024 512 L 908.8 512 C 908.8 730.795 730.795 908.8 512 908.8 C 293.205 908.8 115.2 730.795 115.2 512 C 115.2 293.205 293.205 115.2 512 115.2 L 512 0 Z M 827.733 110.208 L 507.52 510.037 L 357.888 387.413 L 272.469 491.349 L 474.752 657.237 C 503.686 681.104 546.563 676.626 569.941 647.296 L 932.779 194.304 L 827.733 110.208 Z"/>
</svg>
