<svg viewBox="0 0 1024 1024" xmlns="http://www.w3.org/2000/svg" fill="currentColor" height="1em" width="1em">
    <path d="M133.248 61.44C98.048 70.656 70.4 98.56 61.44 133.76c-2.56 9.856-2.56 14.72-2.56 378.752 0 297.856 0.384 370.048 1.664 375.168l1.664 6.4 212.736 0.384 212.736 0.256V58.88l-172.416 0.128c-166.144 0-172.928 0.128-182.016 2.432zM536.32 251.52V444.16h430.08l-0.256-152.704-0.384-152.576-3.072-8.96c-12.032-35.84-36.992-59.648-71.936-68.48-9.6-2.432-14.848-2.56-182.144-2.56H536.32v192.64zM536.32 693.12V894.72l213.504-0.256 213.376-0.384 1.536-7.04c1.024-5.12 1.408-59.904 1.536-201.344L966.4 491.52H536.32v201.6z"
         ></path>
</svg>
