<svg viewBox="0 0 1024 1024" xmlns="http://www.w3.org/2000/svg" fill="currentColor" height="1em" width="1em">
    <path d="M896.426667 0H128.426667C58.026667 0 0.426667 57.6 0.426667 128v164.608s164.437333 95.573333 174.848 101.546667c13.226667 7.68 29.610667 7.552 42.837333 0 11.093333-6.272 342.186667-196.608 347.136-199.466667a32.725333 32.725333 0 0 1 31.914667-0.426667c6.997333 4.138667 25.856 14.848 35.84 20.48 9.898667 5.717333 9.429333 21.418667 0.554666 26.538667l-414.378666 238.506667c-14.762667 8.533333-29.44 8.704-44.714667 0.085333C148.821333 465.365333 43.008 403.754667 0.426667 378.965333v86.186667l174.848 101.546667c13.226667 7.68 29.610667 7.552 42.837333 0 11.093333-6.272 342.186667-196.650667 347.136-199.509334a32.682667 32.682667 0 0 1 31.914667-0.341333c6.997333 4.096 25.856 14.805333 35.84 20.48 9.898667 5.674667 9.429333 21.333333 0.554666 26.453333-8.874667 5.162667-396.288 228.096-414.378666 238.506667-14.762667 8.533333-29.44 8.746667-44.714667 0.085333C148.821333 637.909333 43.008 576.256 0.426667 551.509333v86.186667l174.848 101.546667c13.226667 7.68 29.610667 7.552 42.837333 0 11.093333-6.272 342.186667-196.650667 347.136-199.509334a32.853333 32.853333 0 0 1 31.914667-0.384c6.997333 4.138667 25.856 14.848 35.84 20.48 9.898667 5.674667 9.429333 21.418667 0.554666 26.538667l-414.378666 238.506667c-14.762667 8.490667-29.44 8.704-44.714667 0.042666C148.821333 810.410667 43.008 748.8 0.426667 724.053333V896c0 70.4 57.6 128 128 128h768c70.4 0 128-57.6 128-128V128c0-70.4-57.6-128-128-128z"></path>
</svg>
