<svg viewBox="0 0 1024 1024" xmlns="http://www.w3.org/2000/svg" fill="currentColor" height="1em" width="1em">
    <path d="M466.538891 768V182.857143q0-8-5.142857-13.142857t-13.142857-5.142857H173.967463q-8 0-13.142857 5.142857t-5.142857 13.142857v585.142857q0 8 5.142857 13.142857t13.142857 5.142857h274.285714q8 0 13.142857-5.142857t5.142857-13.142857z m384-219.428571V182.857143q0-8-5.142857-13.142857t-13.142857-5.142857H557.967463q-8 0-13.142857 5.142857t-5.142857 13.142857v365.714286q0 8 5.142857 13.142857t13.142857 5.142857h274.285714q8 0 13.142857-5.142857t5.142857-13.142857z m91.428572-438.857143v804.571428q0 14.857143-10.857143 25.714286t-25.714286 10.857143H100.824606q-14.857143 0-25.714286-10.857143t-10.857143-25.714286V109.714286q0-14.857143 10.857143-25.714286t25.714286-10.857143h804.571428q14.857143 0 25.714286 10.857143t10.857143 25.714286z"></path>
</svg>
