<svg viewBox="0 0 1024 1024" version="1.1" xmlns="http://www.w3.org/2000/svg"
     fill="currentColor" width="1em" height="1em">
    <path d="M0 512v512h1024V0H0z m825.216-40.789333c26.026667 6.485333 45.824 18.048 64.042667 36.906666 9.429333 10.069333 23.424 28.416 24.533333 32.853334 0.341333 1.28-44.202667 31.146667-71.168 47.914666-0.981333 0.64-4.906667-3.584-9.258667-10.069333-13.226667-19.2-27.008-27.477333-48.128-28.928-31.061333-2.133333-51.029333 14.122667-50.858666 41.258667a37.546667 37.546667 0 0 0 4.352 19.2c6.826667 14.122667 19.541333 22.613333 59.306666 39.808 73.344 31.573333 104.704 52.352 124.202667 81.92 21.76 32.981333 26.666667 85.674667 11.861333 124.842666-16.213333 42.581333-56.533333 71.509333-113.28 81.066667-17.536 3.114667-59.136 2.645333-77.994666-0.768-41.130667-7.338667-80.128-27.648-104.192-54.314667-9.429333-10.368-27.818667-37.546667-26.666667-39.466666a67.413333 67.413333 0 0 1 9.386667-6.016c4.608-2.602667 21.802667-12.544 38.058666-21.973334l29.44-17.066666 6.186667 9.130666c8.618667 13.141333 27.434667 31.189333 38.826667 37.205334 32.682667 17.237333 77.525333 14.805333 99.626666-5.034667a37.674667 37.674667 0 0 0 13.354667-30.72c0-11.861333-1.493333-17.066667-7.68-26.026667-7.936-11.349333-24.192-20.906667-70.357333-40.96-52.821333-22.741333-75.562667-36.864-96.384-59.306666a135.04 135.04 0 0 1-28.117334-51.2c-3.882667-14.464-4.864-50.730667-1.792-65.322667 10.88-51.072 49.408-86.613333 105.002667-97.194667 18.048-3.413333 59.989333-2.133333 77.696 2.261334z m-240.384 42.752l0.341333 41.941333H451.84v378.709333H357.546667v-378.709333H224.341333v-41.130667c0-22.784 0.469333-41.813333 1.109334-42.24 0.512-0.682667 81.621333-1.024 179.925333-0.853333l178.986667 0.512z"></path>
</svg>
