<svg enable-background="new 0 0 2480 2417" viewBox="0 0 2480 2417" xmlns="http://www.w3.org/2000/svg" height="1em" width="1em">
    <path d="m1973.2 1682.9v-274.9l238.3-137.9 268.5-1001.6-1001.7-268.5-238.3 137.9-238.3-137.9-1001.7 268.5 267.5 997.1 1.8 5.5 237.4 137v275.8l733.3 733.1 729.6-729.6zm-733.2-1518.5 818.1 219.1-818.1 472.1-818.1-471.2zm-709.5 1230.8-219.1-819 818.1 472.1v945.1zm820-347 819.1-473-219.1 818.1-599.9 599.9v-945z"/>
    <path d="m1129.5 1483.8v-436.5l-298.6 173.5z" fill="#dce5f4"/>
    <path d="m830.9 1220.8-300.4 174.4 599 598.1v-509.5z" fill="#74a9c6"/>
    <path d="m753.3 831.8 377.1 218.2-299.5 171.7z" fill="#7ca8c7"/>
    <path d="m830.9 1221.7-300.4 172.6-219.1-817.2 441.9 254.8z" fill="#187da5"/>
    <path d="m1351.4 1048.2 376.2-217.3-77.6 389.9z" fill="#5095be"/>
    <path d="m1676.5 1265.6h-.9zm-.9 0h.9l-300.4 263" fill="#fff" stroke="#fff" stroke-miterlimit="10"
          stroke-width=".931"/>
    <path d="m1650.9 1220.8h-.9l77.6-389.9 441.9-254.8-219.1 818.1z" fill="#185e86"/>
    <path d="m1347.7 1047.3v436.5l304.1-262.1z" fill="#c3def4"/>
    <path d="m1650 1219.9-.9-.9-298.6 262.1v510.4l598.1-597.2z" fill="#428eb6"/>
    <path d="m1240 856.5 377.1-217.3-377.1-127.9z" fill="#f7d4c7"/>
    <path d="m1240 510.4v.9l377.1 127.8 441-254.8-818.1-219.9z" fill="#f68b5c"/>
    <path d="m1240.9 855.6-377.1-218.2 377.1-126z" fill="#f8a37a"/>
    <path d="m1240.9 510.4v.9l-377.1 126-441.9-255.6 820-216.4z" fill="#ed5a2a"/>
</svg>
