<svg viewBox="0 0 1024 1024" version="1.1" xmlns="http://www.w3.org/2000/svg"
    fill="currentColor" height="1em" width="1em">
  <path d="M 512 0 C 229.248 0 0 229.248 0 512 C 0 794.752 229.248 1024 512 1024 C 794.752 1024 1024 794.752 1024 512 C 1024 229.248 794.752 0 512 0 Z M 512 78.763 C 750.72 79.061 944.128 272.683 944.128 511.445 C 944.128 750.421 750.421 944.128 511.445 944.128 C 272.469 944.128 78.763 750.421 78.763 511.445 C 78.763 391.979 127.189 283.819 205.483 205.525 C 283.861 127.232 392.107 78.805 511.659 78.805 L 511.957 78.805 L 512 78.763 Z M 512 196.949 C 324.608 229.973 157.525 402.773 157.525 590.763 C 249.216 428.885 310.443 417.237 327.381 417.237 C 344.32 417.237 353.237 426.027 353.237 445.525 L 353.237 686.763 C 353.237 716.757 294.955 711.851 275.669 708.907 C 346.923 814.933 512 827.093 512 827.093 L 590.763 748.331 L 669.525 787.712 C 793.856 730.795 866.432 608.939 866.432 590.805 C 836.523 627.84 796.203 655.445 749.909 669.141 L 748.245 669.568 C 737.792 669.568 708.864 664.192 708.864 649.856 L 708.864 364.288 C 708.864 339.499 766.123 263.851 787.627 236.288 C 645.461 273.536 604.245 338.432 604.245 338.432 C 604.245 338.432 593.451 315.051 551.339 315.051 C 572.715 335.232 587.093 362.581 590.677 393.216 L 590.72 393.813 L 590.72 635.051 C 568.32 650.965 541.909 662.912 513.365 669.227 L 511.915 669.483 C 484.608 669.483 471.296 658.389 471.296 637.483 C 471.296 616.576 472.533 354.432 472.533 354.432 C 472.533 354.432 433.152 368.896 433.152 287.957 C 433.152 247.467 511.915 196.864 511.915 196.864 L 512 196.949 Z"/>
</svg>
