<svg viewBox="0 0 1088 1024" xmlns="http://www.w3.org/2000/svg" fill="currentColor" height="1em" width="1em">
    <path d="M618.8770797 645.67402192c1.63111822 1.63111822 4.85451852 4.07779555 7.30119585 4.07779556h43.0692883c2.44667733 0 5.67007763-2.44667733 7.30119585-4.07779556l11.37899141-12.19455051c1.63111822-1.63111822 2.44667733-3.26223645 2.44667734-4.85451852l12.19455052-41.43817007c0.81555911-4.07779555 0-8.11675497-2.44667734-10.5634323l-8.93231408-7.30119585c-1.63111822-1.63111822-4.85451852-0.81555911-7.30119585-0.81555912h-38.99149273l-2.44667734-2.44667733c-1.63111822 0-3.26223645-0.81555911-4.89335466 0.81555911l-15.45678697 9.74787319c-1.63111822 0-2.44667733 4.07779555-3.26223645 5.67007763l-13.01010963 39.80705185a11.34015525 11.34015525 0 0 0 2.44667733 12.19455052l10.5634323 11.3789914z m6.48563675 214.53088238l-3.26223645 0.81555911h-9.74787318l58.52607526-171.46159408c1.63111822-5.67007763-0.81555911-12.19455052-6.48563675-13.82566874l-3.26223644-0.81555911h-98.33312711a10.44692385 10.44692385 0 0 0-8.11675496 8.11675497l-5.67007764 20.31130547c-1.63111822 5.67007763 2.44667733 10.5634323 8.11675497 12.19455053l2.44667733-0.81555912h14.64122785l-59.34163436 169.83047585c-1.63111822 5.67007763 0.81555911 13.01010963 6.48563673 15.45678697l3.26223645 2.44667733h91.03193126c4.85451852 0 8.93231408-4.07779555 10.56343229-8.93231407l5.67007763-19.49574638a10.25274311 10.25274311 0 0 0-6.48563674-13.82566873z m431.54727822-160.08260267l-15.45678697-20.31130548V678.99543703c-2.44667733-2.44667733-4.85451852-4.85451852-8.11675495-4.85451851h-58.52607527c-3.26223645 0-5.67007763 3.26223645-8.11675496 4.85451851l-16.27234607 19.49574638h-25.20466015l-17.04906905-19.49574638v-0.81555911a10.01972622 10.01972622 0 0 0-8.11675495-4.07779555h-32.505856l164.16039822-164.16039822-183.6561446-182.02502637 164.16039823-169.01491675V85.77327408l-22.75798282-29.24361956h-332.35975585l-26.83577837 28.42806045v23.57354192L538.40858075 15.90704355l-62.56503467 60.93391645-19.49574638-20.31130548H128.02700325l-26.02021925 30.05917866v76.39070341l24.38910103 23.57354193h24.38910105v212.08420503L37.03390815 512.38836148l113.75107793 113.78991407v260.046848l42.25372917 23.57354193h94.25533157l73.94402607-77.20626251 175.53938963 175.53938962 117.82887348-117.82887348c0.81555911 3.26223645 3.26223645 4.07779555 7.30119585 5.67007764l3.26223645-1.63111823h76.3907034c4.89335467 0 8.93231408-0.81555911 9.74787319-4.85451852l5.67007763-16.23350992c1.63111822-5.67007763-0.81555911-10.5634323-6.48563674-12.19455053l-3.26223645 0.81555912h-3.26223644l27.65133748-86.9541357 18.68018726-18.68018727h40.62261096l-40.62261096 129.20786489c-1.63111822 5.67007763 1.63111822 8.93231408 7.30119585 11.37899141l3.26223644-1.63111822h73.94402608c4.07779555 0 8.11675497-0.81555911 9.74787318-4.85451853l6.48563674-14.64122784c2.44667733-5.67007763-0.81555911-10.5634323-5.67007762-13.01010963-0.81555911-0.81555911-2.44667733 0-4.07779555 0h-3.26223645l34.13697422-105.63432296h49.55492503l-41.43817007 129.20786488c-1.63111822 5.67007763 1.63111822 8.93231408 7.30119585 10.5634323l3.26223645-2.44667733h81.28405807c4.07779555 0 8.11675497-0.81555911 9.74787318-4.85451852l6.48563675-16.23350993c2.44667733-5.67007763-0.81555911-10.5634323-6.48563675-12.19455052-0.81555911-0.81555911-2.44667733 0.81555911-4.07779555 0.81555912h-5.67007763l45.51596563-150.33472949a13.39847111 13.39847111 0 0 0-0.81555911-11.37899141zM538.40858075 31.32499437l91.84749036 91.84749038v38.21476977l27.61250134 33.32141511h13.01010963l-235.65774697 227.540992V194.70866963h26.83577837l21.9424237-34.13697422V88.25878755l-1.63111821-2.44667733 56.07939792-54.4482797zM52.45185897 512.38836148l98.33312711-98.33312711v196.66625422L52.45185897 512.38836148z m316.12624592 311.27172741l474.57773036-487.58784 173.90827142 174.72383052-164.16039822 164.16039822h-0.81555912a14.21403022 14.21403022 0 0 0-5.67007763 4.07779555l-17.04906903 19.49574637h-23.57354192l-17.86462816-19.49574637c-1.63111822-2.44667733-4.89335467-4.85451852-8.11675496-4.85451851h-71.49734874a11.26248297 11.26248297 0 0 0-10.5634323 8.11675496l-6.48563674 20.31130548c-1.63111822 5.67007763 0.81555911 10.5634323 6.48563674 13.01010964h12.19455052l-52.00160236 153.59696592-122.72222816 123.53778725-166.60707556-169.01491674z"
         ></path>
</svg>
