<svg xmlns="http://www.w3.org/2000/svg" viewBox="0 0 96 95.51" width="1em" height="1em" aria-label="Visual Studio">
  <path fill="#52218a" d="M13.87,75.4a4,4,0,0,1-4.14.65L2.46,73A4,4,0,0,1,0,69.33V26.67A4,4,0,0,1,2.46,23l7.27-3a4,4,0,0,1,4.14.65L15.5,22A2.21,2.21,0,0,0,12,23.8V72.2A2.21,2.21,0,0,0,15.5,74Z" transform="translate(0 -0.25)"/>
  <path fill="#6c33af" d="M2.46,73A4,4,0,0,1,0,69.33V69a2.31,2.31,0,0,0,4,1.55L66,2A6,6,0,0,1,72.82.84L92.6,10.36A6,6,0,0,1,96,15.77V16a3.79,3.79,0,0,0-6.19-2.93L15.5,74l-1.63,1.4a4,4,0,0,1-4.14.65Z" transform="translate(0 -0.25)"/>
  <path fill="#854cc7" d="M2.46,23A4,4,0,0,0,0,26.67V27a2.31,2.31,0,0,1,4-1.55L66,94a6,6,0,0,0,6.82,1.16L92.6,85.64A6,6,0,0,0,96,80.23V80a3.79,3.79,0,0,1-6.19,2.93L15.5,22l-1.63-1.4A4,4,0,0,0,9.73,20Z" transform="translate(0 -0.25)"/>
  <path fill="#b179f1" d="M72.82,95.16A6,6,0,0,1,66,94a3.52,3.52,0,0,0,6-2.49v-87A3.52,3.52,0,0,0,66,2,6,6,0,0,1,72.82.84L92.6,10.35A6,6,0,0,1,96,15.76V80.24a6,6,0,0,1-3.4,5.41Z" transform="translate(0 -0.25)"/>
</svg>
