<svg viewBox="0 0 1024 1024" version="1.1" xmlns="http://www.w3.org/2000/svg"
    fill="currentColor" height="1em" width="1em">
  <path d="M 512 0 C 288 0 162.859 0 81.579 81.237 C 0.299 162.56 0 288 0 512 C 0 736 0 860.8 81.579 942.08 C 163.2 1023.36 288 1024 512 1024 C 736 1024 861.141 1024 942.421 942.763 C 1023.7 861.44 1024 736 1024 512 C 1024 288 1024 163.2 942.421 81.92 C 860.8 0.64 736 0 512 0 Z M 504.832 128 C 608.61 126.692 708.497 167.448 781.739 240.981 C 931.021 390.825 931.021 633.175 781.739 783.019 C 573.084 992.41 216.003 897.405 138.992 612.009 C 73.668 369.925 254.109 131.199 504.832 128 Z M 322.901 319.829 C 320.88 319.786 318.858 319.843 316.843 320 C 269.137 322.604 241.001 374.666 264.96 416 L 337.536 544 C 377.216 611.499 416 680.619 456.619 749.739 C 468.179 771.767 492.052 784.465 516.779 781.739 C 539.003 780.09 558.77 766.998 568.96 747.179 L 758.699 416 C 766.34 403.444 769.611 388.711 768 374.101 C 759.376 325.595 701.476 304.614 663.78 336.335 C 641.407 355.163 634.64 386.759 647.339 413.099 C 654.614 427.958 658.353 444.298 658.261 460.843 L 658.261 471.339 C 652.374 525.448 605.076 565.427 550.741 562.219 C 515.647 560.843 483.837 541.19 466.901 510.421 C 453.803 488.661 441.301 466.261 428.501 444.16 C 410.581 413.44 393.259 384 375.339 352 C 364.92 332.623 344.895 320.338 322.901 319.829 L 322.901 319.829 Z"/>
</svg>
