<svg viewBox="0 0 1024 1024" xmlns="http://www.w3.org/2000/svg" fill="currentColor" height="1em" width="1em">
    <path d="M512 42.666667c-17.92 0-34.56 9.813333-42.666667 32L421.546667 208.213333c20.48 22.186667 59.733333 26.453333 90.453333 26.453334 30.72 0 69.973333-4.266667 90.88-26.453334L554.666667 74.666667c-7.68-21.333333-24.746667-32-42.666667-32M360.106667 380.16l-61.44 170.666667c45.653333 58.026667 139.093333 67.84 213.333333 67.84 74.24 0 167.68-9.813333 213.333333-67.84l-61.44-170.666667C629.76 419.413333 564.906667 426.666667 512 426.666667c-52.906667 0-117.76-7.253333-151.893333-46.506667m-128 259.84c-34.986667 0-71.68 27.733333-81.493334 61.44l-62.72 218.453333c-9.386667 33.706667 10.24 61.44 45.653334 61.44h757.333333c34.986667 0 54.613333-27.733333 45.226667-61.44l-62.72-218.453333c-9.813333-33.706667-46.506667-61.44-81.493334-61.44h-34.56l14.506667 41.386667c5.12 13.653333 8.533333 30.72 0 42.666666C718.506667 797.866667 603.306667 810.666667 512 810.666667c-91.306667 0-206.506667-12.8-259.84-86.613334-8.533333-11.946667-5.12-29.013333 0-42.666666l14.506667-41.386667h-34.56z"
          fill=""></path>
</svg>
