<svg viewBox="0 0 1024 1024" xmlns="http://www.w3.org/2000/svg" fill="currentColor" height="1em" width="1em">
    <path d="M90.125 90.125v843.75h843.75V90.125H90.125z m628.91015625 101.56640625c50.76562527 0 93.76171875 15.609375 128.91796902 44.9296875l-39.05859402 58.60546848c-31.25390652-21.48046848-60.5390625-35.15625027-89.859375-35.15624946s-44.9296875 13.67578098-44.9296875 31.25390571v1.96875054c0 23.44921902 15.609375 31.25390652 74.21484348 46.86328071 70.31249973 19.54687527 109.37109375 44.9296875 109.37109375 105.46875v1.96875054c0 70.31249973-52.734375 109.37109375-126.94921848 109.37109375-52.734375-1.96874973-105.46875-21.48046848-146.49609375-58.60546929l44.9296875-54.70312473c31.25390652 25.38281223 64.44140625 42.96093777 103.50000027 42.96093777 31.25390652 0 48.83203125-11.70703125 48.83203125-33.18750054v-1.96874973c0-19.54687527-11.70703125-29.28515598-70.31250054-44.9296875-70.31249973-17.57812473-113.2734375-37.125-113.2734375-107.43749973v-1.96875054c0-64.44140625 50.76562527-105.46875 121.078125-105.46875z m-566.40234402 7.8046875h80.08593777l52.734375 203.1328125 60.5390625-203.1328125h58.60546848l58.60546929 203.1328125 52.734375-203.1328125h82.01953098l-99.59765652 349.59374973H431.94921875L375.3125 345.95703098l-58.60546848 203.1328125H252.26562527L152.66796875 199.49609375z m17.57812554 576.17578125h316.40625V828.40625h-316.40625v-52.734375z"
         ></path>
</svg>
