<svg viewBox="0 0 1024 1024" xmlns="http://www.w3.org/2000/svg" fill="currentColor" height="1em" width="1em">
    <path d="M128 512c0 148.032 88.32 275.968 216.416 336.576L161.248 359.776C139.936 406.304 128 457.76 128 512zM771.232 493.12c0-46.24-17.056-78.24-31.648-103.136-19.456-30.816-37.728-56.896-37.728-87.712 0-34.368 26.752-66.368 64.48-66.368 1.696 0 3.328 0.192 4.96 0.288C703.008 175.232 611.968 138.016 512 138.016c-134.144 0-252.192 67.04-320.832 168.576 9.024 0.288 17.504 0.448 24.704 0.448 40.16 0 102.336-4.736 102.336-4.736 20.704-1.184 23.136 28.448 2.464 30.816 0 0-20.8 2.368-43.936 3.552l139.84 405.12 84.032-245.44-59.808-159.648c-20.672-1.184-40.288-3.552-40.288-3.552-20.704-1.184-18.272-32 2.432-30.816 0 0 63.392 4.736 101.12 4.736 40.16 0 102.336-4.736 102.336-4.736 20.704-1.184 23.136 28.448 2.432 30.816 0 0-20.832 2.368-43.936 3.552L703.712 738.656l38.304-124.64C758.592 562.272 771.232 525.12 771.232 493.12zM518.752 544.704l-115.232 326.048c34.4 9.856 70.784 15.232 108.48 15.232 44.704 0 87.616-7.52 127.52-21.184-1.024-1.6-1.984-3.296-2.752-5.152L518.752 544.704zM848.96 332.576c1.664 11.904 2.592 24.672 2.592 38.464 0 37.92-7.296 80.608-29.216 133.952l-117.28 330.272C819.232 770.432 896 649.952 896 512 896 446.976 878.944 385.824 848.96 332.576zM512 0C229.216 0 0 229.216 0 512s229.216 512 512 512 512-229.216 512-512S794.784 0 512 0zM512 960C264.576 960 64 759.424 64 512S264.576 64 512 64s448 200.576 448 448S759.424 960 512 960z"></path>
</svg>
