<svg viewBox="0 0 1024 1024" xmlns="http://www.w3.org/2000/svg" fill="currentColor" height="1em" width="1em">
    <path d="M905.216 424.61866667V342.69866667l-294.912-294.912H118.784v376.832H47.24053333v425.984H118.784v125.61066666h786.432v-125.61066666h70.4512V424.61866667H905.216z m-229.376-218.45333334l70.99733333 70.99733334h-70.99733333V206.16533333zM184.32 113.32266667h425.984v229.376h229.376v81.92H184.32V113.32266667z m-43.14453333 366.45546666h78.09706666l39.86773334 70.4512c3.82293333 6.5536 7.09973333 12.56106667 10.37653333 18.56853334 3.2768-6.00746667 6.5536-12.01493333 10.92266667-18.56853334L320.85333333 479.77813333h78.09706667l-90.65813333 145.27146667 79.73546666 131.61813333 19.11466667-276.8896h70.4512l49.152 139.264c4.36906667 13.65333333 8.73813333 26.2144 12.01493333 37.13706667 3.82293333-11.4688 8.192-23.48373333 12.56106667-37.13706667l51.33653333-139.264h70.4512l18.56853334 297.64266667h-66.08213334l-7.64586666-132.16426667c-0.54613333-7.64586667-1.09226667-15.83786667-1.09226667-24.02986666-1.6384 4.9152-3.82293333 9.8304-5.46133333 15.29173333l-50.7904 139.264h-49.152l-46.42133334-137.07946667c-1.09226667-3.82293333-2.18453333-7.09973333-3.2768-10.37653333-0.54613333 7.09973333-0.54613333 13.65333333-1.09226666 20.20693333l-8.192 128.88746667H322.49173333l-38.77546666-66.62826667c-6.00746667-9.8304-11.4688-18.56853333-16.384-26.76053333-4.36906667 7.64586667-9.28426667 16.384-15.29173334 27.30666667l-36.59093333 66.62826666H137.89866667l91.20426666-150.7328-87.92746666-147.456zM839.68 910.67733333H184.32v-60.07466666h655.36v60.07466666z m51.88266667-132.7104h-180.224V479.77813333h67.1744v236.47573334h113.0496v61.71306666z"
         ></path>
</svg>
