<svg viewBox="0 0 1140 1024" xmlns="http://www.w3.org/2000/svg" fill="currentColor" height="1em" width="1em">
    <path d="M61.99289066 689.39711893h342.88546774V279.99680853H61.99289066v409.4003104z m75.37380694-326.03891306h192.13785386v242.6775168H137.3666976V363.35820587zM715.81346453 279.99680853v409.4003104h342.88546773V279.99680853H715.81346453z m266.93074453 325.31276907H791.76818666V364.08435093h190.9760224v241.22522667zM535.72961066 71.44808747h56.05836054v826.93344h-56.05836054z"
         ></path>
    <path d="M563.75879146 72.90037653m-76.826096 0a76.826096 76.826096 0 1 0 153.65219094 0 76.826096 76.826096 0 1 0-153.65219094 0Z"
         ></path>
    <path d="M563.75879146 915.22808107m-76.826096 0a76.826096 76.826096 0 1 0 153.65219094 0 76.826096 76.826096 0 1 0-153.65219094 0Z"
         ></path>
</svg>
