<svg viewBox="0 0 1130 1024" xmlns="http://www.w3.org/2000/svg" fill="currentColor" height="1em" width="1em">
    <path d="M83.33333333 66.49775088c0 2.24887588 37.33133467 61.61919082 83.20839609 131.7841084L249.75012464 325.56821592V494.2338831h107.94602724V330.0659668l85.45727109-131.33433253C490.37981028 126.76761582 528.61069495 66.49775088 528.61069495 65.14842588c0-1.349325-26.08695615-2.69865088-58.47076494-2.69865088H411.66916507l-29.68515703 45.87706143c-16.1919044 25.63718115-40.02998467 62.96851582-52.62368819 82.75862109l-23.38830615 36.43178379-52.17391318-81.40929522L201.62418821 64.69865088 142.25387327 63.349325C107.62118948 62.89955 83.33333333 63.79910088 83.33333333 66.49775088zM479.13543265 271.59520273C431.00949534 386.73763086 390.52973479 483.43928047 390.07995979 485.68815635c-1.349325 2.69865088 15.74212852 4.04797588 44.07796143 3.148425l45.87706143-1.349325 20.23988027-46.32683643L520.51474231 395.28335849h181.25937071l18.89055439 45.87706143 18.44078027 46.32683643 48.12593643 1.349325c44.07796143 0.89955 47.67616231 0.449775 45.42728643-6.74662676-1.349325-4.49775088-40.92953555-100.29985049-87.25637198-212.74362774L661.29435247 64.69865088 614.06796604 63.349325l-47.22638643-1.349325L479.13543265 271.59520273z m163.71814042-38.68065966c13.94302852 37.78110967 25.18740615 69.71514258 25.18740616 70.61469258 0 0.89955-24.28785615 1.79910088-53.97301319 1.7991s-53.97301318-0.89955-53.97301318-1.7991c0-4.94752588 54.87256406-142.57871104 56.22188906-141.22938516 0.89955 0.89955 13.04347852 32.38380791 26.53673115 70.61469258zM740.00499768 746.10794638v211.39430274h314.84257823v-89.95502285h-215.89205362v-332.83358349h-98.95052461v211.3943036zM245.25237376 748.35682138V957.50224912h89.95502285l0.449775-143.02848603 0.449775-142.57871104 45.42728643 93.10344873 44.97751143 93.55322373h80.05996933l44.52773643-90.85457285 44.07796143-91.30434785 0.449775 140.32983515 0.449775 140.77961016h94.45277372v-418.29085459h-124.13793164l-49.02548731 87.70614698c-26.53673203 48.12593731-49.92503731 86.35682198-51.7241373 85.45727109-1.79910088-1.349325-25.18740615-40.47976055-52.17391318-87.70614698l-48.57571231-85.45727109H245.25237376v209.14542685z"></path>
</svg>
