<!DOCTYPE svg PUBLIC "-//W3C//DTD SVG 20010904//EN" "http://www.w3.org/TR/2001/REC-SVG-20010904/DTD/svg10.dtd">
<svg version="1.0" xmlns="http://www.w3.org/2000/svg" width="441px" height="441px" viewBox="0 0 4410 4410" preserveAspectRatio="xMidYMid meet">
<g id="layer101" fill="#4b8cf4" stroke="none">
 <path d="M1416 3868 c-7 -13 -48 -84 -91 -158 l-76 -134 19 -36 c11 -19 50 -88 87 -152 l67 -118 694 0 694 0 26 -42 c13 -24 52 -90 86 -148 33 -58 84 -145 113 -195 29 -49 62 -106 72 -125 11 -20 53 -92 93 -160 40 -69 113 -195 163 -280 49 -85 136 -235 194 -332 57 -98 108 -189 113 -203 13 -34 32 -31 49 8 8 17 33 64 56 102 24 39 78 133 122 210 44 77 97 168 117 203 l37 63 -23 37 c-13 20 -27 44 -33 53 -11 18 -52 90 -94 164 -15 28 -51 90 -80 138 -28 49 -51 91 -51 93 0 3 -13 24 -28 47 -16 23 -36 58 -46 77 -9 19 -26 49 -37 65 -10 17 -22 38 -25 48 -4 9 -10 17 -14 17 -4 0 -10 8 -13 18 -4 9 -20 40 -37 67 -16 28 -40 68 -51 90 -12 22 -41 73 -65 112 -24 40 -44 76 -44 80 0 3 -6 14 -14 22 -8 9 -33 52 -56 96 -23 44 -69 128 -102 188 l-61 107 -873 0 -874 0 -14 -22z"/>
 <path d="M2250 2897 c-120 -78 -261 -167 -265 -167 -3 0 -38 -22 -78 -50 -41 -27 -86 -55 -101 -61 -14 -7 -26 -15 -26 -19 0 -3 -18 -16 -40 -29 l-39 -22 -3 -372 c-2 -205 0 -376 3 -380 4 -5 105 49 225 121 121 71 262 153 314 184 l95 54 1 392 c1 279 -2 392 -10 392 -6 0 -40 -19 -76 -43z m0 -232 c0 -42 -3 -46 -42 -69 -24 -13 -126 -72 -227 -130 -101 -58 -185 -106 -187 -106 -2 0 -4 20 -4 44 l0 43 228 131 c125 73 228 132 230 132 1 0 2 -20 2 -45z m0 -160 c0 -42 -3 -46 -42 -69 -24 -13 -126 -72 -227 -130 -101 -58 -185 -106 -187 -106 -2 0 -4 20 -4 44 l0 43 228 131 c125 73 228 132 230 132 1 0 2 -20 2 -45z m-7 -206 c-8 -8 -444 -259 -450 -259 -2 0 -3 20 -3 44 l0 43 228 131 227 131 3 -41 c2 -22 0 -44 -5 -49z"/>
 <path d="M680 2598 c-14 -28 -40 -77 -59 -107 -30 -51 -188 -321 -232 -399 -27 -46 -24 -60 24 -143 93 -159 156 -266 174 -299 27 -47 188 -326 308 -535 55 -93 154 -266 220 -383 l122 -213 867 0 c603 0 872 4 881 11 7 6 40 59 74 118 33 59 71 125 85 147 l24 41 -34 54 c-19 30 -58 98 -86 150 -28 52 -52 97 -54 98 -1 2 -315 3 -698 3 l-695 -1 -36 55 c-19 30 -35 60 -35 65 0 6 -4 10 -10 10 -5 0 -10 4 -10 8 0 11 -111 209 -184 330 -31 51 -56 95 -56 98 0 4 -13 26 -30 51 -16 24 -30 46 -30 49 0 2 -11 21 -23 42 -13 20 -35 57 -49 82 -14 25 -76 133 -138 240 -62 107 -121 209 -130 225 -10 17 -31 54 -49 83 -17 29 -31 55 -31 58 0 9 -73 114 -79 114 -3 0 -17 -24 -31 -52z"/>
 <path d="M2635 2544 c-60 -40 -118 -80 -128 -89 -16 -14 -18 -35 -17 -212 1 -151 -1 -198 -12 -208 -7 -7 -80 -52 -163 -100 -82 -48 -158 -95 -167 -103 -16 -13 -18 -36 -18 -192 0 -97 2 -179 6 -182 3 -3 31 11 62 32 31 21 96 60 143 86 47 27 163 95 257 152 l172 103 -2 391 c-2 251 -7 392 -13 393 -5 1 -59 -31 -120 -71z"/>
 </g>

</svg>